<?xml version="1.0" encoding="UTF-8"?>
<svg id="Calque_1" data-name="Calque 1" xmlns="http://www.w3.org/2000/svg" version="1.1" viewBox="0 0 500 500">
  <defs>
    <style>
      .cls-1 {
        fill: #75683b;
        stroke-width: 0px;
      }
    </style>
  </defs>
  <path class="cls-1" d="M181.8,350.8c-5.2-.5-9.9-1.9-14.3-4.3-9.3-4.8-16.6-11.9-22.7-20.3-4.8-6.7-9.8-13.3-13.9-20.5-6.3-11-10-23.1-12.8-35.4-.5-2.1-.7-4.3-1.4-6.4-.4-1.2-1.3-2.4-2.3-3.2-2.8-2.1-5.7-4.1-8.6-6-1.1-.8-2.2-1-2.6.7-2,9.9-7.4,18.2-12.5,26.7-7.1,11.8-17.7,19.9-28.9,27.4-7.4,5-15.6,8.4-24.4,9.9-1.6.3-3.3.2-5.1-.1.6-.3,1.3-.8,1.9-1,8.3-3.2,15.7-7.8,21.5-14.5,5.9-6.8,10.3-14.5,14-22.7,3.6-7.8,6.1-16,7.4-24.5.9-6.1,1.7-12.2,1.6-18.3-.2-10-.6-20.1-4.4-29.6-3-7.4-7.6-13.8-12.3-20.2-7.6-10.4-16.6-19.2-27.8-25.7-7.8-4.5-16.2-7.6-25.2-8.8-3-.4-5.9-.8-9.1-1.2,2.7-1.7,5.6-2.5,8.6-3,9.7-1.5,18.7,1.1,27.8,4,16.4,5.3,29.6,15.2,41.4,27.4,4.8,5,9.3,10.5,14.3,15.3,7.8,7.5,16.9,12.6,27.6,14.8,4.9,1,9.8,2.1,14.7,1.1,3-.6,6-1.8,8.9-2.9,1.5-.5,3-1.3,4.5-2l.5.6c-.4.9-.8,1.8-1.3,2.7-4,7.1-5.8,14.8-6.9,22.8-1.5,11.3-1.5,22.7-1.1,34,.4,10.1,2,20.2,5.7,29.8.2.6.5,1.2,1.1,1.8,0-.7,0-1.4,0-2.1,0-22.1,0-44.2,0-66.4,0-1.9.6-2.8,2.4-3.5,4.7-1.7,9.3-3.6,14-5.4.4-.2.9-.3,1.4-.4v36.5c1-.7,1.7-1.1,2.3-1.7,3-3.1,6-6.2,8.9-9.3,1.2-1.4,2.4-1.6,4-.7,4.7,2.8,9.8,4.9,15.2,6.1,1.5.3,1.4,1.5,1.4,2.6,0,10.3,0,20.7,0,31,0,3,.5,6,1,9,.2,1.3,1,2.6,1.7,3.7.3.5,1,.9,2,1.6,0-1.4,0-2.2,0-3,0-22,0-44,0-65.9,0-2,.6-3,2.5-3.6,4.8-1.7,9.5-3.6,14.2-5.5.2,0,.5-.1,1-.2,0,12-.3,23.8,0,35.6.3,0,.5.1.8.2,2.5-2.5,5.1-4.8,7.4-7.4,4.3-5,4.1-5,10.1-2.3,3.7,1.7,7.6,2.9,11.5,4.2,1.5.5,1.9,1.2,1.9,2.7,0,11.1,0,22.2,0,33.3,0,3.6.7,7.1,2.9,10.2.3.5.7.9,1.3,1.6,2.4-3.1,3.9-6.3,4.1-9.9.3-5.5.3-11.1.4-16.6,0-1.5.4-2.1,2-2.7,4.8-1.7,9.5-3.6,14.1-5.7,2-.9,3.2-.7,4.5.8,2.3,2.6,4.8,5.2,7.1,7.9.5.5.8,1.2,1.2,1.7.2-.1.5-.2.7-.3.2-.7.5-1.3.5-2,0-3.5.2-6.9,0-10.4,0-1.1-.9-2.5-1.8-3.1-5.3-2.9-10.6-5.6-16.1-8.5,1.8-1.6,4-3.4,6.2-5.3,2.2-1.8,4.4-3.6,6.5-5.4,2.2-1.8,2.5-1.8,4.9-.2,3.8,2.6,7.8,5,11.8,7.6,2.8,1.8,6,1.5,9,1.2,3-.2,6-.8,9-1.1,2.7-.3,3-.5,3-3.3,0-7.5,0-15.1,0-22.8,5.5,2.1,10.8,4.1,16,6.3.5.2.9,1.3.9,2,0,4.9,0,9.8,0,14.8,0,3.2.3,3.5,3.6,3.5,4.2,0,8.3,0,12.8,0-.2.9-.4,1.6-.6,2.3-1,2.6-2.1,5-3,7.6-.7,2-1.7,2.9-3.9,2.7-2.3-.2-4.6,0-6.9,0-1.7,0-2.5.6-2.5,2.5,0,7.3,0,14.7,0,22,0,3,.2,6.1.4,9.1,0,.7.2,1.5.6,1.9,2.9,3.4,9.4,6.9,14.8,4.3.8-.4,1.8-1.3,2-2.1,1.6-7,3.3-14,4.6-21,1.9-9.9,1.5-19.9,1.2-29.8-.3-10.4-.9-20.9-4.9-30.8-1-2.5-2.4-4.9-3.5-7.4-.3-.6-.5-1.2-.8-1.8.1-.2.3-.4.4-.6,1.4.5,2.9.9,4.1,1.7,4.5,3,9.6,3.3,14.8,3.3,6,0,11.6-2.1,17.2-3.7,2.9-.8,3.4-.2,2.8,2.7-1.7,8.6-3.5,17.3-5.1,26-.5,2.9-.5,5.8-.8,9.4,2.4-1,4.2-1.9,6.1-2.6,3.3-1.1,5.1-2.8,5.2-6.8.2-6.8,2.1-13.3,4.1-19.8,4.1-13.3,11-24.9,20.3-35.2,9.7-10.8,20.6-19.9,34-25.5,7.3-3,14.9-5.5,22.6-7.3,7.3-1.7,14.8-1.2,21.8,2.3.2,0,.3.3.7.6-2.4.2-4.6.4-6.8.6-12.2,1.5-23.3,5.8-33.4,12.9-13,9.2-22.5,21.4-30.6,34.9-4.7,7.8-7.1,16.2-7.4,25.1-.3,6.6-.8,13.3-.3,19.9,1,13,3.9,25.5,9.8,37.3,4.2,8.3,8.9,16.3,15.6,22.9,5.3,5.3,11.7,8.9,18.6,11.6.8.3,1.5.7,2.3,1,0,.2,0,.5-.1.7-3.2-.5-6.5-.7-9.6-1.5-11.1-2.6-20.5-8.6-29.3-15.5-3.9-3-7.5-6.4-11-9.7-6-5.6-9.7-12.8-13.8-19.7-3.3-5.5-5.8-11.3-7.2-17.6-.3-1.5-1.1-2.2-2.7-1.1-2.8,2-5.7,3.9-8.5,5.8-2.3,1.5-2.4,3.9-3,6.3-3.6,16-8.2,31.7-17.6,45.5-5.8,8.5-11.5,17.2-19.1,24.4-6.7,6.3-14.1,11.4-23.4,13.3-1.4.3-2.8.5-4.3.6,15-10.6,25.7-24.6,33.1-41.2-.1-.1-.3-.3-.4-.4-2.3,1.6-4.6,3.2-7,4.8-2.2,1.5-4.4,3-6.6,4.6-1.6,1.2-3.1,1-4.8,0-4.3-2.7-8.6-5.4-13-7.9-1.1-.6-1.4-1.2-.9-2.3,1.6-2.8,1.5-5.9,1.5-9.1,0-12,0-24,0-36,0-1.7-.3-2.5-2.2-2.8-3.8-.5-7.6-1.2-11.3-2.1-1.9-.5-2,.4-2,1.7,0,4.2,0,8.3,0,12.5,0,7.8,0,15.5,0,23.3,0,3.1.8,5.7,3.1,7.8.3.3.5.6.7.9,0,.2-.1.4-.2.4-3.6,1.3-7.2,2.6-10.8,3.7-.7.2-1.9-.3-2.5-.8-1.2-1-2.3-2.2-3.4-3.4-2-2.2-3.5-2.8-6-1.1-4.2,2.9-8.3,6-12,9.5-2.9,2.8-5,2.8-7.3,0-2.3-2.9-5.1-5.3-7.7-7.8-2.4-2.3-5.4-2.2-8.2-1.4-8,2.2-15.4,6.1-22.3,10.8-.4.3-.8.5-1.2.8-5.5,4.1-4.2,4.1-10,.3-5.7-3.7-11.9-5.8-18.5-7.1-.4,0-.8-.2-1.2-.3-.3-.1-.6-.3-1.1-.6,1-1.2,1.8-2.3,2.7-3.4l-.2-.6c-1.7.4-3.5.5-5.2,1.2-8.2,3.1-16,7-22.8,12.6-1.8,1.5-3.3,1.5-5.2.4-3-1.8-5.9-3.7-9-5.3-1.6-.8-3.5-1.1-5.3-1.5-.5-.1-1.1,0-1.6,0,.2.6.2,1.2.5,1.7,3.4,5.7,6.4,11.7,10.2,17.1,4.9,6.9,10.7,13,17.5,18.1,1.1.9,2.4,1.6,3.6,2.4,0,0,.1.2.3.7ZM179.4,288.1c-.1,0-.2,0-.3,0,0-5.6-.3-11.2.1-16.8.3-4.4-1.8-6.5-5.4-7.8-.7-.3-1.4-.6-2.1-.9-3.3-1.4-5.6-.6-7.1,2.7-.6,1.3-1,2.9-1,4.3,0,7.7.2,15.4.4,23.1,0,1.9.3,4,2.3,5,3.7,2,7.5,3.9,11.3,5.7,1.2.6,1.9.2,1.8-1.3,0-4.6,0-9.3,0-13.9ZM233.3,285c0,0-.1,0-.2,0,0-5.3,0-10.7,0-16,0-1.2-.7-2.9-1.6-3.5-2.3-1.4-4.9-2.5-7.5-3.3-1-.3-2.5.2-3.5.8-2.2,1.5-2.8,3.9-2.7,6.4,0,7.8.2,15.5.4,23.3,0,2.2.8,4.1,2.9,5.2,3.4,1.7,6.8,3.4,10.2,5,1.5.8,2.1.3,2.1-1.4,0-5.5,0-11,0-16.4ZM98,212.6c.2,1.3.3,2,.4,2.7,1.9,7,4.7,13.8,4.7,21.1,0,5,2.2,7.7,6.9,8.9,1.4.3,2.7,1.1,4.3,1.8,0-1.2.2-2,.1-2.7-.7-5-1.1-10.1-2.1-15-2-10.2-1.3-7.8-9-13.3-1.6-1.1-3.2-2.1-5.3-3.4ZM273.1,286.8s0,0-.1,0c.2,2.4.4,4.8.6,7.2.4,5.5,5.7,8.3,10.3,5.6.5-.3,1.1-.6,1.6-1,1.8-1.4,3.4-3,3.2-5.6-.3-3.6-.3-7.3-.6-11,0-.6-.9-1.4-1.5-1.5-3-.5-6-1.1-9-1.2-2.6-.1-4.8,1.2-4.5,4.3.1,1,0,2.1,0,3.1Z"/>
</svg>