<?xml version="1.0" encoding="UTF-8"?>
<svg id="Calque_1" data-name="Calque 1" xmlns="http://www.w3.org/2000/svg" version="1.1" viewBox="0 0 500 500">
  <defs>
    <style>
      .cls-1 {
        fill: #75683b;
        stroke-width: 0px;
      }
    </style>
  </defs>
  <path class="cls-1" d="M256.7,278.6c6.5,0,12.3,0,18.2,0,14,0,27.9-.2,41.9-.3,18.1,0,36.2-.1,54.3-.2,19.3-.1,38.7-.4,58-.3,4.5,0,8.3-.9,12-3.3,11-7.1,22.1-14,33.2-20.9,2.5-1.6,3.7-3.7,3.7-6.7,0-7,.2-14,.4-21,0-2.2-.5-4.1-2.6-4.9-1.2-.5-2.9-.8-4-.3-3.6,1.8-7.1,3.9-10.5,6.2-.9.6-1.6,1.9-1.7,2.9-.1,6.6,0,13.3,0,20.4,1.9-1.2,3.5-2.2,5.8-3.5,0,3.3.1,6.1.1,8.9,0,.3-.4.7-.8.9-6.5,4.2-12.9,8.4-20,12.9-.4-15.4.3-30.3.7-45.9-3.7,1.9-6.8,3.6-10.5,5.5,0-2.9,0-5.4,0-7.9,0-.5.5-1.2,1-1.5,7.4-4.8,14.8-9.5,22.2-14.2.4-.2.8-.4,1.6-.8v13.1c.2.1.4.2.6.3,6.8-4.6,13.6-9.3,20.5-13.9,4.4,5,9.9,8.7,16,11.6,0,.2,0,.4-.1.5-4.3,2.6-4,6.8-4,11,0,12.2,0,24.3,0,36.5,0,2.1.4,4.3.6,6.4.3,3.1,1.8,5.6,4,7.6,1,.8,1.2,1.6.6,2.7-2.1,4.6-5.5,8.2-9.3,11.3-.5.4-1.5.4-2.1.2-4.6-1.8-8-5-10.4-9.2-.9-1.6-1.2-3.4.5-5.1,1.1-1.2,1.8-3.1,2.2-4.8.5-2.3.4-4.7.6-7.6-1.2.6-2,1-2.7,1.5-9,5.2-18,10.3-26.9,15.5-4.3,2.5-8.9,3.6-13.9,3.6-15.4,0-30.8.2-46.2.3-26.2.1-52.4.1-78.6.3-14,0-27.9.3-41.9.4-2.9,0-5.9,0-8.8-.1-.7,0-1.8-.7-2.1-1.3-.7-1.8-1.1-3.8-1.8-6.3Z"/>
  <path class="cls-1" d="M1.9,287c-.1-2-.4-4.1-.4-6.1,0-.6.8-1.3,1.4-1.7,7.7-4.7,15.5-9.4,23.3-14.1,2.4-1.4,3.4-3.5,3.5-6.2,0-8.9.2-17.9.4-26.8,0-.3-.1-.7-.3-1.4-4.6,2.5-9,4.9-13.9,7.5,0-3-.1-5.6,0-8.1,0-.6.9-1.4,1.6-1.8,11.1-7.3,22.2-14.4,33.2-21.7,2.4-1.6,4.6-3.3,7.1-5.2.3.6.5,1.1.8,1.6,1.9,3.4,3.3,7,5.7,10,5.6,7.1,5.8,12.8.2,22.1-.3.4-.6.8-.9,1.3,1.1,1.1,2.1,2.2,3.2,3.2,10.4,9.3,12.6,20.9,8.9,33.6-2.9,10.1-8.3,18.7-18.2,23.9-12.9,6.8-30.5,3.6-39.2-7.5-.6-.7-1.1-1.5-1.8-2.5,3.6-2.2,7.2-4.4,10.9-6.6.5.7,1.1,1.4,1.7,2.1,7.7,9.7,21.4,10.7,29.6,2.2,3.4-3.5,4.7-8,5.2-12.7.9-9.2-.3-18-4.3-26.3-.9-1.8-1.7-2.1-3.4-1.1-2.9,1.7-5.9,3.2-9.1,4.9,0-2.9-.1-5.5,0-8,0-.7,1-1.4,1.8-1.8,4.6-2.5,7.8-6,8.4-11.4.4-3.8-1.6-8.2-4.7-10-3.1-1.8-7.6.7-7.7,4.2-.2,13.6-.4,27.2-.4,40.8,0,3.6-1.3,6-4.5,7.8-8.9,4.9-17.6,10.1-26.5,15.1-1.2.7-2.7.8-4.1.8-2.4.1-4.8,0-7.4,0Z"/>
  <path class="cls-1" d="M73.2,286.4c0-.6,0-.6,0-.7,2.6-7,2.6-7,10-7,22.4-.2,44.8-.4,67.2-.6,10.2,0,20.3,0,30.5,0,1.2,0,2.6-.4,3.6-1,7.8-4.7,15.6-9.6,23.4-14.3,1.9-1.1,2.8-2.7,2.8-4.9.2-9.1.4-18.2.6-27.2,0-.5-.2-1.1-.3-2-4.6,2.4-9.1,4.8-13.7,7.2-.1-2.7-.4-5.1-.3-7.5,0-.7.8-1.6,1.5-2.1,11.7-7.7,23.5-15.3,35.2-23,1.8-1.2,3.5-2.5,5.3-3.9,3.2,8.1,7,15.7,16.2,18.5-1.8,3.2-5.8,4.8-9.6,4.3-3.8-.5-7.1-2-10.1-4.3-3.4-2.7-4.1-2.7-7.8-.4-1.2.7-1.6,1.6-1.6,2.9-.2,14.1-.4,28.2-.6,42.3,0,2.6-1,4.4-3.2,5.7-9.6,5.4-19.2,10.8-28.9,15.9-2.3,1.2-5.4,1.6-8.1,1.6-21.6.2-43.2.1-64.9.3-14.6,0-29.2.3-43.8.5-1.1,0-2.3,0-3.5,0Z"/>
  <path class="cls-1" d="M116,267.2c-1.7,3.7-4.2,6.3-7.3,8.3-1.1.7-2.1.9-3.1,0-2.9-2.5-5.8-5-8.4-7.4-1.7,2.1-3.5,4.6-5.7,6.6-3.1,2.9-3.5,2.9-6.8.2-2.1-1.7-3.9-3.8-5.7-5.8-.9-1-.8-1.9.5-2.6,2.9-1.5,3.8-3.9,3.7-7.1-.3-9.8-.4-19.6-.5-29.4,0-3.8-1.6-6.4-4.9-8.2-2.5-1.4-2.6-2.2-.4-3.8,5.5-4.1,11.4-7.6,18.3-9,.8-.2,1.7-.2,3.1-.4-1.4,1.9-2.4,3.4-3.5,4.8-2.2,2.7-3.2,5.6-3.1,9.1.2,11.7.3,23.5.3,35.2,0,3.4,1.4,6,4,7.8.5.4,1.6.4,2.2,0,2.6-1.5,3.9-3.7,3.8-6.9-.3-4.8,0-9.6-.4-14.4-.1-1.8-1-3.7-1.8-5.3-.6-1.1-.9-1.9,0-2.8,2.1-2.3,4.1-4.5,6.3-6.7.4-.4,1.7-.3,2.1,0,1.7,1.7,3.2,3.6,4.8,5.5.9,1,.8,2,0,3.3-.9,1.6-1.7,3.4-1.7,5.1-.1,5.1.2,10.3.3,15.4,0,2,.9,3.6,2.5,4.8.8.6,1.6,1.4,2.5,2.2,2.6-1.3,4.3-3,4.1-6.4-.3-4.7.1-9.4-.2-14.1-.1-2.2-1-4.4-1.9-6.4-.5-1.1-.8-2,0-2.9,2.1-2.2,4.1-4.3,6.2-6.5.8-.8,1.5-.7,2.4.2,1.2,1.1,2.4,2.2,3.8,3.1,3.3,2.3,6.5,2.1,9.7-.3,1.3-.9,2.4-2,3.6-3.1,1.1-1,2.1-1.3,3.2,0,.8,1.1,1.9,2,2.8,3,1.8,2.1,2.7,4,.8,6.8-1.1,1.6-1,4.1-1,6.2,0,3.9.3,7.7.2,11.6,0,3,1.1,5.3,3.4,7,1.2.9,1.2,1.6.6,2.8-1.7,3.5-4,6.3-7.4,8.1-.7.4-2,.5-2.5.1-2.7-2.3-5.3-4.7-7.9-7.1-1.2-1.1-.7-2.4.6-3,3.2-1.4,3.7-3.9,3.5-7.1-.2-4.1,0-8.3,0-12.4,0-2.6-.8-4-3.4-4.3-1.7-.2-3.6,0-5.2.5-.9.3-1.9,1.9-2,2.9,0,5,0,10,.4,15,.2,1.6,1.6,3.3,3,4.5,1.4,1.2,1.5,2.1.6,3.6-1.7,3.1-3.9,5.8-7.1,7.6-1,.6-2,.9-2.9,0-2.4-2.2-4.8-4.4-7.2-6.6-.4-.4-.7-1-1.3-1.7Z"/>
  <path class="cls-1" d="M344.9,234.5c1.9-1.5,3.8-2.9,5.7-4.3,1.3-1,2.3-1,3.4.4,5.8,6.6,6.2,11.3,1,18.6-1.5,2.1-3.5,3.9-5.6,5.7.4-5.9.5-11.5-4.4-16.5-.6,1.5-1.3,2.6-1.3,3.7,0,5.7-.1,11.4.1,17.1.2,3.3,2,4.8,5.3,4.9.9,0,1.8,0,3.6,0-1.2,2-1.9,3.7-3,5-2.7,3.2-6.3,5.1-10.2,6.5-.8.3-2.2,0-2.9-.7-2.5-2-4.8-4.2-7-6.3-2,1.7-4,3.6-6.1,5.4-.9.8-1.8.9-2.9.2-.9-.6-2-.9-2.8-1.5-3.2-2.3-6.1-1.4-8.8.8-1.5,1.3-2.5,1-3.9,0-5.6-4-8.3-10-11.1-16-1.9-4.2-1.6-8.1.5-12.1,2.5-4.8,5.3-9.3,9.8-12.5,4.1-2.8,8.3-2.7,12.6-.7,3,1.4,6.1,2.3,9.5,1.9.6,0,1.3.3,1.9.4,0,.4,0,.6,0,.7-2.6,2.7-3.1,5.9-2.9,9.5.2,4.4.2,8.7.2,13.1,0,2.9.8,5.5,3.1,7.5.4.4,1.3.6,1.8.4,2.2-1.2,3.7-2.9,3.6-5.6,0-5.2,0-10.4-.2-15.6,0-1.7-.9-3.6-1.8-5.1-.8-1.3-1-2.1,0-3.2,1.9-2.1,3.7-4.1,5.6-6.1,1.1-1.1,2.1-1.2,3.2.1,1.2,1.5,2.6,2.8,3.9,4.3ZM315.3,254.5s0,0,0,0c0-1.5,0-3,0-4.5,0-1.5,0-3-.4-4.5-.9-3.7-4.9-5.5-7.8-3.8-3.1,1.8-4.6,6-3.1,9.3,1.6,3.5,3.3,7,5,10.5.3.7.7,1.6,1.3,1.9,1.1.5,2.5,1.1,3.4.8.8-.3,1.5-1.8,1.6-2.8.2-2.3,0-4.6,0-6.9Z"/>
  <path class="cls-1" d="M263.5,295.5c-6.5.5-11.5-2.1-15.4-7-2.9,2.2-5.6,4.6-8.7,6.3-13.3,7.1-28.6,4.6-39-6.1-3.2-3.3-3-3.5.9-5.8,2.5-1.5,4.9-2.9,7.1-4.2,2.6,2.3,4.9,4.8,7.6,6.7,6.3,4.4,16.1,3.9,22.1-1,2.5-2.1,4.2-4.7,4.4-8.1.3-8.3.4-16.6.5-24.9,0-.2-.1-.4-.3-1.1-4.6,2.4-9,4.8-14,7.5,0-3.1,0-5.6,0-8.2,0-.5.5-1,.9-1.3,8.1-5.3,16.2-10.5,24.3-15.7.2-.1.5-.2,1.1-.4,0,3.4,0,6.6,0,9.9,0,11.7-.3,23.4-.2,35.2,0,6.5,3.1,11.8,7.6,16.3.4.5.9.9,1.3,1.4,0,0,0,.1,0,.4Z"/>
  <path class="cls-1" d="M155.7,203.9c4,.2,7.6.3,11.3.6.6,0,1.4,1,1.6,1.7,5.9,15.8,11.8,31.6,17.6,47.3.9,2.3.8,4.5-.8,6.4-3.7,4.4-7.5,8.8-11.2,13.2-1.6,1.9-3.4,2.3-5.7,1.1-2.9-1.6-5.9-2.9-8.7-4.6-2.6-1.7-3.8-4.3-3.9-7.5,0-6.6-.2-13.3-.2-19.9,0-2.8,1.1-4.9,3.8-6.1,1.8-.8,3.6-1.9,5.4-2.6,1.4-.6,1.6-1.2,1.1-2.6-3.3-8.3-6.5-16.6-9.7-25-.2-.5-.4-1.1-.7-2.1ZM165.1,249.3c0,0,.1,0,.2,0,0,2.2,0,4.4,0,6.6,0,3.8,2.7,7.1,6.3,8,.5.1,1.2,0,1.6-.2,2.2-1.2,3.9-5.6,3-8-1.7-4.7-3.5-9.3-5.4-14-.6-1.4-1.5-2.5-3.3-2.1-1.8.4-2.6,1.7-2.5,3.5,0,2.1,0,4.1,0,6.2Z"/>
  <path class="cls-1" d="M359.7,203.1c3.9.2,7.4.3,10.9.7.7,0,1.6.9,1.9,1.6,6,16,11.9,31.9,17.9,47.9.7,1.8.6,3.5-.5,5.1-3.7,5.5-7.7,10.7-12.9,14.8-.8.6-2.4,1-3.2.6-3.3-1.4-6.6-3-9.8-4.8-2.9-1.7-4.1-4.4-4.1-7.8,0-6.7,0-13.4,0-20.1,0-2.6.7-4.7,3.6-5.6,1.9-.6,3.6-1.8,5.4-2.6,1.5-.7,1.7-1.4,1.1-3-3.3-8.3-6.4-16.6-9.6-25-.2-.4-.3-.9-.6-1.8ZM369,248.1s0,0-.1,0c.2,2.9.2,5.8.6,8.7.3,3.1,3.6,6.2,6.6,6.5.3,0,.7,0,1-.2,1.9-1,4-5.5,3.2-7.5-1.8-5-3.7-10-5.6-15-.6-1.4-1.7-2.1-3.3-1.8-1.5.3-2.4,1.2-2.4,2.8,0,2.1,0,4.3,0,6.4Z"/>
  <path class="cls-1" d="M280.8,253.1c0-2.6.2-5.3,0-7.9-.2-1.8-1.3-3.6-1.8-5.4-.2-.8-.6-2-.2-2.4,2-2.4,4.1-4.7,6.3-7,.7-.8,1.6-.9,2.4,0,1.6,2,3.4,3.9,4.8,6,.4.6.2,2.2-.3,2.9-1.2,1.9-1.6,3.9-1.6,6.1,0,4.1,0,8.2,0,12.2,0,3.4.6,6.3,4.5,7.3.3,0,.8,1,.7,1.4-1.3,4.7-4.6,7.6-8.6,9.9-.4.2-1.2-.1-1.7-.4-1.3-.7-2.5-1.5-3.7-2.1-4.4-2.4-8.4-2-12.4,1.1-3.8,3-3.9,3-7.6-.2-1.6-1.3-2.8-3-4.2-4.5-1-1.1-.9-2.1.4-2.8,3-1.6,3.8-4.1,3.6-7.3-.2-4.3.2-8.7-.1-13.1-.1-2.2-1.3-4.2-1.9-6.4-.2-.8-.6-2-.2-2.5,1.9-2.4,4.1-4.6,6.2-6.8,1-1,2-.9,2.9.2,1.4,1.9,3,3.6,4.4,5.6.4.6.3,1.7,0,2.5-.5,1.9-1.6,3.7-1.7,5.6-.2,4.9,0,9.7,0,14.6.1,3.7,1.7,5.5,4.7,5.8,3.1.4,5.1-1.3,5.2-4.5,0-2.6,0-5.3,0-7.9,0,0-.2,0-.3,0Z"/>
  <path class="cls-1" d="M441.3,266.6c-2.6,2.5-5,4.7-7.4,6.9-.9.8-1.9.9-2.9.1-.4-.3-.9-.4-1.3-.7-3.6-2.7-7.2-2.9-10.6.4-.9.9-1.8.7-2.9,0-4.6-3-7.4-7.4-9.9-12.2,0-.2-.2-.4-.3-.6-1.3-3.8-4.1-7.4-2.5-11.8,2.5-7,5.9-13.4,12.8-17.1,3.2-1.8,6.5-1.8,9.9-.4,3.6,1.5,7.1,3.1,11.1,2.3.2,0,.6.1.8.2.2.1.4.3.8.7-4.6,4.4-2.6,10.1-3,15.4-.1,1.5.2,3,.1,4.5-.2,4.7.4,9,5.1,12.3ZM425.9,253c-.1-1.9-.2-4.6-.6-7.3-.2-1.3-.8-2.6-1.7-3.6-1.8-2.1-4.3-2.3-6.6-.9-2.8,1.8-4.3,5.5-3.2,8.1,1.9,4.2,3.9,8.4,6,12.5.7,1.4,1.8,2.3,3.5,1.9,1.7-.4,2.4-1.6,2.5-3.3,0-2.2,0-4.4,0-7.5Z"/>
  <path class="cls-1" d="M403.8,236.9c-.2.4-.5.8-.7,1.4-.6,1.9-1.4,3.9-1.5,5.9-.2,4.1,0,8.3,0,12.4,0,3.2.7,6,3.5,7.9,1.3.9,1.3,1.9.6,3.3-1.7,3.5-4.2,6.1-7.5,8-.6.3-1.8.3-2.3,0-2.7-2.2-5.2-4.6-7.7-7-1.1-1.1-1-2.2.5-2.9,3.1-1.5,3.7-4.1,3.6-7.3-.2-4.6.1-9.2-.2-13.7-.1-1.8-1-3.7-1.9-5.3-.6-1.1-1-2.1-.1-3.1,2.1-2.3,4.3-4.6,6.5-6.8.3-.3,1.4-.4,1.7-.1,2,2.3,3.8,4.6,5.7,7,0,0,0,.3.1.6Z"/>
  <path class="cls-1" d="M120.7,214.6c-.6.5-1.4,1.1-2.2,1.7-3.2,2.2-6.3,4.5-9.5,6.6-1.6,1-3.4,1.8-5.2,2.5-.9.3-2,0-3.1,0,.1-1,0-2.1.3-3,2.3-5.2,5.1-10.1,9.1-14.2,1.6-1.7,3.4-3.3,5-4.9,1.9,3.9,3.7,7.5,5.5,11.3Z"/>
  <path class="cls-1" d="M405,203.4c1.5,3.4,3,6.5,4.4,9.8.2.5.2,1.6-.2,2-4.5,4.1-9.5,7.5-15.3,9.6-1,.3-2.1.1-3.2.2,0-1.1,0-2.3.3-3.3,2.2-5.8,8.9-14.2,14.1-18.2Z"/>
  <path class="cls-1" d="M211.9,277.6c9.6-.3,19-.7,28.4-1-1.1,5.4-6.9,9.6-13.5,10-6.7.4-13.2-3.4-15-9Z"/>
  <path class="cls-1" d="M23.1,244.4c-.5,4.4-1,8.6-1.3,12.9-.1,2,.3,4.1.7,6.1.2,1.2.2,1.9-1.1,2.6-3.2,1.7-6.3,3.6-10,5.6,0-2,0-3.5,0-5,.3-6.2,1.3-12.2,4.9-17.5,1.7-2.4,3.8-4.3,6.7-4.7Z"/>
  <path class="cls-1" d="M204.4,242.3c-.5,4-1.1,7.9-1.3,11.9-.1,2.5.5,4.9.7,7.4,0,.6,0,1.6-.3,1.9-3.4,2-6.9,4-10.7,6.1-.2-8.8.6-16.8,5.9-23.7,1.5-1.9,3.5-3.2,5.8-3.6Z"/>
  <path class="cls-1" d="M30.7,279.7c9.5-.4,18.7-.7,28-1-.2,4.5-5.6,8.9-11.5,9.7-7.4,1-14.3-2.5-16.5-8.6Z"/>
  <path class="cls-1" d="M454.5,295.6c-2-3-3.9-5.9-5.9-9.1,5.9-4.5,11.6-9.4,19.1-12.8-1.6,9.4-6.9,16-13.1,21.9Z"/>
</svg>