<?xml version="1.0" encoding="UTF-8"?>
<svg id="Calque_1" data-name="Calque 1" xmlns="http://www.w3.org/2000/svg" version="1.1" xmlns:xlink="http://www.w3.org/1999/xlink" viewBox="0 0 500 500">
  <defs>
    <style>
      .cls-1 {
        fill: #75683b;
        stroke-width: 0px;
      }
    </style>
  </defs>
  <image width="710" height="410" transform="translate(-7942 -7992)" xlink:href="Borknagar-1.png"/>
  <path class="cls-1" d="M221.3,288.8c-.6.8-1,1.3-1.3,1.9-2.3,4.2-5.6,7.7-8.8,11.2-2.9,3.2-5.9,6.3-8.8,9.4-1.3,1.4-2.5,2.9-3.8,4.2-.4.4-1.4.7-1.9.5-.5-.2-.9-1-1.1-1.6-.1-.3.2-.8.2-1.3,0-1.1-.2-2.2-.4-3.3-.2-1.1-.5-2.2-.7-3.3-.8-5-2.3-9.7-4.2-14.4-1-2.5-1.4-5.2-2.5-7.6-2.4-5.2-4.9-10.4-7.6-15.5-1.3-2.6-3-4.9-4.4-7.4-.3-.5,0-1.4,0-2.1.6.3,1.4.5,1.7.9,3,5,6,10,8.9,15,.9,1.6,1.7,3.2,2.6,4.8,3.2,6.1,5.5,12.5,7.4,19.1.7,2.5,1.6,5,2.4,7.5,0,.2.2.4.5.9.7-.6,1.3-1.1,2-1.6.6-.5,1.2-.9,1.8-1.4,4.9-4.3,10-8.4,13.8-13.8.8-1,1.7-2,2.5-3,.5-.7.7-1.4.1-2.1-1.6-1.9-3.1-3.9-4.9-5.6-1.9-2-4.1-3.7-6.2-5.6-1.1-1-2.4-1.8-3.5-2.8-.5-.4-.5-1.3-.8-1.9.6,0,1.4-.2,1.9.1,1.7,1,3.4,1.7,5.4,1.4.3,0,.6-.1,1.2-.3-.4-.9-.6-1.8-1.1-2.5-2.4-3.8-3.6-8.1-4.7-12.4-.9-3.6-1.9-7.1-2.5-10.7-.5-2.5-.5-5.1-.6-7.7-.1-2.3-.2-4.6-.2-6.9,0-.9-.3-1.1-1.2-1.1-2.8,0-5.5,0-8.3,0-2.2,0-4.5.1-6.7,0-1.1-.1-1.3.4-1.5,1.1-1,2.7-1.9,5.5-3,8.2-.8,1.9-1.7,3.8-2.7,5.7-.9,1.8-1.8,3.6-2.7,5.4,0,0,0,.2-.1.2-2.3,1.3-2.6,4-4.3,5.8-.8.8-1.1,2-1.6,3-1.5,3-3.1,5.9-4.6,8.8-.3.6-.8,1.1-1.1,1.7-.4.7-1.1,1.2-1.7.6-.3-.3-.3-1.3,0-1.8.7-1.4,1.8-2.5,2.3-4,1-2.9,2.2-5.8,2-9.1-.2-2.6-1.9-3.9-3.2-5.7-1.5-2.3-3.3-4.4-4.9-6.6-.9-1.2-1.8-2.5-2.9-3.6-2.1-2.3-4.3-4.5-6.5-6.7-.3-.3-.8-.5-1-.7-1.4,3.7-2.4,7.5-4.2,11-1.7,3.4-4.2,6.4-6.5,9.8,4.6.2,8.4-1.2,12.3-2.3,1.3-.4,2.6-1,4-1.3.5-.1,1.2.2,1.8.4-.4.5-.6,1.2-1.1,1.4-2.5,1.2-5,2.1-7.5,3.3-3.1,1.5-5.4,3.8-6.3,7.2,0,.4-.2.8-.5,1-.3.3-.8.6-1.1.5-.3,0-.7-.6-.7-.9,0-.6,0-1.1,0-1.7,0-.5,0-1.1-.2-1.3-1.2-1.1-2.5-2.1-3.9-3-2.2-1.3-4.4-.4-6.6.3-2.3.7-4.4,1.6-6.1,3.3-.1.1-.3.3-.5.3-.6,0-1.2,0-1.8-.1.2-.5.2-1.3.6-1.6,1.2-1,2.5-1.9,3.8-2.9,2-1.5,3.9-3.2,6-4.4,2.1-1.3,3.5-3.2,4.9-5,1.6-2,3-4.2,3.9-6.7.9-2.6,2-5.1,2.9-7.6.2-.5.3-1.3,0-1.7-.1-.3-1-.1-1.6-.2-.9,0-1.9.2-2.8,0-1.2-.4-1.4.1-1.5,1.2,0,1.3-.1,2.6-.5,3.8-.4,1.5-1,3.1-1.8,4.3-1.5,2.1-3.2,4.1-5,6.1-.6.6-1.5,1-2.2,1.5-.6.4-1,.9-1.6,1.3-3.1,2.2-6.3,4.2-9.1,6.7-1.7,1.5-3.8,2.9-4.6,5.3-.5,1.6-1,1.6-2.3.6-1-.8-2.3-1.1-3.4-1.7-1.8-1.1-3.6-2.2-5.2-3.5-2.6-2.1-5.1-4.4-7.4-6.8-2.4-2.5-4.2-5.6-5.7-8.7-1.2-2.5-2.7-5-3-7.9,0-.3-.2-.7-.1-1,.2-2.1-.4-2.1-2-2.3-2.7-.3-5.3-.6-8-.8-4.3-.3-8.7-.5-13.1-.8-.5,0-1-.2-1.6-.2-.8,0-1.6,0-2.4,0,0,.2-.2.4-.2.6.9.8,1.7,1.6,2.6,2.4.8.6,1.7,1.1,2.4,1.8,2,2.1,4.4,3.6,6.8,5.2,1.5,1,2.9,2.3,4.5,3.1,2.9,1.6,6,2.9,9,4.4,2.8,1.5,5.6,3.1,8.6,4.8-1,.9-2,2.1-3.3,2.9-5,3.4-8.9,8-13.4,12-3.7,3.2-6.8,7-9.7,10.9-1.8,2.4-3.8,4.7-5.4,7.2-1.3,2-2.4,4.2-3.3,6.5-1,2.4-1.7,5-2.7,7.4-1.9,5-2.9,10.1-3.1,15.5-.3,6.9.9,13.6,3,20.2.2.6.6,1.2.8,1.9,0,.5-.2,1-.3,1.5-.5-.2-1.2-.3-1.4-.7-.5-1.1-.9-2.2-1.3-3.4-1.2-3.8-2.6-7.6-3.3-11.4-.8-3.9-.9-8-1.3-12-.2-1.8-1-3.3-2.6-4.4-1.5-1-2.7-2.6-4.2-3.3-2.4-1.2-4.9-2-7.5-2.8-2.8-.9-5.7-.3-8.5.2-2.6.4-5.1,1.2-7.6,1.9-.6.2-1.3.5-1.7,1-2.5,3.2-4.9,6.4-7.4,9.7-.3.4-.6.9-.9,1.1-.5.2-1.1.3-1.6.4,0-.6-.3-1.2,0-1.7.8-1.6,1.8-3.2,2.7-4.8,1.2-2.1,1-4.4,1.2-6.6.4-4.5-1.4-8.4-4.1-11.9-.1-.2-.3-.3-.4-.4,0-.6,0-1.1-.1-1.7.5.2,1.3.1,1.6.5,3,3.1,5.8,6.4,7.4,10.5.2.4.5.8.9,1.5.7-1.2,1.3-2.1,1.8-3,1.9-3.3,3.9-6.6,5.5-10.1,1.8-3.7,3.4-7.5,4.6-11.4,1.5-5,2.5-10.2,3.7-15.4.6-2.9,1.1-5.8,1.6-8.7.1-.7.5-1.3.7-1.9.1-.4.4-.9.2-1.2-.7-1.3.3-3-1.1-4.1-.1-.1-.1-.4-.1-.7-.1-.8-.1-1.6-.4-2.3-.7-2-1.4-4-2.3-5.9-.9-1.7-2.1-3.3-3.1-4.9-1.7-2.6-4.2-2.9-6.9-2.5-.6,0-1.2.3-1.7.1-.6-.2-1-.7-1.5-1,.5-.3,1-1,1.5-1,1.9,0,3.7-.2,5.2-1.4,1.7-1.4,3.5-2.6,4.9-4.2,1.4-1.7,2.4-3.7,3.5-5.6,1.2-2,.9-4.1.3-6.1-1.3-4.5-2.7-8.9-4.3-13.3-1.1-2.8-2.8-5.3-4.2-8-.3-.7-.6-1.4-1-2-1.6-2.5-3.7-4.5-5.9-6.3-1.2-.9-1.9-.4-2.6.6-.9,1.3-1.8,2.6-2.8,3.9-.4.6-1,1.1-1.6,1.4-.6.3-1.3.2-1.9.3.2-.6.3-1.3.7-1.8,3.1-3.4,5.4-7,6-11.7.7-4.9-.3-9.5-2.2-14-.5-1.1-1.5-1.9-2-2.9-.3-.5-.2-1.2-.3-1.8.6.1,1.4,0,1.8.4,1.8,1.8,3.4,3.8,5.1,5.6.6.6,1.3,1,1.8,1.7,1.5,1.8,2.8,3.8,4.4,5.5,3.3,3.7,5.2,8.3,7.3,12.6,2.2,4.6,4.6,9,6,13.9.3,1.1.6,2.1,1,3.2.2,0,.4,0,.6,0,.2-1.1.4-2.2.5-3.2.1-1.7,0-3.3.2-5,.1-1.5.6-3,.6-4.5.2-3.5.3-7,.4-10.5,0-4.1.2-8.3,0-12.4-.2-4.2-.6-8.3-.9-12.5-.1-1.5-.1-3.1,0-4.6,0-.6.7-1.1,1-1.6.3.6.9,1.2,1,1.8.5,5.1.7,10.3,1.6,15.3.6,3.6,2.2,7,3.5,10.4.9,2.4,1.9,4.7,3,7,1.1,2.2,2.3,4.4,3.5,6.5.3.6.8.9,1.6.2,1.6-1.4,3.2-2.7,5-3.8,7.5-4.2,15.5-7,23.7-9.2,4.6-1.2,9.1-2.4,13.7-3.1,4.4-.7,8.9-.9,13.3-1.4,4.3-.4,8.7-.7,12.9-1.4,4.7-.8,9.5-1.9,14.1-3.3,2.6-.8,5.2-2.3,7.4-4,2.3-1.8,2.2-3.8,0-5.7-5.8-4.8-11.9-8.9-19.6-9.7-1.4-.2-2.9.1-4.3,0-.7,0-1.8-.3-1.9-.7-.2-1.1.8-1.1,1.6-1.1,6.2-.3,12,.8,17.5,3.9,5,2.9,9.8,6.2,14.3,10,2.5,2.1,5.3,3.8,7.9,5.7,1,.8,1.9,1.7,3,2.5.5.4,1.1.6,1.9,1.1.2-1.5.2-2.6.5-3.8.6-2.4,1.1-4.9,2-7.2,1.2-3.2,2.9-6.1,4.3-9.3,1.9-4.3,5.2-7.6,7.8-11.5,2.7-4.2,5.6-8.3,8.4-12.4.3-.5.6-1.1,1.1-1.5.4-.2,1-.1,1.6-.1,0,.5.1,1,0,1.4-1,1.8-2,3.5-3,5.2-1.9,3-2.6,6.4-3.2,9.9-.8,4.9,0,9.6,1,14.3.7,3.8,2.5,7.4,4,11.5,1.7-2.7,3.1-4.9,4.5-7.3,1.4-2.3,2.9-4.6,4-7,1.3-2.9,2.3-5.9,3.4-8.9.3-.8.2-2.3,1.6-2,1.2.3.7,1.5.5,2.5-.7,4.5-1.6,9-2,13.5-.4,3.8-.6,7.8-.2,11.6.3,3.4,1.5,6.7,2.3,10.1.2,1,.6,2,.8,2.8,2.8-.5,5.4-.7,7.8-1.4,3.2-1,6.8-1.6,8.7-5,.7-1.3,1.3-2.8,2-4.1.5-.8,1-2.2,2.2-1.5,1.2.8-.1,1.6-.5,2.4-.8,1.8-1.7,3.7-2.1,5.6-.8,3.8-.5,7.6,1.5,11,1.6,2.9,3.7,5.5,5.4,8.3,1.4,2.2,2.8,4.5,3.8,6.9,1.7,3.8,3.4,7.6,4.4,11.6.8,3.4,2.7,5.8,4.9,8.2.8.9,1.5,2,2.1,3,.6.5,1.4.9,1.9,1.6.9,1,1.6,2.2,2.4,3.2.3.3.7.5,1.3.8.1-1.3.4-2.3.4-3.3,0-2.4-.2-4.8-.2-7.2,0-3.7.3-7.5.3-11.2,0-4-.4-8.1,0-12,.4-4.6-1.7-8.1-3.4-12-1.5-3.5-3-7.1-4.5-10.6-.1-.3-.3-.6-.3-.8,0-.5.3-.9.4-1.4.4.2,1.1.3,1.3.7.6,1,1,2.1,1.4,3.1,1.5,3.7,2.9,7.3,4.4,11,.2.4.4.7,1,1.1.1-.5.4-.9.3-1.4-.2-3.5-.6-7.1-.7-10.6,0-3.7.2-7.5.3-11.2,0-.7.2-1.8,1.3-1.5.4.1.9,1.1.9,1.7,0,5.9-.2,11.8-.3,17.8,0,1.8,0,3.7,0,5.6.2-.2.5-.2.5-.4,1.9-4.5,3.8-9,5.7-13.5.1-.3.2-.7.5-.9.4-.2.9-.4,1.3-.3.2,0,.5.8.4,1.1-.4,1.2-.8,2.4-1.4,3.5-1.9,3.9-3.9,7.7-5.7,11.6-.6,1.4-.9,2.9-1,4.4-.2,3.1,0,6.1,0,9.2,0,2.3.2,4.5.2,6.7.1,5.3.1,10.6.3,15.9,0,2.6.2,5.2.6,7.7.2,1.3.8,2.7,1.6,3.7,1.5,2,3.2,3.8,4.8,5.7,2.2,2.8,4.4,5.6,6.6,8.4.2.3.5.4.9.9.3-.7.6-1.3.7-1.9.9-3.3,1.6-6.6,2.5-9.8.2-.8.8-1.5,1.1-2.3.2-.5.2-1.2,0-1.7-1-1.7-2.1-3.3-3.1-5-.7-1.3-1.4-2.7-1.8-4.2-.4-1.7-.6-3.4-.8-5.2,0-.7-.1-1.5-.2-2.2-.1,0-.3-.1-.4-.2-.7.8-1.4,1.5-2,2.3-1,1.3-2,2.7-3.1,4-.3.4-1.2.3-1.9.4.1-.6,0-1.4.4-1.8,2.1-2.5,4.3-4.9,6.5-7.3.2-.2.4-.6.4-.9,0-3.8.9-7.6,2.4-11.1,1.8-4.2,4.2-8.1,6.3-12.1,2.4-4.5,5.4-8.8,4.8-14.3-.3-2.6-1.2-5-2.9-7-.5-.6-1.2-1-1.6-1.7-.3-.4-.3-1.1-.5-1.6.6,0,1.4-.2,1.8.1,1.4,1.2,2.8,2.5,4,4,.9,1.1,1.8,1.8,3.1,2.1,5.7,1.3,11.3,2.6,17.2,3.9.5-2.2.9-4.1,1.4-6,1.6-5.9,2.4-11.9,1.9-17.9-.5-5.1-1.4-10.3-4-14.9-.2-.4-.5-.8-.5-1.2,0-.4.3-.9.6-1.2.2-.1.9.1,1.1.4.7,1.1,1.3,2.2,1.8,3.4,1.5,3.7,2.8,7.5,4.5,11.2,1.3,2.8,3.1,5.4,4.6,8.1.6,1.2,1.1,2.5,1.6,3.7.2,0,.3,0,.5,0,.3-.5.8-1,.9-1.6,1-4.9,2.1-9.8,2.7-14.7.3-2.2-.4-4.6-.6-6.9-.1-1.3-.2-2.5-.4-3.8-.7-3.9-1.6-7.8-3.5-11.4,0-.2-.2-.3-.3-.5-.3-.8-.7-1.7.2-2.2,1.1-.5,1.3.5,1.8,1.2,1.5,2.3,3,4.6,4.7,6.9,2.4,3.2,4.8,6.4,7.2,9.5,3.2,4.2,5.9,8.6,7.6,13.6,1.2,3.5,2.4,7.1,3.5,10.6.3,1.1.3,2.4.4,3.6,0,.5,0,.9.2,1.5.6-.2,1-.2,1.4-.4,3.9-2,7.9-3.9,11.8-6,5.2-2.8,10.1-6,14.6-9.8,7-5.9,14.8-10.1,23.8-12.2,1.8-.4,3.7-.3,5.6-.2.4,0,.8.7,1.2,1-.5.3-.9.8-1.4.7-3.5-.3-6.7.6-9.8,1.8-6.3,2.4-11.9,5.8-17,10.1-.8.6-1.5,1.4-1.9,2.3-.2.4,0,1.3.3,1.8,1.6,2.4,4.1,3.5,6.7,4.3,4.1,1.2,8.3,2.3,12.5,3.3,3.2.8,6.5,1.5,9.7,2.1,3.5.7,6.9,1.4,10.4,2.1,2.4.5,4.8,1,7.2,1.5,2.8.6,5.5,1.2,8.3,1.9,3.6,1,7.1,2.2,10.7,3.4,1,.3,2,.5,2.9,1,3.6,1.6,7.3,3.2,10.9,5,1.3.6,2.4,1.6,3.8,2.6,1.4-2.2,3-4.3,4.3-6.6,2.7-5.3,5-10.9,5.8-16.9.5-3.9,1.4-7.7,2.1-11.6.1-.6,0-1.2,0-1.9,0-.8,0-1.9,1.1-1.9,1.2,0,1.1,1.1,1.1,2-.1,1.7-.3,3.4-.5,5.2-.5,3.4-1.1,6.8-1.4,10.3-.2,2.4-.2,4.8-.3,7.2-.1,2.5-.4,5.1-.4,7.6,0,4,.3,8,.4,12,0,2.2.3,4.3.4,6.5.1,2.2.2,4.4.3,6.6,0,.2.3.6.5.6.2,0,.6-.2.7-.4.6-1.3,1.2-2.6,1.9-3.9.7-1.5,1.3-3.2,2.2-4.6,1.7-2.7,3.4-5.4,5.3-8,1.9-2.7,3.9-5.3,6.1-7.8,3.4-3.9,6.5-8.3,10.8-11.4,1.8-1.3,3.1-3.1,4.8-4.6.4-.4,1.2-.4,1.8-.6,0,.6,0,1.5-.3,1.9-2.6,3.2-3.7,7-5,10.9-2.4,7.1-.9,13.4,2.7,19.6.3.5,0,1.3,0,2-.6-.2-1.5-.3-1.8-.8-1.2-2.1-2.3-4.3-3.6-6.8-1.3.9-2.8,1.8-4.2,2.7-1,.7-2.1,1.3-2.9,2.2-1.8,2-3.5,4.1-5.2,6.1-.2.2-.2.6-.4.8-2.6,2.2-3.6,5.4-4.9,8.4-1.3,3.1-2.7,6.2-4.1,9.4-.2.4-.4,1.1-.2,1.4,2.1,4.7,5.1,8.8,9.3,12,2.4,1.8,4.7,2.3,7.5,2.1.5,0,1.4.4,1.5.8.3,1-.7,1.1-1.4,1.1-2.4.1-4.7.6-6.7,2-1.9,1.5-3.8,3-5.5,4.7-3.7,4-5.7,8.9-7.2,14.1-.3.9-.8,1.8-.9,2.7-.2,1-.3,2.1-.3,3.2,0,1.9.2,3.7.6,5.5.5,2.7,1.2,5.4,1.8,8.1.4,2,.5,4,1,5.9.8,3.1,1.8,6.2,2.9,9.2,1.1,2.9,2.4,5.8,3.9,8.6,1.3,2.6,3,4.9,4.7,7.8.4-1.3.9-2.3,1.1-3.3.8-3.9,3.5-6.5,6.3-9,.3-.3,1,0,1.5,0,0,.6.2,1.4-.1,1.7-3.5,3.5-4.1,7.9-3.7,12.4.2,2.3,1.4,4.5,2.2,6.8.2.5.6.9.7,1.4.1.5,0,1,0,1.5-.5,0-1.2,0-1.6-.2-.7-.4-1.3-1-1.8-1.6-2.9-3.4-5.8-6.8-8.5-10.4-1.8-2.4-3.2-5-4.6-7.6-1.7-3.1-3.3-6.2-4.7-9.3-1.1-2.5-1.8-5.1-2.6-7.7-.5-1.7-1-3.5-1.5-5.2,0-.3-.3-.6-.8-.8-.3,1.5-.8,3-1,4.5-.2,3.4-1.4,6.6-2.5,9.7-2.1,6-4.3,11.9-6.6,17.9-.7,1.8-1.4,3.5-2.3,5.1-.2.4-1.1.5-1.7.7,0-.6-.3-1.3,0-1.8,2.6-4.7,4.2-9.7,5.8-14.7,1-3.1,2.2-6,3.1-9.1,1-3.5,1.7-7.1,2.4-10.7.4-2,.5-4,1-5.9.7-3,0-5.9-.5-8.8-.6-4-1.1-8-1.5-12-.4-3.6-.6-7.2-.7-10.8,0-1.8.3-3.6.5-5.9-1.5.6-2.8.8-3.8,1.5-1.7,1.2-3.3,2.7-4.8,4.1-2.6,2.5-5.1,5.2-7.7,7.7-2.2,2.1-4.8,4-6.9,6.2-2.5,2.7-4.7,5.6-7.1,8.5-.2.3-.4.5-.6.8-.9,1.1-1.7,2.2-1.4,3.8,0,.4-.4.9-.6,1.3-.3-.2-.8-.3-1-.6-1.7-2.1-3.4-4.2-5.1-6.3-.7-.9-1.5-1.9-2.2-2.8-.6-.8-.2-1.3.5-1.8,2.9-1.8,5.8-3.6,8.6-5.5,1.7-1.2,3.1-2.8,4.7-4.2,1.6-1.4,3.2-2.8,4.8-4.3,1.7-1.6,3.3-3.4,4.9-5.1.2-.3.3-.6.7-1.3-1.6,0-3,0-4.3,0-3.2,0-6.4.2-9.7.3-4.6.1-9.3.3-13.9.4-2,0-4-.1-6-.3-.8,0-1,.2-.8.9.3,1.2.8,2.4.9,3.6.3,3.5,2.4,6.3,3.3,9.6.3,1.2.7,2.4,1.4,3.4,2.2,3.3,4.1,6.7,7,9.5,1.7,1.6,2.8,3.8,4.2,5.7,1.7,2.4,3.5,4.6,5.1,7.1,1,1.5,1.5,3.3,2.3,4.9.8,1.8,1.7,3.7,2.5,5.5.1.3.2.5.3.8.6,1.9,1.2,3.9,1.7,5.9.5,2,1,4,1.4,6,.4,1.5.8,2.9,1.1,4.4.3,1.6.5,3.3.6,4.9.3,4,.5,7.9.7,11.9,0,.9-.1,1.8-.3,2.7-.7,4.5-1.1,9.2-3,13.4-.2.5-1.1.8-1.7,1.2-.1-.7-.5-1.4-.3-1.9,2.8-6.4,2.5-13.2,2-19.9-.4-4.9-1.2-9.9-3.2-14.5-1.6-3.6-3-7.3-4.9-10.8-1.7-3.2-3.9-6.1-6.1-9-1.7-2.2-3.8-4.1-5.6-6.3-1.7-2.1-3.2-4.4-4.8-6.6-.8-1.1-1.5-2.2-2.2-3.3-3-4.4-5.5-9-7-14.1-.8-2.7-1.9-5.3-3-8.3-.7.8-1.2,1.5-1.8,2.1-.3.4-.7.8-.9,1.3-.3.6-.7,1.2-.8,1.9-.3,1.4-1.2,1.9-2.3,1-1.7-1.4-3.3-2.9-5-4.3-.5-.4-.9-1-1.5-1.3-.4-.2-1.2,0-1.5.3-1.9,2.2-3.7,4.7-5.7,6.8-1.8,2-3.8,3.7-5.9,5.7.4.3.7.7,1.2.8,2.6.7,5.1,1.5,7.7,2,.6.1,1.5-.2,2.1-.4,1.7-.7,3.3-1.6,5-2.2.3-.1.9.3,1.4.4-.2.5-.2,1.2-.5,1.4-1.1.8-2.4,1.3-3.4,2.1-1.8,1.5-3.5,3.2-5.2,4.9-1.9,2-4.5,3-6.9-.4-.9-1.3-2.1-2.1-3.7-2.4-2.9-.5-5.6-.5-8.2,1.2-.6.4-1.3.6-1.7-.2-.4-.9.3-1.1.9-1.4,1.7-1.1,3.4-2.3,5.1-3.5,2.8-2,4.7-4.8,6.9-7.4,2.1-2.5,3.5-5.2,5-8.1,1-2,2.2-4,3.2-6,.5-.9.1-1.2-.8-1.2-2.3,0-4.5,0-6.9,0,0,.6-.3,1.2-.1,1.8.8,3.6-.8,6.6-2.3,9.6-2.6,5-6.6,8.8-10.9,12.3-3.1,2.6-6.6,4.8-10,7-.4.3-1.5.1-2-.2-3.3-2.3-6.9-4.1-9.7-7.1-1.3-1.4-2.9-2.5-4.4-3.8-2.1-1.9-3.4-4.1-4.6-6.5-1.5-3-2.8-6-4.2-9-.3-.6-.5-1.3-.4-1.9,0-1.2-.6-1.5-1.6-1.5-.6,0-1.2-.1-1.8-.2-.3,0-.8,0-.9.2-.2.2-.2.7,0,1,1.7,3.6,3.4,7.2,5.2,10.8,1.1,2.1,2.2,4.3,3.5,6.2,1.4,2.2,3.2,4,5.5,5.2.8.5,1.6,1,2.4,1.5,0,.2-.1.4-.2.6-.5,0-1,0-1.4-.1-.5-.2-.9-.6-1.4-.8-1.1-.5-1.7-.2-1.9,1.1-.3,1.9,0,3.7,1,5.2,1.4,2.3,3.2,4.3,4.8,6.4.3.3.7.6.8,1,.1.5,0,1.1,0,1.7-.6,0-1.3,0-1.7-.3-1.4-1.3-2.7-2.6-3.8-4.1-2.1-2.8-4.2-5.6-6.2-8.5-1.4-2-2.5-4.2-3.7-6.3-.6-1-1.3-1.8-1.9-2.8-1.4-2.2-2.7-4.3-4-6.6-1-1.7-1.7-3.6-2.5-5.2-1.7.6-3.2,1-4.6,1.6-.9.4-1.9,1.1-2.5,2-1.4,2.1-2.9,2.2-4.5.3-1-1.2-2.1-2.3-3.4-3.2-1.8-1.3-2.5-.8-2.7,1.4-.3,3.1-.5,6.2-1.1,9.3-.5,2.7-1.3,5.4-2.1,8-.8,2.9-1.7,5.9-2.7,8.7-.7,1.9-1.6,3.8-2.5,5.7-.5,1.1-.5,1.6.9,1.6,1.7.1,3.3.4,5,.6.4,0,.8,0,1.1.3.4.3.6.8.9,1.2-.4.3-.7.7-1.1.7-2.1.4-3.9,1.1-5.7,2.2-2.7,1.6-4.4,4-6.4,6.2-1.5,1.6-2.7,3.4-3.9,5.1-.2.3-.2,1.2.1,1.4,2.8,3.2,5.7,6.3,8.7,9.3,1.7,1.7,3.7,3,5.5,4.6.8.7,1.4.6,1.7-.4,1.6-6.1,4.6-11.5,7.7-16.9,2.6-4.6,5.9-8.7,8.7-13.2,2.7-4.2,6.2-7.6,9.7-11,.5-.5,1.2-.9,1.9-1.2.3-.1.9.2,1.1.4.1.2,0,.7-.2,1,0,.1-.2.2-.3.3-4.6,4.2-8.1,9.3-11.4,14.4-2.5,3.8-4.8,7.7-7,11.7-1.7,3.1-3.3,6.4-4.7,9.7-1.2,2.8-2.3,5.8-3.2,8.7-.4,1.4-.3,3-.2,4.5,0,.9,0,1.8-1,1.9-.6,0-1.2-.6-1.7-1.1-.4-.3-.5-.9-.8-1.3-2.1-2.2-4.3-4.3-6.3-6.5-1.4-1.6-2.7-3.4-4-5.2-1.8-2.5-3.6-5-5.3-7.4-.2-.2-.4-.4-.7-.8-2.9,6.2-5.7,12.3-8.4,18.4-1,2.3-2.1,4.5-3,6.9-2.4,5.7-4.7,11.4-7.1,17.2-.2.4-.3.9-.6,1.3-2.5,3.6-1.4,7.3-.3,11,.2.6.3,1.1.4,1.7.3,2.1.8,2.3,2.9,2.1,2.1-.3,4.3-.2,6.4-.6,4.8-1.1,9.2-3,11.3-8,.3-.7.3-1.5.2-2.2,0-.6-.3-1.3-.3-1.8,0-.6.5-1.2.7-1.8.5.5,1.2.8,1.4,1.4.4.9.5,1.9.6,2.8.6,3.4,0,6.7-1,10-.7,2.2,0,4.5,1.4,5.3,1.4.8,3,1.4,4.5,1.7,3.2.7,6.5,1.4,9.8.7.4,0,.9.5,1.4.8-.4.4-.8,1.1-1.2,1.1-2.6.2-5.3.2-7.9.2-1.3,0-2.7-.8-3.9-.7-2.2.2-4.7.5-6.6,1.5-4.1,2.2-7.9,4.9-11.8,7.3-1.2.7-2.6,1.3-3.9,1.9-4.6,2-8.3,5.2-11.9,8.5-1.2,1.1-1.6,2.4-1.3,4,0,.4.3.9.2,1.3,0,.4-.5,1.2-.7,1.1-.5,0-1.3-.3-1.5-.7-.5-1.4-.7-2.9-1.1-4.3-.1-.5-.3-1-.6-1.4-3.7-5.3-9.2-8.3-14.7-11.2-1.7-.9-3.4-2-5.1-2.9-2.9-1.6-5.8-3.3-8.8-4.7-1.6-.7-3.4-1-5.1-1.1-3.5-.2-7,0-10.5,0-.8,0-2.2,0-1.9-1.3.2-1.2,1.5-.7,2.3-.5,2.9.6,5.7.3,8.4-.5,1.5-.4,3-1,4.5-1.5,1.3-.4,1.6-1.5,1.5-2.6-.1-.8-.5-1.6-.7-2.5-.4-1.3-.9-2.5-1.2-3.8-1.2-3.9,0-7.5,1.9-10.9.3-.5,1-.7,1.6-1.1,0,.7.3,1.3.2,2-.2.9-.7,1.8-.9,2.7-.3,1.6.6,2.8,1.6,3.8,1.2,1.3,2.6,2.5,4.1,3.3,2.4,1.2,5,2.3,7.6,3.1,2.2.7,4.5,1,6.8,1.4.9.1,1.6-.2,2-1.3,1.2-3.2,1.6-6.7,2-10,.2-1.6-.4-3.4-.9-5-1.1-3.3-2.3-6.6-3.5-9.9-.8-2.3-1.7-4.6-2.6-6.9-1.1-3-2-6-3.2-9-1.6-3.9-3.4-7.7-5.1-11.6-1-2.4-1.9-4.9-2.8-7.4-.1-.3-.2-.6-.5-1.3ZM343.6,208.7c.2,0,.4.1.6.2,2.4-2.5,4.7-5,7.1-7.4,2.2-2.1,4.2-4.3,5.5-7,.1-.2.4-.5.6-.6.3-.1.8-.2,1.1,0,.2.2.4.8.3,1-1,1.5-.6,2.7.2,4.3,1.1,2.1,4.1,4.4,6.4,4.5,1.9.1,2.9-1,3.9-2.3.6-.7.9-1.6,1.6-2.2.4-.4,1.1-.5,1.7-.7,0,.6,0,1.2,0,1.8,0,.2-.2.3-.3.5-1.7,2.5-3.9,4.5-6.6,5.9-1.6.8-3.3,2-5,2.1-3,.3-6,.3-8.7-1.6-.5-.3-1.3-.6-1.8-.3-1.6.7-3,1.6-4.5,2.6-.6.4-1.4.9-1.6,1.6-.4,1.8-.6,3.7-.8,5.6,0,.3.2.7.4.8.2,0,.6,0,.9-.3.6-.5,1.1-1,1.6-1.5,1.8-1.8,6.3-2.2,8.4-.7,2.1,1.6,4.6,2.4,6.7,4,2.6,1.9,5.1,3.8,7,6.4.6.9,2.6,1.5,3.4,1.2.9-.4,1.8-.6,2.8-.7,1,0,2.2.4,3,0,1.4-.6,2.7-.4,4,0,.9.3,1.1,0,1.2-.8.1-1.1.2-2.2.4-3.2.8-4.1,1.4-8.1-.9-11.9-.2-.3-.4-.7-.3-1.1.2-1.7-1.2-2.5-2.2-2.9-3.3-1.4-6.6-1-9.7,1.1-.3.2-.9.2-1.3.3,0-.5,0-1,.3-1.4.3-.4.8-.7,1.2-1,1-.5,2.1-1,3.1-1.5,5-2.1,10.6-1.1,13.8,3.3.9,1.2,2.1,2.3,3,3.2,2.5-1.3,4.7-2.4,6.9-3.7.4-.2.7-.7,1-1.1-.4-.3-.8-.9-1.3-.9-2.4-.4-4.9-.5-7.3-.9-.6,0-1.1-.6-1.7-.9.5-.3,1.1-1,1.6-1,2.2,0,4.4.2,6.6.4,1.4,0,2.8,0,4.2.2,2.1.3,4,.1,5.6-1.6.3-.4.7-.7,1.1-.9.3-.2.8,0,1.2,0,0,.4,0,.8,0,1.1,0,.4-.3.7-.6,1.4.9-.2,1.6-.5,2.2-.5,4-.2,8-.5,11.9-.6,1.3,0,2.2-.3,2.8-1.6.3-.7.9-1.3,1.5-1.8,3.2-2.5,6.4-5,9.5-7.5,3.4-2.7,6.7-5.3,10.1-8,1-.8,1.7-1.8,2.6-2.8-3-1.2-5.9-2.1-8.5-3.4-9.4-4.6-19.4-6.9-29.7-7.8-2.6-.2-5.1.1-7.7,0-3.4,0-6.8-.2-10.2-.2-1.7,0-3.3.2-5,.2-2.4,0-4.8-.3-7.2-.1-4.8.2-9.7.6-14.5,1-6.1.5-12.1,1.1-18.2,1.7-2.7.3-5.4.6-8.2.8-1.6.1-1.9.5-2.2,2.4-.9,4.4-1.4,8.9-4.6,12.6.3.3.6.6.8.9,3,3.5,6.1,7,9,10.6.7.8,1.2.7,1.9.3,1.1-.7,2.2-1.3,3.5-1.8.5-.2,1.2.2,1.8.3-.3.6-.5,1.3-1,1.6-.8.5-1.8.6-2.7,1.1-.4.2-.8.8-.9,1.2-.2,1.2-.2,2.4-.3,3.7-.1,1.5-.2,3.1-.3,4.6ZM52.5,181c.8.9,1.3,1.6,1.9,2.1,1.6,1.3,3.2,2.6,4.8,3.8,2,1.5,4,3.1,6,4.6,1.5,1.1,3.2,2,4.3,3.5,1,1.3,2.2,1.7,3.6,1.7,2.8,0,5.6-.2,8.4-.1,3.1,0,6.1.3,9.2.4,1.1,0,2.1,0,3.2.3.5.1,1,.7,1.5,1.1-.5.4-1.1,1-1.7,1-2.8.2-5.6.1-8.3.2-2.6,0-5.2.2-7.7.4-1.2,0-2.4.2-3.8.2.4.8.6,1.3.9,1.8,1.4,2.4,2.3,4.9,1.8,7.7-.3,1.9-.8,3.8-1.8,5.4-1.1,1.8-2.1,3.9-4.3,4.8-.8.4-1.4,1.1-2.1,1.7,0,.1.1.3.2.4.6,0,1.2.1,1.8.1,1.8,0,3.5-.2,5.3-.2,2.5,0,4.9.1,7.4.2,2.1,0,3-.6,3.4-2.1.7-2.7,1.3-5.4,2.9-7.7,2-2.9,4-5.8,6-8.7,2.3-3.3,6.5-4.9,8.4-8.7.1-.3.8-.4,1.1-.3.3.1.6.6.6,1,0,.6-.3,1.1-.4,1.7-.2.7-.4,1.5-.5,2.2-.2,1.4-.2,2.8-.3,4.2-.1,1.3-.2,2.5-.4,3.7.1,0,.2.1.3.2.6-.6,1.2-1.1,1.8-1.7,1.3-1.2,2.4-2.5,3.8-3.6,2.3-1.9,4.7-3.8,7.1-5.6.4-.3,1.2-.5,1.6-.3,1.9,1.1,3.9,2.1,5.5,3.5,2.7,2.4,5.5,4.8,7.6,7.7,1.9,2.6,3.1,5.8,4.4,8.8.8,2,1.1,4.1,1.6,6.2.2.9.5,1.3,1.4,1.2,1.5-.2,3-.2,4.5-.5.3,0,.8-.9.7-1.2-.8-2.7-1.6-5.4-2.7-8-1.2-2.9-2.9-5.6-4.9-8-.7-.9-1.6-1.8-2.6-2.4-2.5-1.5-5-2.8-7.5-4.3-1.5-.9-2.9-1.9-4.2-2.9-.2-.2-.2-.7-.2-1.1.4,0,.8,0,1.2,0,.2,0,.3.3.5.5,1.5.8,2.9,1.9,4.4,2.1,2.4.4,4.8.2,7.3.3,1,0,2.1.3,3.1.2,3,0,6-.3,9-.4.3,0,.6,0,.8.1.4.2.7.6,1,.9-.4.2-.7.6-1.1.7-1.5.2-3.1.2-4.6.4-.6,0-1.1.5-1.6.8,1.1,1.2,2.1,1.9,2.6,2.9.7,1.4,1.4,1,2.2.3.3-.3.6-.6.9-.9,2.7-2.7,5.4-5.4,8-8.2,2.4-2.6,4.8-5.1,6.9-7.9,1.2-1.6,2.3-3,4-4,.7-.4.8-.9.4-1.5-1.9-3-3.2-6.4-3.6-9.9-.1-.9-.5-1.1-1.3-1.2-3.5-.5-6.9-1.1-10.4-1.6-2.8-.4-5.6-.7-8.4-1-2.5-.3-5.1,0-7.4-.8-2.3-.7-4.5-.6-6.7-.7-2.7-.2-5.4-.6-8.2-.7-3.5-.2-7-.3-10.4-.3-5.6.2-11.2.2-16.8.9-4.4.5-8.8,1.8-13.2,2.9-4.3,1.2-8.5,2.4-12.6,4.1-5.3,2.2-10.3,4.8-15.7,7.4ZM240.7,336.5h.2c.1-.5.3-1.1.4-1.6.9-5.5,1.8-10.9,2.6-16.4,1.1-7.8,3.1-15.4,3.4-23.3.2-5.1.8-10.1.9-15.2.2-4.8,0-9.5,0-14.3,0-7.6,0-15.3,0-22.9,0-3.4-.3-6.9-.7-10.3-.1-1.3-.5-2.5-1.7-3.6-2.5-2.4-4.9-5.1-7.3-7.7-1.1-1.2-2.3-2.4-3.2-3.4-1.8,3-3.6,5.8-5.3,8.6-.1.2-.2.7,0,.9,1.5,2.2,2.2,4.8,2.8,7.3.5,2.3.8,4.6,1.1,7,.2,1.2.3,2.5.4,3.7.1,0,.3,0,.4,0,.2-.3.5-.6.7-.9,1.3-2,2.6-4.1,4-6,.4-.5,1.5-1.1,1.8-.9,1,.6.2,1.3-.2,1.9-2,2.7-4,5.4-5.9,8.2-.2.3-.3.8-.3,1.2,0,1.4.4,2.8.2,4.1-.8,4.3-1.8,8.6-2.8,12.8-.6,2.6-1.3,5.1-2.3,7.6-1.8,4.8-4.3,9.3-7.2,13.5-.3.4,0,1.2.2,1.7.6,1.3,1.4,2.5,2,3.8,1,2.1,1.8,4.2,2.8,6.3,4.1,9.2,7.6,18.6,10.7,28.1,1,3.1,1.6,6.3,2.4,9.5ZM254.7,337.5c.4-.9.9-1.7,1.3-2.6.3-.6.6-1.2.8-1.9.5-1.5.7-3.1,1.3-4.6,1.9-4.7,4-9.3,6-13.9,1.4-3.3,2.7-6.6,4.3-9.8,2.1-4.3,4.4-8.4,6.7-12.6.4-.7.3-1.1-.2-1.7-1.3-1.8-2.7-3.6-3.6-5.6-1.8-4-3.3-8.2-4.7-12.3-.7-2-.9-4.1-1.2-6.2-.2-1.7-.2-3.5-.4-5.3-.3-2.7-.8-5.5,0-8.2.1-.4-.1-1.4-.4-1.5-1.6-.5-2-2-2.9-3.1-2.3-2.9-4.4-5.8-6.7-8.7-1-1.3-2.1-2.5-3.4-4-.3,1.4-.7,2.5-.7,3.6-.1,3.2,0,6.5,0,9.7,0,2.2-.1,4.5-.2,6.7,0,.6,0,1.1,0,1.7,0,4.8.2,9.6.2,14.4,0,4.3-.5,8.6-.4,13,0,4.5.4,9,.7,13.5.3,3.9.6,7.8.9,11.8.2,2.2.3,4.3.5,6.5.3,2.8.7,5.5,1,8.3.4,3.8.6,7.7,1,11.6,0,.4.2.9.3,1.1ZM47.9,296.7c.2,0,.3,0,.5-.1.4-1.2.8-2.4,1.1-3.7.7-2.8,1.1-5.7,2.1-8.4,1.2-3.2,2.7-6.2,4.4-9.2,1.8-3.2,3.9-6.2,6-9.1,1.2-1.7,2.7-3.2,4-4.8,1.4-1.7,2.7-3.3,4-5,1.1-1.4,2.2-2.9,3.5-4.6-.3-.2-.6-.4-.8-.5-1.4-.9-3-1.6-4.2-2.6-1.9-1.7-3.5-3.7-5.2-5.6-1.3-1.5-2.6-3.1-3.8-4.7-2.4-3.2-4.7-6.4-6.9-9.6-.6-.9-1.1-1.6-2.4-1.5-3.2.2-6.4.2-9.7.3,0,.3,0,.9-.1,1.5-.2,2.8,0,5.5-.5,8.2-.6,3.7-1.7,7.4-2.6,11-.3,1.2-1,2.4-.9,3.5.3,2.5,1,4.9,1.5,7.3,1,4.6,2.1,9.1,3.1,13.7,1.2,4.8,2.4,9.7,3.6,14.5.4,1.7.8,3.5,1.3,5.1.5,1.4,1.2,2.8,1.8,4.2ZM167.4,184.1c-4.2,4.5-4.9,10.8-3.7,15.8,1,3.9,2.8,7.4,4.9,10.8.6,1,1.6,1.7,2.1,2.8.8,1.6,1.7,2.7,3.5,3.2.3,0,.7.6.8.9,0,.3-.4.9-.7,1-.6.2-1.3.1-1.9.1-.6,0-1.2-.2-1.7,0-2,1-4,2.1-5.9,3.3-1.8,1.1-3.5,2.5-5.2,3.7-1.1.8-2.2,1.6-3.3,2.5-.9.7-1,1.5.2,2.2,1.1.6,2.2,1.2,3.1,2.1,1.1,1,2.1,2.2,3.1,3.4,2.3,2.8,4.5,5.6,6.6,8.5,1.5,2.1,2.7,4.4,4.1,6.5.5.7.9,1.7,2.1.6-1.3-2.2-2.5-4.3-3.7-6.5.3-.3.7-.6.9-1,1.5-2.9,3.1-5.8,4.5-8.8.6-1.3.9-2.7,1.3-4.1.3-1.2,0-2.1-1.5-2.1-1.6,0-3.2,0-4.8,0-4,0-8.1,0-12.1,0-.5,0-1.1-.4-1.9-.7.6-.4.7-.7.9-.7,1.7-.2,3.2-.7,4.4-2,0-.1.4,0,.6,0,1.3.1,2-1,3-1.4.9-.3,2.2.1,3.2.2,0,0,0,0,.1,0,1.8,0,3.5-.3,5.3-.2,2.7,0,5.4.4,8.1.4,3.1,0,6.3,0,9.4,0,2.7,0,5.3.1,8,.2.7,0,1.4,0,2.6,0-.6-1.2-.8-2.1-1.4-2.6-2.7-2.6-5.5-5-8.2-7.5-1.9-1.7-3.9-3.4-5.8-5.1-2.6-2.4-5.2-4.7-7.9-7.1-.2-.2-.4-.4-.6-.4-3.2-.4-6.4-.7-9.7-1.1-.5,0-.9-.6-1.4-1,.5-.3.9-.9,1.4-.9,2,0,3.9.3,5.9.4.4,0,.8,0,1.1-.3.1,0,.1-.7,0-.9-1.1-1.5-2.3-2.9-3.4-4.4-1.3-1.6-2.7-3.2-3.9-5-1-1.5-1.6-3.1-2.5-4.7ZM103,225.1c1.8-.3,3.4-.5,4.9-.8.9-.2,2-.3,2.7-.8,1.7-1.4,3.7-2.6,3.7-5.3,0-.1,0-.3.1-.4.4-.3.8-.6,1.1-.9.3.4.6.7.8,1.1.1.2,0,.6,0,.9.2,2.9,2.7,5.6,5.6,5.9,1.3.1,2.7.2,4,.4.6.1,1.8.6,1.7.8-.1,1.1-1.1,1-1.9,1-.3,0-.6,0-.9,0-1.6.4-3.6.4-4.7,1.4-1.8,1.5-3.7,3.1-3.4,6,0,.3-.1.7-.3.9-.2.3-.6.5-.9.5-.3,0-.7-.3-.8-.6-.2-.4-.1-.8-.1-1.3.1-2.6-1.7-5.2-3.9-6.5-2-1.1-3.9-1-6-.9-1.4,0-1.7.6-1.7,1.8-.2,5.4-.4,10.8-.6,16.2,0,.4,0,.9.3,1.1,3.1,2.8,6.2,5.5,9.3,8.3.7.6,1.1.4,1.7-.1,2.2-2.3,4.6-4.5,6.7-6.8,2.1-2.4,4.5-4.5,6.3-7.2,2-3.1,3.6-6.3,3.7-10.1,0-2.8-.5-5.4-1.6-8-1.2-3-2.2-6.1-4.4-8.5-.2-.2-.3-.4-.4-.6-2.3-3-4.3-6.1-8-7.7-2.1-1-3.9-.7-5.7.4-2.1,1.4-4.2,2.9-6.3,4.3-.2.2-.4.6-.4.9-.2,3.9-.4,7.8-.6,11.6,0,.9,0,1.9-.1,3.2ZM456.7,183.6c-.3-.2-.6-.3-.9-.5-.2.4-.3.9-.5,1.2-2,2.6-3.2,5.8-6.4,7.4-2.9,1.4-5.4,3.7-8.1,5.4-3,1.9-6.1,3.5-9.1,5.3-2.5,1.6-4.9,3.4-5.6,6.5-.4,1.8-.6,3.7.2,5.6,1.5,3.4,4.4,5.6,7.1,7.9.8.7,1.7,1.3,2.7,1.7,1.4.6,3,1.1,4.4,1.6,2.3.8,4.6,1.5,6.9,2.3.2,0,.4,0,.5,0,2-1.1,4-.3,5.9.2,1.1.3,1.3,0,1.2-1,0-.8-.2-1.6-.1-2.4.8-4.8,1.7-9.5,2.5-14.3.4-2.4.6-4.9,2.1-6.9.1-.2-.1-.6-.2-.9-.4-1.5-.7-3-1.1-4.6-.1-.6-.2-1.2-.3-1.8-.4-2.6-.8-5.2-1.1-7.8-.2-1.7-.1-3.4-.2-5.1ZM212.3,186.4c-1.2-.8-2.2-1.2-3-2-3.3-3.4-6.5-7-9.7-10.4-.3-.3-.9-.6-1.3-.6-6,.7-12,.8-17.9-.2-2.6-.5-4.1.2-5.4,2.3-1,1.6-1.2,3.1-.6,4.8,1.4,3.6,3.1,7,5.5,10.1,3.3,4.3,7,8.2,11.1,11.8,3,2.6,6,5.3,9,8,1.2,1.1,2.3,2.2,3.7,3.4.2-.7.4-1.1.4-1.5,0-3.1,0-6.2-.1-9.3,0-.8-.4-1.4-1.4-1.4-1.8,0-3.6,0-5.4-.2-.5,0-.9-.7-1.4-1.1.5-.3,1-.8,1.6-.9,1.3-.1,2.7,0,4,0,1.2-.1,2.5-.2,3.3-1.4,1.1-1.5,2.3-3,3.4-4.5,1.1-1.6,2.1-3.3,3.2-5,.4-.6.8-1.3,1.1-1.9ZM325.4,182c0,0-.2-.1-.3-.2-.1-.5-.1-1-.3-1.4-1-1.9-2.1-3.8-3.1-5.7-.8-1.5-1.7-2.4-3.7-2.3-4.2.1-8.4,0-12.6-.5-2.4-.2-3.8.2-5.3,2.2-2.7,3.6-6,6.7-9.2,10-.7.7-1.4,1.3-2.2,1.8-1,.6-1,1.1-.3,1.9,1.2,1.4,2.4,2.9,3.5,4.4,1.4,1.8,2.8,3.6,4.3,5.3.9,1,2,2,3.1,2.7,2.7,1.8,5.6,3.4,8.3,5.3,1,.7,1.3.3,1.8-.6.8-1.4,1.7-2.8,2.7-4.1,3.2-4,6.7-7.9,9.8-12,1.5-2,2.3-4.5,3.5-6.8ZM42,179.5c-.3,2-.8,3.8-.8,5.5,0,4.3-1.3,8.3-2.6,12.3-.5,1.5-.5,2.7-.1,4.2.7,2.6,1.1,5.4,1.4,8.1.4,3.6.6,7.1.9,10.7,0,.3.5.7.8.7,1.3,0,2.6,0,3.9,0,2.7,0,5.4.1,8.1,0,3.3,0,6.6,0,10-.2.5,0,1.1-.2,1.4-.5,1.6-1.8,3.4-3.4,4.3-5.7.6-1.5,1.3-3.1.5-4.8-.8-1.5-1.5-3.1-2.4-4.5-.9-1.4-1.5-3-3.3-3.7-.9-.3-1.4-1.3-2.2-1.9-1.8-1.4-3.7-2.6-5.6-4-2.1-1.5-4.3-2.9-6.3-4.5-1.8-1.5-3.8-2.9-4.7-5.3-.8-2.2-1.9-4.3-3.1-6.8ZM283.3,270.7c.4-.9.8-1.5.8-2.1.2-3.8,2.1-7.2,2.4-11.1.3-4,1.5-8,2.1-12,.6-3.9.8-7.9,1.3-11.9.2-2-.5-2.6-2.4-2.5-1.7.2-3.4,0-5.1,0-1.2,0-2.8-.1-3.7.5-1.4,1.1-2.3,2.8-3.4,4.2-2.5,3.2-3.5,7.1-4.8,10.8-.3,1-.9,2.3-.6,3.2.9,2.4,1.9,4.9,3.4,7.1,2.6,3.9,5.4,7.7,8.2,11.5.5.7,1.1,1.3,1.8,2.3ZM285.6,188.9h-.4c-.3.4-.5,1-.8,1.4-2.3,2.5-4.8,4.8-7.1,7.4-2.1,2.3-3.9,4.8-5.8,7.3-.5.6-.6,1.6-.5,2.4.2,2.5.1,5,1.2,7.4.4.8,0,2,.4,2.8,1,2.1,2.2,4.2,3.4,6.1,1.1,1.7,2.6,2.7,4.8,2.4,1.2-.2,2.4,0,3.5,0,1.9,0,3.7,0,5.8,0,0-2.5,0-5.1,0-7.6,0-1.4,0-2.8-.2-4.1-.4-3.2-.9-6.3-1.2-9.5-.2-2-.9-2.8-2.9-2.8-2.2,0-4.3,0-6.5,0-.5,0-1-.6-1.6-.9.5-.4,1-1.2,1.4-1.1,2.6.2,5.2-.9,7.8,0,1.3.4,1.6-.1,1.2-1.4-.6-2-1.2-3.9-1.8-5.8-.4-1.3-.7-2.6-1.1-3.9ZM215.8,269h.5c1.3-1.7,2.4-3.6,3.8-5.3,2.7-3.2,5.5-6.3,7.2-10.2.7-1.6,1.5-3.2,1.6-4.8.1-1.8-.4-3.6-.8-5.4-.4-1.8-.9-3.5-1.5-5.2-.6-1.7-1.3-3.4-2.2-5-.5-.9-.8-2.1-2.4-2.1-1.1,0-2.1-.2-3.2-.1-2.4,0-4.9-.3-7.3-.5-1.1,0-1.4.5-1.3,1.5.4,3,.7,6.1,1,9.1.3,3.1.9,6.2,1,9.3.2,4.7,1,9.3,2.3,13.9.4,1.6.8,3.3,1.2,4.9ZM211.7,201.9c0,.2-.2.3-.2.4-.4,4.1-.9,8.3-1.2,12.4-.2,3.1,0,6.2-.1,9.3,0,1.4.3,1.6,1.7,1.5,2.4-.2,4.9-.5,7.4-.2,2.9.4,4.6-1.2,6.3-2.9,1.8-2,2.4-4.6,3-7.2.5-2,.2-4.3.8-6.2.6-1.9-.4-3.6-.1-5.4,0-.2-.4-.6-.7-.8-1.2-1.1-2.6-2.2-3.8-3.4-3.3-3.3-6.6-6.7-10-10.3-.5,2-1,3.9-1.5,5.8-.3,1.1-.7,2.2-1,3.3-.2.8.1,1.1,1,1.1,2.5.1,5,.3,7.4.6.8,0,1.9,0,1.9,1.2,0,.3-1.3.7-2,.7-3,0-5.9,0-8.9,0ZM342.7,239.6c-.4,1.9-.9,4.2-1.4,6.6,0,.2,0,.6.2.8,2,1.9,4,3.9,6.2,5.7,1.2,1,2.8,1.4,4.1,2.3,1.5,1.1,3,.9,4.2-.2,3-2.8,6.2-5.4,8.5-8.9,2.7-4.1,2.7-8.2.7-12.5-.7-1.6-1.6-1.3-2.8-1.2-1.6.2-3.3,0-5,0-1,0-2,0-3,0-.5,0-1,.2-1.6.1-2.6-.1-5.2-.3-7.7-.4-.7,0-1.4,0-2,0-.3,0-.8.5-.8.7,0,2.2.3,4.3.4,7ZM400.7,165.1v-.5c-1.3-.3-2.6-.6-3.9-.9-3.1-.6-6.2-1.1-9.3-1.7-3.6-.8-7.1-1.5-10.6-2.5-3.1-.9-6.1-2-9-3.4-2.3-1.1-4.2-2.9-4.5-5.8-.3.2-.6.4-.8.6-2,2.2-4.4,4-7.1,5.4-1.1.5-2,1.4-3.1,2-.5.3-1.1.6-1.6.8-1.2.5-2.4.9-3.6,1.4-2.4.9-4.7,2-7.1,2.7-1.8.5-3.5.8-3,3.3,0,.3-.1.6-.2.8-.3,2.3,0,2.7,2.4,2.4,5-.7,10-1.5,15.1-2.3,1.8-.3,3.5-.5,5.3-.6,3.2-.2,6.4-.3,9.6-.5,3.5-.2,7.1-.7,10.6-.8,2.9-.2,5.9,0,8.9-.1,3.5,0,7.1,0,10.6,0,.5,0,.9-.1,1.4-.2ZM317.5,127.8c-.1,0-.3.1-.4.2.1.7.2,1.4.3,2.1.8,3.4,1.6,6.8,1,10.4-.5,2.8-.7,5.7-1.3,8.5-.6,3-1,6.2-3.5,8.5-.3.2-.2,1.2,0,1.6,1.5,2.5,3,5,4.7,7.4.3.5,1.3.9,1.8.8,4.7-1.2,9.4-2.6,14.1-4,.3,0,.7-.8.7-1.1-.5-2.1-1-4.2-1.7-6.2-.7-2.3-1.7-4.5-2.5-6.7-.7-1.8-1.1-3.7-2.1-5.3-2.9-4.7-6.1-9.4-9.2-14-.5-.8-1.3-1.5-1.9-2.2ZM315.9,226.6c1.9,0,3.3,0,4.8,0,1.2,0,1.5-.4,1.5-1.5,0-1,0-1.9.2-2.9.7-4,1.7-7.8,3.5-11.4.8-1.6,1.9-2.9,3.2-4.2.5-.5,1.1-1.3,1-1.7-.3-.8-1-1.8-1.6-1.9-2.3-.4-4.6-.4-6.9-.7-.5,0-.9-.3-1.3-.5.3-.4.6-1.1.9-1.2,1.5-.3,2.9-.5,4.4-.6,3.6-.2,7.1-.3,10.7-.5,1.1,0,2.2-.4,3.3-.8.8-.3.8-.6.2-1.3-2.4-2.6-4.7-5.3-7.1-7.9-.5-.5-.9-1-1.3-1.4-3.8,3.1-7.4,6.1-11,9-2.6,2.1-4.9,4.6-6,7.9-1.1,3.4-1.3,6.8-1,10.3.2,2.5.9,5,1.4,7.5.3,1.4.8,2.7,1.2,3.7ZM180.8,129.4c-.1,0-.3,0-.4-.1-.3.3-.5.6-.8.9-1.5,1.4-1.9,3.4-3,5-1.3,1.8-2.3,3.8-3.5,5.7-3.7,6-6.1,12.6-8,19.3,0,.3.2,1,.4,1.1,4.2,2.1,8.5,4.2,12.8,6.2.4.2,1.2,0,1.4-.3,2.1-2.8,4.2-5.7,6.2-8.6.5-.7.8-1.3.3-2.2-1.3-2.3-2.5-4.7-3.8-7.1-.2-.5-.4-1-.5-1.5-.5-2.5-.9-5-1.5-7.5-.7-2.8-.4-5.5,0-8.2.1-.9.2-1.8.3-2.7ZM402.2,226.1c1.6-.3,3-.6,4.4-.6,3.2-.1,6.4.2,9.5-.1,4-.4,7.9.2,11.9.4,1.4,0,2.9-.1,4.4-.2v-.5c-.7-.4-1.5-.9-2.4-1.2-4.1-1.7-8-3.5-9.8-7.9-1.1-2.6-1.9-5.1-.8-7.9.3-.8.6-1.5.9-2.3.4-.9.2-1.5-.9-1.5-3.5-.2-6.9-.3-10.4-.6-.5,0-1-.5-1.4-.8-.3-.2-.7-.8-.8-.8-.4.2-.9.6-1.1,1-.4.7-.6,1.5-.8,2.3-.7,2.9-1.4,5.8-1.8,8.8-.4,2.7-.3,5.5-.4,8.2,0,1.1-.2,2.3-.3,3.7ZM35.2,257.4c-.1,0-.2,0-.4,0-.2.4-.4.7-.6,1.1-.7,2.1-1.4,4.2-2.1,6.2-1.4,4.2-2.9,8.4-4.4,12.5-1.9,5.4-4.3,10.6-7.6,15.3-.5.7-.4,1.2.6,1.1.7,0,1.4,0,2-.2,2.4-.5,4.9.3,7.2-.5.3,0,.7,0,1,0,.9.1,1.9.2,2.8.3,2.4.4,4.8.9,7.1,1.4,1,.2,1.9.5,3.1.8-.1-.6-.2-.9-.3-1.2-1.3-4.5-2.7-9-3.9-13.5-.8-2.9-1.5-5.8-2-8.8-.8-4.1-1.3-8.2-2-12.3-.1-.8-.4-1.6-.6-2.4ZM253.9,345.2c-.2,0-.5,0-.7,0-1.4,11.1-4.6,21.9-5.4,33.1.7-.3,1.2-.7,1.5-1.2,2.8-4.6,7-7.7,11.6-10.3,3.3-1.8,6.6-3.7,9.9-5.4,1.9-1,3.5-2.7,6-2.4.5,0,1-.3,1.5-.5-.2-.5-.4-.9-.6-1.4-.4-1.1-1.2-2.2-1.2-3.3,0-1.2.6-2.4,1-3.6.3-1.1.7-2.2,1.1-3.3-.1-.1-.3-.2-.4-.3-5.4,5.4-12.5,6.6-19.9,8.3-.3.5-.9,1.4-1.5,2.3-.2.3-.5.7-.8.8-.5.2-1.1.3-1.5.1-.3-.1-.3-.9-.2-1.4,0-.3.2-.7.4-.9,1.1-1.2,1.2-2.5.6-4-.2-.4-.2-.9-.3-1.4-.4-1.8-.8-3.6-1.2-5.5ZM246.6,369.1c0,0,.1.2.2.2.2-.4.4-.9.5-1.3.7-4,1.2-8.1,2.1-12,1-4.2,2.3-8.4,3.4-12.6.3-1.1.3-2.3.2-3.5-.6-5.3-1.3-10.5-2-15.8-.2-1.7-.2-3.3-.4-5,0-1-.4-2.1-.4-3.1-.2-4.4-.2-8.8-.4-13.2,0-.8-.4-1.6-.7-2.3-.2,0-.3,0-.5,0-.2,1-.5,2-.7,3-.4,3.4-.7,6.9-1.2,10.3-.7,4.3-1.6,8.6-2.3,12.9-.8,4.7-1.3,9.4-2.1,14.1-.3,1.8-.4,3.5,0,5.3.7,2.9,1.6,5.8,2.1,8.8.8,4.8,1.4,9.6,2.1,14.3ZM216.9,357.5c3,1.3,5.8,2.4,8.4,3.7,3.1,1.6,5.9,3.5,9,5.1,4.3,2.3,7.8,5.4,9.9,10,.3.6.9,1.1,1.3,1.6.2,0,.4-.2.6-.3-1.4-10.4-3.1-20.8-5.2-31.6-.5,2-.9,3.6-1.3,5.3-.3-.2-.5-.4-.6-.4,0,1,0,2,0,3.1,0,.7.2,1.3.4,2,.1.5.4,1,.4,1.5,0,.4-.5.8-.7,1.2-.4-.3-1-.4-1.2-.8-.3-.6-.4-1.3-.7-1.9-.4-.9-.9-1.6-2.2-1.7-1.6-.1-3.4,0-4.6-1.4-.2-.2-.5-.2-.8-.3-3.5-1.7-7.6-2.3-10.7-4.9-.9-.8-1.8-1.6-2.7-2.4-.3-.3-.7-.4-1.1-.6-.1.4-.4.9-.3,1.3.3,1.1.7,2.2,1.2,3.2,1.2,2.3,2,4.7.9,7.3-.1.3,0,.7,0,.9ZM125.8,163c0,.2,0,.4,0,.7,6.2.6,12.4,1,18.5,1.9,6.2.9,12.4,2.2,18.6,3.3,0-1.7-.2-3.3,0-4.9.2-1.2.1-1.8-1-2.4-5.1-2.6-9.7-6.1-14-9.9-.5-.5-.9-1.2-1.3-1.8-.1.1-.3.2-.4.4,0,.2-.1.4-.1.7,0,2.3-.9,4.1-2.8,5.5-4,2.9-8.5,4.5-13.3,5.4-1.4.2-2.8.7-4.2,1.1ZM341,200.3c-2,1.7-3.7,3-5.2,4.5-1,1-2.6,1.4-3.1,3-.6,1.8-1.4,3.5-2,5.3-.5,1.4-1.1,2.9-1.1,4.4-.1,2.6.1,5.2.1,7.9,0,1.2.6,1.6,1.5,1.2,2.9-1.1,5.9-.2,8.8-.3,1,0,1.5-.1,1.4-1.4-.2-2.2-.2-4.5-.1-6.8,0-3.9.3-7.7.3-11.6,0-1.3,0-2.7-.2-4,0-.6-.2-1.2-.4-2.2ZM276.5,288.9c.2,0,.3,0,.5,0,1-2.5,2-5,2.9-7.5,1-2.7,1.9-5.4,2.8-8.1.4-1.1.8-2.1-.9-2.6-.8-.2-1.7-.7-2.2-1.4-2.5-3.1-4.8-6.3-7.3-9.4-1-1.4-2.1-2.7-3.2-4-.2,0-.3.2-.5.3-.3,11.6.7,22.9,7.8,32.8ZM152.4,226.9c.6-.4,1.2-1,1.9-1.5,3-2.1,6.1-4.1,9.1-6.2,1.5-1.1,1.5-1.2.4-2.8-3.1-4.6-6.3-9.2-7-14.9,0-.3-.3-.7-.6-.8-.1,0-.6.2-.8.4-1,1-1.9,2.1-3,3.1-1.3,1.2-2.6,2.3-3.9,3.4-.8.7-.9,1.4-.4,2.4.6,1.3,1.3,2.6,1.6,3.9.9,3.7,1.6,7.4,1,11.2-.3,1.4.7,1.4,1.7,1.8ZM229.2,256.7c-.2,0-.4,0-.5,0-1.7,2-3.3,4.1-5,6-2.1,2.3-4.2,4.6-6.4,6.8-.6.6-.9.9-.5,1.8.7,1.6,1.4,3.3,1.9,4.9.8,2.4,1.4,4.9,2.1,7.4,0,.3.4.5.6.7.2-.2.5-.4.6-.7.6-1.7,1.2-3.4,1.9-5.2,0-.2.2-.5.3-.6,2-2.3,2-5.3,2.9-8,.9-2.7,1.4-5.5,2-8.3.3-1.5.2-3.1.3-4.7ZM286.9,185.9c2.4-2.7,4.6-5.3,6.8-7.9,1.5-1.8,2.9-3.6,4.3-5.4.3-.4.3-.9.5-1.3-6.2.6-11.8-.9-17.5-3.1,2.4,5.9,3,12.2,5.9,17.6ZM464.7,217.5c-.2,0-.3.1-.5.2-2.2,9.4-2.9,18.9-3.3,28.9.5-.3.8-.4.8-.5.8-1.9,1.9-3.7,2.4-5.7.7-2.8,2.4-5,4.1-7.2,1.2-1.6,2.9-2.9,4.4-4.4.2-.2.2-.7,0-1-.3-.4-.7-.7-1.2-1-2.4-1.6-3.8-3.9-5-6.5-.5-1-1.1-1.8-1.7-2.7ZM297.2,224.6c0,1.5,0,1.6,1.5,1.6,1.9,0,3.7,0,5.6.2.9,0,1.7.3,2.6.4,1.2,0,1.6-.5,1.1-1.6-1.1-2.5-2.2-5.1-3.4-7.6-1.7-3.3-3.4-6.6-5.2-9.8-.4-.7-1-1.2-1.6-1.8-.3-.3-.8-.4-1.2-.6-.1.5-.5,1.1-.4,1.6.2,1.5.7,3,.9,4.5.6,4.4,1,8.8.3,13.2ZM268.8,204c.2,0,.5.2.7.2.8-1.1,1.4-2.3,2.4-3.3,4-4.1,8.1-8.2,12.2-12.2.6-.6,1-.9.4-1.9-.8-1.5-1.4-3.2-2.1-4.8-.2-.4-.5-.8-.9-1.3-1,1.5-1.8,2.9-2.8,4.1-1.8,2.3-3.9,4.3-5.5,6.6-2.1,3-4.3,5.9-4.1,9.9,0,.9-.2,1.8-.3,2.7ZM196.8,146.4c-.1,0-.3,0-.4,0-.1.1-.2.3-.3.4-2.3,3.4-4.5,6.9-6.9,10.3-.5.7-.4,1.1,0,1.7,1.5,2,2.9,4.1,4.4,6.1,1.7,2.3,3.4,4.6,5.1,6.8.3.3,1.2.4,1.7.3.8-.2.7-.8.3-1.5-4.1-7.1-5-14.7-3.9-22.7,0-.4,0-.9,0-1.3ZM203.6,173.1c0,.2-.2.4-.2.6,3,3.9,6.1,7.8,9.2,11.7,1.6-1.7,5.2-14.9,4.5-16-.3.2-.6.4-.9.6-2.4,1.4-4.8,2.9-7.8,2.6-1.5-.1-3.1.3-4.7.4ZM218.1,180c-.4,1-.6,1.6-.9,2.3-.4,1.4-.7,2.8-1.3,4-.6,1.1-.6,1.8.5,2.5,3.5,2.5,6.3,5.6,9,8.9,1.1,1.3,2.3,2.5,3.6,3.9,0-.7,0-1,0-1.4-.5-1.7-.8-3.5-1.5-5.1-1.1-2.4-1.7-5.1-3.8-7.1-1.6-1.6-3.4-3.1-4.2-5.4-.3-.8-.8-1.5-1.3-2.6ZM330.3,184.7c.2,0,.4,0,.5-.1,1-3.2,2.1-6.4,3.1-9.6.2-.7.4-1.4.4-2.1.1-1-.3-1.5-1.5-1.3-2.4.4-4.8.6-7.3.9-1,.1-1.9.3-3.1.4,2.7,4.1,5.2,7.9,7.8,11.7ZM197,171.6c0-.2,0-.3.1-.5-.4-.3-.9-.6-1.2-.9-2.9-2.9-5.7-5.8-7.6-9.4-.7-1.2-1.3-1.1-2.2.2-1.4,1.9-2.8,3.8-4.2,5.6-.1.2-.3.4-.4.6-.6.9-.3,1.5.7,1.7,3.8.8,7.7,1.5,11.5,2.2,1.1.2,2.2.4,3.3.5ZM305.5,148.5l-.6.2c0,.8,0,1.7,0,2.5,0,2.2.4,4.6,0,6.7-.6,3.3-1.2,6.7-3.3,9.6-.5.7-.4,1.8-.6,2.8.9-.5,2.1-.8,2.6-1.6,2.7-3.4,5.2-7,7.6-10.3-1.9-3.3-3.8-6.6-5.7-9.9ZM296.5,236.2c.5,0,1.1,0,1.5-.3,2.2-1.1,4.3-.5,6.3.6,2,1.2,4.1,1.3,6.3,1.1.8,0,1.6-.2,2.6-.3-.9-1.8-1.8-3.6-2.7-5.3-.2-.3-.8-.6-1.2-.5-2.1.1-4.2.3-6.4,0-1.3-.2-2.6-.1-3.9,0-.7.1-1.9-.4-2.1.9-.2,1.2-.2,2.5-.3,3.7ZM340.1,245.9c.3-4.8.5-9.1.8-13.7-.6,0-1.4,0-2.1,0-2.1,0-4.2,0-6.3-.2-1,0-1.3.3-.8,1.1,2.1,3.5,4.1,7,6.2,10.4.5.8,1.3,1.5,2.1,2.4ZM100.4,226.2c-1.4.1-3,.2-4.7.4-1.7.1-2.5,1.2-1.8,2.8,1.5,3.6,2,7.5,4.2,10.8.5.8,1,1.5,1.5,2.3.2,0,.5-.2.7-.2v-16ZM32.3,214c-.2,0-.3-.1-.5-.2-.3.3-.6.7-.8,1-1,1.7-1.9,3.4-2.8,5.1-.2.4-.5.7-.9.9-1.2.7-1.4,2-.3,2.9,2.4,2,3.3,4.8,4.4,7.5.5,1.3.9,2.6,1.4,3.9.3,0,.5,0,.8-.1,0-7-.9-14-1.3-21ZM101.7,208.6c-.5.3-.9.4-1,.6-.9,1.4-1.8,2.7-2.5,4.1-1.6,3-3.2,6.1-3.9,9.5-.2.8-.1,1.3.7,1.4,1.9.3,3.8.5,5.7.6.2,0,.5-.7.5-1.1,0-2.9,0-5.7,0-8.6,0-1.5.3-3,.4-4.5,0-.5,0-1.1.2-1.9ZM383.4,237.6c.6,0,1,0,1.3-.2,2.2-.9,4.2-1.1,5.8,1.1.6.8,1.4,1,2.4.2.7-.6,1.6-.8,2.4-1.3.3-.2.7-.6.6-.8-.3-1.5-.8-2.9-1.1-4.4-2.5,0-4.9,0-7.3,0-.4,0-1,.2-1.2.6-.9,1.4-1.7,2.9-2.8,4.8ZM304,169.6c0,.2.2.3.3.5.8,0,1.6,0,2.3-.2,2.7-.5,5.5-1,8.2-1.4,1.5-.2,1.9-.8,1.1-2.1-1.2-2.1-2.4-4.1-3.6-6.2,0,0-.2-.1-.4-.2-1.7,4-5.2,6.5-8,9.6ZM335.2,164.6c-1.6.7-2.7,1.5-3.9,1.8-3.1.7-6.3,1.2-9.5,1.9-.6.1-1.5.6-1.7,1.1-.2.4.4,1.2.9,1.6.3.3.9.4,1.4.3.9,0,1.8-.4,2.7-.5,2.9-.2,5.7-.4,8.6-.6.4,0,1-.5,1.1-.8.2-1.5.3-2.9.4-4.7ZM168.5,181.7c.3-.3.7-.6,1-.9,1.6-2.2,3.3-4.5,4.8-6.7.7-1,.3-1.4-1.2-1.7-2.2-.3-4.4-.7-6.6-1.1-1.3-.2-1.6,0-1.3,1.3,0,.3.2.6.3,1,1,2.6,1.9,5.3,3,8.1ZM178.2,169.1c-4.3-1.4-8.6-2.6-12.2-5.4-.8-.6-1.1-.2-1.2.6,0,1.4,0,2.8-.3,4.1-.2,1,.3,1.1,1.1,1.2,3,.5,6,.9,9,1.6,2,.5,3,.1,3.6-2.1ZM394.9,211.3l-.4-.2c-1.5,1.7-3.6,2.9-3.3,5.7,0,.3,0,.7,0,1-.7,2.4-.2,5.2-1.7,7.4,0,.1.4.8.7.9.5.1,1.1,0,1.6-.1,2.4-.4,2.4,0,2.5-2.5.1-3.4.5-6.8.7-10.3,0-.6,0-1.3,0-2ZM319.6,194.8l.4.6c.8-.5,1.6-.9,2.2-1.5,2.1-1.9,4.1-3.9,6.1-6,1.9-2,1.8-1.9-.1-4.2-.9-1-1.4-.8-2,.5-.8,1.7-1.6,3.4-2.6,4.9-1.3,2-2.7,3.8-4.1,5.6ZM345.4,226.2c2,0,4,.1,6,.1,1.7,0,3.4,0,5.1-.1.4,0,.7-.1,1.1-.2-.3-.3-.5-.7-.8-.9-1.3-.8-2.7-1.3-4.3-1.7-2.7-.6-5.4,0-7.1,2.8ZM350.6,216c0-.1-.2-.2-.3-.3-2.8.4-5,1.8-7,3.8-.2.2-.3.5-.3.8-.2,1.5-.4,3-.6,4.5,0,.5.2,1,.3,1.4.4-.4.9-.7,1.2-1.1,1.4-2.1,2.7-4.2,4.1-6.2.7-1,1.7-2,2.5-2.9ZM215.4,278.3c.1-.1.3-.2.4-.4-.4-1-.9-2-1.2-3.1-.9-3-1.2-3.2-4.1-2.2-.1,0-.2.1-.3.2,1.7,1.8,3.5,3.6,5.2,5.4ZM284.3,279.1c.1.1.3.2.4.4,1.7-1.4,3.4-2.7,5.3-4.3-1.3-.5-2.3-.9-3.5-1.4-.8,1.8-1.5,3.6-2.3,5.3ZM178,171.6c3,.1,5.7.3,8.5.4,0-.1,0-.2,0-.4-.4-.2-.8-.4-1.2-.6-1.1-.4-2.3-.7-3.4-1.2-1.8-.7-2.6-.4-4,1.7ZM314.8,169.9c0,.3,0,.5,0,.8,1.3.2,2.6.4,4,.5,0-.2.2-.3.3-.5-.5-.6-.9-1.7-1.4-1.7-1,0-2,.5-3,.9Z"/>
</svg>