<?xml version="1.0" encoding="UTF-8"?>
<svg id="Calque_1" data-name="Calque 1" xmlns="http://www.w3.org/2000/svg" version="1.1" viewBox="0 0 500 500">
  <defs>
    <style>
      .cls-1 {
        fill: #75683b;
        stroke-width: 0px;
      }
    </style>
  </defs>
  <path class="cls-1" d="M246.2,344.5c-.4,1.2-.7,2.1-1.1,3-.2,0-.4,0-.6.1-.6-2.1-1.5-4.1-1.8-6.2-1.6-9.7-1.5-19.5,0-29.3.9-5.9,1.3-11.9,1.5-17.8.3-8.4.3-16.7.4-25.1,0-1.8-.2-3.7-.8-5.5-.4,3.9-.9,7.9-1.2,11.8-1,16.7-3.9,33.1-9.2,49-2.3,6.9-3.2,14.1-4,21.3,0,.2-.1.5-.3.8-2.4-11.2-6.2-21.9-10.8-32.3-4.6-10.3-8.9-20.7-13.9-30.8-.3,0-.5.1-.8.2v16c-.3.1-.8.4-1.2.4-4.6.5-6.9,4.3-5.7,9.1.6,2.5,1.7,4.8,2.3,7.7-.9-.7-2-1.1-2.7-2-2.2-3.1-4.3-6.3-6.4-9.5-2-3-2.6-6.3-2.6-9.9,0-11.5-.5-22.9-.8-34.4,0-.5-.1-1.1-.3-2.2-1.2.9-2.3,1.5-3,2.4-4.6,5.6-8.9,11.5-13.7,16.9-3.2,3.6-3,6.2-.7,10.3,9.3,16,19.2,31.4,31.5,45.3,13.3,15.1,28.6,27.4,47.7,34.5,11.1,4.1,22.5,5.3,34.2,3.6.3,0,.7,0,1,0,.2,0,.5,0,.8.2-10.9,5.4-22.5,7.5-34.5,7.7-12.4.2-23.5-3.6-34-9.9-.2.3-.4.5-.6.8,1.6,2.7,3.1,5.3,4.7,8-.2.1-.3.2-.5.4-7.2-6.9-14.5-13.7-20.5-21.7-6-7.9-11.7-16-17.6-24-.2,0-.4,0-.6,0-.7,4.7-1.4,9.4-2.1,14.1-.2,0-.4,0-.6,0-.5-1.8-1.1-3.5-1.4-5.3-2.9-15.6-9.3-29.8-18.2-42.8-1-1.5-2.2-3-3.5-4.3-1.3-1.4-2.4-1.4-3.2.4-1.2,3.1-2.4,6.3-2.8,9.5-1.7,16.4,4.7,30.2,14.7,42.7.8,1,1.5,2,2.3,3-.2.2-.3.3-.5.5-1-.7-2.1-1.4-2.9-2.2-5.5-5.4-10.7-11.2-14.7-18-.9-1.5-2-2.8-3-4.2-.2,0-.5.1-.7.2-.7,3.1-1.5,6.3-2.3,9.7-1.1-1.9-2-3.6-3.1-5.2-1.2-1.9-2.3-2-3.1.2-1.8,4.9-3.3,9.8-5,14.7-.1.4-.2.7-.3,1-1.7-6.2-3.3-12.4-5-18.6-.1-.5-.3-.9-.4-1.4-1.1-2.9-2.4-3.5-5.2-2-2.3,1.2-4.6,2.7-7.3,4.3.3-1.4.4-2.3.7-3.2,2.9-8.5,2.7-17.4,2.8-26.2,0-1.9-.8-2.2-2.5-1.2-1.5.9-3,2-4.9,3.3.5-3.1,1.1-5.5,1.3-8,.3-5.1.3-4.3-4-4.1-5.1.2-9.9,1.7-14.6,3.7-5.2,2.2-6.4,6.7-6.5,11.6-.2,9,2,17.3,6.7,25,.7,1.1,1.3,2.3,1.7,3.6-6.1-3.1-9.9-9-15.3-12.9-.2.1-.4.2-.6.4.5,1.3.8,2.7,1.4,3.9,5,9.6,12.1,17.3,21.2,23.3,18.5,12.3,38,22.5,58.9,29.9,5.7,2,11.9,2.8,17.9,4.2.5.1,1,.3,2,.5-6.7,1.1-12.7.5-18.8-.3-21.5-2.9-40.4-12.2-58.5-23.5-1.1-.7-2.4-1.3-3.6-1.9-.7,1.9-.6,2.6,1.5,4.7,1.2,1.3,2.7,2.3,4.1,3.4-.2.3-.5.6-.7.9-1-.5-2.1-.9-3-1.6-6.9-5.3-13.9-10.5-20.5-16.2-10.8-9.2-21-19-29.9-30-1.6-2-3.2-4-4.7-6-.4-.6-.7-1.3-1.3-1.8-2.5,3.5-.7,6.7-.6,10.4-1.5-1.9-2.7-3.3-3.8-4.7-13-16.7-21.9-35.4-27.2-55.7-2.2-8.5-2.4-17.2-2.1-25.9.5-18.2,8.6-33.1,19.7-46.9,3.9-4.8,3.2-3.9-.9-7.2-.9-.8-2-1.4-3.2-2.2,7.6-3.9,14.8-8,22.3-11.6,19.4-9.4,38.8-18.9,58.5-27.7,16.4-7.3,33.4-13.2,50.9-17.3,8.9-2.1,18-3.5,27-5.2.5,0,1.1,0,1.7.4-1.1.4-2.2.8-3.3,1.1-17,5-34.2,9.4-50.7,16.1-16.7,6.8-32.6,15.1-47.1,25.9-3.7,2.8-7,6.2-9.9,9.8-3.6,4.4-3.1,9.6.4,13.9,1.5,1.9,2.4,2.1,4,.4,1.3-1.3,2.3-2.9,3.7-4.6,1.7,1.8,1.9,4.1,2.1,6.4,1,13-1.7,25.4-6,37.6-1.2,3.5-2.6,7-3.9,10.5-.2.6-.6,1.1-1.1,1.6.3-3.5.5-6.9.9-10.4,1.4-12.1-3.2-22.2-11.3-30.7-4.2-4.4-9.1-4.1-13.4,0-6.3,6.1-10.1,13.7-12.9,21.9-3.1,8.9-5,18.1-4.2,27.6.6,8,2.1,15.7,6.1,22.7.4.7.7,1.4,1,2.1-.2.2-.3.3-.5.5-3.1-2.8-6.2-5.6-9.3-8.4-.2.1-.5.3-.7.4.2,1.3.3,2.6.7,3.9,2.5,8.1,6,15.7,11,22.6,3.4,4.7,7.7,8.2,13.6,9,3.7.5,6.9-.8,9.5-3.4.5-.5.8-1.4.7-2-.1-.4-1-.9-1.6-1-1.2-.3-2.5-.2-3.7-.4-.6,0-1.1-.4-1.7-.9,9.4-2.9,15-9.7,19.6-17.6-.1-.2-.2-.4-.4-.6-4.3,2.1-8.6,4.3-12.9,6.4l-.5-.6c25-19.3,31.3-45.8,30.1-75.8.7,1.9,1.3,3.7,2,5.4.7,1.9,1.4,3.8,2.3,5.7.9,2,1.9,2.1,3.3.4,3.9-4.6,5.4-9.9,4.8-15.8-1-8.9-5-16.4-11.2-22.8-.8-.9-1.6-1.8-2.4-2.8.2-.2.3-.4.5-.6,1.4,1,3,1.9,4.3,3,8.3,7,14.5,15.7,18.9,25.6,2.7,6,4,12.3,4.9,18.7,0,.4.1.8.3,1.2.1.4.3.7.6,1.4.6-.5,1.1-.8,1.4-1.2,3.7-5.4,6.8-11,8.5-17.4.7-2.8.6-5.5-1.2-8.6,3.8,1.2,7.1,2.3,10.5,3.3,3.7,1,7.4,2.1,11.1,2.7,2.6.4,3.4-.8,1.9-2.9-2.2-3.2-4.7-6.2-7.5-9-7.2-7.2-16.1-11.4-26.1-13.4-.9-.2-1.9-.1-2.9-.3-1.1-.2-2.2-.4-3.3-.7,0-.2,0-.5,0-.7,1.3-.3,2.7-.8,4-.9,12.6-1.6,24.8-.5,35.9,6.1,10.2,6.1,17.7,14.9,23.5,25.1,5.1,8.9,8.8,18.3,11.6,28.1.4,1.3,1,2.5,1.4,3.7h.8c.3-2,.7-4.1,1-6.1,1.4-8,2.4-16.1,4.5-23.9,4.2-15.9,11.5-30.6,20.1-44.6,1.6-2.6,3.3-5.2,5-7.7.2-.4.6-.7,1.3-.8-.5,1.2-.9,2.4-1.5,3.6-3.4,7.7-7.4,15.1-9.3,23.4-1.9,7.9-4.3,15.7-3.9,24,0,1.4.4,2.7.6,4.1l.8.2c1.5-1.9,3-3.7,4.5-5.6.1,0,.2,0,.4.1-.2,1-.4,2-.7,3-3.2,10.6-5.8,21.4-4.7,32.5,1.4,13.5,4,26.8,9.2,39.4,1.5,3.7,3.1,7.3,4.7,10.9.4.9,1.1,1.7,1.6,2.5.2,0,.5,0,.7,0,.5-1.6,1.2-3.3,1.5-4.9,2.5-14.4,3.4-28.8,2.5-43.4,0-.8-.3-1.6-.3-2.4,0-.8,0-1.6.2-2.5,3.2,4.6,3.2,10.6,6.5,15.3,7.8-25.5,5.7-51-.9-76.5.2,0,.5-.1.7-.2.3.6.7,1.1,1,1.8,3.8,8.7,6.3,17.7,7.3,27.1,1.2,11.2,2.2,22.5,3.4,33.7.3,3.3,1.3,6.4,3.6,9,.6.7,1.4,1.2,2.5,2.3.5-3.1,1.1-5.6,1.3-8.1.4-6.6.6-13.3.9-19.9.7-16,4-31.5,10.2-46.3.1-.3.3-.6,1-.8-.2,1.4-.4,2.7-.7,4.1-1.7,8.2-3.8,16.4-4.9,24.7-.8,6.3-.9,12.8-.5,19.1.4,7.3,1.7,14.5,2.8,21.8.3,1.7,1.4,3.3,2.3,4.9.7,1.2,1.7,1.1,2.7.1,2.4-2.3,3.7-5.2,4.3-8.3.8-4.3,1.3-8.7,1.7-13,.3-2.9.3-5.8.4-8.6,0-.6.2-1.3.9-1.9.6,1.6,1.2,3.1,1.8,4.7.3.6.5,1.3.8,1.9,1.3,2.7,2.2,3.1,4.8,1.9,2.7-1.3,5.3-2.8,7.8-4.5.8-.5,1.5-1.7,1.6-2.7.9-19.7-1.2-38.8-10.3-56.7-1.8-3.5-3.7-7-5.5-10.5-.2-.3-.2-.7,0-1.3.7.9,1.4,1.7,2.1,2.6,12.7,17.3,21.5,36.5,26.6,57.4,0,.4.2.8.3,1.2.7,2.3,1.6,2.6,3.6,1.4,2.4-1.4,4.8-2.8,7.3-4.2.8-.4,1.7-.6,2.6-.9,0,.2.2.3.3.5-1,1.2-2.1,2.3-3.1,3.5-1,1.2-1.9,2.4-2.8,3.5.1.3.3.5.4.8,3-.2,6-.1,8.9-.6,5.8-1,11.7-2.3,17.4-3.6,5.6-1.3,9.2-4.7,11.3-10.2,4.2-11.3,12-19.8,22.3-26.1.7-.4,1.6-.7,2.8-1.3-3.1,3.4-5.8,6.3-8.3,9.3-5.5,6.5-6.8,14-5.1,22.2,1.1,5.5,5.1,8.7,10.7,9.5,8,1.1,15.2-1,22.2-4.3,1.6-.7,2.4-.6,3.5.8,4.5,5.3,6,11.7,7.6,18.1.4,1.4.4,2.9.5,4.5-2.5-2.3-4.8-4.9-8.5-4.8-3.7.1-5.6,3.2-8.3,5.3-2.9-3.2-6.6-5.2-11-5.5-3.9-.3-7.8-.1-11.7,0-2,0-2.7,1.4-3,3.1-1.4,6.6-2.8,13.2-4.1,19.8-.8,4-1.3,8.1-2,12.8,14.8-2.6,28.2-6.6,38.5-18-.2.7-.3,1.4-.5,2-3.7,8-8.2,15.5-13.5,22.5-1.7,2.2-3.3,4.4-4.9,6.6-1.4-1.2-2.7-2.4-4.2-3.3-.8-.5-2.2-.7-3-.3-5.3,2.2-10.5,4.6-15.7,7-.6.3-1.1,1.3-1.2,2.1-1.2,8.3-.5,16.5,1.2,24.7.9,4,1.7,8,2.7,12,1.1,4,6.5,7.2,10.7,6.5,2.1-.4,3.3-1.8,4.2-3.6.6-1.2,1.1-2.5,1.7-3.6,1.8,1.9,3.4,3.9,5.2,5.7,1.4,1.3,3.2,2.7,5.2,1.7,2-.9,1.9-3.1,2-5.1.3-8.7-1.6-16.7-7-23.8-.5-.7-.8-1.5-1.2-2.2.2-.2.3-.4.5-.6,1,.6,2.1,1,2.9,1.7,4.5,3.6,7.9,8.1,10.2,13.5.7,1.6,1.5,3.2,2.6,5.4,2.2-3.9,4.1-7.2,6.2-10.9.9,2.1,1.6,3.9,2.6,6.1.9-.8,1.7-1.3,2.3-2,6-8.4,11.4-17.1,14.4-27,1.5-4.9,2-9.9-.3-14.8-.5-1.1,0-1.6,1-2,6.3-2.5,8.5-5.7,8.6-12.5,0-4.5,0-9.1-1.9-13.3-.7-1.5-1.9-2.7-2.9-4-.4-.5-.7-1.1-1.1-1.7-1.3-1.9-2.5-3.9-3.9-5.7-1.1-1.5-2.3-1.2-3.3.2-.9,1.3-1.8,2.5-3.1,4.3-.8-1.9-1.6-3.2-2.1-4.7-2.5-8.7-4.4-17.6-4.1-26.6.3-8.1,2.1-16.1,3.2-24.1,0-.4.3-.7.8-1.6.3,2.1.7,3.7.7,5.3.4,14.9,6.3,27.4,17.1,37.4,4.2,3.9,7.3,8.4,9.9,13.4,1.8,3.3,2.8,3.3,4.6,0,5-9,9.8-18.1,11.4-28.3.8-5.1.3-10.4.5-15.6.1-3.3-4.1-6.5-7.9-5.4-2.2.7-4.3,1.6-6.7,2.5-1.1-4.8-3.9-8.7-7.6-11.8-4.2-3.5-8.5-7-13-10.1-21.8-15.5-45.9-26.4-71.4-34.2-11.5-3.5-23-6.9-34.5-10.3-.7-.2-1.4-.4-2-.7,0-.2,0-.4.1-.6,2.3.3,4.6.6,6.9,1,38.5,6.7,74.5,20.5,109.5,37.5,20.4,9.9,40.9,19.5,61.4,29.3-.3.6-.4.8-.5.9-6.4,2.8-9.2,8.3-11.2,14.4-.4,1.4-.8,2.8-1.1,4.2-.7,2.8.8,4.7,3.8,4.6,1.2,0,2.4-.2,4.3-.4-1.3,1.1-2.1,1.9-3,2.6-12.4,9.6-21.9,21.6-29.2,35.5-1.9,3.6-2,6.8-.3,10.4,7.4,16.1,17.2,30.5,30.3,42.6,1.3,1.2,2.8,2.3,4.6,3.8-4.1,5.5-8.1,10.9-12.5,16.9-.3-3.4,1.3-6.4-.6-9.5-.8.7-1.6,1.2-2.2,1.9-5,5.6-9.9,11.4-15.1,16.9-11.5,12.2-24.4,22.7-38.2,32.2-.5.3-1,.6-1.9,1.2.9-2.9,3.5-4.7,3.2-8.1-1.5.8-2.8,1.3-4,2.1-9.3,6.1-19,11.4-29.3,15.4-11,4.3-22.2,8-34,9.4-5.5.6-11,.7-16.5.6,13.2-1.1,24.9-6.9,36.8-11.9,14.2-6,27.9-13,41-21.1,8.1-5,15-11.5,21.1-18.9,1.8-2.2,3.2-4.9,4.8-7.4,4.4,2.3,7.2,1.7,10.4-2.4,6.4-8.2,8.5-17.2,4.9-27.1-2.6-7.2-5.6-14.2-8.4-21.3-.5-1.2-1.4-2.3-2.4-4-4.6,10.3-5.9,20.9-9.5,31-.3-1.8-.5-3.7-.8-5.5-.4-2.3-1.5-2.9-3.1-1.2-3.1,3.1-6.2,6.4-8.8,10-6.2,8.9-9,19-10.8,29.6-.3,1.5-.5,3-.7,4.5,0,.1-.1.2-.2.3-1.8-.8-3.5-2-5.3-2.3-7.2-1.3-13.2,1.6-18.4,6.2-1.7,1.5-2.8,3.5-4.2,5.3-.5.7-1,1.4-1.5,2.2-4.7-3.3-9.4-5.9-15-7.4-1.2,5.2,2.4,9.4,2.1,14.4-.7-.7-1.5-1.4-2.2-2.2-2.2-2.6-4.2-5.2-6.4-7.8-3.6-4.3-8.2-6-13.8-4.8-3.1.7-4.2,2-4.6,5.2,0,.6-.6,1.4-1.1,1.7-3.7,2.1-7.5,4.1-11.3,6.1-.5.3-1,.5-1.8.8,5.8-14.1,12.4-42.4,11.6-50.6-1.3,1.3-2.4,2.2-3.3,3.3-1,1-1.8,2.2-3,3.1,9.8-22.7,12.3-46.4,12-70.9-4.8.2-8.5,1.9-11.9,4.7-3.3,2.7-5.2,6.4-6.8,10.9-1.4-5.1-1.1-9.6.9-13.8,1.3-2.7,3.2-5.1,4.7-7.6.6-.9,1.3-2.2,1.1-3-.2-.6-1.8-1.2-2.7-1.3-7.9-.6-14.2,2.1-18.6,8.9-4.3,6.6-6.7,14-9.2,21.3-1.6,4.8-3,9.6-4.6,14.7,7.4,0,11.2-4.6,14.5-10,8.7,7.8,14.6,17,16.9,28.9-.8-.7-1.2-1.1-1.6-1.5-4.3-4.7-9.7-6.2-15.9-6.3-10.8,0-17.5,8-18,18.2-.5,9.8,1.3,19.2,4.7,28.3.4,1.1.7,2.3,1.1,3.5.1.4.2.7,0,1.4-2.6-2.5-5.2-5.1-7.8-7.6-.2,0-.5.2-.7.2.3,2,.4,4.1.9,6,2.8,11.3,8.3,21.1,16.6,29.2,1.4,1.4,2.7,3,4.1,4.5-.1.2-.2.3-.4.5-1.1-.4-2.1-.7-3.1-1.2-7.8-3.9-14.1-9.6-18.6-16.9-5.4-8.7-9.7-18-11.2-28.1-1.2-8.2-1.3-16.5-1.8-24.8,0-1.3,0-2.6-.2-3.9-.3-2.6-1.3-3.7-3.9-3.8-1.9-.1-3.8.3-5.7.4-.5,0-1,.2-1.5.3-.1-.2-.2-.3-.4-.5.7-.8,1.4-1.8,2.3-2.4,3.6-2.5,7.2-5.2,11.1-7.4,3.7-2,5.6-4.8,6.2-9,1.4-9.7,3.2-19.3,4.8-28.9.4-2.3.6-4.6.8-6.9,0-.5-.2-1.1-.4-1.7-.6.2-1.5.1-1.9.5-3.9,3.9-8.1,7.5-11.5,11.7-7.3,9.3-10.9,20.4-12.9,31.9-1.6,9-1.2,18-1.2,27.1,0,.8,0,1.6-.1,2.5,0,.2-.2.3-.5.9-1.1-1.9-2.2-3.7-3.2-5.4-.3,0-.6,0-.8.1-.2,1.6-.7,3.2-.7,4.8.2,9.4,2.2,18.5,5.5,27.2,1.8,4.7,4.3,9.1,6.5,13.7.5.9,1,1.9,1.2,2.9-5.8-3.9-9.5-9.8-14.5-14.4-.5,10.7,6.6,17.4,12.9,24.4,0,.2-.2.4-.2.6-1.2-.3-2.7-.2-3.6-.9-2.6-1.7-5.2-3.5-7.6-5.6-3.1-2.9-6-6-9-9.1-.8-.8-1.7-1.5-2.9-2.5ZM174.7,237.3c.2-.2.4-.4.6-.6-.5-1.1-.7-2.4-1.5-3.3-2.3-2.8-4.7-5.5-7.4-8-6.6-6.3-14.8-8.2-23.5-8.5-1,0-1.8,0-1.6,1.6.1.8-.7,2.1-1.5,2.5-4.5,2-7.1,5.6-8.6,10-3.9,11.4-3.3,22.7,1.3,33.8.5,1.1.9,2.2,1.3,3.3-.2.1-.4.2-.6.4-2.8-3.2-5.6-6.3-8.8-9.9,2.3,16.1,4.6,31.6,6.9,47.2.1.8.5,1.5.9,2.7.6-1.2,1.2-2,1.4-2.8.8-2.4,1.6-4.8,2.1-7.3,1.7-9.4,3.1-18.9,4.7-28.3,1.5-8.7,1.4-17.5,0-26.2-.5-3.2-1.1-6.4-1.7-9.5.1,0,.3-.2.4-.3,2.4,3.1,4.7,6.2,7.1,9.3.3,0,.6-.2.9-.3,1.7-6.5-1.3-13.1-.2-19.8,1.6,3.2,3,6.4,4,9.8,3.3,10.4,3.6,21.3,4.6,32,.1,1.4.7,2.7,1.1,4,1.3-.7,2.8-1.2,3.9-2.1,8.9-8,11-18.5,7-30.5-.2-.6-.4-1.2-.6-2,2.9,1.1,5.3,2,7.8,2.8ZM100.9,253.2c-5.3,7.3-8.9,15.1-12.1,23.5,1.1,0,1.7.1,2.2,0,5.4-1.4,10.8-1.1,16.3,0,2.5.5,3.5-.4,3.3-3-.5-6.3-1.2-12.5-1.9-18.8-.1-1.2-.6-2.4-.9-3.6-.3,0-.5,0-.8,0-1.1,2.3-2.2,4.5-3.5,7.3-1-1.9-1.8-3.4-2.7-5.3Z"/>
</svg>