<?xml version="1.0" encoding="UTF-8"?>
<svg id="Calque_1" data-name="Calque 1" xmlns="http://www.w3.org/2000/svg" version="1.1" viewBox="0 0 500 500">
  <defs>
    <style>
      .cls-1 {
        fill: #75683b;
        stroke-width: 0px;
      }
    </style>
  </defs>
  <path class="cls-1" d="M438.3,218.7c0,0,0-.1.1-.2.2-.1.5-.2.6-.4.6-.8,1.2-1.6,1.7-2.4.9-1.5,1.8-3.1,2.7-4.7.2-.3.3-.8.2-1.1,0-.6-.2-1,.2-1.5.2-.3.2-.9.3-1.3,0-1.4,0-2.8.1-4.2,0-.5.2-1.1,0-1.6-.1-1-.3-1.9-.5-2.9-.3-1.2-.5-2.4-.9-3.6-.4-1-1-1.8-1.5-2.8.8.2,1.5.3,1.9,1.1.1-.1.3-.3.3-.4-.3-.6-.5-1-.8-1.4,0,0,.2-.2.2-.3.5.1.9.2,1.4.4.5.2.9.4,1.3.7,0,0,0,0,0,0,0,0,0,0,0,0,0,0,0,0,0,0,.3-.6.6-.2.8.1-.2.1-.4.2-.6.3.4,1.3,1.7,1.1,2.6,1.7-1-.2-2-.3-3-.5-1.1,1.5.7,1.4,1.1,2-.2.3-.3.5-.4.7,0,0,0,0-.1,0,0,0,0,0-.1,0-.1,0-.2,0-.3,0-.2,0-.4,0-.6,0,0,0,0,0,0,0,0,0,0,0,0,0,.2.1.4.2.6.3.4.3.8.6,1.1,1,.3.3.6.7,1,1,.3.2.6.4.9.6-.2.3-.5.5-.7.8,0,0-.1.1-.2.2-.6.1-1.2.2-2,.4.2.2.4.3.6.4,0,.1,0,.2,0,.3-.1.4-.3.8-.5,1.3-.3-.1-.5-.2-.6-.3-.2.9-.4,1.7-.6,2.5.3,0,.5.2.7.2,0,4.4-1.6,8.4-3.4,12.3,0,0-.2-.2-.3-.4-.2.4-.4.7-.4,1.1,0,1.2-.3,2.2-1.2,3.1-.4.4-.8.8-1.3,1.2-.5.4-1,.8-1.6,1.1-.3.2-.7.3-1.1.6-1.5.9-2.9,1.9-4.3,2.8-.7.4-1.3.8-2,1.2,0,0,0,0,0,.1.4,0,.9,0,1.3,0-5.9,3.4-12.3,5.8-18.7,8-3.5,1.2-7.1,2.1-10.8,2.1-3.2,0-6.4.2-9.5-.2-3.1-.4-6.2-1.4-9.3-2.2-1.3-.3-2.5-.7-3.7-1.1,0,1.3.2,2.7.3,4,.2,2.6.4,5.2.6,7.8,0,.8.1,1.6.2,2.3.1,1.7.2,3.4.3,5.1.2,2.3.3,4.5.6,6.8.4,3.2.8,6.4,1.5,9.5.9,4.1,2.8,7.8,6.1,10.6.8.6,1.6,1.3,2.4,2.1.5-.6.9-1,1.2-1.5,3.3-5,6.7-10.1,10-15.2,0-.1.2-.2.4-.5.2.9.4,1.6.5,2.4.3,2,.6,4.1,1,6.1.3,2,.7,4.1,1.1,6.1.3,1.3.9,2.6,1.4,3.9,1,2.6,2,5.3,3.2,7.9,1,2.1,2.4,4,3.6,6.1,1.2,2,2.4,4.1,3.6,6.1,1.3,2.2,2.7,4.4,4,6.6.8,1.4,1.6,2.8,2.5,4.4-.4-.1-.6-.1-.8-.2-2.3-1.3-4.7-2.7-7-3.9-2.7-1.5-5.5-2.9-8.3-4.3-1.6-.9-3.2-1.8-4.9-2.6-1.8-1-3.6-1.9-5.4-2.8-2.2-1.1-4.5-2.3-6.8-3.4-2.3-1.1-4.5-2.3-6.8-3.4-1.4-.7-2.7-1.6-3.6-2.8-1.2-1.5-2.2-3.1-3.2-4.7-1.3-2.1-2.3-4.4-3-6.8-.4-1.4-1-2.7-1.4-4.1-.7-2.5-1.3-4.9-1.9-7.4-.4-1.8-.6-3.7-.8-5.6-.2-1.7-.4-3.5-.6-5.2-.1-1.4-.2-2.8-.3-4.1-.2-2.2-.4-4.3-.6-6.5,0-1-.1-1.9-.2-2.9-.1-2.1-.2-4.3-.3-6.4-.1-2.4-.3-4.9-.5-7.3,0-1.1-.4-1.9-1.4-2.5-1.9-1.1-3.6-2.4-5.5-3.6.2,4.8.5,9.4.7,14.3-1.4-.5-2.6-.9-3.9-1.3-1.3-.5-2.7-1-4-1.4-1.5-.5-1.5-.5-1.5-2.2-.1-2.7-.4-5.4-.6-8.1,0-1.2-.2-2.5-.1-3.7,0-.8-.2-1.3-1-1.3-1.3,0-2.7-.4-3.7.9-.2.2-.2.6-.3.9,0,.6-.2,1.3-.1,1.9,0,2.1,0,4.1.2,6.2,0,2.3.2,4.6.3,6.9.1,2.4,0,4.9.4,7.3.2,1.2-.1,2.3.1,3.4.2.8,0,1.5.1,2.2.1,1.1.3,2.2.5,3.3.4,2.1,1.9,3.3,3.9,3.9,1.6.5,3.2,1.1,4.9,1.5,2.1.6,4.3,1,6.5,1.5,1.1,7.3,2.2,14.8,3.3,22.2,0,0,0,0-.1.1-.2-.3-.6-.5-.7-.9-1.1-2.1-2.2-4.2-3.3-6.3-1-1.8-2.1-3.7-3.1-5.5-.1-.2-.4-.5-.6-.6-2.1-.8-4.1-1.7-6.3-2.3-2.8-.8-5.4-2.2-8-3.4-1.8-.9-2.9-2.5-3.9-4.1-.9-1.4-1.4-2.9-1.5-4.6,0-2.4-.2-4.7-.3-7.1,0-1.6-.2-3.2-.3-4.8,0-1.7-.1-3.5-.2-5.2,0-1.3,0-2.5-.2-3.8-.1-2.2-.2-4.4-.3-6.6-.1-2.6-.2-5.2-.3-7.8,0-1.2.2-2.4,1.1-3.1.7-.5,1.6-1,2.5-1.1,1.9-.2,3.8,0,5.8,0,.4,0,.8,0,1.3-.1-2.1-1.4-4.3-2.8-6.4-4.1-8.2-5.3-17-9.5-26.2-12.7-2.8-1-5.6-1.8-8.5-1.8-.8,0-1.6.1-2.3.4-1.1.4-1.7,1.1-2,2.3,2.8,0,5.6,0,8.4,0,1,0,1.9.2,2.6.7.9.6,1.7,1.2,2.4,2.2,1.3,1.8,2.8,3.4,4.2,5.1.6.8,1.3,1.6,1.9,2.4-1.3-.1-2.6-.3-3.9-.4-1.2-.1-2.4-.3-3.6-.4-1.8-.2-3.6-.4-5.3-.6-.6,0-1.3-.1-1.9-.2-2.2-.1-4.4-.2-6.6-.3-2.9-.1-5.8-.3-8.6-.3-2.9,0-5.9,0-8.9,0v7.9h6.6v5.7h-6.3v62.9c-.7-1.5-1.2-2.9-1.9-4.2-1.1-2.3-2.3-4.6-3.4-6.9-.7-1.4-1.2-2.9-1.9-4.3-.5-1.1-1-2.3-1.5-3.4-.1-.3-.2-.5-.2-.8,0-13.5-.1-27.1-.2-40.6,0-.3,0-.6,0-.9.3-1.8-.3-3-1.7-4.1-1.1-.9-2-2-3.1-3,0,0,0,0,0-.2h4.5v-9.2c-2.3.1-4.5.3-6.8.4-5.8.3-11.4,1.3-16.9,3-4.1,1.2-8,3-11.6,5.4-.2.1-.4.3-.6.5,0,0,0,0,0,.2,1.4,0,2.7.5,3.6,1.5.5.6,1,1.3,1.2,2,.3,1.2.6,2.5.6,3.8,0,5.7,0,11.5,0,17.2,0,2.4,0,4.7-.3,7.1-.3,2.6-1.2,5.1-3.1,7.1-.4.4-1,.8-1.6.8-3.1.2-6.2.3-9.2.4-2,0-3.7-.7-5-2.3-1-1.3-1.3-2.9-1.4-4.5,0-5.6,0-11.2,0-16.8,0-3.2,0-6.5.2-9.7,0-2.3.8-4.4,2.9-5.8.7-.5,1.6-.8,2.4-.8,2.3-.1,4.7,0,7,0,.3,0,.7-.1,1-.4,5-5.5,11.2-9,18.1-11.3,5.9-2,12.1-2.9,18.3-3.2.4,0,.8,0,1.3,0v-9.7c.6.6,1.2,1,1.7,1.5,1.6,1.5,3.1,3,4.6,4.5.8.8,1.6,1.6,2.4,2.3.1.1.4.2.7.3-.3,0-.5,0-.7,0,0,0,0,0,0,0h17.1c-.4-1-.8-1.9-1.1-2.8-.6-1.8-1.2-3.7-1.5-5.5-.3-2.1.7-3.1,2.8-3.3,2.5-.2,4.8.3,7.2.9,6.9,1.9,13.7,4.2,20,7.6,9.6,5.3,19.1,10.9,28.6,16.5,3.9,2.2,7.7,4.6,11.5,6.9.1,0,.2.1.4.2,0-1.5-.2-2.9-.2-4.2-.2-4.5-.3-9-.5-13.5-.1-2.4.7-4.4,2.1-6.3,1.7-2.3,3.9-3.8,6.7-4.4.8-.2,1.6-.3,2.4-.3,13.7,0,27.4,0,41.1,0,.3,0,.5,0,.8,0,1.3,0,2-1.2,1.3-2.4-.7-1.2-1.7-2-3.1-2.2-.2,0-.5-.1-.7-.2,0,0,0-.2,0-.3,1.8,0,3.6-.1,5.5-.2,0,.1.1.2.2.4,0-.1,0-.2.1-.3.3,0,.5,0,.8,0,0,.4-.3,1.1.4,1.1.7,0,1.3-.5,2-.8.2,0,.3,0,.5.1.3.2.6.4.9.5.7.3,1.5.5,2.2.7-.5.2-1,.5-1.3.3-1.2-.5-2.3-.2-2.9.8-.4.2-.8.3-1,.5-.9.8-1.7,1.6-2.6,2.4-1.3,1.1-2.6,2.2-3.8,3.4-.6-.1-1.3-.2-1.9-.3,0-.2-.1-.5-.2-.7-.1,0-.2,0-.3,0-1.7.3-3.3.6-5,1-.2,0-.4.3-.6.4,0,0,0,.1,0,.2,1.1-.1,2.2-.2,3.1-.3.8.9-.4,2.2,1,2.8-.4,0-.7.1-.9.2-.2,0-.6.2-.7.4-.1.7-.6.7-1.1.7,0,0,0-.2,0-.2,0-.4.1-.8-.4-.9,0,0,0-.2-.2-.2,0,0,0,0-.1,0,0,0,.2.2.2.2,0,.1,0,.3,0,.4-.8,0-1.7,0-2.5,0-.5,0-.8.1-1,.5-1.5,2.3-3.1,4.6-4.6,6.9-4.1,6.2-8.3,12.4-12.4,18.6-.2.3-.3.7-.2,1,.3,1.1.6,2.2.9,3.3,0,.2.1.4.2.4,1,.6,2.4.4,3.2-.4.9-.9,1.1-1.9,1-3.1,1.4.3,2.4.9,2.8,2.4,0,.3.2.5.3.8.4.9,1.1,1.2,2,.7,1.6-.9,2.4-2.6,2-4.4-.1-.6-.4-1.2-.6-1.7,1.2-.3,2.1,0,2.9.9.8.9,1.8,1.7,2.6,2.6.5.5,1,.8,1.7.7,0,.2-.2.4-.3.6.6.8,1.4.3,2.1.1,0,.3,0,.6-.1,1,.4,0,.8,0,1.2,0,0,.2,0,.3-.1.5-.2.3-.3.6-.5.9.3,0,.7.2,1,.2.4,0,.9,0,1.3-.1,0,0,0,.2,0,.2-.5.2-1,.3-1.4.5.1.2.3.4.4.6.4.8,1.1,1,1.9.7,2.3-.8,4.6-1.7,6.9-2.4,2.4-.7,4.6-2,6.6-3.4,1.8-1.2,3.5-2.6,5.2-4,.6-.5,1.5-1,1.6-2l.6-.6c.3,0,.7,0,.5-.5,0,0,0,0,0,0,.7,0,1.4-.8,1.5-1.6ZM378.4,225.3c1.9-.5,2.6-1.9,2.7-3.6,1.3.5,2.2,1.2,2.5,2.6.2,1.2.6,2.5,1,3.6,1,0,1.5-.3,1.7-1.1,0-.5.1-1,.2-1.5.4-2.6.8-5.2,1.2-7.8.4-2.4.8-4.8,1.1-7.2.3-2,.6-4,.9-6.1.3-1.8.5-3.6.8-5.4-2.8,0-5.5,0-8.2,0-.9,0-1.9.2-2.8.4-1.1.3-1.7,1.3-1.7,2.4,0,2.5.2,5.1.3,7.6.1,5.3.2,10.5.4,15.9ZM235.1,233.4s0,0,.1,0c0-3.9,0-7.8,0-11.8,0-.4,0-.9-.3-1.3-.7-.9-1.8-1.3-2.7-.9-1.1.4-1.8,1.3-1.8,2.5,0,1.1,0,2.3,0,3.4,0,5-.2,9.9-.2,14.9,0,2.3-.4,4.7.3,7,.3,1,.9,1.7,1.8,1.7.6,0,1.4-.4,1.9-.8.8-.8,1-1.9,1-3,0-3.9,0-7.8,0-11.7ZM388.8,197.9c.4,0,.9-.1,1.4-.1.5,0,.6-.2.6-.7,0-.6-.4-.6-.7-.6-.5,0-1,0-1.5,0-.3,0-.8.3-.7.4,0,.4.2,1,1,.8Z"/>
  <path class="cls-1" d="M53.1,200.3c0-.1,0-.2,0-.3.2-.1.3-.3.5-.4,0,0,0-.1-.1-.2-.3,0-.6.1-.9.1-.3,0-.7,0-1-.1,0-.1,0-.2-.1-.3-.2-.2-.3-.3-.5-.5,0-.1-.2-.2-.3-.3.1,0,.2-.2.3-.3.5-.4,1-.8,1.5-1.3.4-.3.8-.7,1.2-1v-.2h-.7c-.1-.2-.3-.4-.4-.6.6-.5,1.1-.9,1.7-1.4-.9-1.4-2-.1-3.1-.4,1.9-.8,2.2-1.3,1.7-2.3.2.1.4.2.5.3,0,0,0,0,0,0,0,0,0,0,0,0h0c.3-.2.6-.4.8-.5.6-.3,1.2-.7,2.1-.4-.2.5-.5.9-.8,1.5,0,0,.2.2.4.4.4-.8,1.2-1.3,1.8-1.2-.5.9-1,1.8-1.5,2.7-.2.5-.5,1-.6,1.5-.2,1-.4,2-.5,3.1-.2,1.3-.5,2.6-.2,3.9.1.7,0,1.4,0,2.1,0,.8.1,1.6.2,2.4,0,.5.4,1,.3,1.5-.1.9,0,1.5.6,2.3,1,1.3,1.5,2.9,2.3,4.3.5.9,1.3,1.7,1.9,2.5,1,1.1,2.1,2.2,3.1,3.4,0,.1.1.3.2.4,1.5,1.3,2.9,2.6,4.5,3.8,1.1.9,2.4,1.7,3.6,2.5.8.5,1.6,1.1,2.5,1.5,2.9,1.1,5.7,2,8.6,3,.8.3,1.7.6,2.4.8.4-.5.7-.9,1-1.3-.3,0-.6-.1-.9-.2,0,0,0-.1,0-.2.2,0,.5,0,.7,0v-.2c-1.2-.4-2.5-.7-3.8-1.1-.5-.2-1.1-.4-1.6-.6,0-.3,0-.7.1-1.1,1.3,1.5,1.9,1.8,2.4,1.1,1.3.9,1.7,1,2.3.6-.4,0-.7-.2-1-.3.2-.1.4-.3.6-.4,0-.2,0-.5.1-.7,0,0,.2-.1.2-.2,0-.1.1-.3.2-.4.2.7.6,1.1,1.3,1.6-.2-.4-.2-.7-.3-.9,0-.3,0-.6,0-.9.5.2.2,1.3,1.3.8-.5-.5-.9-1-1.3-1.4,1.3.4,2.5.9,3.8,1.3-.2.6,0,.9.7.8.3,0,.6.2.8.3.4.3.5.6,0,.9-.2.1-.4.3-.7.4.5.2,1,.4,1.4.5v.3c-.9-.1-1.8-.2-2.7-.4.6,1,1.7.4,2.3,1.1-.8-.1-1.6-.2-2.4-.4,0,.8.4,1,1,1.2.7.2,1.5.5,2.2.9.7.4,1.3.4,2,.1,1.8-.7,2.8-2.1,4-3.4.5,0,.9,0,1.5,0,.9-10.9,1.8-21.7,2.7-32.5-5.3,0-10.4-.2-15.6-.3-.6,0-1.4.2-1-.9-.7-.2-1.2-.3-1.9-.4.3-.1.6-.2.7-.3,0-.8,0-1.6.1-2.5.8,0,1.6.2,2.4.2.8,0,1.2.4,1.4,1.2,0,0-.2.1-.3.2-.1.2-.2.5-.2.7.2,0,.4,0,.6-.1.3-.2.6-.4.9-.5-.5-1-.4-1.2.6-1.2.7,0,1.3,0,2,.1.8,0,1.6.2,2.4.2.8,0,1.6,0,2.4,0,0,0,0-.1,0-.2-4.9-.7-9.9-.4-14.8-1.9,0,.3-.1.6-.2.8-.7.1-1.3.2-1.9.3-.1,0-.3-.1-.4-.2-1.6-1.5-3.2-3-4.9-4.4-.7-.6-1.5-1-2.3-1.6-.5-.9-1.7-1.4-2.6-1.1-.5.1-1,.1-1.5.2,0,0,0-.2,0-.3.7-.2,1.4-.3,2-.6.4-.1.7-.4,1.1-.6.1,0,.2,0,.3,0,.5.2,1,.5,1.6.6.3,0,.6.1.8,0,.2-.1.1-.5.2-.8.2,0,.5-.2.7-.3.9,0,1.9,0,2.8,0,.3.1.5.2.8.4-.1.3-.3.8-.5,1.2-.2.2-.4.4-.6.7q-1.1.3-.7,1.4c.2,1.3,1.4,2.3,2.8,2.3.6,0,1.3,0,1.9,0,13.2,0,26.3,0,39.5,0,3,0,5.8,1,7.9,3.3,2.3,2.4,3.6,5.3,3.5,8.7,0,3.3-.1,6.5-.2,9.8,0,2.3-.1,4.7-.2,7,0,2,0,4.1-.1,6.2,0,.3,0,.5,0,1,2-1,3.8-2,5.7-2.9.8-.4.9-.9,1-1.7,0-.8.1-1.4-.6-2-1.5-1.3-2.9-2.7-4.5-4.1.3,0,.5,0,.8,0,2.5,0,4.9-.1,7.4-.2,2.5,0,5.1-.1,7.6-.3.8,0,1.6-.3,2.3-.7,7.6-5.1,15.8-9.1,23.6-13.9,7.3-4.5,15.2-7.1,23.4-9.2,4.2-1.1,8.4-2,12.6-2.9,2.3-.5,4.8-.7,7.2-.3,2.3.4,3.1,1.6,2.5,3.8-1,3.9-2.8,7.5-5.5,10.5-.7.8-1.5,1.6-2.2,2.4,0,0-.2,0-.3.1.5-1,.9-2,1.4-2.9,1-2-.2-4.1-2.1-4.7-1.8-.6-3.7-.6-5.6-.4-5.7.6-11,2.5-16.5,4.1-9.1,2.5-17,7.3-24.8,12.4-1.4.9-2.7,1.8-4.1,2.7,1.5,1.9.9,4.1,1,6.2,0,1.7-.1,3.3-.1,5,0,1.1-.8,1.7-1.3,2.4-2.4,3.3-4.9,6.5-7.4,9.7,0,0-.1.1-.2.2v-17.7c-1.4.8-2.7,1.7-4.1,2.4-1.1.5-1.3,1.4-1.3,2.4-.1,2.9-.2,5.8-.4,8.7-.1,3.2-.3,6.4-.5,9.7-.2,3.2-.3,6.4-.5,9.6,0,1.5,0,3.1-.3,4.6-.1.9-.6,1.8-1.1,2.7-1.2,2.2-2.4,4.3-3.6,6.5-1.4,2.5-2.8,5-4.1,7.6-.9,1.8-1.8,3.6-2.7,5.5,0,.2-.2.3-.3.5,0,0-.1,0-.2,0,0-.9.2-1.8.3-2.6.2-2.3.5-4.6.7-6.8.2-2.3.5-4.5.8-6.8.1-1,.1-2,.2-3,.3-3.1.5-6.2.8-9.3,0-1.1.2-2.1.2-3.2.2-3.1.3-6.2.5-9.3.1-2.5.3-4.9.5-7.4,0-.8.1-1.7.2-2.6-.2,0-.3,0-.4.1-2,.9-3.9,1.8-5.8,2.7-.3.1-.5.5-.5.8-.3,3.4-.5,6.9-.8,10.3-.2,2.3-.3,4.5-.5,6.8-.3,2.9-.6,5.8-.9,8.7-.1,1.2-.2,2.4-.4,3.6-.4,2.1-.9,4.2-1.3,6.2-.4,1.6-.7,3.2-1.2,4.8-.3,1.1-.7,2.2-1.1,3.3-.9,2.2-1.8,4.5-2.9,6.6-1.3,2.6-2.9,5.1-5.2,7-.9.8-2.1,1.3-3.2,1.9-1.9,1-3.9,2-5.9,2.9-1.8.9-3.6,1.8-5.3,2.7-3.8,2-7.6,4-11.4,6-2.8,1.5-5.6,2.9-8.4,4.4-2.1,1.1-4.3,2.3-6.4,3.5-.3.1-.5.3-.8.5,0,0-.1,0-.2-.1.9-1.5,1.8-3,2.7-4.5,1-1.7,1.9-3.4,2.9-5.1.7-1.1,1.4-2.2,2.1-3.3.6-.9,1.1-1.9,1.6-2.9,1-1.7,2-3.4,3-5.1.8-1.4,1.6-2.8,2.4-4.2.2-.4.6-.7.8-1.1,1-1.8,1-3.8,1.4-5.7.3-1.4.5-2.9.8-4.3.3-1.9.6-3.9,1-5.8.3-1.6.6-3.1.8-4.7.3-1.8.5-3.5.7-5.3.3-2.1.6-4.1.9-6.2.3-2.2.5-4.5.8-6.7.4-3.5.7-7.1,1.1-10.6,0-.4.1-.8.2-1.3-1.4-.2-2.8-.3-4.1-.5-2.7-.5-5.5-1-8.1-1.8-3.2-1-6.4-2.3-9.5-3.5-3.5-1.3-6.9-3-10.2-4.8.4,0,.9,0,1.6.1-.3-.2-.4-.3-.5-.4-.8-.4-1.6-.9-2.4-1.3-1.8-.8-3-2.5-4.9-3.1,0,0-.2-.1-.2-.2-.7-.6-1.4-1.3-2.2-1.9-.9-.7-.9-1.7-1.4-2.5,0,0,0-.2,0-.2,0-.5-.1-1-.2-1.5,0,0-.1,0-.2,0,0,.1-.2.2-.2.3-1.8-4-3.5-7.9-3.4-12.4.2,0,.5-.1.7-.2-.2-.9-.4-1.7-.6-2.5-.2,0-.4.1-.6.3-.2-.5-.3-.9-.5-1.3ZM111.7,239.2c-1.2,14.6-2.7,29.3-5.2,43.9,2.2-1.3,4.2-2.7,6.1-4.2,1.9-1.5,3.5-3.3,4.4-5.5,1.4-3.2,1.7-6.6,2.2-10,.3-1.8.4-3.5.6-5.3.2-2.4.5-4.8.7-7.1.2-2,.4-4.1.5-6.1.2-2.1.4-4.2.6-6.4,0-.1,0-.3,0-.2-3.3.3-6.5.6-9.9.9ZM112.1,230.9c3.1,0,6.1,0,9-.9.4-.2.6-.3.6-.8.1-2.6.4-5.1.5-7.7.2-5.7.4-11.4.6-17.1,0-1.3-.1-2.7-.3-4-.1-1-.9-1.8-1.7-1.9-2.2,0-4.4,0-6.5,0-.7,10.8-1.5,21.5-2.2,32.4ZM108,195.5c1.1.2,2.3.3,3.4.5,0-.1,0-.3,0-.4-1.1-.4-2.3,0-3.5,0ZM103.2,195.5h3.3c-1.4-.5-2.9-.4-3.3,0ZM89.4,232.1c0,0,0-.2,0-.3-.2,0-.4.1-.6.2,0,0,0,.2,0,.2.2,0,.4-.1.6-.2ZM57.2,213.4s0,0,.1,0c0,0,0,0,0-.1,0,0,0,0-.1,0,0,0,0,0,0,.1ZM89.7,231.5s0,0,0,.1c0,0,0,0,.1,0,0,0,0,0,0-.1,0,0,0,0-.1,0Z"/>
  <path class="cls-1" d="M221.9,215.3c-1.4,1.1-2.6,2.1-3.9,3-.5.3-.7.7-.7,1.3,0,3,0,5.9,0,8.9,0,3,0,6.1-.2,9.1,0,1.8-.1,3.7-.2,5.5,0,2,0,3.9-.2,5.9,0,.7.2,1.2.7,1.7,1.6,1.8,3.1,3.6,4.7,5.5-1.9.3-3.6.6-5.5,1,0,2.6.1,5.2,0,7.7-.1,2.3-.5,4.6-.9,6.9-.4,2-1.2,3.9-2.6,5.5-1,1.1-2.1,2.1-3.7,2.7-4.9,1.7-9.7,3.4-14.6,5.2-.5.2-.8.1-1.1-.4-1.5-2.4-3-4.7-4.5-7.1,0-.1-.2-.3-.3-.5,2.3-.7,4.5-1.4,6.7-2.1,3.1-1,6.1-1.9,9.2-2.9,1.1-.3,2-1.5,2.1-2.6.1-3.4.2-6.8.3-10.1,0-.6,0-.9-.8-.7-1.4.4-2.8.6-4.1.9-1.5.3-3.1.7-4.6.3-2.5-.6-3.7-2.5-4-4.9-.3-2.2,0-4.5,0-6.7,0-.2,0-.3,0-.5.1-4.7.2-9.3.3-14,0-1.6.1-3.2.1-4.8,0-2.2,0-4.4,0-6.6,0-1.5.4-2.8,1.3-4.1.8-1.1,2-1.7,3.2-2.3,2.1-1,4.2-.7,6.4-.7,5.5,0,11.1,0,16.8,0ZM207.5,251.9c.1-1.8.3-3.5.3-5.2,0-5.1.1-10.2.2-15.2,0-1,.1-2.1.1-3.1,0-2.9.1-5.8.1-8.7,0-.2-.3-.6-.5-.6-1.1,0-2.3,0-3.4.3-.4,0-.9.7-1,1.1-.2,1.2-.2,2.3-.2,3.5,0,3.3-.1,6.6-.2,9.8,0,3.3-.1,6.5-.2,9.8,0,2.2,0,4.5,0,6.7,0,1.2,1.1,2.1,2.2,1.9.8-.1,1.5-.2,2.4-.4Z"/>
  <path class="cls-1" d="M194,235.3c-1.3.1-2.5.2-3.7.4-1.2.1-1.2.2-1.3,1.4-.2,4.6-.3,9.3-.5,13.9,0,.5,0,1.1-.1,1.6-.3,1.3.4,2.1,1.1,3,1.2,1.6,2.5,3.2,3.8,4.9-.8.2-1.4.4-2.1.5-1,.2-1.9.5-2.9.7-2.1.6-4.2,1.2-6.4,1.8-2.1.6-4.1,1.1-6.2,1.7-1.4.4-2.7.9-4.1,1.3-1.2.4-2.3.8-3.6.7-1.2-.1-2.2-.7-2.9-1.6-1-1.3-1.6-2.7-1.6-4.3,0-2.8,0-5.7.2-8.5.1-3.2.3-6.3.5-9.5.1-2.2.5-4.2,1.8-6,.9-1.3,2.2-2.1,3.5-2.9,2.7-1.6,5.7-1.3,8.7-1.7,1.1-.1,1.2-.3,1.3-1.3.1-3.4.2-6.8.3-10.2,0-1.1-.8-2.2-1.7-2.5-1.3-.4-2.5,0-3.1,1.1-.2.4-.4.9-.3,1.3.2,1.9-.4,3.3-1.8,4.8-2.6,2.6-5,5.6-7.4,8.4-.1.2-.3.3-.5.4-.1,0-.3.2-.4.1,0,0-.2-.3-.1-.4,0-2.2.2-4.4.3-6.6,0-2.3.1-4.6.3-6.8.1-1.8,1.2-3.2,2.5-4.3,1-.8,2.2-1.1,3.4-1.1,1.8,0,3.6,0,5.4-.2,2.5,0,5.1-.2,7.6-.3,2.5-.1,4.9,2.2,4.9,4.8,0,3.3,0,6.5.1,9.8,0,.3.2.7.4.9,1.2,1.4,2.5,2.7,3.8,4,.2.2.3.4.6.7ZM179.5,239.1h0c0-.5,0-1.1,0-1.6,0-.2-.3-.5-.5-.5-2.8.3-4.3,1.1-4.6,4.3-.2,2.5-.2,5-.3,7.5,0,1.9-.2,3.8-.3,5.7,0,.7,0,1.5.1,2.2.3,1.6,1.4,2.2,2.9,1.7.3,0,.6-.2.8-.2.6,0,.8-.4.9-.9.1-1.9.3-3.7.4-5.6.2-4.2.3-8.4.5-12.6Z"/>
  <path class="cls-1" d="M310.2,235.1c0,4.5,0,9,0,13.5,0,2.3-.9,4.4-2.9,5.8-.7.5-1.6.7-2.5.7-3,0-6,0-8.9-.4-3.3-.4-5-2.6-5.8-6.2-.2-.9-.2-1.9-.2-2.8,0-8.3,0-16.5,0-24.8,0-2.4,1.1-4.3,3.4-5.3.3-.1.7-.2,1.1-.2,3.6,0,7.1,0,10.7,0,2.1,0,3.3,1.4,4.1,2.9.8,1.5,1,3.3,1,5,0,4,0,8,0,11.9,0,0,0,0,0,0ZM297.4,233.4s0,0,.1,0c0,1.5,0,3,0,4.5,0,2.6,0,5.2,0,7.8,0,1.1.4,2.1,1.3,2.7,1.2.9,3,.1,3.5-1.4.4-1.2.3-2.4.2-3.7,0-6-.1-11.9-.2-17.9,0-1.4,0-2.7,0-4.1,0-1.2-1.1-2.5-3-2.4-1.2.1-2,.9-2,2.4,0,4,0,8,0,12Z"/>
  <path class="cls-1" d="M260.7,254.5c0-.3-.1-.5-.1-.8,0-11,0-22.1,0-33.1,0-1-.7-1.7-1.7-1.7-.8,0-1.7,0-2.5,0-.8,0-.9.3-.9,1,0,8,0,15.9,0,23.9,0,1.4-.4,2.4-1.2,3.4-2.1,2.6-4,5.3-6.1,7.9,0,0-.1.1-.3.3,0-.3,0-.5,0-.6,0-11.1,0-22.2,0-33.3,0-1.1-.3-1.9-1.2-2.6-1.3-1-2.5-2.2-3.9-3.4.6,0,1.1,0,1.5,0,5.1,0,10.3,0,15.4,0,1.8,0,3.6.2,5.2,1.1,2,1.1,3.1,2.7,3.1,5,0,7.5,0,15,0,22.5,0,1-.2,1.7-.8,2.4-2.1,2.6-4.2,5.3-6.3,7.9,0,0-.1,0-.3.2Z"/>
  <path class="cls-1" d="M316.1,267.3v-47.5c-.4-.3-.8-.4-1.1-.7-1-1-2-2.1-3.2-3.3h.9c6,0,11.9,0,17.9,0,2.1,0,3.3.8,3.9,2.6,0,.2.1.5.1.7,0,3.3,0,6.7,0,10,0,.3,0,.6-.2.8-2.3,2.4-4.7,4.7-7.2,7.2,0-.4,0-.6,0-.9,0-4.2,0-8.4,0-12.6,0-1-.3-1.9-1-2.6-.7-.7-1.4-1.1-2.5-.9,0,.3,0,.5,0,.8,0,12,0,24,0,36,0,.7-.2,1.2-.6,1.8-2.1,2.6-4.2,5.3-6.3,8-.2.2-.4.4-.5.6,0,0-.1,0-.2-.1Z"/>
  <path class="cls-1" d="M72.5,185.4c-.4.2-.7.5-1.1.6-.7.2-1.3.4-2,.6,0,0,0,.2,0,.3.5,0,1,0,1.5-.2,1-.3,2.2.2,2.6,1.1-.1,0-.3,0-.4,0-2.7-.4-5.4,0-8,.8-.4.1-.9.4-1.3.6,0,0,0,.3-.2.5,2.1-.9,4.1-.9,6.2-.5.2.1.4.2.5.4.3.3,1,.2.9.9-.1.9.4,1.6,1.2,2.1,0-.2,0-.3.1-.5,2.1,1.4,4.5,1.6,6.9,2.3-1.3,0-2.5-.2-3.8-.4-2.1-.3-4.2-.6-6.3-.9-.7,0-1.2.3-1.2,1,0,.3,0,.6,0,.9,3.1,1,6.1,2,9.1,3,0,0,0,0,0-.1-.5-.5-.9-1-1.4-1.5,0,0,0-.2,0-.2,2.5,1,5.1,1.1,7.8.4-.2-.3-.6-.5-.9-.7-.7-.6-1.3-1.2-2-1.8.6,0,1.2-.2,1.9-.3,0-.2,0-.4.2-.8,4.8,1.5,9.9,1.2,14.8,1.9,0,0,0,.1,0,.2-.8,0-1.6,0-2.4,0-.8,0-1.6-.1-2.4-.2-.7,0-1.3,0-2-.1-1,0-1.2.2-.6,1.2-.3.2-.6.4-.9.5-.2,0-.4,0-.6.1,0-.2.1-.5.2-.7,0-.1.2-.2.3-.2-.1-.8-.6-1.2-1.4-1.2-.8,0-1.6-.1-2.4-.2,0,.9,0,1.7-.1,2.5-.1,0-.4.2-.7.3.7.2,1.3.3,1.9.4-.4,1.1.4.9,1,.9,0,.6,0,1.2.1,1.8-.8-.7-1.7-1.5-2.5-2.3-.4-.4-.8-.5-1.3-.2-1.1.6-2.2,1.2-3.2,1.7.4-.5.9-1,1.4-1.6-.1-.1-.3-.3-.3-.3-1.1.3-2,.2-2.8,0-.7-.2-.8-.2-.7.5,0,.2.1.4.1.6.2.8,0,1.6-.6,2.2-.7.8-1.6,1.6-1.5,2.8,0,0-.2.2-.3.2-.7.5-1.4,1-2.1,1.6,0,0,.1.2.2.2.6-.5,1.1-1,1.7-1.5.5.4,0,.6-.2.8-.7.9-.7.9.4,1.3,0,.3-.2.6-.3,1,0,0,0,0,0,0,0,0,0,0,0,0,0,.3,0,.7,0,1,.1,1.5.3,3.1.5,4.6.1.7.2,1.5,1.2,2.1-.2-.8-.3-1.4-.5-2-.5-1.6-.8-3.3-.6-5,0-.1.2-.2.3-.3,0,1.1,0,2.2.2,3.3,1,4.9,3.8,8.8,7.3,12.2,3.2,3,6.8,5.4,10.9,6.9,1.4.5,2.8.8,4.2,1.1-1.2,1.3-2.3,2.7-4,3.4-.7.3-1.3.3-2-.1-.7-.4-1.4-.7-2.2-.9-.6-.2-1-.4-1-1.2.8.1,1.6.2,2.4.4-.6-.7-1.7-.1-2.3-1.1,1,.1,1.8.2,2.7.4v-.3c-.4-.2-.8-.3-1.3-.5.3-.2.5-.3.7-.4.6-.3.5-.6,0-.9-.2-.2-.6-.4-.8-.3-.8.1-1-.1-.7-.8-1.3-.5-2.6-.9-3.8-1.3.4.4.8.9,1.3,1.4-1.1.5-.8-.6-1.3-.8,0,.3,0,.6,0,.9-1,0-.3-1-.8-1.4,0,.3-.1.5-.2.7,0,.1-.1.3-.2.4,0,0-.2.2-.2.2-.5-1.1-1.6-2.1-1.3-3.5,0,0-.2,0-.3,0-.1.3-.2.6-.4,1-.2-.9-.3-1.6-.5-2.3,0,0-.1,0-.2,0,0,.5-.1,1-.2,1.5,0,0,0,0-.1,0-.1-.4-.3-.9-.4-1.5-.2.3-.4.5-.6.8-.2-.8-.3-1.5-.5-2.3-.3.1-.4.2-.7.4-.1-.7-.2-1.3-.3-2.1-.3.4-.4.7-.7,1.2,0-.8-.1-1.3-.2-1.7,0,0-.1,0-.2,0-.2.4-.4.7-.6,1.1,0,0-.2,0-.2,0,0-.7,0-1.5.1-2.2,0,0-.1,0-.2,0-.2.3-.4.5-.6.8,0,0,0,0-.1,0,0-.6,0-1.1,0-1.7,0,0-.2,0-.2,0-.3.7-.7,1.3-1,2h-.2c.2-1.2.4-2.4.6-3.7-.4.4-.7.6-1.1.9.2-1.1.4-2.2.5-3.2-.1-.1-.3-.2-.4-.3-.2.5-.5,1-.7,1.5,0,0-.2-.2-.3-.3.3-.7.5-1.5.8-2.2,0,0,0,0-.1,0-.2.1-.5.3-.9.5.3-.8.5-1.5.8-2.2,0,0,0,0-.1-.1-.3.2-.6.3-1,.6.3-.8.5-1.4.7-2.1,0,0-.2,0-.3-.1-.3.5-.7.9-1,1.4-.2,0-.4,0-.6.2-1,.8-1.9,1.7-2.9,2.5-.5.4-1,.9-1.5,1.3,0,0-.1-.1-.2-.2,0,.3,0,.5,0,.8.4,0,.7,0,1.1,0,.2.9.3,1.7.5,2.5,0,0,0,.1,0,.1.7,0,.5.7.9,1,.1,0,.3-.1.4-.2,0,1.3-.1,2.5-.2,3.8,0,0,0,0-.1,0-.4.8-.4,1.2.7,1.9,1.3.9,2.6,1.6,4,2.4.4.2.7.2.7-.3,1.3.2,1.4.2,1.8-1.1.2-.6.3-1.3.5-2,0,0,.2,0,.3,0,0,1.3,0,2.6,0,3.9,0,.9.7.6,1.1.7.5,0,.8,0,.8-.7,0-.6.1-1.2.2-1.8.4.9.6,1.8.8,2.8.1.5.4.8.9.7.2,0,.3-.5.5-.9,0,0,.2,0,.2.2.4.9,1.1,1.3,2.1,1.1-.2.1-.4.2-.6.4.3,0,.6.2,1,.3-.6.4-1,.3-2.3-.6-.6.6-1.1.4-2.4-1.1,0,.4,0,.7-.1,1.1-1.2-.5-2.4-.8-3.6-1.4-2.2-1.1-4.5-2.1-6.5-3.5-4.7-3.1-8.3-7.2-10.6-12.4-.9-2-1.6-4.1-2.2-6.1-.8-2.9-.8-5.8,0-8.6.9-3,2.4-5.7,5-7.7,1.8-1.4,3.7-2.6,5.8-3.2,1.2-.3,2.5-.6,3.7-.9ZM73.5,206.1c.2-.1.3-.2.5-.4,0,0-.1-.1-.2-.2-.1.2-.2.4-.3.5,0,0,0,0-.1,0,0,0,0,0,0,0,0,0,0,0,0,0ZM66.8,199.8c.8,0,1.6,0,2.4.1,2.5.2,5,.5,7.5.8.8,0,1.3-.1,1.5-.8.2-.8-.2-1.5-1-1.7-1.2-.2-2.4-.5-3.6-.6-2.2-.2-4.5-.2-6.7-.3,0,0,0,.2,0,.3-.2.3-.4.5-.6.9,0-.4,0-.6-.1-1-1.2.3-2.4.7-3.5,1,0,0,0,.2,0,.2.4.2.6.6,1.3.4.3-.1,1.2-.2,1.3.6-1.8,0-3.6,0-5.3.7.2,0,.5,0,.7,0,1,0,2-.3,3,0,1.1.4,2.1-.1,3.1-.5,0,0,0-.1,0-.2ZM76.6,201.5c-2.4-.4-11.1,3.5-12.1,5.4.3,0,.8.1.8.3.3.9.8.4,1.2.2,1.6-.6,3.2-1.1,4.8-1.7.6-.2,1.3-.3,1.7-.7,1.2-1.1,2.4-2.2,3.6-3.4ZM65,217.8c.9-1.4,1.7-2.6,2.5-3.8,0,0,.1-.1.2-.2.4-.2.7-.4,1.1-.7,1.3-1.1,2.7-2.1,3.9-3.3.9-.9,1.6-2,2.4-3,0,0-.1-.2-.2-.2-.5.3-.9.6-1.4.9,0,0,0,0,0,0,.2-.4.5-.8.7-1.2-4.3,2.8-7.7,6.3-9.2,11.6Z"/>
  <path class="cls-1" d="M411.5,199.5c.5,0,1,0,1.1-.7,0-.2.4-.3.7-.4.3-.1.6-.1.9-.2-1.3-.6-.2-1.9-1-2.8-.9,0-2,.2-3.1.3,0,0,0-.1,0-.2.2-.1.4-.4.6-.4,1.7-.3,3.3-.6,5-1,0,0,.2,0,.3,0,0,.2.1.4.2.7.6,0,1.3.2,1.9.3-.9.9-1.9,1.7-2.8,2.6,2.7.7,5.3.5,7.8-.5,0,0,0,.2,0,.2-.5.5-.9,1-1.4,1.6,0,0,0,.1.1.2.4-.1.7-.3,1.1-.4,2.4-.8,4.7-1.7,7.2-2.3.9-.2.8-.7.7-1.2,0-.6-.4-1-1-1.1-.6,0-1.1,0-1.7.1-2.1.3-4.1.7-6.2,1.1-.8.1-1.6.2-2.4.2.9-.4,1.9-.6,2.9-.8,1.6-.4,3.3-.8,4.5-2.2,0,.3-.1.6-.2,1,1-.6,1.3-1.4,1.1-2.6,1.5-.2,3.1-.4,4.6-.6.2,0,.5,0,.7.2.6.5.7.1.7-.4.5.1,1,.3,1.6.4,0-.2,0-.4,0-.5,0,0,0,0,.1-.1,1.6,1,3,2.3,3.9,3.9,1.1,1.9,2,4,2.3,6.3.5,4.3-.5,8.2-2.2,12.1-1.5,3.5-3.6,6.6-6.3,9.3-2.6,2.5-5.5,4.6-8.8,6.1-2.3,1-4.6,1.9-6.9,2.9-.2,0-.4.2-.6.4,7.4-.8,13.3-4.6,18.6-9.5,0,1-1,1.5-1.6,2-1.7,1.4-3.4,2.8-5.2,4-2.1,1.4-4.2,2.7-6.6,3.4-2.3.7-4.6,1.6-6.9,2.4-.8.3-1.5,0-1.9-.7-.1-.2-.3-.4-.4-.6.4-.1.9-.3,1.4-.5,0,0,0-.2,0-.2-.4,0-.9.1-1.3.1-.4,0-.7-.1-1-.2.2-.3.3-.6.5-.9.2,0,.4-.1.7-.2.2.4.4,1.2,1,.3,1.2.2,2-.2,2.4-1.6,0,.5,0,.7.2.9,0,.1.4.3.5.2.3-.1.6-.3.7-.5.3-1.2.6-2.4.9-3.5,0,.8.2,1.7.3,2.5,0,.6.4.7.9.6.4,0,1.1.1,1-.7,0-1.3,0-2.7,0-4,0,0,.2,0,.3,0,.2.7.3,1.4.5,2.1.4,1.3.4,1.3,1.7,1.1,0,.5.3.5.7.3,1-.6,2-1.1,3-1.7.4-.2.7-.6,1.1-.8.9-.5,1.1-1,.4-1.9,0-1.3-.1-2.5-.2-3.8.1,0,.3.1.4.2.1-.3.3-1,.5-1,.9,0,.4-.6.5-.9,0-.2,0-.3,0-.5.1-.4.3-.7.6-1.2,0,0,0,0,.2,0,.2,0,.4,0,.7-.1-.2-.2-.3-.5-.5-.7-.1-.1-.4-.2-.5-.3-.9-.8-1.7-1.7-2.6-2.5-.5-.4-1.2-.6-1.7-.9-.2-.6-.4-1.1-1.2-1.3.2.8.4,1.4.7,2.1-.4-.2-.7-.4-1.2-.7.3.9.6,1.6.9,2.4-.4-.2-.6-.4-1.1-.6.3,1,.6,1.7.9,2.4,0,0,0,0-.1,0-.4-.4-.8-.8-1.2-1.1,0,0,0,0-.1.1.2,1,.4,2,.6,3.2-.4-.3-.7-.6-1.1-.9.2,1.3.4,2.5.6,3.6,0,0-.2,0-.3,0-.4-.7-.7-1.3-1.1-2h-.2c0,.7,0,1.2.1,1.8,0,0-.1,0-.2,0-.2-.3-.4-.5-.6-.8,0,0,0,0-.1,0v2.2s0,0-.1,0c-.2-.3-.4-.7-.6-1,0,0-.1,0-.2,0,0,.5,0,1-.1,1.5,0,0-.1,0-.2,0-.2-.3-.3-.5-.6-.9-.1.8-.2,1.4-.3,2.1-.3-.2-.5-.3-.7-.4-.2.8-.3,1.5-.5,2.2-.2-.3-.4-.5-.6-.8-.2.6-.3,1.1-.5,1.7,0-.7-.2-1.2-.2-1.7,0,0-.1,0-.2,0-.1.7-.3,1.4-.5,2.3-.2-.5-.3-.8-.4-1.1,0,0-.1,0-.2,0,0,.3,0,.6-.1.8,0,.4,0,1-.2,1.1-.7.5-.8,1.2-1.1,1.8-.2-.1-.4-.2-.6-.3,0-.4.1-.9.2-1.3,0,0-.2,0-.2,0,0,.3-.1.6-.1.9,0,.5-.3.6-.7.6h-1.2c0-.4,0-.6.1-1-.8.2-1.5.7-2.1-.1,0-.2.2-.4.3-.6.6-.3,1.3-.5,1.8-.9,1.7-1.3,3.4-2.7,4.9-4.2,3.4-3.4,5.7-7.4,6.4-12.2,0,.2.2.5.1.7-.2.9-.4,1.7-.6,2.6-.1.6-.2,1.1-.3,1.7,0,0,.1,0,.2,0,.2-.3.5-.6.6-1,.5-2.1,1-4.2.5-6.4,0,0,.1-.1.2-.2,0,0,0,0,0,0,0,0,0,0,0,0,0-.3-.2-.7-.3-1,1-.2,1.1-.4.5-1.2-.2-.2-.8-.4-.2-.8.8.6,1.6,1.3,2.4,1.9,0,0,0,0,0,0,0,0,0,0,0,0,0,0,0,0-.1,0-.9-.7-1.7-1.5-2.6-2.2-.1-.2-.2-.3-.3-.5,0-.2,0-.5-.1-.7-.5-.7-.9-1.4-1.5-2-.6-.6-.9-1.3-.5-2.2,0-.2.1-.5.2-.7,0-.6-.1-.7-.7-.5-.9.3-1.9.6-2.8,0-.1.1-.2.3-.4.5.9.7,1.8,1.3,2.5,2.1.5.5.8,1.2,1.3,1.8-.1-.1-.2-.2-.3-.3-1.4-1.7-3.1-3-5.1-3.8-.7-.3-1.1-.2-1.6.3-.7.7-1.5,1.3-2.2,2h-.1c0-.6.2-1.1.2-1.6ZM432.4,200.9c0,0,0,.2.1.3,1.1.4,2.3,1,3.5.3.2,0,.4,0,.7,0,.8,0,1.6.1,2.4.2,0-.1,0-.2,0-.3-1.2-.1-2.4-.3-3.6-.4-.6,0-1.1,0-1.7-.1.4-.7,1.1-.6,1.7-.5.2,0,.4-.2.7-.3-.1-.2-.2-.5-.4-.6-.8-.3-1.7-.5-2.6-.7,0,0-.1,0-.2,0,0,.2,0,.4,0,.5-.3-.2-.6-.7-.9-.7-2.4-.2-4.8-.1-7.2.4-1,.2-2,.3-3,.4-.6.1-1,.8-.8,1.6,0,.6.6,1,1.2.9,3.4-.3,6.8-.6,10.2-1ZM434.7,207.9c-1.1-1.8-9.8-5.7-12-5.2.3.3.6.5.8.7.8.8,1.6,1.6,2.4,2.4.3.2.6.5.9.6.8.3,1.6.4,2.4.7,1.3.5,2.5,1.1,3.8,1.6.2,0,.5.1.6,0,.4-.2.7-.6,1-.9ZM434,218.8c.6-2.3-5.6-10.1-9-11.5.3.5.5.9.8,1.3,0,0,0,0-.1,0-.5-.3-1-.7-1.5-1,0,0-.2.2-.2.3.3.3.6.6.8,1,.5.7.9,1.5,1.5,2,.8.8,1.7,1.3,2.6,2,.9.7,1.8,1.4,2.6,2.3.9,1.1,1.7,2.3,2.6,3.6ZM416.7,231.1c-.8-.7-1.3-.4-1.8.2.5,0,1-.1,1.8-.2ZM435.8,191.8v-.2c-.2-.2-.6-.4-1-.5,0,0,0,.1-.1.2.4.2.7.4,1.1.6ZM412.5,228.9c0,0-.1,0-.2,0v.6c0,0,.1,0,.2,0,0-.2,0-.4,0-.6Z"/>
  <path class="cls-1" d="M60.5,217.3c-.6-.8-1.4-1.6-1.9-2.5-.8-1.4-1.4-3-2.3-4.3-.6-.8-.7-1.4-.6-2.3,0-.5-.3-1-.3-1.5-.1-.8-.2-1.6-.2-2.4,0-.7,0-1.4,0-2.1-.2-1.3,0-2.6.2-3.9.1-1,.3-2.1.5-3.1.1-.5.3-1,.6-1.5.5-.9,1-1.8,1.5-2.7-.7,0-1.5.4-1.8,1.2-.2-.2-.3-.3-.4-.4.3-.6.5-1,.8-1.5-.9-.4-1.5,0-2.1.4-.3.1-.5.3-.8.4h0c-.2-.1-.4-.2-.5-.3.5,1,.2,1.4-1.7,2.3,1,.3,2.2-1,3.1.4-.6.5-1.1.9-1.7,1.4.1.2.3.4.4.6-.9.5-1.8,1-2.6,1.6-2.5,1.7-4.9,3.3-7.3,5.1-1.5,1.1-2.9,2.3-4.1,3.6-2.5,2.6-4.8,5.3-7.2,8-.9,1-2,2-2.8,3.1-1.5,1.8-2.9,3.7-4.3,5.7-1.4,2-2.8,4-4,5.7.9-1.9,2.1-4.2,3.1-6.5.4-1,.6-2.1.7-3.2.2-2.6-1.6-3.4-3.8-2.7-.3,0-.6.2-.9.3,0,0,0-.1-.1-.2,1-1,1.9-2.1,3-3,2.1-1.8,4.1-3.6,6.3-5.3,1.7-1.3,3.4-2.4,5.2-3.6,2.1-1.3,4.2-2.7,6.4-3.8,3.3-1.7,6.7-3.3,10-4.9,1-.5,2-.9,3-1.3,0,0,0-.1,0-.2-.3,0-.5,0-.8,0-4.9,1.1-9.6,3-14,5.4-4,2.2-8,4.5-11.6,7.3-2.2,1.7-4.4,3.6-6.5,5.4,0,0-.3,0-.4,0h0c1.2-1.2,2.4-2.4,3.5-3.6.5-.5.8-1.2,1.1-1.8.3-.7-.1-1.4-.9-1.4-.6,0-1.2,0-1.8.3-1.3.6-2.5,1.4-3.8,2.1-.3.2-.6.4-1,.6.5-1,5.3-4.6,9.4-7,3.4-1.9,6.8-3.8,10.4-5.4,3.6-1.6,7.4-2.9,11.1-4.4-1.1.2-2.3.3-3.4.6-2.8.8-5.7,1.5-8.4,2.5-2.7,1-5.3,2.1-7.8,3.4-3.1,1.6-6.2,3.4-9.2,5.3-1.9,1.2-3.6,2.7-5.4,4-.8.6-1.8.9-2.7,1.5-1.2.7-2.5,1.6-3.7,2.3-.1,0-.2.2-.5.1,1.7-1.4,3.4-2.9,5.1-4.3,3.9-3,7.9-6,12.4-8.3,3.6-1.8,7.2-3.4,11-4.9,5.2-2,10.6-3.4,16-4.4,2.2-.4,4.4-.7,6.5-1.2,1.8-.4,3.5-.9,5.3-1.4.4-.1.8-.2,1.2-.3,0,0,0,.1,0,.2-.4.3-.8.7-1.3.8-.7.2-1.1.7-1.7,1-2.4,1.4-3.8,3.5-4.8,5.9-1.1,2.7-1.8,5.4-1.4,8.4.4,3.8,1,7.5,2.9,10.9.7,1.3,1.4,2.5,2.1,3.8ZM29.1,204.4c1.5-1.1,3-2.1,4.6-3.2-.6,0-1.1,0-1.6,0,0-.3-.2-.5-.2-.6-.8.3-1.5.6-2.2.9-.9.4-1,.7-.4,1.5,0,0,0,.1,0,.3-.5.3-.9.6-.3,1.3ZM40.8,200.8c0,0,0,.2.1.3.9-.4,1.7-.9,2.6-1.3,0,0,.1.1.2.2-.3.3-.5.6-.8.9-.5.6-.5.6-.2,1,1.9-1.6,3.9-3.2,5.8-4.8-1.6.4-2.7,1.5-4.2,1.9-1.2.4-2.3,1.2-3.4,1.8ZM52.5,191.4c0,0-.1,0-.2,0-2.2.8-4.4,1.5-6.6,2.3-.1,0-.1.3-.3.5,2.7-.3,4.8-1.7,7-2.8Z"/>
  <path class="cls-1" d="M446.1,196.6c.1-.2.3-.4.4-.7-.5-.6-2.3-.5-1.1-2,1,.2,2,.3,3,.5-.8-.6-2.2-.4-2.6-1.7,1.3.5,2.5,1.1,3.8,1.6,2.2.8,4.4,1.5,6.6,2.2-.1-.9-3-2.1-9.7-4.1-.2-.3-.4-.7-.8-.1,0,0,0,0,0,0-.4-.2-.9-.5-1.3-.7-.4-.2-.9-.3-1.4-.4,0,0-.2.2-.2.3.2.4.5.9.8,1.4,0,0-.2.2-.3.4-.4-.8-1.1-1-1.9-1.1.5.9,1.1,1.8,1.5,2.8.4,1.1.6,2.4.9,3.6.2,1,.4,1.9.5,2.9,0,.5,0,1.1,0,1.6,0,1.4,0,2.8-.1,4.2,0,.4,0,1-.3,1.3-.4.5-.3,1-.2,1.5,0,.4,0,.8-.2,1.1-.9,1.6-1.7,3.2-2.7,4.7-.5.8-1.1,1.7-1.7,2.4-.1.2-.4.3-.6.4,1.5-2.3,2.9-4.6,3.9-7.2.8-2.1,1-4.4,1.3-6.6.3-2.2.4-4.4-.3-6.5-1.1-3.5-2.4-6.8-5.8-8.8-1.1-.6-2.2-1.3-3.3-2.2.4,0,.8.2,1.2.3,1.5.5,3.1,1,4.6,1.4,1.9.4,3.8.6,5.7.9,4.5.8,8.9,1.9,13.3,3.2,4.5,1.3,8.8,3.2,13.1,5.1,3.6,1.6,6.9,3.8,10.1,6,3.4,2.4,6.8,4.9,10,8-1.1-.7-2.1-1.4-3-2-.5-.3-.9-.6-1.4-.8-2.6-1.1-4.5-3.1-6.8-4.6-3-1.9-6.1-3.7-9.2-5.5-1.5-.9-3.1-1.6-4.7-2.3-2.9-1.3-5.9-2.4-9.1-3.1-1.6-.4-3.2-.9-4.8-1.3-.7-.2-1.5-.2-2.3-.2,11.4,3.6,21.9,8.8,31.2,16.4,0,0,0,.1,0,.2-1.2-.7-2.3-1.5-3.5-2.1-.9-.4-1.8-.8-2.8-.9-1.1-.2-1.6.7-1.1,1.6.7,1.2,1.6,2.3,2.5,3.3.6.7,1.3,1.3,2,1.9,0,0,0,0,0,0-.2,0-.4,0-.5-.1-3.4-3-7-5.9-10.9-8.4-4.2-2.7-8.5-5.1-13.1-7-2.6-1.1-5.4-1.8-8.2-2.6-.2,0-.5,0-.8-.1,0,0,0,.1,0,.2,1.4.6,2.8,1.3,4.2,1.9,4.2,2.1,8.4,4.1,12.5,6.4,3.6,2.1,7,4.5,10.2,7.1,2.3,1.8,4.3,3.9,6.4,5.9.2.2.3.4.4.8-.2,0-.4-.1-.7-.2-2.3-.8-4.1,0-3.9,2.7,0,1.6.7,3.1,1.3,4.5.4.9.8,1.8,1.3,2.7.5.9,1,1.8,1.5,2.7-2.3-3.2-4.5-6.5-6.8-9.5-1.6-2.1-3.5-4-5.2-5.9-1.3-1.5-2.5-2.9-3.8-4.4-.2-.3-.5-.5-.8-.8-1.6-1.6-3-3.4-4.8-4.7-3.3-2.4-6.7-4.6-10.1-6.9-.4-.2-.8-.5-1.1-.7ZM465.7,202.3c0,0,0,.1,0,.2,1.5,1,3,2,4.5,3,.7-.7,0-1-.3-1.3,0-.1,0-.2.1-.3.6-.6.4-1-.2-1.3-.6-.3-1.3-.6-2-.9-.2,0-.3-.1-.5-.2,0,.3-.2.5-.2.7-.5,0-1,0-1.4.1ZM450.9,198.1s0,0,0,0c2,1.6,3.9,3.2,5.9,4.9.4-1.1-1.1-1.2-1-2.2.6.3,1.1.6,1.7.8,0,0,0-.2.1-.3-2.2-1.1-4.5-2.2-6.7-3.3Z"/>
  <path class="cls-1" d="M447.8,200.1c.2-.3.5-.5.7-.8-.3-.2-.6-.3-.9-.6-.3-.3-.6-.6-1-1,1.3.9,2.7,1.7,4,2.7,2.9,2.3,5.7,4.6,8.4,7.2,2.3,2.2,4.2,4.6,6.3,7,1.2,1.4,2.4,2.8,3.6,4.3.3.4.7.8.9,1.4-.4-.2-.9-.5-1.3-.7-3.1-1.4-6.4-1.9-9.8-1.6-1.4.1-2.9.1-4.1.9-.6.4-1.2.8-1.9,1.2,1.1-5.8-.4-11.1-3.2-16-.8-1.3-1.8-2.5-3.1-3.5,0,.2-.1.4-.2.5-.2-.1-.3-.3-.6-.4.8-.1,1.4-.2,2-.4,2.8,3.3,6.1,5.7,9.8,7.9-2.6-3.4-5.9-6-9.6-8.1ZM452.7,206.6h0s0,0,0,0h0s0,0,0,0ZM458.7,208.8c-1,0-1.9,0-2.8-.7,0,.4.2.6.4.9.6,1,1.7,1,2.6,1.5,0,0,.4,0,.4-.2,0-.1,0-.3-.1-.5-.1-.3-.3-.7-.4-1,.6.6,1.2,1.2,1.8,1.7.1.1.4.1.6.2,0-.2,0-.4-.2-.6-1-1-2-2.1-3.1-3.1-.2-.2-.4-.2-.6-.3h-.1c.5.8,1,1.4,1.6,2.1ZM459,215.6c-1.3-1.7-3-3-4.7-4.2,1.2,1.9,2.5,3.5,4.7,4.2ZM453,206.9c1.5,1.7,3.1,3.4,4.7,5.1.3-.8-3-4.4-4.7-5.1ZM456.9,216.7s0,0,.1-.1c-.5-.4-1-.7-1.5-1.1h0c.5.5,1,.9,1.5,1.2ZM458.1,212.6c0,0,.1,0,.2,0,0-.1-.2-.3-.2-.4,0,0-.1,0-.2.1,0,.1.2.3.3.4ZM455.6,207.9s0-.1,0-.1c0,0,0,0-.1,0,0,0,0,.1,0,.1,0,0,0,0,.1,0Z"/>
  <path class="cls-1" d="M51.6,199.3c.3,0,.7.1,1,.1.3,0,.6,0,.9-.1,0,0,0,.1.1.2-.2.1-.3.3-.5.4,0-.1,0-.3-.2-.5-3,2.3-4.4,5.6-5.6,9-1.2,3.4-1.4,6.9-.7,10.6-.4-.4-.8-.7-1.1-.9-1.1-.7-2.3-1.1-3.5-1.2-3.5-.4-6.9-.2-10.2,1-.8.3-1.6.8-2.5,1.1.7-.8,1.5-1.7,2.2-2.5,1.4-1.6,2.7-3.2,4.1-4.8,2.9-3.4,5.9-6.7,9.5-9.5,2.3-1.8,4.7-3.5,7-5.3.2-.1.4-.2.6-.3-.5.4-1,.8-1.5,1.3-.1,0-.2.2-.3.3,0,.1.2.2.3.3.1.2.3.3.5.5-3.4,1.8-9.3,6.7-9.8,8.3.8-.5,1.5-.9,2.2-1.4,2.7-2,5.5-4,7.7-6.6ZM46.6,205.5h0s0,0,0,0h0s0,0,0,0ZM40.5,207.7c.5-.6,1-1.3,1.5-1.9,0,0,0-.1,0-.2-.2.1-.5.1-.7.3-1,1-2.1,2.1-3.1,3.1-.1.1,0,.4-.1.5.2,0,.4,0,.5-.1.6-.6,1.3-1.2,1.9-1.8-.1.3-.3.6-.4.9,0,.2-.1.4-.2.6.2,0,.4,0,.6,0,.3,0,.5-.4.8-.4.9-.1,1.8-1,1.8-2-.8.8-1.7.9-2.7.8ZM44.9,210.2c-.5.4-1.1.8-1.6,1.3-.5.5-1.1.9-1.6,1.4-.5.4-1,.8-1.5,1.2,0,0,.2.2.3.3,2-.7,3.3-2.4,4.4-4.2ZM46.3,205.8s0,0-.1,0c0,0-.2,0-.2,0-1.5,1.4-3,2.9-4.4,4.3-.1.1,0,.5,0,.9,1.7-1.9,3.2-3.5,4.8-5.2ZM42.2,215.5h.1c.5-.2,1-.6,1.5-1,0,0,0,0,0,0-.5.4-1,.7-1.5,1.1ZM40.9,211.3c0,0,.1,0,.2.1l.2-.4s0,0-.1,0c0,.1-.2.2-.3.4ZM43.8,206.7s0,0,0-.1c0,0,0,0-.1,0,0,0,0,0,0,.1,0,0,0,0,0,0Z"/>
  <path class="cls-1" d="M53.1,200.3c.1.4.3.8.5,1.3.3-.1.5-.2.6-.3.2.9.4,1.7.6,2.5-.3,0-.5.1-.7.2,0,4.4,1.6,8.4,3.4,12.4,0-.1.2-.2.2-.3,0,0,.1,0,.2,0,0,.5.1,1,.2,1.5,0,0,0,.2,0,.2.5.8.5,1.9,1.4,2.5.8.6,1.5,1.3,2.2,1.9,0,0,.1.2.2.2,1.9.6,3.1,2.3,4.9,3.1.8.4,1.6.9,2.4,1.3.1,0,.2.2.5.4-.7,0-1.1,0-1.6-.1-3.8-2.3-7.6-4.7-10.7-7.9-1.4-1.4-3.1-2.2-5-2.4-.8,0-1.6.1-2.1,1-.5-.8-.5-1.6-.5-2.4,0-3.9,1.1-7.4,2.8-10.7.2-.4.3-.8.5-1.3,0,0-.1-.1-.2-.2-.2.2-.4.3-.5.5-1.1,2.5-2.4,4.9-3,7.5-.6,2.4-.4,4.9-.3,7.4,0,.7,0,1.2-.2,1.9-.2.9-.3,1.8-.5,2.7-1.2-3.7-1.7-7.3-.7-11.1,1.1-4.2,2.6-8.1,5.2-11.6Z"/>
  <path class="cls-1" d="M431,228.1c-.4,0-.9,0-1.3,0,0,0,0,0,0-.1.7-.4,1.3-.8,2-1.2,1.5-.9,2.9-1.9,4.3-2.8.3-.2.7-.3,1.1-.6.5-.4,1.1-.7,1.6-1.1.4-.4.9-.8,1.3-1.2.8-.9,1.2-1.9,1.2-3.1,0-.3.2-.7.4-1.1.2.2.3.3.3.4,1.8-3.9,3.4-7.9,3.4-12.3-.2,0-.4-.1-.7-.2.2-.8.4-1.7.6-2.5.2,0,.4.1.6.3.2-.5.3-.9.5-1.3,2.6,3.5,4.2,7.3,5.2,11.6.4,1.8.9,3.6.6,5.5-.3,1.9-.7,3.8-1,5.8-.4-1.4-.7-2.7-1-4,0-.2.2-.5.2-.8.1-3.7.2-7.3-1.5-10.7-.8-1.6-1.5-3.2-2.3-4.7-.1-.3-.4-.5-.6-.7,0,0-.1,0-.2.1.6,1.3,1.1,2.6,1.8,3.9,1.2,2.4,1.9,5,2,7.7,0,1.1,0,2.1-.2,3.2,0,.1-.2.3-.3.5-.7-1.1-1.8-1.1-2.9-.8-1.5.4-2.9,1-4.1,2.2-2.7,2.8-5.9,5-9.2,7.1-.5.3-1.1.6-1.6,1Z"/>
  <path class="cls-1" d="M82.3,229.8c1.3.4,2.6.7,3.9,1.1v.2c-.3,0-.5,0-.7,0,0,0,0,.1,0,.2.3,0,.6.1.9.2-.3.4-.6.8-1,1.3-.7-.2-1.6-.5-2.4-.8-2.9-1-5.8-2-8.6-3-.9-.3-1.7-.9-2.5-1.5-1.2-.8-2.4-1.6-3.6-2.5-1.5-1.2-3-2.5-4.5-3.8-.1,0-.1-.3-.2-.4,2.7,2,5.4,4,8.3,5.9,2.8,1.8,6,2.9,9.4,3.4.3,0,.7,0,1-.1Z"/>
  <path class="cls-1" d="M425.6,188.9c.6-1,1.7-1.3,2.9-.8.3.1.8-.1,1.3-.3-.7-.2-1.5-.4-2.2-.7-.3-.1-.6-.4-.9-.5,2.2.3,4.4.9,6.4,2,.8.5,1.6,1,2.4,1.6,0,0,0,0-.1.1-1.8-.8-3.7-1.3-5.7-1.4-1.4,0-2.7,0-4.1,0Z"/>
  <path class="cls-1" d="M79.3,186.5c.2-.4.3-.9.5-1.2-.3-.1-.5-.2-.8-.4,1.3.1,2.6.2,4.1.4-1.4.5-2.6.8-3.7,1.2Z"/>
  <path class="cls-1" d="M76.2,184.9c-.3,0-.5.2-.7.3,0,.3,0,.7-.2.8-.2.1-.6,0-.8,0-.5-.2-1-.4-1.6-.6l3.3-.4Z"/>
  <path class="cls-1" d="M426.2,186.4c-.7.3-1.3.7-2,.8-.7,0-.3-.7-.4-1.1.8,0,1.6.2,2.4.3Z"/>
  <path class="cls-1" d="M438.3,218.7c0,.8-.8,1.6-1.5,1.6.5-.5,1-1.1,1.5-1.6Z"/>
  <path class="cls-1" d="M78,188.6q-.4-1.1.7-1.4c-.2.5-.4.9-.7,1.4Z"/>
  <path class="cls-1" d="M445.5,196.8c-.2-.1-.4-.2-.6-.3h0c.2,0,.4,0,.6,0,0,.1,0,.2,0,.3Z"/>
  <path class="cls-1" d="M436.7,220.4c.2.6-.2.5-.5.5.2-.2.4-.3.5-.5Z"/>
  <path class="cls-1" d="M423.1,186c0,.1,0,.2-.1.3,0-.1-.1-.2-.2-.4.1,0,.2,0,.3,0Z"/>
  <path class="cls-1" d="M492.9,212.9s0,0-.1-.1c0,0,0,0,0,0,0,0,0,0,.1.1,0,0,0,0,0,0Z"/>
  <path class="cls-1" d="M77.1,314.3c-.1,0-.2,0-.3.1,0,0,0-.2.1-.2,0,0,.1,0,.2.1Z"/>
  <path class="cls-1" d="M20.2,211.9s0,0,0,.1c0,0,0,0,0-.1,0,0,0,0,0,0Z"/>
  <polygon class="cls-1" points="20.2 228.9 20.2 228.9 20.2 228.9 20.2 228.9"/>
  <polygon class="cls-1" points="479 230 479 229.9 479 230 479 230"/>
  <path class="cls-1" d="M479,213s0,0,0,.1c0,0,0,0,0-.1,0,0,0,0,0,0Z"/>
  <path class="cls-1" d="M445.9,196.5s0,0,.1,0c0,0,0,0-.1,0Z"/>
  <polygon class="cls-1" points="492.9 212.9 492.9 212.9 492.9 212.9 492.9 212.9"/>
  <path class="cls-1" d="M388.8,197.9c-.8.1-.9-.4-1-.8,0,0,.5-.3.7-.4.5,0,1-.1,1.5,0,.4,0,.8,0,.7.6,0,.5-.2.7-.6.7-.5,0-1,0-1.4.1Z"/>
  <path class="cls-1" d="M411.5,199.2c-.1-.1-.3-.3-.4-.4,0-.1,0-.3,0-.4,0,0,0,0,0,0,.6.1.5.5.4.9Z"/>
  <path class="cls-1" d="M411,198.4c0,0-.2-.2-.2-.2,0,0,.1,0,.1,0,0,0,.1.2.2.2,0,0,0,0,0,0Z"/>
  <path class="cls-1" d="M445.7,192.2s0,0,0,0c0,0,0,0,0,0,0,0,0,0,0,0,0,0,0,0,0,0Z"/>
  <path class="cls-1" d="M444.9,196.5s0,0,0,0c0,0,0,0,0,0,0,0,0,0,0,0Z"/>
  <path class="cls-1" d="M108,195.5c1.2,0,2.4-.3,3.5,0,0,.1,0,.3,0,.4-1.1-.2-2.3-.3-3.4-.5Z"/>
  <path class="cls-1" d="M103.2,195.5c.4-.4,1.9-.5,3.3,0h-3.3Z"/>
  <path class="cls-1" d="M89.4,232.1c-.2,0-.4.1-.6.2,0,0,0-.2,0-.2.2,0,.4-.1.6-.2,0,0,0,.2,0,.3Z"/>
  <path class="cls-1" d="M57.2,213.4s0-.1,0-.1c0,0,.1,0,.1,0,0,0,0,.1,0,.1,0,0,0,0-.1,0Z"/>
  <path class="cls-1" d="M89.7,231.5s0,0,.1,0c0,0,0,.1,0,.1,0,0,0,0-.1,0,0,0,0,0,0-.1Z"/>
  <path class="cls-1" d="M53.5,191.1h0c0,0,0,0,0,0,0,0,0,0,0,0,0,0,0,0,0,0Z"/>
  <path class="cls-1" d="M80.9,199.3c-.1.1-.3.2-.4.4-.8,0-1.6.9-1.8,1.9-1.2,1.5-1.9,3.3-2.1,5.2,0,.1,0,.2,0,.3,0,.2,0,.3,0,.5,0,.1-.3.2-.3.3-.1,1.7.1,3.4.6,5,.2.6.3,1.2.5,2-.9-.6-1.1-1.4-1.2-2.1-.2-1.5-.3-3.1-.5-4.6,0-.3,0-.7,0-1,0,0,0,0,0,0,0-.3.2-.7.3-1-1.1-.3-1.1-.4-.4-1.3.1-.2.7-.4.2-.8,0-.1.1-.2.2-.3.1,0,.3-.2.3-.2,0-1.3.8-2,1.5-2.8.6-.7.7-1.4.6-2.2,0-.2-.1-.4-.1-.6,0-.7,0-.7.7-.5.9.2,1.8.3,2.8,0,0,0,.2.1.3.3-.5.6-.9,1.1-1.4,1.6Z"/>
  <path class="cls-1" d="M71.5,215.6c0,.1,0,.2,0,.3-.5.4-.7,1.6-.4,2.2,0,.1,0,.2,0,.3-.1,0-.3.1-.4.2-.4-.3-.2-1-.9-1,0,0,0,0,0-.1-.2-.8-.3-1.6-.5-2.5-.3,0-.6,0-1.1,0,0-.3,0-.6,0-.8,0,0,.1.1.2.2.5-.4,1-.8,1.5-1.3,1-.8,1.9-1.7,2.9-2.5.1-.1.4-.1.6-.2-.3.8-.6,1.7-.9,2.5-.5.4-.8,1.4-.5,1.9,0,.1,0,.2,0,.3,0,.2,0,.3-.1.5Z"/>
  <path class="cls-1" d="M70.8,222.2c0,0,0,.2.1.3,0,0,0,0,.2,0,.2-.5.4-1,.5-1.4.2-.3.5-.7.7-1,.2-.3.4-.6.6-1,0,1.5,0,2.6,0,3.8,0,.3.3.5.4.8,0,.1.1.2.2.3.1.2.2.4.4.4.8.2,1.1.8,1.4,1.5,0,.2.4.3.6.4h0c0,.5-.3.5-.7.3-1.3-.8-2.7-1.5-4-2.4-1.1-.7-1.2-1.1-.7-1.9,0,0,0,0,.1,0Z"/>
  <path class="cls-1" d="M65.3,199.8c.5,0,1,0,1.6,0,0,0,0,.2,0,.2-1,.4-2,1-3.1.5-1-.4-2,0-3,0-.2,0-.5,0-.7,0,1.7-.7,3.5-.6,5.3-.7Z"/>
  <path class="cls-1" d="M70,189.2c.7.1,1.4.2,2,.3.1.3.2.6.3.9-.5.2-.5.6-.2,1,.2.3.4.5.6.7,0,.1,0,.3-.1.5-.8-.4-1.3-1.2-1.2-2.1,0-.7-.6-.6-.9-.9-.2-.2-.4-.3-.5-.4Z"/>
  <path class="cls-1" d="M75.8,207.2s0,0,0,0c0,0,0,0,0,0,0,0,0,0,0,0Z"/>
  <path class="cls-1" d="M422.6,210.9c0-1.8,0-3.6-.6-5.4-.3-.8-.7-1.6-1.1-2.3,0-.1-.2-.2-.3-.4,0,0,0,0,0,0-.4-.6-.7-1.3-1.3-1.8-.8-.7-1.6-1.4-2.5-2.1.2-.2.3-.3.4-.5,1,.6,1.9.3,2.8,0,.6-.2.8,0,.7.5,0,.2,0,.5-.2.7-.3.9,0,1.5.5,2.2.5.6,1,1.3,1.5,2,.1.2,0,.5.1.7,0,.2.2.3.3.5,0,.1.1.2.2.3-.5.4,0,.6.2.8.6.8.6,1-.5,1.2,0,.3.2.7.3,1,0,0,0,0,0,0,0,0-.2.1-.2.2.5,2.2,0,4.3-.5,6.4,0,.4-.4.7-.6,1,0,0-.1,0-.2,0,.1-.6.2-1.1.3-1.7.2-.9.4-1.7.6-2.6,0-.2,0-.4-.1-.7Z"/>
  <path class="cls-1" d="M427,214c-.4-.8-.7-1.7-1.1-2.5.6.3,1.2.5,1.7.9.9.8,1.7,1.7,2.6,2.5.1.1.4.2.5.3.2.2.3.4.5.7-.2,0-.4,0-.7.1-.1,0-.3,0-.2,0-.2.5-.4.9-.6,1.2,0,.2,0,.3,0,.5-.1.3.3,1-.5.9-.2,0-.3.6-.5,1-.2,0-.3-.1-.4-.2,0-.1,0-.2,0-.3.4-.7,0-1.4-.1-2.1,0,0-.2,0-.3-.1,0-.1,0-.2,0-.3,0-.2,0-.3-.1-.5,0-.1,0-.2,0-.3.2-.6,0-1.5-.5-1.9Z"/>
  <path class="cls-1" d="M425.6,225.1c0-.1.1-.2.2-.3.2-.3.4-.5.4-.8,0-1.2,0-2.3,0-3.7.3.4.4.8.6,1.1.2.3.5.6.7.9.2.5.4,1,.6,1.5.1-.2.2-.3.2-.5.6.9.5,1.5-.4,1.9-.4.2-.7.6-1.1.8-1,.6-2,1.1-3,1.7-.4.2-.7.2-.7-.3,0,0,0,0,0,0,.5-.5,1-1.1,1.5-1.6.7.3.9.2.9-.7Z"/>
  <path class="cls-1" d="M426.4,190.8c2.1-.4,4.2-.9,6.3-.7.4,0,.8.1,1.1.2,0,.5,0,.9-.7.4-.2-.2-.5-.3-.7-.2-1.5.2-3,.4-4.6.6.3,1.2,0,2-1.1,2.6,0-.4.2-.7.2-1,.5-.8,0-1.1-.6-1.3.4-.2.3-.4,0-.6Z"/>
  <path class="cls-1" d="M432.4,200.9c.5,0,1,0,1.4-.1.6,0,1.1,0,1.7.1,1.2.1,2.4.3,3.6.4,0,.1,0,.2,0,.3-.8,0-1.6-.1-2.4-.2-.2,0-.5,0-.7,0-1.3.7-2.4,0-3.5-.3,0,0,0-.2-.1-.3Z"/>
  <path class="cls-1" d="M416.7,231.1c-.7,0-1.2.1-1.8.2.4-.6.9-.9,1.8-.2Z"/>
  <path class="cls-1" d="M413.8,230c0,.1,0,.3,0,.4-.6.9-.7,0-1-.3.1-.1.2-.3.3-.4.2.1.4.2.6.3Z"/>
  <path class="cls-1" d="M435.8,191.8c-.4-.2-.7-.4-1.1-.6,0,0,0-.1.1-.2.4.2.7.4,1.1.5v.2Z"/>
  <path class="cls-1" d="M412.5,228.9c0,.2,0,.4,0,.6,0,0-.1,0-.2,0v-.6c0,0,.1,0,.2,0Z"/>
  <path class="cls-1" d="M423.4,208.3s0,0,0,0c0,0,0,0,0,0,0,0,0,0,0,0Z"/>
  <path class="cls-1" d="M29.1,204.4c-.7-.7-.2-1,.3-1.3,0-.1,0-.2,0-.3-.6-.8-.5-1.1.4-1.5.7-.3,1.4-.6,2.2-.9,0,.2.1.4.2.6.5,0,1,0,1.6,0-1.6,1.1-3.1,2.1-4.6,3.2Z"/>
  <path class="cls-1" d="M40.8,200.8c1.1-.6,2.2-1.5,3.4-1.8,1.5-.4,2.7-1.5,4.2-1.9-1.9,1.6-3.9,3.2-5.8,4.8-.4-.4-.4-.4.2-1,.3-.3.6-.6.8-.9,0,0-.1-.1-.2-.2-.9.4-1.7.9-2.6,1.3,0,0,0-.2-.1-.3Z"/>
  <path class="cls-1" d="M465.7,202.3c.4,0,.9,0,1.4-.1,0-.2.1-.4.2-.7.2,0,.3.1.5.2.7.3,1.3.6,2,.9.6.3.9.7.2,1.3,0,0,0,.2-.1.3.3.3,1,.6.3,1.3-1.5-1-3-2-4.5-3,0,0,0-.1,0-.2ZM466.9,202.7c0,0,0,.2,0,.3.2,0,.4-.2.6-.3,0,0,0-.1,0-.2-.2,0-.4.1-.6.2Z"/>
  <path class="cls-1" d="M450.9,198.1c2.2,1.1,4.5,2.2,6.7,3.3,0,0,0,.2-.1.3-.5-.3-1.1-.5-1.7-.8-.1,1,1.4,1.1,1,2.2-2-1.7-4-3.3-5.9-4.9,0,0,0,0,0,0Z"/>
  <path class="cls-1" d="M458.7,208.8c.1.3.3.7.4,1,0,.2.2.3.1.5,0,0-.3.2-.4.2-.9-.5-2-.5-2.6-1.5-.1-.3-.3-.5-.4-.9.8.7,1.8.8,2.8.7,0,0,0,0,0,0Z"/>
  <path class="cls-1" d="M458.7,208.8c-.5-.6-1-1.3-1.6-1.9h.1c.2,0,.4,0,.6.2,1,1,2.1,2,3.1,3.1.1.1.1.4.2.6-.2,0-.4,0-.6-.2-.6-.6-1.2-1.1-1.8-1.7,0,0,0,0,0,0Z"/>
  <path class="cls-1" d="M455.6,207.9s-.1,0-.1,0c0,0,0,0,0-.1,0,0,.1,0,.1,0,0,0,0,0,0,.1Z"/>
  <path class="cls-1" d="M40.5,207.7c1,0,1.9,0,2.7-.8,0,1-.9,1.8-1.8,2-.3,0-.5.3-.8.4-.2,0-.4,0-.6,0,0-.2.1-.4.2-.6.1-.3.2-.6.4-.9h0Z"/>
  <path class="cls-1" d="M40.6,207.7c-.6.6-1.2,1.2-1.9,1.8-.1.1-.3.1-.5.1,0-.2,0-.4.1-.5,1-1.1,2-2.1,3.1-3.1.2-.2.4-.2.7-.3,0,0,0,.1,0,.2-.5.6-1,1.3-1.5,1.9,0,0,0,0,0,0Z"/>
  <path class="cls-1" d="M43.8,206.7s0,0,0,0c0,0,0,0,0-.1,0,0,0,0,.1,0,0,0,0,0,0,.1Z"/>
  <path class="cls-1" d="M420.7,202.8c0,.1.2.2.3.4,0-.1-.2-.2-.3-.4Z"/>
  <path class="cls-1" d="M426.4,190.8c.3.2.4.4,0,.6h-2.4s0,0,0-.1c.8-.1,1.6-.3,2.5-.4Z"/>
  <path class="cls-1" d="M78.7,201.5c.2-1,1-1.8,1.8-1.9-.6.6-1.2,1.2-1.8,1.9Z"/>
  <path class="cls-1" d="M76.6,207.1c0-.1,0-.2,0-.3,0,.1,0,.2,0,.3Z"/>
  <path class="cls-1" d="M73.4,223.7c-.2-.3-.4-.5-.4-.8,0-1.2,0-2.3,0-3.8-.3.4-.4.7-.6,1-.2.3-.5.7-.7,1,.6-1.7,1.2-3.4,1.8-5.2v7.7Z"/>
  <path class="cls-1" d="M76,226.3c-.2-.1-.5-.2-.6-.4-.3-.7-.6-1.3-1.4-1.5-.2,0-.3-.3-.4-.4.4,0,.8.2,1.3.2.2-.5.3-1,.5-1.8.2,1.4.4,2.7.6,3.9Z"/>
  <path class="cls-1" d="M71,218.1c-.3-.6-.1-1.9.4-2.2-.1.7-.3,1.5-.4,2.2Z"/>
  <path class="cls-1" d="M71.7,214.8c-.2-.5,0-1.6.5-1.9-.2.6-.4,1.3-.5,1.9Z"/>
  <path class="cls-1" d="M71.5,215.6c0-.2,0-.3.1-.5,0,.2,0,.3-.1.5Z"/>
  <path class="cls-1" d="M72.4,190.4c-.1-.3-.2-.6-.3-.9,1.1.2,2.2.4,3.4.6-1.1.1-2.1.2-3.1.3Z"/>
  <path class="cls-1" d="M427.6,222.2c-.2-.3-.5-.6-.7-.9-.2-.3-.4-.6-.6-1.1,0,1.4,0,2.6,0,3.7,0,.3-.3.5-.4.8v-7.6c0,0,0,0,.1,0,0,0,0,0,0,0,.4,1,.7,1.9,1.1,2.9.3.7.5,1.4.7,2.1Z"/>
  <path class="cls-1" d="M425.6,225.1c0,.9-.3,1-.9.7-.5.6-1,1.1-1.5,1.6.2-1,.3-2,.5-3.2.3.4.5.7.7,1.1.4,0,.8-.2,1.2-.2Z"/>
  <path class="cls-1" d="M427.8,217c0,0,.2,0,.3.1.2.7.5,1.4.1,2.1-.1-.7-.3-1.5-.4-2.2Z"/>
  <path class="cls-1" d="M427,214c.5.4.8,1.3.5,1.9-.2-.6-.4-1.3-.5-1.9Z"/>
  <path class="cls-1" d="M427.6,216.2c0,.2,0,.3.1.5,0-.2,0-.3-.1-.5Z"/>
  <path class="cls-1" d="M466.9,202.7c.2,0,.4-.1.6-.2,0,0,0,.1,0,.2-.2,0-.4.2-.6.3,0,0,0-.2,0-.3Z"/>
</svg>