<?xml version="1.0" encoding="UTF-8"?>
<svg id="Calque_1" data-name="Calque 1" xmlns="http://www.w3.org/2000/svg" version="1.1" xmlns:xlink="http://www.w3.org/1999/xlink" viewBox="0 0 500 500">
  <defs>
    <style>
      .cls-1 {
        fill: #75683b;
        stroke-width: 0px;
      }
    </style>
  </defs>
  <image width="710" height="410" transform="translate(-7942 -7992)" xlink:href="Emperor-1.png"/>
  <g>
    <path class="cls-1" d="M257.1,93.6c29.7,0,59.3,0,89,0,4.7,0,6.9,1.1,6.8,6.3-1,77.3-10.2,153.3-36.8,226.3-12.4,34-29.2,65.6-54.2,92.4-5.4,5.8-5.5,5.9-10.7,0-24.8-27.6-41.2-60-53.8-94.6-16.3-44.7-25.8-91.1-30.5-138.3-2.7-27.8-3.6-55.7-5.1-83.6-.4-8.3,0-8.3,8-8.3,29.1,0,58.2,0,87.3,0ZM257.7,101.8c-27.4,0-54.8,0-82.2,0-5,0-7.4,1.4-6.9,6.9.7,8.1.7,16.3,1.2,24.5,3.5,56.7,11.6,112.7,28.7,167.1,11.5,36.5,26.7,71.2,51.8,100.8,5.9,6.9,6.1,6.9,11.9.2,23.3-26.6,38.8-57.7,50.4-90.7,23-65.4,31.8-133.3,34-202.3.2-5.2-2.1-6.5-6.8-6.5-27.4.1-54.8,0-82.2,0Z"/>
    <path class="cls-1" d="M294.9,186c-6.2-22.4-20-37.7-34.1-53-.7.3-1.5.6-2.2.9,2.2,6.8,4.3,13.6,6.8,21.4-4.7,2.3-7.7,7-6.5,14-5.4-4.6-6.4-10.9-4.2-17.8,1.8-5.6,2.7-11.6,2.7-17.9-11.2,11.4-20.9,23.6-26.1,38.6-5.3,15.4-1.4,31.2-1.8,47.3,11.4-7.5,22.2-15.2,28.1-26.8,9.8,9.3,19.7,18.4,29.3,27.7,5.6,5.4,8.3,11.7,8.6,16.6-3.4-2.9-7.9-6.6-12.3-10.5-2.9-2.6-5.2-2.8-8.4-.2-5.8,4.8-12.8,6.6-20.2,6.5-10.6,0-13.6-3.2-12.9-13.4-8.4-1.8-13.1,1.7-13,9.8.2,17.1.6,34.2.8,51.3,0,4.7.9,7.4,6.7,6.8,8.4-.9,14,3.9,18,10.7,1.5,2.6,2.7,5.3,4.5,8.9,1.7-2.8,2.9-4.8,4.2-6.8,5-7.4,10.7-13.4,20.8-12.4,1.1.1,3.2-2.3,3.4-3.7.5-3.5,1.3-7.8-6.6-6.3q8-3.8,15.1-15.8v55.7c-.2,0-.4.2-.6.3-.7-2.2-1.2-4.5-2.1-6.7-1.5-3.5-2.8-7.1-5-10.2-4.6-6.6-11.7-6.5-15.7.4-2.6,4.5-5,9.7-5.6,14.8-3,22.8-5.3,45.7-7.9,68.5-.2,2-.3,4-.4,6-.5,0-1,0-1.5,0,0-2.1-.1-4.3-.3-6.4-1.5-20.7-2.7-41.3-4.8-61.9-.6-6.3-3-12.6-5.8-18.3-4.7-9.4-14.5-9.7-20.4-1-2.7,4-4.3,8.7-6.5,13.4,0-5.9,0-11.5,0-17.2-.1-36.1,0-72.3-.5-108.4-.2-15.5,4.3-29.2,13.1-41.6,2.1-3,4.3-5.8,6.3-8.8,7.3-10.7,14.6-21.5,21.9-32.1,0,.1.7,1.4,1.4,2.6,7.8,12.4,15.3,24.9,23.5,37,7.5,11,12.1,22.6,10,37.9ZM241.8,215.6c10.8,2,21.2,3.9,32.7,6-11-14.4-22.1-16.1-32.7-6ZM257,226.5c0-.7,1.1-3.5.4-4.1-2.2-1.7-4.9-3-7.6-3.4-1.6-.3-3.6,1.4-5.4,2.2,1.9,1.3,3.7,2.9,5.8,3.8,1.7.8,3.8.8,6.9,1.4ZM260.8,220.8c-.6,3.5-1.1,6.2-1.7,10.3,5-2.1,8.9-3.7,12.9-5.4-.1-.6-.2-1.2-.3-1.8-3.5-1-7-2-10.8-3.1Z"/>
  </g>
</svg>