<?xml version="1.0" encoding="UTF-8"?>
<svg id="Calque_1" data-name="Calque 1" xmlns="http://www.w3.org/2000/svg" version="1.1" viewBox="0 0 500 500">
  <defs>
    <style>
      .cls-1 {
        fill: #75683b;
        fill-rule: evenodd;
        stroke-width: 0px;
      }
    </style>
  </defs>
  <g id="surface1">
    <path class="cls-1" d="M70.9,142.9C17.5,160.7-.8,188.2,0,218.6c1.6,25.6,32.9,60.9,63.9,69.8,9.2,1.9,12.9,11,8.4,18.6-17.8,24.3-18.9,49.6-3,43.4-7.3,0-8.6-7.8-6.2-9.2,3.5-2.4,7.3-4.9,10.8-7,1.3,3,2.4,5.7,4,8.6-.5-3.2-1.3-7-1.9-10,15.6-11.9,42-11.3,60.9-8.6,10,1.3,11.6,7.5,26.7,12.7,9.4,3.2,28.8,0,36.4-28,3.8,3.5,7.5,6.7,11.3,10.2-3.5,9.4-1.3,13.2,2.7,15.6-4.6-7-2.7-10.2.3-14,4.6,1.9,10,3,18.1,0,1.3-.5,2.2,1.6,1.1,3.5-4,13.5,1.1,21.6,7.8,27.8,2.7,2.2,3.8,7,5.1,10,1.1-2.4,1.9-5.4,3-7.8,1.3-2.7,15.9-12.1,10-29.9-.8-2.4,0-4.6,1.3-4,3.5,1.1,16.2,3,18.6.5,3,3.2,2.7,8.6-.5,13.7,3.8-.8,6.5-8.4,3-14.3,5.9-1.9,11.3-6.2,16.2-11.6,5.9,18.9,17.2,28,28.6,28.8,13.2,1.1,17.2-1.9,34-12.1,18.3-10.8,53.6-5.9,73,6.5,0,7.3-2.4,10-4.3,13.7,2.4-2.7,4.9-4.9,7.3-11.6,2.4,1.1,4.9,2.7,7.5,5.4-.8,4-4,7.3-7,9.4,20.2-3.8,9.7-26.1,3.5-40.7-1.6-3.2-1.3-5.1,3-5.7,19.9-3.2,34.5-18.9,43.7-34-5.7,4.6-11,1.6-11.3-4.9v-41c5.4-1.1,11.9-5.1,18.1-11,7,21,.5,32.1-3.2,44.2,21.8-31.3,2.4-66.6-20.2-79.2-5.9-3.2-17.8-10-31.3-16.2-12.1-5.7-17.8-15.4-22.4-22.4v52c-5.7-4.9-8.6-12.9-12.7-27.2-5.7,29.9-19.1,39.6-34.5,44.2,4.6,2.7,7.5,5.4,7.5,10,0,22.1-.3,44.5,0,66.6,0,7-3.2,11.6-6.7,13.2,4.3,1.3,9.2,3.8,12.4,5.9,1.3-6.7,7.5-8.1,7.3-14.3-3.5,4-6.7,5.4-6.2,2.2v-82.5c6.7-5.4,13.7-12.4,19.9-22.4,3.8,6.5,7.3,12.1,11.6,16.4,0,16.2-.3,32.3-.5,48.5-11.9-7.5-14.6-16.7-11-27.2-6.2,10-5.4,21,5.4,32.9,9.4,10.2,6.2,18.1-5.9,20.7,18.3,1.1,36.9-12.7,35.3-33.7-1.3-19.1-9.4-32.3-14.6-40.2v-42.8c11.6,8.6,28.8,9.7,44.5,21v40.4c-17.5,11.9-19.9,25.1-15.9,31.5-2.2-8.6,1.9-19.4,16.2-26.1v16.2c0,7.3-7,11.6-10.5,16.7-5.1,7.8-2.7,15.1,1.9,14.8-6.2-7,0-12.7,8.6-17.8v20.5c-9.4,14.6-41,16.7-59.8,7.8,3.8,16.2,30.7,29.9,34.5,41.5.8,2.4,1.1,5.1,1.3,7.8l-8.6-5.4c-2.4-32.6-63.6-24.5-101.1-21.8-18.1,1.6-28.6-3.8-22.4-10.5,2.4-2.4,4.9-4.6,7.3-7l-8.6-4.3v-50.4c7,5.4,6.5,11.3,4.6,17.2,9.2-6.5,11.9-17.8,3.5-31.3-2.4,3.2-5.1,7.3-7.5,10.8v-5.7c-1.9-1.6-4.3-3.5-6.2-5.1-1.6,4.9-6.5,10.2-10,12.7,2.4,1.9,4.3,3.5,4.3,6.5,0,15.6-.3,31.3-.3,47.2-1.1,1.9-2.4,4-3.5,5.9,3.5.5,4,1.9,4.9,3.2,7.5,12.9,12.1,19.9,19.1,23.2,7.5,3.8,18.1,3,38,1.6-7.8,5.4-22.1,12.9-32.6,10.2-11.6-3-22.6-13.2-25.6-32.3-7,8.9-15.9,17.2-20.5,18.3-3.2-3.2-7-6.2-7.5-8.9-.3-1.9,1.6-5.1,2.7-6.2,1.9-2.2,2.4-2.4,4.6-.8,14.8-18.6,14.6-21.8,10.8-28.6.8,7.3-1.6,12.1-5.4,15.6-3.8-1.6-7.5-3.2-12.7-4.3v-11.6c6.5-5.9,11.9-10.8,19.9-24.5,2.2-4.3.8-7.5-.8-10.2-4.3-6.5-9.7-11.6-16.4-17-6.2,7-12.4,11.9-18.3,13.7,2.7,5.7,3.2,51.5,0,55.8,14.6-.8,12.4,13.7,4.6,22.9-4.9-3.5-10-7.8-14.8-11.3-4.9,4-10,7.8-14.8,11.9-8.4-7.5-7.5-16.2-3-24.3-1.3-1.9-2.7-3.8-4.3-6.7v-48.2c0-2.4,1.3-5.9,3.5-8.1-3.5-1.1-6.2-2.4-8.9-5.7-2.4,4-5.7,7.3-10,10.2,2.2,1.3,4.6,3,4.6,4.9v46.3c-1.3,1.6-3,4-4,5.7,5.9,6.7,9.4,12.9,10.5,19.7-1.9,3.2-4,6.2-6.2,8.1-5.9-3.8-11.6-10-16.7-17.5-8.4,45.5-39.9,31.8-46.9,25.6,22.1,1.3,32.3-2.7,39.9-23.7,2.7-7.8,10.2-13.2,15.4-19.9,0-11.3-.3-22.9-.5-34.2-2.2-1.6-4.3-3.5-6.5-5.1,2.2-4,5.7-7,7-12.1,1.3-4.9-.8-9.7-6.2-10,3.2,1.6,5.4,5.9,4,8.4-.5,1.3-1.9,2.2-5.7.5-3.5-1.6-7-3.8-10-7.5-6.5,8.1-12.4,14.6-17.8,17.5,0,11,3.2,21.6,6.5,29.9-7.5,13.7-9.4,28,1.3,31.3-4.3-4.3-7-5.7-5.7-13.7,4.3,3.8,9.2,8.1,13.5,12.1-1.6,8.9-9.4,10.5-18.3,10.2-77.1-11-92.2,1.1-94.3,21.6-3,1.9-5.9,3.5-8.9,5.4,0-8.9,7.8-21.6,23.4-29.6,10.8-5.7,21.8-15.1,25.3-24.8-31.5,7.3-49.3-.8-73.8-15.4-19.9-11.9-35.3-29.4-35.6-46.9-.3-28.3,19.4-49.6,57.9-62.8,2.4,25.3-11.3,31.5-21.3,43.7-18.3,18.6-22.4,34.2-15.6,42.3-4.3-15.1,4.6-28.8,18.9-39.3,6.7-5.1,13.5-10.5,19.1-17.2v16.4c-11.3,13.5-25.3,23.7-19.1,30.2-1.9-9.2,14.3-20.2,18.9-20.7v31.8c-18.1-.8-26.1,2.7-29.6,8.6,15.4-10,35-3.2,53.1,7.3,12.9,8.1,23.4,12.7,35.3,12.1,2.2-2.2,3.8-5.9,4.3-11.3-3.8,3-7.8,3.8-12.4,2.2-15.4-4.9-26.9-10.2-40.4-16.2v-19.4c3-2.7,7.5-1.9,14.6,2.2,5.7-2.7,11.3-5.1,17-7.8-9.2,2.4-13.2,4-17.8-2.7,14.6-8.9,29.6-17.5,44.2-26.4-15.9-10.2-21.3-26.1-22.4-47.4-8.9,10.2-32.1,15.9-36.9,29.1v-29.6h.3ZM72.2,223.5c14.6-9.2,29.1-18.6,43.7-27.8-8.1-10.8-14.8-23.4-14.8-40.7-18.1,5.7-29.9,17.2-29.4,27.5.3,14,.3,26.9.8,41h-.3ZM128.6,319.1c-14.3.5-23.2-4-51.5,8.4,3.8-9.2,9.2-20.5,49.3-19.9,19.7.3,30.7,7,53.4,4.6-1.1,8.9-20.5,10-39.6,8.6-24.8-17.2-48.8-6.7-58.7,3.8,12.1-7.3,33.4-13.2,47.4-5.1l-.3-.3ZM134,301.9c-2.4-3.8-5.7-7-9.2-10,1.6-1.6,4.6-4,4.3-7.5,0-14.3.3-29.6,0-43.7,0-2.4-1.9-4-4-5.9,3-4,6.5-8.4,9.7-12.4,2.4,1.3,4.3,3.2,6.7,4.6l-.8,5.1c3.5-.5,5.4-3.5,8.4-10,4.9,3.2,11,6.2,17.2,6.5-2.7,3.5-3.8,6.2-3.8,8.6v45.5c0,2.7,2.4,5.7,4.3,7.3-3.8,3.5-6.7,7.8-9.2,12.1-2.2-2.4-4.9-5.1-7-7.5.5-3.2,1.1-6.2,1.1-8.9v-39.3c0-2.4.5-5.4,1.6-7.3-4.3-1.3-8.6-3.2-12.7-4.9v48.2c0,3.2,1.9,6.5,3.8,7.8-5.4,3-9.7,11.6-9.7,11.3l-.8.3ZM196.5,242.3c-3.8,4.9-7.5,9.7-11.3,14.3-3.8-6.7-4.6-14-4.6-20.7s.5-3.2,2.4-2.2c4.3,3,8.9,6.5,13.2,8.6h.3ZM190.8,252.8c.8-1.1,3.5,1.9,3.5,3.5,0,10.5.3,19.7.5,29.9,0,1.3-1.3,1.9-2.4.8-4.9-4.6-9.7-9.4-14.3-14-.5-.8-1.1-1.9-.3-3,.8-1.3,12.1-16.2,12.9-17.2ZM217.8,195.4c3,4.6,6.2,9.2,10,12.7-4.9,5.1-4,10.2-4,15.1-.8-.8-1.6-1.3-2.7-1.9.5-2.4-.5-17-3.5-25.9h.3ZM261.7,193c4.6,12.9-1.1,11-10.2,2.4-5.4,6.5-10.8,12.7-17.2,15.1,1.3,6.2,1.6,13.7,1.1,20.5-2.4,3-4.6,5.1-7,8.4,2.2-.8,5.4-1.9,7.8-1.6,0,23.7-.3,47.7-.3,71.7,3-2.7,6.5-5.1,10.2-7.3,0-21.6.3-42.3.5-64.4,3,0,5.9,0,8.9.5,0-4,0-7.5.8-11.3-3,.8-5.9,1.1-9.4.5v-19.9c3.2,2.2,6.2,4,9.4,6.2,2.7-3.2,5.7-6.7,7.8-10.2,2.7-4.6-1.1-9.2-2.7-10.5h.3ZM223.1,313.5c1.3.8,3.2,2.2,4.6,3-3.8,2.4-7.8,2.4-11,1.3,1.1-.8,4.9-3.2,6.5-4.3ZM270.3,313.5c-1.3.8-3.2,2.2-4.6,3,3.8,2.4,7.8,2.4,11,1.3-1.1-.8-4.9-3.2-6.5-4.3ZM246.6,312.7c-3.2,2.2-5.9,5.1-8.1,8.1,3.8,5.1,7,10.5,8.1,16.2,1.3-5.7,4.6-11.3,8.4-15.9-1.9-3-7-7.5-8.4-8.4ZM236.3,324.5c5.9,6.5,9.2,15.9,7.8,28.3-6.7-7.8-13.2-14.6-7.8-28.3ZM256.6,324.5c-5.9,6.5-9.2,15.9-7.8,28.3,6.7-7.8,13.2-14.6,7.8-28.3ZM272.7,236.4c15.1,14.3,13.5,24.5,0,33.4,0,0,0-33.4,0-33.4ZM337.4,221c2.7,3.2,5.9,4.9,8.9,6.7-2.2,1.6-3.5,4.9-3.5,9.7v46.1c2.2,1.9,4.6,3.5,6.7,5.4,1.3-1.3,3-2.7,4.3-4,0-14.8,0-29.6-.3-44.7,0-5.7-1.3-5.9-4.3-8.1,3.8-3.5,7.8-6.5,10.2-10.8,2.2,2.7,5.7,5.1,8.6,6.5-2.4,2.7-3.5,5.9-3.8,9.4v46.3c1.3,1.9,2.7,3.2,4.3,5.1-3.5,4-6.7,9.4-9.2,14-3-5.4-5.1-8.4-8.1-12.1-4,2.7-7.8,7.5-10.5,11.6-3-5.1-6.5-8.9-12.9-10.8,1.9-2.2,3.2-4.9,3.8-8.9v-45.5c0-2.2-3-3.8-4.6-4.9,1.9-1.3,9.7-9.4,10.2-11.3v.3ZM385.4,316.7c15.9.3,14.6-.3,46.3,10-4.3-7.5-9.7-19.4-54.7-19.1-22.1,0-34.5,6.7-59.8,4.6,7,8.4,32.6,6.2,54.2,5.1,20.7-11,48-4.9,55.8,5.7-13.7-6.2-24.3-10.5-41.8-6.2ZM425,218.1c11.3,18.9,11,35.3,0,45,0,0,0-45.3,0-45ZM476.2,189.8v26.4c5.7-2.7,12.1-10.5,12.4-14.3-1.1-3.5-8.9-10.8-12.4-12.1"/>
  </g>
</svg>