<?xml version="1.0" encoding="UTF-8"?>
<svg id="Calque_1" data-name="Calque 1" xmlns="http://www.w3.org/2000/svg" version="1.1" xmlns:xlink="http://www.w3.org/1999/xlink" viewBox="0 0 500 500">
  <defs>
    <style>
      .cls-1 {
        fill: #75683b;
        stroke-width: 0px;
      }
    </style>
  </defs>
  <image width="710" height="410" transform="translate(-7942 -7992)" xlink:href="Finsterforst-1.png"/>
  <g>
    <path class="cls-1" d="M143.6,255.9c1.8-1,3.6-1.9,5.3-3,3.6-2.3,7-4.7,10.5-7.1.2.3.4.6.6.9-1.1.9-2.2,1.8-3.9,3.1,5.6,2.3,10.5,4.6,15.7,6.4,1.3.4,3.1-.7,5-1.2-1.6,2.3-3.2,3.8-6.1,2.4-4.4-2-8.8-3.7-13.5-5.7-1.6,5.7.1,10.8,2.4,16.1,2.1-1.3,4-2.5,6-3.6.9-.5,2-.7,3-1-3,2-5.9,4.1-9.2,6.3-3.7-6.2-5-12.4-3.3-20-3.5,2.4-6.6,4.3-9.1,6.7-.8.7-.5,3.2,0,4.7,1.5,5,3.5,9.7,7.1,13.8,4.4-2.7,8.5-5.3,12.8-7.7,2.9-1.7,5.3-.6,5.1,2.7-.5,8.4-1.4,16.8-2.1,25.8-3.2-3-5.6-5.3-8.1-7.6.2-.2.3-.3.5-.5,2,1.6,4,3.2,6.3,5.1,1.6-7.7,2.4-15.2,2.1-22.8,0-2.4-1.8-2.3-3.4-1.3-3.7,2.1-7.5,4.2-11,6.5-2.1,1.4-3.5,1.1-4.5-1-1.9-3.8-3.7-7.6-5.6-11.4-.4-.8-1.1-1.5-1.7-2.2-.2-1.5-.4-2.9-.6-4.4Z"/>
    <path class="cls-1" d="M474.3,298c-2.1-.5-4.2-1-6.9-1.7,1.5-.1,2.4-.2,3.5-.3-.3-.9-.6-1.5-.9-2.2.1-.1.3-.3.4-.4,1.3,1.5,2.6,3,3.9,4.5,0,0,0,0,0,0Z"/>
    <path class="cls-1" d="M288.3,257.8c-.3-6.1-.6-12.3-.8-18.5-1-.1-1.9-.3-2.8-.4,0-.2-.1-.5,0-.6,2.9-2.1,2.9-4.8,2.6-8.2-.8-8.2-1.5-16.4-1.2-24.6.2-8.4,2.2-16.6,7.8-23.8,6,13.1,13.8,24.5,25.2,32.7-4.3,7-8.5,13.8-12.7,20.6.2.3.5.6.7.9h14.3c-1.4,1.8-2.3,3-3.2,4.2,0-.3,0-.5-.1-.8-3.8-.1-7.5-.4-11.3-.3-.8,0-1.9,1.2-2.2,2-1.5,5.3-2.9,10.6-4.3,16-4,.2-7.9.5-11.9.7ZM293,194.5c-.9,2-1.8,3.3-2,4.7-.8,9.1-1.6,18.2-1.8,27.3,0,3.5,1,7.3,2.4,10.6.7,1.8,2.9,3.8,4.8,4.1,1.2.2,3.7-1.9,4.4-3.6,2.4-5.6,4.5-11.4,6.4-17.2,1.6-4.8.6-9.4-2.7-13.2-3.6-4.2-7.4-8.2-11.5-12.7Z"/>
    <path class="cls-1" d="M288.3,257.8c4-.2,7.9-.5,11.9-.7-.6,6-1.6,12-1.7,18-.2,10.7.2,21.5.4,32.2,0,1.7.4,3.6-2,3.8-2.1.1-2.7-1.4-2.9-3.3-1.9-15.8-3.8-31.7-5.7-47.5,0-.8,0-1.6,0-2.5Z"/>
    <path class="cls-1" d="M260.9,258.2c0,.7.3,1.4.3,2.1-.4,18.4-.7,36.8-1.2,55.1-.1,4.3-1.6,8.1-5.1,12.1-.2-23.4-.4-45.9-.6-68.4,2.2-.3,4.4-.6,6.5-1Z"/>
    <path class="cls-1" d="M317.5,252.4c0,1.7,0,2.8,0,3.9-.1,10.3,0,20.7-.5,31-.2,4.3,1.6,6.7,5.3,8.2,1.8.8,3.7,1.4,5.6,2.2-2.4,2.7-5,3.2-8,1.1-.3-.2-.7-.4-1.1-.6-5.1-2.2-7.5-5.7-7.2-11.7.4-8.3.3-16.7-.3-25-.3-4.6,2-6.8,6.1-9.1Z"/>
    <path class="cls-1" d="M264,254.9c-.2,13.2-.3,26.3-.5,39.5-.1,6.7-.4,13.4-.4,20.1,0,5-1.4,9.4-4.2,13.5-2.3,3.4-4.5,7-7.3,11.4,0-3.9,0-7,0-10-.1-22.6-.2-45.1-.3-67.7,0-1.7-.3-3.5-.5-5.2.2-.2.4-.4.5-.6.5,3.3,1.4,6.6,1.4,9.9.1,17.8,0,35.5,0,53.3,0,4.6,0,9.1.4,13.8,4.7-5.7,9-11.4,9-19.2.1-18.8.4-37.6.7-56.4,0-.9.2-1.9.3-2.8.3.2.5.3.8.5Z"/>
    <path class="cls-1" d="M260.9,258.2c-2.2.3-4.4.6-6.5,1-1-4-2-8.1-2.9-12.1-.2-.9-.2-2.1.2-2.9,2.3-3.7,4.8-7.3,7.7-11.5,1.5,8.9,2.1,17.2,1.5,25.5Z"/>
    <path class="cls-1" d="M339.7,259.6c-.1,9.8-.1,19.6-.6,29.3,0,1.6-2.5,3.1-3.8,4.6-.3-.2-.6-.3-1-.5v-34.1c1.8.2,3.6.5,5.4.7Z"/>
    <path class="cls-1" d="M320.3,291.1c-.3-.9-.9-1.7-1-2.6,0-13,0-26.1,0-39.7,4.5,1.2,8.8,2.2,12.1,5.4.7.7,1.1,2.1,1.1,3.1,0,12.4-.2,24.9-.3,37.3,0,.4-.2.8-.3,1.4-3.7,0-7-1.2-9.9-3.3.1-.2.3-.3.4-.5,2.7,1,5.4,2.1,8.8,3.3,0-2.1,0-3.2,0-4.4,0-9.8,0-19.6.2-29.4.2-7.1-3.1-10.6-10.5-10.6,0,.7-.3,1.4-.3,2.1,0,11.7-.1,23.4-.2,35.1,0,.8.3,1.6.4,2.4l-.5.4Z"/>
    <path class="cls-1" d="M293.3,179.8c-6.2,8.6-8.8,18.3-8.8,28.8,0,7.1.3,14.2.9,21.2.3,3.3.1,5.9-2.7,7.9-1,.7-1.9,1.3-2.9,2,.2.3.4.7.6,1,1.7,0,3.3.2,5.3.3,0,1.2.1,2.4.2,3.7.2,5.8.3,11.6.5,17.4,0,.9.4,1.8.6,2.7-.3,0-.6-.1-.9-.2-.2-1.4-.6-2.8-.6-4.3,0-6,0-12,0-18.4h-7.2c-.2-.4-.5-.8-.7-1.2,1.6-1.3,3.1-2.6,4.7-3.8,2.3-1.7,2.6-3.8,2.3-6.6-1.3-10.5-2-21-.4-31.5,1.1-7.3,3.5-14.1,8.5-19.8.3.2.5.4.8.6Z"/>
    <path class="cls-1" d="M324.1,236.4c-1.6,4.7-5.5,6.8-9.8,9.3.2-1.4.3-2.4.4-3.7-2.3,0-4.5-.2-6.5.1-.8.1-1.7,1.6-2,2.6-3.4,11.6-4.6,23.4-4.7,35.4-.1,9.4.4,18.8.6,28.2,0,1.2-.5,2.5-.8,3.7-.1-.1-.3-.3-.4-.4-.2-5.5-.5-11-.5-16.5,0-8.2-.7-16.5.1-24.7.9-9.3,3.1-18.4,4.7-27.6.3-1.7,1.2-2.2,2.8-2.2,1.8.1,3.6-.1,5.3,0,1.1.2,2.2.9,3.3,1.4.1.3.2.7.3,1,2.1-2.2,4.1-4.5,6.2-6.7.3,0,.6,0,1,0Z"/>
    <path class="cls-1" d="M292.5,179.1c.7-.8,1.3-1.5,2-2.3,2.8,5.2,5.4,10.2,8.2,15,4.2,7,9.3,13.3,15.7,18.6,4.3,3.5,8.6,6,14.5,2.5-.3,4.9,1.1,9.7-2.9,13.3-.1-.2-.3-.3-.4-.5,0-.4,0-.8,0-1.2h0c.7-1,1.6-2,1.9-3.1,1.6-4.9.8-5.9-4-5.7-.7,0-1.5-.2-2.2,0-.3,0-.4.8-.6,1.2-.2.2-.4.4-.6.6-.5-.5-1.1-.9-2-1.6-3.2,4.4-6.2,8.7-9.2,13,1.6-5.5,4.9-9.9,8.9-14-.1-.2-.2-.6-.4-.7-12.2-8.2-20.1-19.8-26.3-32.8-.3-.7,0-2.9-2-1.5-.3-.2-.5-.4-.8-.6Z"/>
    <path class="cls-1" d="M337.1,294.6c3.9-2,4.2-5.4,4.2-9.4-.1-9.7.1-19.4.5-29.1.1-3.2-1-5.4-3.7-7-3.4-1.9-6.7-3.9-10.2-5.5-1-.5-2.9-.2-3.8.5-3.3,2.5-6.4,5.3-9.6,8-.7.6-1.6,1.1-2.4,1.6-.2-.2-.4-.4-.5-.6.7-.7,1.3-1.4,2-2,2.8-2.4,5.7-4.6,8.3-7.2,2.5-2.6,4.8-3.1,7.9-1.1,3.6,2.3,7.5,4.2,10.9,6.7,1.3.9,2.4,3.1,2.4,4.7,0,12.1-.4,24.2-.8,36.3,0,3-3,3.3-5,4.4,0,0-.1-.2-.2-.3Z"/>
    <path class="cls-1" d="M339.7,259.6c-1.8-.2-3.6-.5-5.4-.7.5-4.3-1.5-6.9-5.4-8.4-2.1-.8-4.2-1.7-6.4-2.7,1.9-2.5,3.9-3.8,6.8-1.9,1.2.8,2.6,1.4,3.9,2,4.9,2.3,7.7,5.8,6.5,11.6Z"/>
    <path class="cls-1" d="M265.8,254.6c5.1,3.9,7.2,9.9,6.6,18.6,6.1-4.8,6.2-19.6,0-30.5-.8.6-1.6,1.2-2.3,1.8-.2-.2-.5-.4-.7-.6,1.1-1.5,2.2-2.9,3.5-4.5,8.6,16.2,7.4,29.2-4.2,43.2,3.6-10.2,3.9-19.8-4.3-27.9.5,0,.9,0,1.4-.1Z"/>
    <path class="cls-1" d="M265.8,254.6c-.5,0-.9,0-1.4.1-.1,0-.3,0-.4.1-.3-.2-.5-.3-.8-.5-.6-8.6,0-17.3-3.3-26.3-4.3,6.1-8.2,11.8-12.2,17.5.9,1.8,1.9,3.7,2.9,5.7h0c-.5,0-1.3.2-1.4,0-1-1.8-1.8-3.7-2.6-5.6-.1-.3,0-.8.1-1.1,4.3-6.3,8.7-12.6,13.3-19.3,2.5,4.4,3.1,8.8,3.3,13.2.1,3.3.4,6.6.7,9.9,0,.3.9.5,1.4.7.2.2.3.4.5.7-1.2,1.6-1.3,3.2,0,4.9Z"/>
    <path class="cls-1" d="M266.9,251.9c1.6-1.9,3.3-3.8,4.9-5.7,4,5.1,5.3,15,2.6,18.9-1-2.2-1.8-4.6-3-6.7-1.2-2.2-2.8-4.1-4.4-6.5Z"/>
    <path class="cls-1" d="M326.7,301.8c-1.7,2-3.5,1.9-5.8.8-11.8-5.8-12.2-6.4-12.4-19.4,0-8.4,0-16.9-.2-25.3,0-2.3.9-3.6,2.4-4.1-.3,2.9-.9,6-.9,9-.2,9.2,0,18.4-.2,27.5,0,2.7.8,4.7,3,6.1,2.7,1.7,5.5,3.3,8.3,5,1.9,1.2,3.7,1.3,5.5,0,.1.1.2.2.4.4Z"/>
    <path class="cls-1" d="M301.3,312.1c-.3.4-.6.9-1.1,1.1-1.2.8-2.9,2.3-3.5,2-2.1-1.2-5-2.8-5.4-4.6-1.7-8.6-2.7-17.4-4-26.2,0-.2.2-.5.8-1.4.4,1.4.7,2.2.8,3,1,7.5,2,15.1,3.1,22.6.7,4.8,4.2,6.2,8,3.5.2-.2.6-.3.8-.4.1.1.3.3.4.4Z"/>
    <path class="cls-1" d="M328.3,228c-1.3,1-2.5,2-3.8,3,1.8-4.7,2.6-9.1-.2-13.5.2-.2.4-.4.6-.6,2.2,2.6,2.6,5.5,2,8.8-.1.6-1.4,2.2.9,1.9.2.2.3.3.5.5Z"/>
    <path class="cls-1" d="M286,264.6c.3,0,.6.1.9.2.1,3,.3,6,.4,9-.3,0-.6,0-.9.1-1.2-3-.6-6.2-.5-9.3Z"/>
    <path class="cls-1" d="M335,296.4c-2.8,1.8-5.6,3.6-8.4,5.4-.1-.1-.3-.2-.4-.4,2.8-1.8,5.6-3.6,8.4-5.4.1.1.2.3.3.4Z"/>
    <path class="cls-1" d="M251.4,255.9c-.2.2-.4.4-.5.6-.3-1.3-.6-2.6-.9-4,.3,0,.6-.1.9-.2.2,1.2.4,2.4.5,3.6Z"/>
    <path class="cls-1" d="M324.1,236.4c-.3,0-.6,0-1,0-.1-.9-.3-1.8-.4-2.7.3,0,.6-.1.8-.2.2,1,.3,1.9.5,2.9Z"/>
    <path class="cls-1" d="M337.3,294.8c-.8.5-1.5,1-2.3,1.6-.1-.1-.2-.3-.3-.4.8-.5,1.6-1,2.4-1.4,0,0,.1.2.2.3Z"/>
    <path class="cls-1" d="M310.6,232c.7.9,1.1,1.4,2,2.6-1.4-.3-2.1-.5-2.8-.6.2-.5.4-1,.7-2Z"/>
    <path class="cls-1" d="M321.9,292.7c-.3-.3-.7-.6-1-.9.1-.2.3-.3.4-.5.3.3.7.6,1,.9-.1.2-.3.3-.4.5Z"/>
    <path class="cls-1" d="M320.9,291.7c-.2-.2-.4-.4-.6-.6.2-.1.3-.3.5-.4.2.2.4.4.5.6-.1.2-.3.3-.4.5Z"/>
    <path class="cls-1" d="M265.4,249.1c.3-.2.6-.3.9-.5-.1.4-.2.8-.4,1.1-.2-.2-.3-.4-.5-.7Z"/>
    <path class="cls-1" d="M250.6,251.3c-.2.3-.3.7-.5,1-.1-.1-.3-.3-.4-.4.3-.2.6-.4.9-.6,0,0,0,0,0,0Z"/>
    <path class="cls-1" d="M328.9,227.4c-.2.2-.4.4-.6.6-.2-.2-.3-.3-.5-.5.2-.2.4-.4.7-.6.2.1.3.3.5.4Z"/>
    <path class="cls-1" d="M329.5,226.8c-.2.2-.4.4-.6.6-.2-.1-.3-.3-.5-.4.2-.2.4-.4.6-.6.1.1.3.3.4.4Z"/>
    <path class="cls-1" d="M330.1,226.2c-.2.2-.4.4-.6.6-.2-.1-.3-.3-.4-.4.2-.2.4-.4.6-.7.1.2.3.3.4.5Z"/>
    <path class="cls-1" d="M51.5,252.2c3.7-17.3,2.3-33.8-7.3-49.2-1.1-1.7-2.2-2.5-4.2-2.3-2.9.2-5.8,0-8.8,0-7,0-12.3,2.7-15.6,10.3-.9-7.7-1.7-14.6-2.5-21.4,13.4,3.9,27.5,5.4,41.9,4.8,13.8-.6,27.5-2.2,40.9-5.5,11.3-2.8,22.5-5.7,33.7-8.9,9.4-2.7,18.8-5.7,26.4-12.4,8.7,20-5.4,54.7-28.1,69.1.2-1.2.4-2.3.6-3.4,1.5-11.3-3.2-19.2-14.6-22.6-8.1-2.4-16.4-4.1-24.7-5.4-11.1-1.9-22.3-3.1-33.5-4.6-.5,0-1,0-2.2,0,6.7,12,12.2,24.1,14.3,37.7h26.2c-2.5,2.2-4.4,3.8-6,5.3-6.1-3.8-12.3-.8-18.3-1.8,1,4.7,1.9,9,2.9,13.3-1.6-.2-3.2-.4-4.8-.6-.6-1.9-1.3-3.9-2.1-6.4-1.7,2.4-3,4.1-4.2,5.8-2.9-2.7-6.6-1.4-9.9-1.8ZM118.4,195.1c.9-.3,1.8-.7,3.6-1.4-1.4,1.6-2.1,2.6-3,3.4-4,3.7-9,5.1-14.3,5.5-4.6.3-9.2.4-13.7.6,5.2.6,10.5,1.1,15.6.4,7.3-1,14-3.6,17.2-11.2,1.8-4.2.4-6.4-4.1-5.9-3.5.4-7,1.1-10.5,1.9-13.2,2.9-26.4,5.9-39.6,8.8-2.5.5-5.1.5-7.7.7,0,.3,0,.6,0,.9,6.9,1.4,13.8,2.9,20.7,4.2.6.1,1.3-.5,2-.7,1.1-.3,2.2-.8,3.4-.8,5.2,0,10.4.3,15.6.1,4.9-.2,9.8-1.3,13.7-4.6.6-.5.9-1.4,1.3-2.1h0ZM135.8,224c12.6-6.3,18-22,12.2-34.6-2.8-6.1-7.3-7.5-12.9-3.8-2.3,1.5-4.5,3.5-6.3,5.5-2.8,3.1-5.4,6.4-8,9.8-3.9,5-3.1,6.9,2.7,9.2,6.4,2.5,13.9,4.1,12.4,13.8Z"/>
    <path class="cls-1" d="M51.5,252.2c3.4.3,7-1,9.9,1.8-1.7,2.6-3.5,5.1-5.1,7.7-4.1,6.4-8.6,12.6-12.1,19.2-5.6,10.5,1.7,16.7,10.8,17.7,4.9.5,8.9-1.5,10.9-6.2,1.6-3.8,2.9-7.8,3.6-11.8,1.5-8.8-.2-17.4-1.7-26,1.6.2,3.2.4,4.8.6.4,9.5.9,18.9,1,28.4,0,4.1-1.1,8.2-1.6,12.3-.2,2.1-1.5,3-3.2,3.8-7.1,3.3-12.4,8.1-13.2,17.5-1.2-2.1-2-3.5-2.7-4.9-1.3-2.7-2.4-5.6-3.7-8.3-3.2-6.7-8.4-9.9-16.3-8.5.5-1.1.7-1.8,1.1-2.5,4-7.9,8.4-15.6,12-23.7,2.4-5.5,3.8-11.4,5.7-17.1Z"/>
    <path class="cls-1" d="M142.1,226.3c9.5-10.8,15.8-23,17.4-37.5.8-8,0-15.8-2.1-23.5-.1-.4-.7-.8-1-1.1-.2-.3-.4-.5-.7-.8.4-.6.8-1.2,1.2-1.9,8.1,16.1,5.7,44.2-14.1,65.5-.3-.2-.5-.5-.8-.7Z"/>
    <path class="cls-1" d="M65.8,303.3c1.8-1,3.8-1.9,5.4-3.1,1.1-.8,2.3-2,2.5-3.2,2.7-14.7,3.1-29.4-.1-44.1-.7-3.1-1.3-6.3-2.1-9.7h12c0,.3,0,.5,0,.8h-10.5c.8,4.4,1.5,8.4,2.3,12.3,2.6,13.9,1.9,27.8-.9,41.6-.2,1-1,2-1.9,2.6-2.1,1.3-4.3,2.3-6.5,3.4-.1-.2-.3-.5-.4-.7Z"/>
    <path class="cls-1" d="M22.8,205.5c-4.5,4.2-5,6.2-3.8,13.7-5.4-3.1-6.9-8.1-7.2-13.5-.4-7.1-1.1-14.2-5.7-21.1,3.7,1.3,6.5,2.3,9.4,3.3,0,.3-.1.6-.2.9-1.9-.7-3.9-1.3-6.7-2.3,4.4,6.8,3.8,13.8,4.6,20.7.3,2.8,1.5,5.4,2.7,8.1,1.6-4,2.6-8,6.4-10.3.2.2.4.4.5.6Z"/>
    <path class="cls-1" d="M68.1,329.4c-7.7-2.7-13.6-7.5-17-15,.2-.2.4-.4.6-.5,1.8,3,3.2,6.3,7.3,8.4-2.5-7.8-.4-13.5,5.9-17.6-.4.5-.7,1-1.1,1.4-6.6,6.6-6.6,13,.2,19.4,1.4,1.3,2.9,2.3,4.4,3.5,0,.1-.2.3-.3.4Z"/>
    <path class="cls-1" d="M80,236.9h-10.6c-2.3-12.2-7-23.6-13.5-34.9,3.8.5,7.1,1,10.3,1.4,0,.3,0,.5,0,.8-2.6-.3-5.2-.7-8.4-1.1,5.8,10.7,10.6,21.3,12.4,33.3,3.2,0,6.5,0,9.7,0,0,0-.1.1-.1.2,0,.1.2.2.3.3Z"/>
    <path class="cls-1" d="M43.2,205c6.6,9.9,8.7,21,8.2,32.7-.1,2.9-.6,5.9-1.4,8.8,1.9-14.5,0-28.3-7.3-41.1.2-.1.3-.3.5-.4Z"/>
    <path class="cls-1" d="M88.6,189.5c-8.3,1.1-16.6,2.2-24.9,3.2,0-.3,0-.6-.1-.9,8.3-1.1,16.6-2.2,24.8-3.3,0,.3.1.6.2,1Z"/>
    <path class="cls-1" d="M114.9,182.3c8.9-2.8,17.7-5.6,26.6-8.5,0,.3.2.5.3.8-8.8,2.9-17.7,5.7-26.5,8.6,0-.3-.2-.6-.3-1Z"/>
    <path class="cls-1" d="M49.4,253.7c-2.8,7.7-5.5,15.3-8.3,23-.3-.1-.7-.2-1-.4,2.7-7.8,5.4-15.5,8.1-23.3.4.2.8.4,1.2.7Z"/>
    <path class="cls-1" d="M122.9,218.2c4.2,4.8,5.1,13.7,1.9,19.9.2-3.6,1-7,.6-10.1-.4-3.2-2-6.2-3-9.3.2-.1.4-.3.6-.4Z"/>
    <path class="cls-1" d="M80,236.9c0,0-.2-.2-.3-.3,0,0,0-.1.1-.2,5.9-.3,11.9-.6,18.5-.9-.7,1.6-1.1,2.5-1.5,3.4-.2-.3-.4-.5-.7-.8-.7-.4-1.5-1.3-2.2-1.3-4.6,0-9.3,0-13.9,0Z"/>
    <path class="cls-1" d="M40.8,192.4h17.1c0,.2,0,.4,0,.5h-17.1c0-.2,0-.4,0-.5Z"/>
    <path class="cls-1" d="M96.5,186.7c4.6-1.1,9.1-2.1,13.7-3.2,0,.3.1.6.2.8-4.6,1.1-9.1,2.2-13.7,3.4,0-.3-.1-.7-.2-1Z"/>
    <path class="cls-1" d="M41.1,202.7c-6.2,0-12.6-.8-18.3,2.8-.2-.2-.4-.4-.5-.6,2.6-1,5.1-2.5,7.7-2.8,3.8-.4,7.7,0,11.5,0-.2.2-.3.3-.5.5Z"/>
    <path class="cls-1" d="M142.1,226.3c.3.2.5.5.8.7-2.6,2.6-5.2,5.2-7.9,7.9-.4-.2-.7-.4-1.1-.5,2.7-2.7,5.5-5.4,8.2-8.1Z"/>
    <path class="cls-1" d="M29.4,296.1c.8.3,1.6.9,2.5.9,2.7.1,5.5,0,9.1,0-5.4.5-9.8.9-14.2,1.4h0c.7-.9,1.4-1.9,2.1-2.8.2.2.3.3.5.5Z"/>
    <path class="cls-1" d="M121.3,243.8c.8-1.6,1.7-3.3,2.5-4.9.3.2.5.5.8.7,0,.6-.1,1.1-.3,2,1-.7,1.8-1.1,2.6-1.6.3.2.6.5.8.7-2,1.3-4,2.6-6,3.9-.1-.3-.3-.5-.4-.8Z"/>
    <path class="cls-1" d="M150.3,169.9c-2.6,1.4-5.3,2.8-7.9,4.2l-.4-.7c2.6-1.4,5.2-2.8,7.7-4.2.2.3.4.5.6.8Z"/>
    <path class="cls-1" d="M88.5,246.1c-1.1.6-2.3,1.2-3.6,1.9-.2-1.6-.4-2.7-.5-3.8,1.3.4,2.5.7,3.7,1,.2.3.3.5.5.8Z"/>
    <path class="cls-1" d="M46,302c1,1.7,1.9,3.5,2.9,5.2-.2.1-.5.3-.7.4l-2.6-5.2c.2-.1.3-.3.5-.4Z"/>
    <path class="cls-1" d="M118.6,215.5c-1.8-.9-3.6-1.8-5.3-2.8.1-.1.2-.2.3-.3,1.8.9,3.7,1.8,5.5,2.7-.2.1-.3.3-.5.4Z"/>
    <path class="cls-1" d="M51.1,314.4c-.8-1.7-1.6-3.4-2.4-5.1.2-.1.5-.2.7-.3.8,1.6,1.5,3.3,2.3,4.9-.2.2-.4.3-.6.5Z"/>
    <path class="cls-1" d="M130.3,237.3c1.1-.8,2.1-1.7,3.2-2.5.2.2.4.5.6.7-1,.8-1.9,1.7-2.9,2.5-.3-.2-.6-.5-.9-.7Z"/>
    <path class="cls-1" d="M155.6,165.2c-.9.8-1.7,1.6-2.6,2.5-.2-.2-.5-.4-.7-.6.9-.9,1.8-1.8,2.7-2.7.2.3.4.5.6.8Z"/>
    <path class="cls-1" d="M43.2,299.1c.6.6,1.3,1.2,1.9,1.9-.2.1-.3.3-.4.4-.6-.6-1.2-1.3-1.7-1.9,0,0,.2-.2.2-.3Z"/>
    <path class="cls-1" d="M28.9,295.6c.5-.7,1.1-1.5,1.6-2.2.1.1.3.3.4.4-.5.8-1,1.5-1.5,2.3-.2-.2-.3-.3-.5-.5Z"/>
    <path class="cls-1" d="M38.4,279.5c.3-.7.7-1.4,1-2.1.2,0,.4.2.6.3-.4.7-.7,1.5-1.1,2.2-.2-.1-.3-.3-.5-.4Z"/>
    <path class="cls-1" d="M34.8,286.4l1.3-2.5c.2.1.3.3.5.4-.5.8-1,1.6-1.5,2.3-.1-.1-.2-.2-.3-.3Z"/>
    <path class="cls-1" d="M32.1,291.9c-.4.7-.8,1.3-1.2,2-.1-.1-.3-.3-.4-.4.4-.6.8-1.3,1.2-1.9.1.1.2.2.4.4Z"/>
    <path class="cls-1" d="M42.4,204.6l-1.3-1.8c.2-.2.3-.3.5-.5.4.6.9,1.3,1.3,1.9-.2.1-.3.3-.4.4Z"/>
    <path class="cls-1" d="M50.3,246.7c-.1.7-.2,1.4-.3,2-.3.1-.4.1-.5.2v-2.2c.3,0,.6,0,.8,0Z"/>
    <path class="cls-1" d="M88,245.3c.6-.4,1.3-.8,1.9-1.3l.5.8c-.6.4-1.3.8-1.9,1.3-.2-.3-.3-.5-.5-.8Z"/>
    <path class="cls-1" d="M34.1,288.8l-1,1.5c-.1,0-.3-.2-.4-.3.3-.5.7-1.1,1-1.6.2.1.3.3.5.4Z"/>
    <path class="cls-1" d="M130.3,238.8c-.5.4-1.1.8-1.6,1.1-.3-.2-.6-.5-.8-.7.5-.4,1-.8,1.5-1.2.3.2.6.5.9.7Z"/>
    <path class="cls-1" d="M119.1,215c.5.3,1,.7,1.5,1-.1.2-.2.3-.3.5-.5-.3-1.1-.7-1.6-1,.2-.1.3-.3.5-.4Z"/>
    <path class="cls-1" d="M152,168.5c-.6.4-1.2.8-1.8,1.2-.1-.2-.3-.3-.4-.5.5-.4,1-.9,1.5-1.3.2.2.4.4.6.7Z"/>
    <path class="cls-1" d="M110,211.3c.4,0,.9,0,1.3.1,0,.1,0,.3,0,.4-.4,0-.9,0-1.3.1,0-.2,0-.4,0-.6Z"/>
    <path class="cls-1" d="M68.4,329l1,.5c0,.1,0,.2-.1.3-.4-.2-.8-.3-1.2-.5,0-.1.2-.3.3-.4Z"/>
    <path class="cls-1" d="M153,167.6c-.3.3-.7.6-1,.9-.2-.2-.4-.4-.6-.7.3-.3.6-.5.9-.8.2.2.5.4.7.6Z"/>
    <path class="cls-1" d="M128.7,239.9c-.3.2-.6.5-1,.7-.3-.2-.6-.5-.8-.7.3-.3.6-.5,1-.8.3.2.6.5.8.7Z"/>
    <path class="cls-1" d="M124.6,239.5c-.3-.2-.5-.5-.8-.7.3-.2.5-.4.8-.7,0,.5,0,.9,0,1.4Z"/>
    <path class="cls-1" d="M95.2,239.3c.3-.4.6-.8.9-1.2.2.3.4.5.7.8-.3.3-.5.6-.8,1-.3-.2-.5-.4-.8-.5Z"/>
    <path class="cls-1" d="M38.9,279.9c-.2.4-.4.8-.6,1.3-.2-.1-.3-.3-.5-.4.2-.4.4-.8.6-1.3.2.1.3.3.5.4Z"/>
    <path class="cls-1" d="M38.2,281.1c-.2.4-.5.8-.7,1.2-.1-.1-.3-.3-.4-.4.2-.4.4-.8.6-1.2.2.1.3.3.5.4Z"/>
    <path class="cls-1" d="M36.1,284c.2-.4.5-.8.7-1.2.1.1.2.2.4.4-.2.4-.4.8-.6,1.2-.2-.1-.3-.3-.5-.4Z"/>
    <path class="cls-1" d="M131.2,238c-.3.3-.6.5-.9.8-.3-.2-.6-.5-.9-.7.3-.2.6-.5.9-.7.3.2.6.5.9.7Z"/>
    <path class="cls-1" d="M45.5,302.4c-.3-.4-.6-.7-.9-1.1.1-.1.3-.3.4-.4.3.3.6.7.9,1-.2.1-.3.3-.5.4Z"/>
    <path class="cls-1" d="M42.9,299.4c-.4-.3-.8-.5-1.2-.8.1-.1.2-.2.3-.4.4.3.7.6,1.1.8,0,0-.2.2-.2.3Z"/>
    <path class="cls-1" d="M113.3,212.7c-.4,0-.8-.1-1.2-.2,0-.1,0-.3,0-.4.5,0,.9.2,1.4.3-.1.1-.2.2-.3.3Z"/>
    <path class="cls-1" d="M156.4,164.2c-.3.3-.5.6-.8.9-.2-.3-.4-.5-.6-.8.2-.3.5-.6.7-.9.2.3.4.5.7.8Z"/>
    <path class="cls-1" d="M121.7,244.5c-.2,0-.5,0-.7,0,0-.2.2-.5.3-.7.1.3.3.5.4.8Z"/>
    <path class="cls-1" d="M94.1,240.5c.3-.3.5-.5.8-.8.2.3.4.5.6.8-.2.2-.4.4-.6.6-.3-.2-.5-.4-.8-.6Z"/>
    <path class="cls-1" d="M135,234.9c-.4.1-.9.3-1.3.4,0-.3.1-.6.2-.9.4.2.7.4,1.1.5Z"/>
    <path class="cls-1" d="M89.9,244c.2-.1.4-.3.6-.4l.7.7-.8.5-.5-.8Z"/>
    <path class="cls-1" d="M48.7,251.2c0,0,0,.1-.1.2,0,0-.2-.1-.2-.2,0,0,.1-.1.2-.2,0,0,.1.1.2.2Z"/>
    <path class="cls-1" d="M90.5,243.6c.2-.2.5-.3.7-.5.3.2.6.4.8.5-.3.2-.6.5-.8.7-.2-.2-.5-.5-.7-.7Z"/>
    <path class="cls-1" d="M35.1,286.7c-.1.1-.2.3-.4.4,0-.2,0-.5,0-.7.1,0,.2.2.3.3Z"/>
    <path class="cls-1" d="M121.8,218c-.2-.2-.5-.5-.7-.7.2-.1.3-.3.5-.4.2.2.4.4.7.6l-.5.5Z"/>
    <path class="cls-1" d="M121.1,217.3c-.1-.3-.3-.6-.4-.9.3.2.6.3.9.5-.2.1-.3.3-.5.4Z"/>
    <path class="cls-1" d="M91.2,243.1c.3-.1.7-.2,1-.4,0,.3-.1.6-.2.9-.3-.2-.6-.4-.8-.5Z"/>
    <path class="cls-1" d="M33.6,288.4c.2-.1.4-.2.6-.3,0,.2,0,.5,0,.7-.2-.1-.3-.3-.5-.4Z"/>
    <path class="cls-1" d="M41.8,298.6l-.5-.4c.3,0,.5,0,.8,0-.1.1-.2.2-.3.4Z"/>
    <polygon class="cls-1" points="26.7 298.5 26.8 298.6 26.8 298.5 26.7 298.5"/>
    <path class="cls-1" d="M37.5,282.3c-.1.3-.3.6-.4.8-.1-.1-.3-.2-.4-.4.1-.3.2-.6.4-.9.1.1.3.2.4.4Z"/>
    <path class="cls-1" d="M93.5,242.3l-1,.3c.1-.4.3-.7.4-1.1.2.3.4.5.5.8Z"/>
    <path class="cls-1" d="M93,241.6c.2-.2.4-.4.6-.6.2.3.4.5.6.8-.2.2-.4.4-.6.6-.2-.3-.4-.5-.5-.8Z"/>
    <path class="cls-1" d="M94.8,239.7c.1-.2.2-.3.4-.4.3.2.5.4.8.5-.2.2-.4.4-.6.7-.2-.3-.4-.5-.6-.8Z"/>
    <path class="cls-1" d="M93.6,241c.2-.2.3-.3.5-.5.3.2.5.4.8.6-.2.2-.4.4-.6.6-.2-.3-.4-.5-.6-.8Z"/>
    <path class="cls-1" d="M42.8,204.1c.1.3.3.6.4.8-.2.1-.3.3-.5.4-.1-.3-.2-.6-.4-.9.1-.1.3-.3.4-.4Z"/>
    <path class="cls-1" d="M122.3,217.5c.2.2.4.4.6.7-.2.1-.4.3-.6.4-.2-.2-.3-.4-.5-.6.2-.2.3-.3.5-.5Z"/>
    <path class="cls-1" d="M31.7,291.5c.1-.1.3-.3.4-.4,0,.3,0,.5,0,.8-.1-.1-.2-.2-.4-.4Z"/>
    <path class="cls-1" d="M424.5,203.3c2.4-.3,4.7-.6,7.8-1-4.8-1.7-8.8,0-12.9.5-4.6.5-9.1,1.4-13.6,2.3-1.3.3-2.6,1-3.9,1.6-.9.3-1.9,1.1-2.6.9-5.2-1.5-9.8.9-14.4,2.4-10.9,3.7-15.3,12.1-13,23.4.1.7.3,1.4.6,2.9-11.3-8.6-20.4-18-25.9-30.6-5.5-12.7-6-25.9-3.2-39.6,13.1,10.1,28.8,13.1,43.9,17.5,15.3,4.4,30.9,7.2,46.7,8.7,17.6,1.7,35.1,1,52.1-4,.3,0,.6,0,.4,0-.8,6.8-1.5,13.5-2.3,20.9-.6-.9-.9-1.2-1.1-1.6-2.7-5.3-7.1-7.8-12.8-8.1-2.5-.1-5.1.3-7.5-.1-4.7-.8-7,1.5-9.1,5.4-7.4,13.7-8.7,28.1-6.1,43.2.5,2.9,1.4,5.8,2.1,8.7-1.2,0-2.4-.1-3.7,0-1.8,0-3.7.2-5.5.3-2-2.6-3.9-5.2-6.3-8.3-.8,2.6-1.4,4.7-2,6.7-1.8,0-3.6,0-5.4,0,3.9-19.4,9.1-38.3,19.7-56-4.7.6-8.6,1.1-12.9,1.6.2.7.3,1.4.4,2.1-3.3.4-6.6.8-9.9,1.3,0-.3,0-.6,0-.9ZM362.8,195.9c-.5-.1-1.1-.3-1.6-.4.3.4.7.7,1,1.1.5.6,1,1.1,1.5,1.7-.5,0-1.2,0-1.6-.2-1.3-.8-2.5-1.9-3.8-2.7-3.3-1.8-5.7-.5-6,3.3-.5,4.9.9,9.3,3.7,13.2.8,1.1,1.4,2.2,2.1,3.4-.4,0-.9.1-1.1,0-3-3.6-5.4-7.5-5.9-12.2-.2-2.2-.5-4.9.4-6.7.9-1.7,3.4-2.5,4.9-3.6-3.8-1.1-7,1.2-7.3,5.8-.6,7.8,2.9,13.9,8.2,19.2,1.8,1.8,3.7,3.6,5.6,5.4.3,0,.7-.2,1-.3-1.5-7.5,2.2-11.6,8.5-14.1.4-.1.7-.4,1-.7,2.6-2,2.6-3.8-.1-5.6-3.5-2.2-7.1-4.4-10.6-6.6ZM431.4,198.4c0-.4,0-.8,0-1.2-1.8-.2-3.6-.5-5.4-.6-2.4-.2-5.4.6-7-.6-2.6-2-5.6-1.8-8.3-2.8-2.4-.8-4.8-.7-7.3-1.5-12.3-4-24.7-7.4-37.2-10.9-2.9-.8-5.9-1.3-8.9-1.4-3.1,0-4.5,2.4-3,5.1,1.1,1.9,2.6,3.8,4.3,5.3,6.4,5.6,14,8.9,22.1,11,11.8,3.1,23.7,1.7,35.5.2,2.7-.3,5.2-1.6,7.9-2.1,2.4-.4,5-.3,7.5-.5Z"/>
    <path class="cls-1" d="M427.1,255.2c1.8,0,3.6,0,5.4,0-.7,5-1.8,10-2.1,15-.5,7.8.2,15.5,3.9,22.5,3.2,6.1,8.1,7.7,14.5,5.1,1.2-.5,2.3-1.1,3.3-1.7,8.6-5.3,9.5-9.3,3.7-17.5-5-7.3-10.1-14.6-15.1-21.9,1.8,0,3.7-.2,5.5-.3,1.2,0,2.4,0,3.7,0,4.2,13,10.4,25.2,17.3,37-.4.3-.6.5-.7.4-8.5-.7-12.6,1.9-16.7,11.1-1.5,3.3-2.9,6.6-4.6,10.3-.4-.6-.7-.8-.7-1.1-.9-7.8-5.9-12.5-12.5-15.7-2.5-1.2-3.6-2.7-4.1-5.3-2.5-12.7-3.2-25.4-.8-38.3Z"/>
    <path class="cls-1" d="M366.9,235.6c-26.6-20.3-33.8-52.8-24.1-74.9,3,2.8,6,5.7,9.1,8.6-.1.2-.3.4-.4.5-2.8-2.2-5.5-4.4-8.8-7-.8,5.1-1.9,10.1-2.2,15.2-1.4,22.6,8.3,40.1,24.8,54.7.8.7,1.4,1.7,2.2,2.5-.2.1-.3.3-.5.4Z"/>
    <path class="cls-1" d="M431,300.4c-3.4-.4-5.3-1.9-6-5.7-2.6-15.5-2.6-31,.6-46.4.2-.9.4-1.8.6-2.7,0-.3.3-.5,1-.6-.2,1.3-.3,2.6-.5,3.9-3,14.6-3.5,29.2-1.1,43.9.3,1.7.5,3.7,1.4,5.1.8,1.2,2.6,1.7,3.9,2.6Z"/>
    <path class="cls-1" d="M427.2,242.6c2.5-13.1,7.8-27,15.2-40.6-2.2.2-4,.4-5.8.5,0-.2,0-.5-.1-.7,2.3-.4,4.7-.7,6.5-1-5.4,14.3-10.9,28.8-15.8,41.7Z"/>
    <path class="cls-1" d="M445.9,318.1c-4.1,5.6-9.5,9.2-16.1,10.9,7.5-4.9,14.3-10,10.2-20.7,3.2,3.6,2.6,7.7,2.1,12.4,1.1-1,2.3-2,3.4-3,.1.1.3.3.5.4Z"/>
    <path class="cls-1" d="M451.5,250.9c-4.7-8.5-3.8-34,3.8-43.3-6.4,14-7.4,28.4-3.8,43.3Z"/>
    <path class="cls-1" d="M493.9,184c-4.2,5.4-4.9,11.9-5.5,18.4-.3,3.2-1,6.3-1.8,9.4-.2,1-1.2,1.9-1.8,2.9-.2-.2-.4-.4-.6-.6,1-4.1,2.4-8.2,2.9-12.3.6-5,.7-10,3.2-14.6.4-.7,0-1.8,0-2.9.9,0,2.2-.2,3.4-.3h0Z"/>
    <path class="cls-1" d="M463.9,283.6c-5.5-8.9-9.3-18.5-12.4-28.4-.1-.4,0-.8,0-1.2.2-.2.5-.4.7-.7,2.1,5.7,4,11.5,6.2,17.2,1.7,4.3,3.9,8.5,5.8,12.8-.1.1-.2.2-.4.4Z"/>
    <path class="cls-1" d="M376,239.1c-3.3-7.2-3.9-14.3.4-21.3.2.2.4.3.5.5-3.5,6.7-2.7,13.4-.3,20.2-.2.2-.4.3-.6.5Z"/>
    <path class="cls-1" d="M440.8,190.9h18.3v.7h-18.3c0-.2,0-.4,0-.7Z"/>
    <path class="cls-1" d="M385.3,182c-6.8-2.1-13.6-4.2-20.4-6.3l.3-.8c6.8,2.1,13.7,4.1,20.5,6.2,0,.3-.2.6-.3,1Z"/>
    <path class="cls-1" d="M484.9,214.7c-1.1,1.1-2.2,2.2-3.3,3.3.5-4.2.5-7.9-1.7-11.3.2-.2.4-.3.6-.5,1.1,2.8,2.2,5.7,3.4,8.8,0,0,.2-.5.5-.9.2.2.4.4.6.6Z"/>
    <path class="cls-1" d="M458.6,201c6.4-.2,13-1.5,18.9,2.5-.2.2-.4.4-.6.5-5.6-3.2-11.8-2.7-17.9-2.6-.1-.1-.3-.3-.4-.4Z"/>
    <path class="cls-1" d="M406.1,186.9l-9.8-2.1c0-.3.1-.6.2-.9,3.3.7,6.6,1.4,9.8,2.1,0,.3-.1.6-.2.9Z"/>
    <path class="cls-1" d="M379.2,215c2.8-1.6,5.6-3.2,8.3-4.8.1.2.2.5.4.7-2.7,1.5-5.5,3.1-8.2,4.6-.2-.2-.3-.3-.5-.5Z"/>
    <path class="cls-1" d="M376.5,241.6c-2.2-1.1-4.5-2.3-6.7-3.4.2-.4.4-.7.6-1.1,2,1,4,2,5.9,3,0,.5.1,1,.2,1.5Z"/>
    <path class="cls-1" d="M446.7,315.8c1.2-2.3,2.3-4.5,3.5-6.8.2.1.4.2.7.3-1.2,2.3-2.5,4.6-3.7,6.9-.2-.1-.3-.3-.5-.4Z"/>
    <path class="cls-1" d="M357.7,172.8c-1.9-1-3.8-2-5.7-3,.1-.3.3-.5.4-.8,1.9,1,3.9,2,5.8,2.9l-.5.8Z"/>
    <path class="cls-1" d="M436.7,303.5c.9,1,1.8,2.1,2.7,3.1,0,0,0,0,0,.1l-2.7-3.2h0Z"/>
    <path class="cls-1" d="M358.8,172.3c1.8.7,3.7,1.4,5.5,2.1l-.3.7c-1.8-.7-3.6-1.4-5.5-2,0-.3.2-.6.2-.9Z"/>
    <path class="cls-1" d="M376.5,241.6c0-.5-.1-1-.2-1.5,0-.3-.2-.7-.3-1,.2-.2.4-.3.6-.5.6,1.7,1.2,3.4,1.8,5.1h0c-.7-.7-1.4-1.4-2.1-2.1Z"/>
    <path class="cls-1" d="M414.4,204.9c1.9-.3,3.8-.6,5.7-1,0,.2,0,.5,0,.7-1.9.3-3.8.6-5.8.9,0-.2,0-.5,0-.7Z"/>
    <path class="cls-1" d="M414.4,204.9c0,.2,0,.5,0,.7-2,.3-4.1.6-6.1.8,0-.2,0-.4,0-.5,2.1-.3,4.2-.7,6.3-1Z"/>
    <path class="cls-1" d="M452.7,304.2l-1.1,3.3c-.2-.1-.5-.2-.7-.3.6-1,1.3-2,1.9-2.9,0,0,0,0,0,0Z"/>
    <path class="cls-1" d="M454.6,300.4c-.6,1.3-1.3,2.5-1.9,3.8,0,0,0,0,0,0,.6-1.3,1.2-2.5,1.9-3.8,0,0,0,0,0,0Z"/>
    <path class="cls-1" d="M458.3,297.3c1-.6,1.9-1.2,2.9-1.8l.4.8c-1.1.3-2.2.6-3.3,1h0Z"/>
    <path class="cls-1" d="M455.4,206c.6-1,1.2-2.1,1.8-3.1l.7.4c-.6,1.1-1.3,2.1-1.9,3.2-.2-.1-.4-.3-.5-.4Z"/>
    <path class="cls-1" d="M388.7,210.4c.7-.3,1.4-.5,2.1-.8,0,.2.1.4.2.6-.7.2-1.4.4-2.1.6,0-.2-.1-.3-.2-.5Z"/>
    <path class="cls-1" d="M369.2,237.2c-.8-.5-1.5-1.1-2.3-1.6.2-.1.3-.3.5-.4.8.5,1.6,1,2.3,1.6-.2.1-.4.3-.5.4Z"/>
    <path class="cls-1" d="M379.7,215.5c-.6.6-1.3,1.2-1.9,1.9-.2-.2-.3-.3-.5-.5.6-.6,1.3-1.2,1.9-1.8.2.2.3.3.5.5Z"/>
    <path class="cls-1" d="M478.6,204.3c.6.6,1.2,1.3,1.8,1.9-.2.2-.4.3-.6.5-.6-.6-1.2-1.3-1.8-1.9.2-.2.4-.4.6-.5Z"/>
    <path class="cls-1" d="M465.4,285.2c.5.8.9,1.6,1.4,2.4-.1.1-.2.2-.3.3-.5-.8-1-1.6-1.5-2.3.1-.1.3-.3.4-.4Z"/>
    <path class="cls-1" d="M467.2,288.5c.5.8,1,1.5,1.5,2.3-.1.1-.2.2-.3.4-.5-.8-1-1.5-1.4-2.3,0,0,.2-.2.3-.3Z"/>
    <path class="cls-1" d="M424.5,203.3c0,.3,0,.6,0,.9-.6,0-1.3.2-1.9.2,0-.2,0-.5,0-.7.7-.1,1.3-.3,2-.4Z"/>
    <path class="cls-1" d="M433.3,301.7c.3.2.7.4,1,.6,0,.1-.2.3-.2.4-.3-.2-.7-.3-1-.5,0-.2.2-.4.3-.5Z"/>
    <path class="cls-1" d="M468.7,290.7c.4.6.8,1.3,1.3,1.9-.1.1-.3.2-.4.4-.4-.6-.8-1.3-1.2-1.9.1-.1.2-.2.3-.4Z"/>
    <path class="cls-1" d="M422.6,203.7c0,.2,0,.5,0,.7-.8,0-1.6.1-2.5.2,0-.2,0-.5,0-.7.8,0,1.6-.1,2.4-.2Z"/>
    <path class="cls-1" d="M406.5,206.8l-1.7.2c0-.1,0-.3,0-.4.6,0,1.1,0,1.7-.1,0,.1,0,.3,0,.4Z"/>
    <path class="cls-1" d="M452.2,253.3c-.2.2-.5.4-.7.7-.1-.6-.3-1.1-.4-1.7l.5-.2c.2.4.5.8.7,1.2Z"/>
    <path class="cls-1" d="M446.8,317c-.3.3-.6.7-.9,1-.2-.1-.3-.3-.5-.4.3-.4.6-.7.9-1.1.1.1.3.3.5.4Z"/>
    <path class="cls-1" d="M464.7,284.1c.2.4.5.8.7,1.2-.1.1-.3.3-.4.4-.2-.4-.5-.8-.7-1.2.1-.1.3-.2.4-.4Z"/>
    <path class="cls-1" d="M376.4,217.9c.3-.3.6-.7.9-1,.2.2.3.3.5.5-.3.3-.6.7-.9,1-.2-.2-.4-.3-.5-.5Z"/>
    <path class="cls-1" d="M458.3,297.3c-.4.2-.8.4-1.3.6h0c.4-.2.8-.4,1.2-.6,0,0,0,0,0,0Z"/>
    <path class="cls-1" d="M478,204.9c-.3-.3-.7-.6-1-.9.2-.2.4-.4.6-.5.3.3.7.6,1,.9-.2.2-.4.4-.6.5Z"/>
    <path class="cls-1" d="M493.8,184h0c0-.1.1,0,.1,0,0,0,0,0,0,0Z"/>
    <path class="cls-1" d="M464.3,283.2c.1.3.3.6.4.8-.1.1-.3.2-.4.4-.1-.3-.2-.6-.4-.8.1-.1.2-.2.4-.4Z"/>
    <path class="cls-1" d="M470,293.8c-.1-.3-.3-.5-.4-.8.1-.1.2-.2.4-.4.1.3.3.5.4.8-.1.1-.3.3-.4.4Z"/>
    <path class="cls-1" d="M378.5,243.7s0,0,.1-.1c0,0,0,.1,0,.2,0,0,0,0,0,0Z"/>
    <path class="cls-1" d="M369.7,236.8c.1.2.3.5.4.7l-.9-.3c.2-.1.4-.3.5-.4Z"/>
    <path class="cls-1" d="M457.1,297.9c-.2.2-.4.4-.6.6,0,0,0,0,0,0,.2-.2.4-.4.6-.6,0,0,0,0,0,0Z"/>
    <path class="cls-1" d="M466.8,287.6c.1.3.3.5.4.8,0,0-.2.2-.3.3-.2-.3-.3-.5-.4-.8.1-.1.2-.2.3-.3Z"/>
    <path class="cls-1" d="M455.8,299.2c.2-.2.4-.4.6-.6,0,0,0,0,0,0-.2.2-.4.4-.6.6,0,0,0,0,0,0Z"/>
    <path class="cls-1" d="M455.2,299.8c.2-.2.4-.4.6-.6,0,0,0,0,0,0-.2.2-.4.4-.6.6h0Z"/>
    <path class="cls-1" d="M455.2,299.8c-.2.2-.4.4-.7.6,0,0,0,0,0,0,.2-.2.4-.4.6-.6,0,0,0,0,0,0Z"/>
    <path class="cls-1" d="M456,206.5c-.2.2-.5.4-.7.6,0-.4.1-.7.2-1.1.2.1.4.3.5.4Z"/>
    <path class="cls-1" d="M458.5,202.1c-.2.2-.4.4-.6.5,0-.3.2-.6.3-.9.1.1.2.2.3.3Z"/>
    <path class="cls-1" d="M446.3,316.6c.1-.3.3-.5.4-.8.2.1.3.3.5.4-.1.3-.3.5-.4.8-.2-.1-.3-.3-.5-.4Z"/>
    <path class="cls-1" d="M458.1,201.8c.2-.3.3-.5.5-.8.1.1.3.3.4.4-.2.2-.4.4-.6.7-.1-.1-.2-.2-.3-.3Z"/>
    <path class="cls-1" d="M190.9,251.8c-.8-3.1-1.8-6.2-2.5-9.4-.6-2.7-1.9-4-4.7-3.5-.6.1-1.2,0-1.8,0,0-.4,0-.7,0-.7,3.4-2.3,2.9-4.9.9-8-3.3-5-6.3-10.2-9.6-15.6,11.1-8.4,19.3-19.5,25.3-33.2,1.3,2.1,2.7,3.7,3.2,5.5,1.5,5.4,3.5,10.9,3.7,16.4.3,9.1-.7,18.2-1.1,27.4,0,1,0,2.1,0,3.1,0,1.7.8,2.4,2.5,2.3,3.6-.1,7.3,0,11.7,0-1.3,1.7-2.2,3-3.1,4.2l-.2-.8c-3-.2-6-.4-9.1-.4-.5,0-1.5,1.3-1.5,2-.2,3.2-.2,6.5-.3,9.7-4.5.3-8.9.6-13.4,1ZM191.9,199.5c-2.3,2.5-4.5,4.2-5.9,6.4-2.7,4.2-6.7,8-5.4,13.7.4,1.7,1.2,3.2,1.8,4.8,2.2,5.8,5.2,11.1,9.7,15.3,3,2.8,5.6,2.4,7.6-1.2.7-1.2,1.3-2.7,1.4-4.1.7-10.3-1.1-20.2-5.6-29.5-.9-1.8-2.3-3.4-3.7-5.5Z"/>
    <path class="cls-1" d="M190.9,251.8c4.5-.3,8.9-.6,13.4-1-.6,9.1-.9,18.3-1.9,27.4-1.1,9.9-2.8,19.8-4.2,29.7-.3,1.9-1,3.3-3.1,3-2.2-.4-1.7-2.1-1.6-3.7,1.2-17.6,1.4-35.2-2.2-52.7-.2-.9-.2-1.9-.4-2.8Z"/>
    <path class="cls-1" d="M179,238.7c-.4.5-.8.9-1.7,2,2.7,0,4.8-.2,6.9,0,.9.1,2.3,1.1,2.5,2,3.1,12,5.6,24,5,36.5-.3,7,0,14.1,0,21.2,0,2.8-.3,5.6-.7,8.3-.4,2.9,1.6,4.2,3.7,5.1,1.5.6,5-2.2,5.2-4,1.1-7.4,2.4-14.8,3.1-22.2,1.4-15.5,2.4-31.1,3.6-46.8,2.5-.4,5.2-1.1,7.1,2,.7-.4,1.4-.9,2.1-1.3.2.3.5.7.7,1-1.5,1-3.1,2.1-5.1,3.4.2-1.6.3-2.5.4-3.8-1.4-.1-2.7-.2-4.1-.4-.3,5.7-.4,11-.9,16.2-1,11.1-2,22.1-3.2,33.1-.7,6.3-1.7,12.6-2.6,18.8-.3,2-4.6,5.6-6.2,5.4-2.1-.3-4.9-4.1-4.8-6.5.2-11.7,1-23.4.3-35-.6-9.9-3-19.7-4.6-29.5-.3-1.8-1.2-2.4-3-2.3-2.5.1-5,0-8.4,0,1.7-1.8,2.8-3.1,3.9-4.3.3.3.5.7.8,1Z"/>
    <path class="cls-1" d="M170.6,214.1c4,6.2,7.8,12.3,11.6,18.3-.4.2-.8.5-1.1.7-1.9-3.3-3.7-6.6-5.8-9.8-2.2-3.2-4.7-6.1-7-9.2,14.1-8.9,22.2-22.5,29.1-37.4,4.5,3.5,7.2,7.9,8.9,13,2.9,9,3.2,18.1,2,27.5-.6,5.2-.1,10.6-.1,16.2h7.2c0,.2,0,.5,0,.7h-9.2c.3-4.8.6-9.7,1-14.5.6-9.6.6-19.2-2.2-28.6-1.4-4.5-3.4-8.7-7-12.2-6.4,14.3-14.6,26.8-27.3,35.3Z"/>
    <path class="cls-1" d="M178.2,237.7c.6-1.1,1.3-2.3,1.9-3.4.5.5,1,.9,1.5,1.4-.9,1-1.7,2-2.6,3-.3-.3-.5-.7-.8-1Z"/>
    <path class="cls-1" d="M215.9,241.5c.7-.6,1.5-1.2,2.2-1.9.2.2.4.4.6.6-.7.7-1.4,1.5-2.2,2.2-.2-.3-.5-.7-.7-1Z"/>
    <path class="cls-1" d="M219.9,237.6c.2-1.2.4-2.5.8-4.2,1.6,1.9.5,3.3-.3,4.6-.2-.1-.3-.3-.5-.4Z"/>
    <path class="cls-1" d="M219,238.6c.3-.3.6-.7.8-1,.2.1.3.3.5.4-.3.4-.6.7-.9,1.1-.1-.2-.3-.3-.4-.5Z"/>
    <path class="cls-1" d="M182.2,235c0,0-.1.1-.2.2,0-.1-.1-.2-.2-.4,0,0,.1-.1.2-.2,0,.1.1.2.2.4Z"/>
    <path class="cls-1" d="M218.7,240.2c-.2-.2-.4-.4-.6-.6,0-.1.2-.2.4-.2.1.1.3.3.4.4,0,.2,0,.3-.2.4Z"/>
    <path class="cls-1" d="M218.5,239.4c.2-.2.4-.5.5-.7.1.2.3.3.4.5-.2.2-.4.5-.6.7-.1-.1-.3-.3-.4-.4Z"/>
    <path class="cls-1" d="M234.5,322.2c-.9,1.8-1.6,3.3-2.5,4.6-.5.6-1.9,1.1-2.5.8-7.6-2.9-12.1-6.9-12-15.2.1-15.8,0-31.5,0-47.3,0-1.7.1-3.5-.5-5-1.5-3.9,0-6.5,2.9-8.9.9-.7,1.5-2,2.2-3,.4.2.7.4,1.1.6,0,1.1,0,2.2,0,3.2,0,19.1,0,38.2-.1,57.3,0,8.4,2.7,11.5,11.5,12.7Z"/>
    <path class="cls-1" d="M241.9,314.9c-2.8,5.6-5.6,11.2-8.6,16.7-.3.6-1.9,1.2-2.6.9-3-1.2-6-2.6-8.7-4.2-7.5-4.5-8.2-11.8-8.1-19.7.3-14.9.3-29.9.3-44.8,0-2.2-.7-4.6-1.6-6.6-1.3-2.9.4-3.7,2.7-4.7-2.4,2.9-.5,5.6-.1,8.4.3,2.6.5,5.2.4,7.8-.1,13.7-.2,27.4-.6,41.1-.3,12.2,4.8,18.8,17.3,21.4,2-4,4-8,6.4-12.6-1.6.3-2.4.5-3.3.6-5.5,1-9.2-1.6-10.1-7.1-.1-.6-.2-1.2-.2-1.9-.2-20.3-.4-40.6-.5-60.8,0-.7.2-1.4.4-2.5,8.7,10.6,14.1,21.6,9.6,35.4,5.1-7.5,8.2-15.5,8.2-24.5.5,0,1,0,1.5,0,.5,6.2-1.7,11.8-4,17.3-2.6,6.5-6.1,12.4-11,17.8,6.9-14.3,8.6-28.2-2.8-41.4-.1.9-.3,1.7-.3,2.4,0,18.2,0,36.3,0,54.5,0,8.9,5.2,11.8,13,7.7.9-.5,1.9-.8,2.8-1.1h0Z"/>
    <path class="cls-1" d="M231.3,251.5c-1.7-2.1-3.3-4.3-5.1-6.6,2.9-3.3,5.7-6.6,9.2-10.5,1.7,6.4,3.2,12.1,4.7,17.9-2.9-.2-5.9-.5-8.8-.7Z"/>
    <path class="cls-1" d="M231.3,251.5c2.9.2,5.9.5,8.8.7,1.7,6.4.7,12.6-2.1,18.6.2-7.3-3.1-13.4-6.7-19.3Z"/>
    <path class="cls-1" d="M219.1,247.5c5.8-6.6,11.5-13.1,17.6-20.1,2.1,7.5,4.1,14.5,6,21.6l-.9.3c-1.9-6.1-3.8-12.3-5.8-18.8-5.6,6.1-10.9,11.9-16.2,17.8-.3-.2-.5-.5-.8-.7Z"/>
    <path class="cls-1" d="M244.2,257.6c-.5,0-1,0-1.5,0,0-1,0-1.9.1-2.9.2,0,.5,0,.7-.1.2,1,.4,2,.6,2.9Z"/>
    <path class="cls-1" d="M216.4,250.8c.7-.9,1.5-1.7,2.2-2.6.2.2.5.4.7.6-.8.9-1.5,1.7-2.3,2.6-.2-.2-.5-.4-.7-.6Z"/>
    <path class="cls-1" d="M242.9,254.5c-.2-1.2-.3-2.3-.5-3.5.3,0,.5,0,.8-.1.2,1.2.4,2.3.5,3.5-.3,0-.6,0-.9.1Z"/>
    <path class="cls-1" d="M242,314.9v-.5c0,.1,0,.3,0,.5,0,0,0,0,0,0Z"/>
    <path class="cls-1" d="M128.3,294c.4-5.9.7-11,1-16.2.3-4.6.7-9.2,1-13.7.3-4.9-.5-6.1-5-8.1-.9-.4-1.9-.8-3.5-1.6,2.2-1.5,4-2.7,5.9-3.9.2-.2.6-.2.9-.2,2.9.1,8.4,5.9,8.1,8.8-1,9.5-2.1,19.1-3.2,28.6-.3,2.8-2.2,4.5-5.2,6.3Z"/>
    <path class="cls-1" d="M113.7,250.2c.2,2.6.7,4.6.6,6.6-.7,9.7-1.5,19.3-2.3,29-.2,2.7-1.6,4.6-4.7,5.8,0-1.5,0-2.8,0-4.1.3-7.4.9-14.8,1-22.2,0-2.7-1-5.5-1.3-8.2-.1-1,.2-2.4.8-3,1.6-1.4,3.6-2.4,6-4Z"/>
    <path class="cls-1" d="M133.7,292.6c.8-3.8,1.9-7.6,2.4-11.5.9-6.7,1.5-13.5,2.3-20.2.5-3.8-1-6.5-4.1-8.8-5.8-4.1-5.7-4.2-11.5-.4-1.5,1-2.9,2-4.6,3.1,2.4.9,4.5,1.7,6.5,2.5,2.7,1.1,4,3,3.8,6.1-.9,9.9-1.6,19.8-2.4,29.7-.1,1.5-.2,3.1-.3,5.2,1.9-1.1,3.3-1.9,4.6-2.7.2.2.3.5.5.7-2,1.3-4,2.7-6.5,4.4.6-7.2,1.3-13.7,1.8-20.1.4-5.4.6-10.8,1.1-16.2.3-3.4-1.2-5.3-4.2-6.4-1.9-.6-3.9-1.2-6.5-2v10.3h-1.1c0-5.9,1.6-12.1-1.4-18.3-2.4,1.4-4.5,2.8-6.7,4.1-.2-.3-.4-.6-.6-.9,1.6-1.1,3.2-2.3,4.9-3.4,2.6-1.8,3.6-1.5,4.6,1.6.4,1.3.6,2.6,1.1,4.3,3.2-2,6.1-4.1,9.2-5.7,1-.5,2.6,0,3.9,0,.2,0,.3.2.5.3,7.8,3.5,10.3,9.4,8.5,17.8-1.5,7.1-1.9,14.4-3,21.6-.3,1.8-1.4,3.5-2.2,5.3-.1-.1-.3-.3-.4-.4Z"/>
    <path class="cls-1" d="M107.4,295.1c-1.1.8-2.3,1.7-3.7,2.8.5-8.5,1.1-16.5,1.5-24.4.2-3.6.4-7.3,0-10.9-.2-2.2-1.3-4.3-2.4-6.3-.8-1.5-.6-2.3.9-2.9.2.3.3.5.5.8,0,.5-.2,1.1,0,1.5,3.2,5.2,2.3,10.7,1.9,16.4-.5,7.6-.1,15.3-.1,23.1,0,0,.6-.2,1.2-.4.1.1.2.3.3.4Z"/>
    <path class="cls-1" d="M110.3,292.6c5.7-5.9,2.6-13.7,4.9-20.3,1.8,5.6-1.2,18.5-4.9,20.3Z"/>
    <path class="cls-1" d="M105,252.5c.6-.4,1.2-.9,1.8-1.3.2.3.4.6.6.9-.6.4-1.2.8-1.9,1.2l-.6-.9Z"/>
    <path class="cls-1" d="M133.6,293.7c-.4.4-.8.8-1.2,1.3-.1-.1-.3-.2-.4-.3.4-.5.8-.9,1.2-1.4.1.1.3.3.4.4Z"/>
    <path class="cls-1" d="M108.2,294c.3-.3.6-.6.9-.8,0,.1.2.3.3.4-.3.2-.7.4-1,.6,0,0-.1-.2-.1-.2Z"/>
    <path class="cls-1" d="M105.5,253.4c-.5.3-.9.6-1.4.9-.2-.3-.3-.5-.5-.8.4-.3.9-.6,1.3-.9.2.3.4.6.6.9Z"/>
    <path class="cls-1" d="M107.1,294.7c.4-.2.8-.5,1.2-.7,0,0,.1.2.1.2-.3.3-.7.6-1,.9-.1-.1-.2-.3-.3-.4Z"/>
    <path class="cls-1" d="M133.1,293.2c.2-.2.4-.4.6-.6.1.1.3.2.4.4-.2.2-.4.4-.6.7-.1-.1-.3-.3-.4-.4Z"/>
    <path class="cls-1" d="M171.9,264s.6-.6,1.3-1c2.8-1.8,5.5-.8,5.5,2.6,0,7.1-.1,14.2-1,21.2-.2,1.8-3.3,3.3-5.1,4.9-.2-.1-.4-.3-.7-.4.4-5,.9-10,1.3-15,.2-2,.4-4,.2-5.9-.2-1.9-.9-3.8-1.6-6.4Z"/>
    <path class="cls-1" d="M166.5,296c-.4.5-.5.7-.6.9-3.6,3.4-3.5,3.2-7.6.6-3.7-2.3-7.7-4.1-12-6.3,1.5-1.5,3.2-3.5,5.1-5.3.5-.4,1.8-.3,2.6,0,5.2,2.1,9.2,5.5,12.5,10.1Z"/>
    <path class="cls-1" d="M156.6,270.9c-.5.3-1.3.7-2.2,1.3-3.2-4.1-5.4-8.6-5.9-13.5-.2-1.5,2.5-3.3,4-5.1,1.5,6.2,2.8,11.6,4.2,17.4Z"/>
    <path class="cls-1" d="M179.7,260.9c.8,2.1,2.1,4.1,2.1,6.2,0,6.8-.5,13.7-.9,20.5,0,.8-1,1.5-1.6,2.3-.1-.2-.3-.3-.4-.5.3-.8.9-1.7,1-2.5.4-6.2.8-12.4.8-18.7,0-2.2-1.1-4.3-1.6-6.5.2-.3.4-.5.6-.8Z"/>
    <path class="cls-1" d="M160.1,302c-5.4-4-11.1-7.2-18.7-8.3,1.6-2.5,2.8-4.4,4-6.3.2.1.4.2.7.4-.9,1.6-1.8,3.2-3,5.2,6.7,1.6,12.9,3.6,17.4,8.6-.1.1-.3.2-.4.4Z"/>
    <path class="cls-1" d="M149.4,283.7c1.4-1.7,3-2.1,5-.9,2.6,1.5,5.1,3.1,7.7,4.6-.2.2-.3.3-.5.5-2.4-1.3-4.9-2.6-7.2-4-1.6-1-3-.9-4.5.3-.2-.2-.3-.3-.5-.5Z"/>
    <path class="cls-1" d="M160.5,301.6c1.3.9,2.3.8,3.5-.4,1-1,2.2-1.8,3.3-2.7.2.2.3.3.5.5-1.8,1.7-3.6,3.3-6.1,5.6-.6-1-1.1-1.8-1.6-2.6.1-.1.3-.3.4-.4Z"/>
    <path class="cls-1" d="M171.1,261.5c2.1-2.9,4.9-2.2,7.7-1.4.3.3.5.5.8.8-.2.3-.4.5-.6.8-2.6-1.9-5.3-.7-8-.2Z"/>
    <path class="cls-1" d="M167.2,298.5c1.3-1,2.5-2.1,3.8-3.1.2.2.3.3.5.5-1.3,1-2.5,2.1-3.8,3.1-.1-.2-.3-.3-.4-.5Z"/>
    <path class="cls-1" d="M174.2,292.9c-.9,1-1.8,2-2.7,3-.2-.2-.3-.3-.5-.5,1.1-.8,2.1-1.6,3.2-2.4,0,0,0,0,0,0Z"/>
    <path class="cls-1" d="M176,291.6c1-.7,1.9-1.4,2.9-2.2.1.2.3.3.4.5-1,.7-2,1.4-2.9,2.1-.1-.1-.3-.3-.4-.4Z"/>
    <path class="cls-1" d="M168.6,263.4l2.5-1.9c-.8.6-1.7,1.2-2.5,1.9Z"/>
    <path class="cls-1" d="M176.4,292c-.7.3-1.5.6-2.2.9,0,0,0,0,0,0,.6-.4,1.2-.9,1.8-1.3.1.1.3.3.4.4Z"/>
    <path class="cls-1" d="M149.8,284.2c-.3.3-.7.6-1,.9-.2-.2-.3-.3-.5-.5.3-.3.7-.6,1-.9.2.2.3.3.5.5Z"/>
    <path class="cls-1" d="M148.9,285.2c-.3.1-.6.3-.9.4.2-.3.3-.6.5-.9.2.2.3.3.5.5Z"/>
    <path class="cls-1" d="M410.8,285.5c-3.8,2.7-7.6,5.3-11.4,8-.1-.1-.2-.3-.4-.4,1.9-1.6,3.8-3.1,5.7-4.8-5.9-5.4-12.3-9.2-19.6-11.6-1.3-.4-2.8-.3-4.2-.4-.2-.2-.4-.4-.5-.6,1.2-.1,2.7-.8,3.7-.3,5.6,2.5,11.1,5.2,16.5,8,1,.5,1.9,1.3,3.7,2.6.6-6.7,1.3-12.6,1.5-18.6,0-2.2-1.8-1.9-3.2-1.2-2.9,1.4-5.8,2.9-8.7,4.4q-4.3,2.2-7.1-1.8c.3-.2.5-.4.8-.6,2.2,3.3,4.7,2.3,7.3.6,1.4-.9,2.9-1.7,4.5-2.3,2.2-.9,4.6-3.7,6.7-1.5,1.3,1.4,1.2,4.6,1,6.9-.5,5.3-1.4,10.5-2.1,16.2,2-1.2,3.7-2.3,5.4-3.3.2.2.4.4.5.6Z"/>
    <path class="cls-1" d="M411.2,256.3c-1.7,1.8-3.5,1.8-5.7.9-3.8-1.5-7.6-2.8-11.7-4.2-1.6,4.6,0,8.4,2,12.4,1-.4,1.9-.7,2.7-1,.2.2.4.5.7.7-1.3.7-2.5,1.3-3.8,2-3.2-4.9-4.4-9.8-3.1-15.8-2.6,1.5-4.9,2.7-6.9,4.2-.8.6-1.6,2.3-1.3,3.2,1,3.2,2.4,6.3,3.6,9.4-.3.2-.5.4-.8.6-1.7-3.7-3.4-7.5-4.9-11.3-.2-.5.6-1.7,1.2-2.1,4.4-2.7,9-5.3,13.4-7.9.3.3.5.5.8.8-1.4.9-2.8,1.8-4.7,3.1,5,1.8,9.3,3.6,13.8,4.9,1.2.4,2.7-.3,4.1-.5.2.2.5.4.7.6Z"/>
    <path class="cls-1" d="M399.8,263.8c2.6-1.4,5.1-2.8,7.7-4.1,4.8-2.3,9.1.2,9.1,5.5,0,5.5-.6,11-1.1,16.5,0,.7-1.1,1.3-1.6,1.9-.2-.2-.4-.4-.5-.6.3-.6,1-1.2,1-1.8.3-5.2.7-10.4.8-15.6,0-4.9-3.3-6.8-7.9-4.7-2.4,1.1-4.6,2.4-7,3.6-.2-.2-.4-.5-.6-.7Z"/>
    <path class="cls-1" d="M399.4,293.6c-1.1,1.9-2.2.6-3.4,0-5.3-2.5-10.6-5.1-16.1-7.3-2.3-.9-4.9-.8-8.1-1.2,1.2-1.7,2.3-3.1,3.3-4.6.2.2.3.3.5.5-.5.9-1,1.9-1.7,3.3,9.1.2,16.4,4,23.4,8.6.4.3,1.1,0,1.7.1.1.1.2.3.4.4Z"/>
    <path class="cls-1" d="M405.9,248.1c3.4,1.6,6.7,3.6,10.8,2.4.1.2.2.3.4.5-1,1-1.9,2-2.9,3-.2-.3-.4-.6-.5-.8-.4-.5-.8-1.1-1.3-1.3-2.3-1-4.7-2-7.1-3,.2-.3.5-.5.7-.8Z"/>
    <path class="cls-1" d="M396.6,247.5c1.9-1,3.5-3.7,6.2-1.3-.2.3-.5.5-.7.8-1.6.4-3.1.8-4.7,1.2-.3-.3-.5-.5-.8-.8Z"/>
    <path class="cls-1" d="M402.8,246.2c1,.6,2.1,1.3,3.1,1.9-.2.3-.5.5-.7.8-1-.6-2.1-1.3-3.1-1.9.2-.3.5-.5.7-.8Z"/>
    <path class="cls-1" d="M413.9,283.6c-1,.6-2.1,1.3-3.1,1.9-.2-.2-.4-.4-.5-.6,1-.6,2.1-1.3,3.1-1.9.2.2.4.4.5.6Z"/>
    <path class="cls-1" d="M377.9,277.7c.8-.6,1.7-1.3,2.5-1.9.2.2.4.4.5.6-.8.6-1.7,1.3-2.5,1.9-.2-.2-.3-.4-.5-.6Z"/>
    <path class="cls-1" d="M413.7,254.4c-.5.4-1,.8-1.5,1.2-.2-.2-.5-.5-.7-.7.5-.4.9-.7,1.4-1.1.3.2.5.4.8.6Z"/>
    <path class="cls-1" d="M412.2,255.6c-.3.2-.7.5-1,.7-.2-.2-.5-.4-.7-.6.3-.3.7-.6,1-.9.2.2.5.5.7.7Z"/>
    <path class="cls-1" d="M398.5,264.5c.4-.2.8-.5,1.2-.7.2.2.4.5.6.7-.4.2-.8.4-1.2.6-.2-.2-.4-.5-.7-.7Z"/>
    <path class="cls-1" d="M375.1,280.5c.3-.3.6-.6.9-.9.2.2.4.3.6.5-.3.3-.7.6-1,1-.2-.2-.3-.3-.5-.5Z"/>
    <path class="cls-1" d="M416.7,250.5c.2,0,.5,0,.7,0-.1.1-.2.3-.3.4-.1-.1-.3-.3-.4-.5Z"/>
    <path class="cls-1" d="M376.1,279.6c.2-.2.4-.4.6-.6.2.2.3.3.5.5-.2.2-.4.4-.6.6-.2-.2-.4-.3-.6-.5Z"/>
    <path class="cls-1" d="M414.1,254c-.1.2-.2.3-.4.4-.3-.2-.5-.4-.8-.6.2-.2.4-.4.7-.6.2.3.4.6.5.8Z"/>
    <path class="cls-1" d="M376.7,279c.2-.2.4-.4.6-.6l.5.5c-.2.2-.4.4-.6.6-.2-.2-.3-.3-.5-.5Z"/>
    <path class="cls-1" d="M377.3,278.4c.2-.2.4-.4.6-.6.2.2.3.4.5.6-.2.2-.4.4-.6.6l-.5-.5Z"/>
    <path class="cls-1" d="M355.5,295.4c-1.2,1.1-2.4,2.2-4.1,3.8,0-3.7,0-6.9,0-10,0-9.1.5-18.2.2-27.3-.1-3.6-2-7.1-3.2-11.3,3.3-2.7,7.3-5.8,11.8-9.5,2.3,4.9,4.4,9.5,6.5,14.2-.7-.3-1.7-.8-3-1.4-.5,8-.9,15.8-1.3,23.6-.2,3.3-.4,6.7-.7,10-.3,3.2-2.2,5.3-4.9,6.8,0,0-.1,0,0,0,4-3.5,4.6-8.1,4.5-13,0-3,.3-6,.4-9.1.1-7.7.2-15.4,0-23.1,0-1.7-.9-3.4-1.6-5.7-3.9,3-7.2,5.6-10.5,8.1,3.2,6.3,3.5,7.5,3.4,14.5-.2,9.1-.5,18.2-.7,27.2,0,1.1,0,2.2,0,3.4,1.4-.4,2.3-.7,3.3-1,0,0,0,0,0,0Z"/>
    <path class="cls-1" d="M367,251.7c1.2-1,2.3-1.9,3.7-3,1.5,3.2,4.2,5.8,2.3,9.7-2-2.3-3.9-4.3-6-6.7Z"/>
    <path class="cls-1" d="M369.3,246.1c.6-.5,1.3-1,1.9-1.5,6.7,9.3,6.8,12.9,1,19.5-.2-.3-.4-.5-.6-.8,4.6-6.9,4.6-9,.2-15.6-.3-.5-1.1-.6-1.6-.9-.3-.2-.6-.5-.9-.7Z"/>
    <path class="cls-1" d="M372.2,264.1c-1.3,1.4-2.5,2.7-3.8,4.1-.3-.2-.5-.3-.8-.5,1.7-3.8,3.1-7.5-.4-11.7,3.1,1.5,3.9,3,3.7,6,0,.4.4.9.7,1.4.2.3.4.5.6.8Z"/>
    <path class="cls-1" d="M368.6,248.1c-1,.8-2.1,1.7-3.1,2.5-.2-.2-.4-.5-.5-.7.9-.8,1.8-1.6,2.8-2.5.3.2.6.4.9.7Z"/>
    <path class="cls-1" d="M368.4,246.9c.3-.3.6-.5.9-.8.3.2.6.5.9.7-.4.3-.8.7-1.2,1-.2-.3-.4-.6-.5-.9Z"/>
    <path class="cls-1" d="M356.7,294.2c-.2.2-.4.4-.7.6h0c.2-.2.4-.5.5-.7h.1Z"/>
    <path class="cls-1" d="M356.1,294.8c-.2.2-.4.4-.6.6,0,0,0,0,0,0,.2-.2.4-.4.6-.6h0Z"/>
    <path class="cls-1" d="M367.7,247.4c.2-.2.5-.4.7-.5.2.3.4.6.5.9,0,.1-.2.2-.3.3-.3-.2-.6-.4-.9-.7Z"/>
    <path class="cls-1" d="M159.6,249.5c1.7-1.3,2.8-2.4,4.2-3,.8-.4,2.1-.4,2.9,0,3.1,1.7,6,3.7,9.2,5.7-1.1,2.2-2.7,3.3-5.5,2-3.4-1.6-6.8-3-10.7-4.7Z"/>
    <path class="cls-1" d="M168.2,244.3c2,1.2,3.8,2.7,5.9,3.5,2.5.9,5.3,1.2,8.2,1.9-.7.9-1.6,2-2.4,2.9-1.1-.8-1.8-1.6-2.6-2-3.3-1.9-6.7-3.7-10.1-5.5.3-.2.6-.5.9-.7Z"/>
    <path class="cls-1" d="M167.3,245c-2.4-2.5-4.1-.1-5.9.8-.2-.3-.4-.6-.6-1,2.3-2.1,4.7-4,7.5-.6-.3.2-.6.5-.9.7Z"/>
    <path class="cls-1" d="M159.5,245.8c.4-.3.9-.6,1.3-.9.2.3.4.6.6,1-.4.3-.9.6-1.3.9-.2-.3-.4-.6-.6-.9Z"/>
    <path class="cls-1" d="M87.3,251.8c1.6-1,3.2-2,4.7-3.1,2.3-1.8,3.5-.6,4.1,1.5.5,1.7,1,3.5.9,5.2-.8,10.3-1.6,20.5-2.9,30.8-.2,1.6-2.5,3-3.8,4.5,0,0-.2-.2-.3-.3,3-2.2,3.8-5.3,3.9-8.8,0-1.2.3-2.5.3-3.7.5-7.7,1.1-15.4,1.4-23.1,0-1.8-.8-3.7-1.3-5.9-2.6,1.5-4.4,2.6-6.3,3.7-.3-.3-.5-.5-.8-.8Z"/>
    <path class="cls-1" d="M87,292.9c-.9.6-1.7,1.3-3.3,2.5.4-5.5.7-10.1,1-14.7.2-3.8.4-7.7.6-11.5.2-4.8.4-9.7-3.7-13.7,1.3-.8,2.2-1.5,3.1-2.1.2.3.3.5.5.8-.3.8-1.1,2-.9,2.4,2.3,3.5,2.3,7.3,2,11.2-.5,7.6-1,15.2-1.4,22.8,0,1.1-.7,2.9,1.7,2,0,.1.2.2.3.3Z"/>
    <path class="cls-1" d="M84.8,253.4c.8-.5,1.7-1.1,2.5-1.6.3.3.5.5.8.8-.9.5-1.9,1.1-2.8,1.6-.2-.3-.3-.5-.5-.8Z"/>
    <path class="cls-1" d="M88.9,291.7c-.6.4-1.2.8-1.9,1.3,0-.1-.2-.2-.3-.3.6-.4,1.3-.8,1.9-1.2,0,0,.1.2.2.3Z"/>
    <path class="cls-1" d="M90.4,290.7c-.5.3-1,.7-1.5,1,0,0-.1-.2-.2-.2.5-.3,1-.7,1.4-1,.1,0,.2.2.3.3Z"/>
    <path class="cls-1" d="M291.7,230.6c-1.9-10.9-1.6-21.7,1.7-33.3,3.4,3.5,6.4,6.5,9.3,9.5-.2.2-.4.4-.6.7-2.4-2.6-4.7-5.3-7.1-7.9-.4.3-.7.5-1.1.8-2.3,9.9-2.9,20-2.3,30.2Z"/>
    <path class="cls-1" d="M302,207.2c3,2.8,5.1,6.1,4.1,10.1-1.2,4.8-2.8,9.4-4.3,14.1-.2.5-.6.9-1.5,2.1,1.5-9.3,8.6-17.4,1.7-26.3Z"/>
    <path class="cls-1" d="M72.8,199.1c.8.3,1.5.5,2.1.7,0,.2-.1.4-.2.6-2.1-.5-4.2-.9-6.3-1.4,0-.2,0-.4,0-.6,2.1-.3,4.1-.5,6.9-.8-1.2.7-1.8,1-2.6,1.5Z"/>
    <path class="cls-1" d="M120.9,194c-.3-1.8,2.4-4-.6-5.9.8.2,2.4.5,2.4.6,0,1.8-.4,3.6-.7,5.4-.3,0-.7-.1-1-.2Z"/>
    <path class="cls-1" d="M60.4,295.8c-4,2.1-9.8,1.1-13.5-2.3-2.8-2.5-3.7-6.5-1.2-10.9,4.5-8,9.7-15.7,14.6-23.5.2.2.4.5.6.7-4.6,7.3-9.4,14.5-13.6,22.1-3.9,7.1-1.4,12.2,6.6,13.8,1.9.4,4.1-.3,6.1-.5.1.2.3.3.4.5Z"/>
    <path class="cls-1" d="M63.6,254.4c.5-.6.9-1.2,1.9-2.4.7,3.7,1.7,6.6,1.7,9.5,0,7.9.1,15.8-.5,23.6-.3,4.3-2.4,8.2-6.3,10.6-.1-.2-.3-.3-.4-.5,3.2-2.9,4.9-6.7,5.8-10.8,1.8-8,1.4-16.1.2-24.1-.3-1.8-1.1-3.5-1.6-5.3l-.7-.7Z"/>
    <path class="cls-1" d="M60.2,259.1c.4-.6.8-1.2,1.3-1.8.2.2.4.5.6.7-.4.6-.9,1.2-1.3,1.9-.2-.2-.4-.5-.6-.7Z"/>
    <path class="cls-1" d="M61.5,257.3c.4-.6.8-1.2,1.3-1.8.2.2.5.5.7.7-.4.6-.9,1.2-1.3,1.8-.2-.2-.4-.5-.6-.7Z"/>
    <path class="cls-1" d="M62.8,255.4c.3-.3.5-.7.8-1,.2.2.5.5.7.7-.3.3-.5.7-.8,1-.2-.2-.5-.5-.7-.7Z"/>
    <path class="cls-1" d="M145.1,187.6c4.9,7,5,17.7,0,25.4-2,3-4.5,5.6-7.2,8.4-.4-7-5.5-9.3-10.6-11.5-.4-.2-.8-.3-1.1-.5-7.6-3.1-7.7-3.5-2.5-10,.2.2.4.5.6.7-.7,1-1.3,2.1-2,3.1-1.2,1.8-.8,3.1,1.2,3.9,4,1.8,8,3.6,12,5.4,0,0,0,0,0,0,.2.2.4.4.7.7,0,0,0,0,0,0,.2.2.4.4.7.7,0,0,0,0,0,0,.2.2.4.4.7.7,0,0,0,0,0,0,.5,1.4,1,2.9,1.6,4.4,9.1-8.6,11-19.4,5.7-30.6.2-.2.4-.5.6-.7Z"/>
    <path class="cls-1" d="M135.1,187.3c3.9-2.9,6-3,9.1-.6-.2.2-.4.4-.6.7-2.8-2.5-5.4-1.1-7.9.5-.2-.2-.4-.4-.6-.6Z"/>
    <path class="cls-1" d="M125.4,197.2l3.5-4.1c.2.2.4.4.6.6-1.2,1.4-2.3,2.7-3.5,4.1-.2-.2-.5-.4-.7-.5Z"/>
    <path class="cls-1" d="M123.6,199.5c.6-.8,1.2-1.6,1.8-2.3.2.2.5.4.7.5-.6.8-1.3,1.7-1.9,2.5-.2-.2-.4-.5-.6-.7Z"/>
    <path class="cls-1" d="M133.6,188.5c.5-.4,1-.7,1.6-1.1.2.2.4.4.6.6-.5.4-1,.7-1.5,1.1-.2-.2-.5-.4-.7-.5Z"/>
    <path class="cls-1" d="M144.2,186.8c.3.3.6.6.9.9-.2.2-.4.5-.6.7-.3-.3-.6-.6-.9-.9.2-.2.4-.4.6-.7Z"/>
    <path class="cls-1" d="M133.2,188.9c0-.2.2-.3.4-.4.2.2.5.4.7.5-.3.2-.5.3-.8.5-.1-.2-.2-.4-.3-.6Z"/>
    <path class="cls-1" d="M389.6,200.1h21.6c0,.2,0,.3,0,.5h-21.6c0-.2,0-.3,0-.5Z"/>
    <path class="cls-1" d="M365.9,192c6.3,2.8,12.6,5.6,18.5,8.1-6.5-.7-13-3.5-19-7.4.2-.2.4-.5.6-.7Z"/>
    <path class="cls-1" d="M356.5,183.1c1.8,2.1,3.5,4.3,5.3,6.4-.2.2-.5.4-.7.7-1.8-2-3.9-3.9-5.4-6.2-1.1-1.7.3-3.1,2.1-3.2,1.7-.1,3.4.3,5,1.1-1.9.1-3.9.2-5.8.3-.1.3-.3.6-.4.9Z"/>
    <path class="cls-1" d="M391.5,190.7c-4.4-1.4-8.9-2.7-13.3-4.1,0-.3.2-.6.2-.8,4.4,1.3,8.9,2.6,13.3,3.9,0,.3-.2.7-.2,1Z"/>
    <path class="cls-1" d="M363.6,191.7c-.8-.7-1.7-1.3-2.5-2,.2-.2.3-.5.5-.7.9.6,1.8,1.3,2.7,1.9l-.7.7Z"/>
    <path class="cls-1" d="M365.3,192.7c-.6-.4-1.1-.8-1.7-1.2.1-.2.3-.4.4-.6.6.4,1.3.7,1.9,1.1-.2.2-.4.5-.6.7Z"/>
    <path class="cls-1" d="M453.4,293c-.1.2-.2.3-.4.5-8.9,6.7-16.3,4.1-19.5-6.9-2.5-8.7-1.9-24.9,1.5-34.6,2,2.9,3.9,5.4,5.7,8-.3.2-.6.4-.9.6-1.4-1.8-2.8-3.7-4.5-5.8-2,8.5-2.8,16.5-1.8,24.5.5,4.1,1.7,8.3,3.4,12.1,2.3,5,5.7,6.1,10.8,4.1,1.8-.7,3.5-1.8,5.2-2.8.1.2.3.3.4.5Z"/>
    <path class="cls-1" d="M445,266c3.7,5.5,7.4,11,10.9,16.6,2.6,4.2,1.7,7.4-2.5,10.3-.1-.2-.3-.3-.4-.5,3.9-4.1,4-5.6,1-10.4-3.2-5.1-6.5-10.2-9.7-15.3.2-.3.5-.5.7-.8Z"/>
    <path class="cls-1" d="M440.7,260c1.4,2,2.8,4,4.2,6.1-.2.3-.5.5-.7.8-1.5-2.1-2.9-4.2-4.4-6.2.3-.2.6-.4.9-.6Z"/>
    <path class="cls-1" d="M358,215.1c.9.7,1.7,1.4,2.9,2.4.9-6.9,6.2-9,11.6-11.2-.7.7-1.4,1.6-2.2,2-4.8,2.3-8.6,5.2-7.9,11.4-.3,0-.6.2-.9.3-1.1-1.7-2.3-3.3-3.4-5Z"/>
    <path class="cls-1" d="M372.4,206.4c-.8-1.3-1.7-2.5-2.5-3.8,1.2.5,2.3,1.1,3.5,1.6-.3.7-.7,1.5-1,2.2Z"/>
    <path class="cls-1" d="M369.3,202c-.9-.4-1.7-.8-2.6-1.3.9.4,1.7.8,2.6,1.3Z"/>
    <path class="cls-1" d="M366.8,200.7c-.6-.4-1.3-.9-1.9-1.3.6.4,1.3.9,1.9,1.3Z"/>
    <path class="cls-1" d="M364.9,199.5c-.4-.4-.9-.9-1.3-1.3.4.4.9.9,1.3,1.3Z"/>
    <path class="cls-1" d="M369.9,202.6c-.2-.2-.5-.5-.7-.7.2.2.5.5.7.7Z"/>
    <path class="cls-1" d="M191.5,202.1c.9,1.2,1.6,2,2,2.9,4.5,9,6.7,18.5,5.8,28.7,0,1-.4,2.1-.7,3-1.3,3.1-3.4,3.7-5.7,1.2-5-5.4-8.6-11.8-10.2-18.9-.5-2.1.4-4.8,1.5-6.8,2-3.5,4.7-6.5,7.4-10ZM191.5,204.6c-2.1,2.7-4.4,5-5.9,7.7-1.2,2.2-2.5,5.4-1.7,7.3,2.4,5.8,5.8,11.1,9,16.5.5.9,2.4,1.9,3,1.6,1-.5,1.9-2,2-3.2.3-3.8.5-7.7,0-11.5-.7-6.4-2.3-12.7-6.4-18.4Z"/>
    <path class="cls-1" d="M408,283.6c0-6.9,2.7-13.8-.3-21.4,1-.1,3-1,4.1-.3,1.1.6,1.8,2.7,1.8,4.2,0,4.4,0,8.8-.8,13.1-.4,1.9-2.6,3.5-4,5.2l-.8-.7Z"/>
    <path class="cls-1" d="M393,268c-1.3,1.5-2.6,1.2-3.6-.7-1-1.9-2.2-3.8-3-5.8-1.6-4.2-1.4-4.5,2.9-6.3,1.2,4.1,2.3,8.2,3.7,12.8Z"/>
    <path class="cls-1" d="M402.2,287.4c-2.6,3.6-4.4,3.7-7.4,2-5.3-3-11-5.1-16.6-7.5,1.5-3.6,3.4-4.6,7.7-2.7,5.4,2.5,10.7,5.4,16.3,8.2Z"/>
    <path class="cls-1" d="M410.8,253.1c-2.6,2.7-8.4,1.6-14.1-2.4,2-2.2,4-3.1,6.9-1.1,2.1,1.5,4.6,2.3,7.2,3.5Z"/>
    <path class="cls-1" d="M359.8,260.9c-.4,8.7-.6,17.5-1.2,26.2-.2,1.9-2,3.7-3.1,5.6-.2-.1-.4-.3-.7-.4v-31.9c1.7.2,3.3.4,5,.6Z"/>
    <path class="cls-1" d="M359.8,260.9c-1.7-.2-3.3-.4-5-.6-.8-2.8-1.5-5.5-2.3-8.6,1.9-1.6,4.1-3.3,6.5-5.3,1.9,4.9,1.1,9.7.8,14.4Z"/>
    <path class="cls-1" d="M86.2,255.6c2.3-1.4,4.6-2.8,7.4-4.6.2,2.5.7,4.5.5,6.4-.7,8.9-1.5,17.9-2.3,26.8-.2,2.6-1.8,4.4-4.5,5.5-1.1-11.3,3.2-22.6-1.2-34.1Z"/>
  </g>
</svg>