<?xml version="1.0" encoding="UTF-8"?>
<svg id="Calque_1" data-name="Calque 1" xmlns="http://www.w3.org/2000/svg" version="1.1" xmlns:xlink="http://www.w3.org/1999/xlink" viewBox="0 0 500 500">
  <defs>
    <style>
      .cls-1 {
        fill: #75683b;
        stroke-width: 0px;
      }
    </style>
  </defs>
  <image width="710" height="410" transform="translate(-7942 -7992)" xlink:href="Northland-1.png"/>
  <g>
    <path class="cls-1" d="M157.9,196.8c1.2-2.1,1.9-4.7,3.6-6.2,9.8-9.3,19.8-18.4,30-27.8-7.5-9-19.5-11-29.1-18.1,1.1,0,2.2-.5,3.2-.2,10,3,20.1,6.1,28.1,13.3,2.3,2.1,4.1,2.2,6.9.8,5.1-2.5,10.4-4.5,16.6-7.2-7.1-2.2-12.8-4.2-15.9-9.9-3.3-6.2-2-12.1,3.7-16.4,1.5-1.1,3.3-1.8,4.8-3,7.7-5.9,15.3-1.3,16.6,7.4,2.7-1.1,5.4-2.2,8.3-3.3-7.4-3.6-8.1-10.2-1.8-14.5,1.4-1,2.9-1.8,4.3-2.7,1-1.3,2.1-2.5,3.1-3.8-.7-.4-1.3-.8-2-1.1-.4,1.5-.8,3-1.2,4.5,0,.1.1.3.2.5-3.2,0-4.4-1.7-3.7-4.5,1-3.8,3.9-4.6,7.3-3.3,2.7,1,4.3,3,3.1,6-.5,1.2-1.6,2.1-2.5,3.2,9,7.2,9,9.3.6,16.5,5.1,3.4,10.5,3.1,15.5,0-8-5.3-8.9-10.9.4-16.4-1.8-2.5-5.1-5.3-.9-7.9,1.8-1.1,5.6-1.5,7-.3,1.4,1.1.9,4.6.4,6.8,2.2,2.9,4.4,5.7,6.4,8.7.3.5-.9,1.9-1.7,3.4-1.4-2.8-2.1-4.9-3.4-6.4-3.3-3.6-6.4-3.3-9.6.7-2.9,3.8.5,5.8,2.9,7.3,4.5,2.6,9.4,4.5,14.1,6.8,2.2-9.9,8.1-12.5,16.5-7.7,11.4,6.5,13.9,15.8,5.8,22.8-3.4,2.9-8,4.5-12.3,6.8,1.5.8,3.6,2.2,5.8,3.2,8.3,3.7,15.7,5.3,23.9-2,5.1-4.5,13.1-5.5,19.9-8,.9-.3,1.9,0,3.3.9-9.7,5.2-19.4,10.3-29.7,15.7,12.8,11.7,24.5,22.4,36.2,33.1-.6.7-1.1,1.3-1.7,2-12.2-10.1-24.4-20.1-36.6-30.2-7.1,8.6-10.5,21.2-8.9,33.5,10.1-4.4,20-8.7,30-13.1.3.4.6.9.8,1.3-1.3,1.1-2.4,2.6-3.9,3.3-7.5,3.6-15.1,7.4-22.8,10.5-3.4,1.4-4.6,2.7-4.5,6.5.4,26.1.6,52.2.6,78.3,0,9-.1,8.7,8.2,12.3,7.9,3.4,15.4,7.7,23.1,11.7-.4.8-.7,1.6-1.1,2.3-9.7-4.2-19.4-8.3-29.9-12.8-.3,12.5,1.6,23.5,8.5,33.5,12.4-10.3,24.6-20.4,36.7-30.5.5.5.9,1,1.4,1.5-3.6,3.8-7,7.7-10.8,11.3-3.8,3.7-7.9,7.1-12,10.6-4.1,3.6-8.3,7-13.6,11.5,10.3,5.4,19.8,10.4,29.4,15.4,0,.4-.1.8-.2,1.1-1.5-.1-3,0-4.3-.4-9.3-3.1-18.6-6-26.3-12.6-.8-.7-2.3-1.6-3.1-1.3-7.6,2.8-15.2,5.9-22.7,10,2.1,0,4.2,0,6.3,0,8.8.4,15.2,7.1,14.5,15.8-.2,2.3-1.5,4.9-3.1,6.6-2.1,2.2-4.8,3.8-7.5,5.4-8,4.9-14.4,1.6-15.4-8.3-7.3,2.3-14.7,4.2-19.1,11.3,1.5,2.1,2.8,4,4.1,5.9-.4.4-.8.9-1.2,1.3-2-1.9-4.8-3.4-5.9-5.7-2.5-5.3,2.7-7.3,5.4-10.2-4.9-3.2-9.8-3.4-14.6,0,8.1,6.4,8.1,11-.7,15.9,1.6,2.8,5.1,5.9.5,8.9-1.4.9-3.9,1.8-5,1.2-1.6-.9-3.8-3.6-3.4-4.9,1-3.7-.7-5.6-3-7.8-4-3.9-2.4-9.2,3.9-12.4-3-1.3-5.7-2.4-7.9-3.3-1.4,2.8-2.2,5.7-4,7.5-4.7,4.7-6.2,4.5-14.9-.7-7.3-4.3-9.6-8.9-7.8-15.5,1.7-6.1,7.6-10.6,14.7-10.9,1.9,0,3.7,0,5.6,0,.1-.4.3-.9.4-1.3-4.5-1.7-9.2-2.9-13.4-5.1-7.5-4-13.3-3.8-20.4,2-5.6,4.5-13.7,5.9-20.7,8.6-.9.4-2.1,0-3.2,0-.2-.5-.4-1-.5-1.5,5.1-2.4,10.2-4.6,15.1-7.2,4.9-2.6,9.6-5.5,14.4-8.4-12.1-11.1-23.3-21.2-34.5-31.4.6-.7,1.1-1.3,1.7-2,11.7,9.6,23.3,19.1,35.3,28.9,6.6-9.9,8.3-20.5,8.6-32.8-10.1,4.4-19.5,8.5-28.8,12.6-.3-.4-.5-.9-.8-1.3.9-.8,1.7-1.9,2.7-2.4,6.5-3.4,12.9-7.4,19.8-9.7,5.8-1.9,7.4-4.3,7.3-10.3-.4-27-.3-54,0-80.9,0-4-1.3-5.3-4.9-6.7-7.8-3.1-15.2-7.1-22.7-10.9-1.1-.6-1.9-1.7-2.9-2.5.2-.4.5-.9.7-1.3,9.9,4.3,19.8,8.6,30.4,13.1,0-12.4-1.6-23.4-9.2-33.5-9.9,8.3-19.6,16.4-29.3,24.5-2.5,2.1-5.2,3.8-7.8,5.7h.1ZM210.1,370.7l-1,1.3c.2.2.5.3.7.5,0-.6.2-1.2.3-1.8-2.7-3.6-1.1-6.8,3.4-8,5.6-1.5,11.1-3.3,16.7-5,0-.7,0-1.4,0-2-4.4-.7-8.8-1.7-13.2-1.9-5.7-.3-11.2,3.8-13.2,8.9-1.5,4,1.8,8.2,6.3,8.1ZM286.7,372.6c5,1.4,7.3-2.6,9.1-5.6,1-1.7-.1-5.5-1.5-7.6-3.9-6.1-14.8-8.6-24.7-2,5.7,1.8,11.1,3.3,16.3,5.4,2.3.9,4.1,3,6.1,4.5-1.7,1.8-3.4,3.5-5.1,5.3-1.9.2-3.9.4-5.8.6v-5c-.4-.2-.8-.3-1.3-.5-.7,1.7-2.3,3.8-1.8,5,.7,1.6,3,3.2,4.8,3.4,1.5.2,4.8.2,4-3.4ZM230.2,338.7c1.9-.3,4.5.1,5.6-1,3.7-3.5,7.1-7.4,10-11.6,1.5-2.2,2.9-5.7,2.1-7.9-3.7-11-14.8-22.6-30.4-18.8-2.7,7-5.3,13.7-7.8,20.4-.5,1.5-1,3.7-.3,4.7,3.8,5-.1,4.6-3.3,5-.3,5.7,2.5,10.5,7.1,12,4.9,1.5,10.6.3,16,.1.1,0,.2-1.5.3-2.2.2-.2.4-.4.6-.6ZM281.8,257h-65.3v37.1q22.8,4.5,33.7,20.9c5.4-14.4,16.4-20.2,31.5-20.4v-37.5ZM248.9,186.7c-5,14.1-17.3,18.7-32.3,19v36.3h65.6v-35c-6.8-2.1-13.8-2.8-19.3-6.2-5.4-3.3-9.3-9.1-14-14ZM218,200.7c15.9,3.6,25.4-7.6,30-18.6.5-1.2.4-3.2-.2-4.4-5.8-11.1-14.5-21.3-30.2-20.3-7.1.5-11.6,5.3-10.7,12.4,1.4,1.1,2.8,2.4,3.2,3.9.6,2.4,0,5.2.8,7.6,2.1,6.4,4.6,12.7,7.1,19.5ZM293.5,329.6c-3-.4-6.3-.6-3.3-5.1.6-.9-.3-2.9-.8-4.3-2.6-7-5.4-13.9-8.3-21.5-3.2.3-7.1,0-10.6,1-8.9,2.5-14.4,8.9-18.1,17-2.8,5.9,2.3,9.5,4.6,13.8.4.8.8,1.5,1.4,2.2,5.9,6.8,13.2,10.6,22.2,10.5,7.6,0,13-5.8,13-13.5ZM293.5,169.8c-.3-5.8-3.9-11.5-8.3-12.2-9.9-1.6-18.8.9-25.6,8.3-10.1,10.9-10.5,15.5-3.1,25.1,5.6,7.2,12.9,11.3,22.3,9.9,1.3-.2,2.9-1.8,3.5-3.2,1.5-3.8,2.5-7.7,3.8-11.6,1.2-3.7,4.3-7.7,3.5-10.9-1.1-4.6,1-4.8,3.9-5.4ZM277.2,153.3c-19-8.8-15.9-8.8-24.2-4.2,1.7,1.1,3.3,2.1,4,2.6h-15.4c1.6-.9,3.2-1.8,4.9-2.7-9.7-7-16.1,2-24.3,4,14.3.9,20.5,11.7,27.6,22.1,6.6-11,13.8-20.4,27.4-21.8ZM223.6,346.3c0,.4,0,.9,0,1.3,7.5,1.2,13.8,9.9,22.8,3.2-.7-1-1.3-2-2.5-3.9,8.9,4.5,13.8-1.8,19.8-4.1-4.8-6-9.2-11.5-13.7-17.1-3.2,4.2-6.4,8.4-9.7,12.6-1.6,2-2.9,4.7-5,5.5-3.6,1.4-7.7,1.7-11.6,2.4ZM268.7,142.4c10.5,6.6,20.5,5.3,26.1-2.3,3.2-4.4,2.3-7.5-2.8-9.9-.5,4.4-2.5,6.6-7.3,7.2-5.1.7-9.9,3-16,5ZM206.1,131c-3.8,3.3-4,6-.4,10.1,5,5.8,15.3,8.3,24.2,1.9-6.2-7-18.8-1.8-23.8-12.1ZM222.2,135.5c7.1,2,13.2,9,22.9,4.5-4.6-1.3-8.3-2.3-13-3.6,4.6-1.7,8.1-2.9,11.6-4.2-3.6-4.6-7.2-3.1-11.1-1.2-3.4,1.7-7,3-10.4,4.5ZM221.2,364.2c6.2,2.3,12.3,4.5,18.3,6.7,1.4-1.1,2.9-2.2,4.6-3.5-4.3-1.4-8.3-2.7-12.2-4,2-1.2,3.9-1.1,5.8-1.6,1.7-.5,3.3-1.5,5.4-2.5-8.9-3.6-14.4,4.6-21.9,5ZM256.3,132.4c3.6,1.4,6.8,2.6,10.8,4.1-3.6,1.4-6.5,2.5-9.4,3.6l.4,1.4c7.5.3,13.9-4,21.6-5.8-5.5-2-10.2-3.4-14.6-5.6-3.5-1.7-5.9-1.5-8.7,2.3ZM276.6,347.6c-9.2-7.2-15.9-1.4-23.2,3.1,9.4,7.1,15.5-2.4,23.2-3.1ZM277.5,364.1c-7.3-2.1-12.6-6.4-19.4-6-.2.6-.4,1.3-.6,1.9,3,.9,6.1,1.8,10.3,3.1-4.5,1.7-8.2,3-12.2,4.5,2,1.4,3.5,2.4,4.9,3.5,5.2-2.1,10.3-4.2,16.9-7ZM236.6,125.2c9.2-4.9,9.3-6,2.3-13.1-8.8,3.6-9.3,5.9-2.3,13.1ZM237.6,374.6c-7.7,5.5-7.3,8.8,1.3,12.8,7.7-6.1,7.5-7.9-1.3-12.8ZM243.3,355.4c4.5,3.8,8.7,2.3,13,0-4.4-3.9-8.6-3.9-13,0ZM242.9,143c5.9,5.5,7,5.5,14.2,0h-14.2ZM256.6,364.6c0-.8,0-1.6,0-2.4h-13.2v2.4h13.3ZM219.3,367.6c-.3.3-.5.6-.8.9.4,1.3,1.5,3.4,1.1,3.8-1.4,1.2-3.4,1.8-5.1,2.7,2.1.8,4.4.9,6.3,0,1-.4,1.8-2.7,1.5-3.8-.4-1.4-2-2.4-3-3.6ZM203.3,333.7c-1.2.8-2.5,1.6-4.4,2.8,3,1.5,4.7,2.3,7.1,3.5-1.1-2.7-1.9-4.5-2.7-6.3ZM262.4,102.6c-1.8,2.1-3.5,3.4-3.3,3.9.6,1.2,2,2,4,3.9-.3-3-.4-4.6-.7-7.8Z"/>
    <path class="cls-1" d="M363.1,315.2c-4.7,2.3-9.4,4.5-14,6.7,0,.6-.1,1.1,0,1.2,15.8,11,31.8,21.6,51.2,25.3,6.1,1.2,11.6.7,16.5-3.2,6.7-5.3,12.8-11,12.6-20.6,0-.5.2-1,.4-1.5.1-.3.5-.5.9-.9,3.7,1.2,3.3,4.2,2.8,7-2,10.6-15.6,26.5-33.3,23.4-13.1-2.3-24.8-7.7-35.7-14.9-9-5.9-18-11.9-27-18-1.5-1-2.8-2.2-4.1-3.4.3-.5.6-1,.9-1.5,4.1,2.1,8.1,4.1,12.1,6.2,7.5-8.6,17.4-13.7,28.5-15.4,10.9-1.6,22-1.4,32.7-1.9-.4-.5-1.3-1.7-2.6-3.4,4.5-2.9,8.8-5.6,12.9-8.6,1.4-1,2.7-3.1,2.7-4.8.2-22.7.2-45.4,0-68.1,0-1.7-1.6-3.9-3.1-5-3.8-2.7-8.1-4.9-12.7-7.7,4.8-3.8,9.1-7.1,13.5-10.6,4.9,3.5,9.5,7.2,14.4,10.2,1.8,1.1,4.9,1.5,6.8.8,7.2-2.7,14.4-5.6,21.3-9.1,3.8-1.9,6.3-1.2,9.4,1.4,23.2,19.3,26.6,53.6,13.9,74.6-7.8,12.9-19.8,19.6-33.1,25.7-8.6,4-15.9,4.1-23.3-1-5.1-3.5-8.9-2.9-12.5,2-1.3,1.7-3.2,3-5.1,4.9,6.5,3.4,14.3,4.5,17.4,12.8-2.2-.9-4.5-1.6-6.5-2.8-15.6-9.4-32.2-8.9-49.1-4.6-3.1.8-5.8,3.2-8.7,4.8h.1ZM437.4,289.6c5.4,1.3,10.5,2.8,15.7,3.5,1.9.3,4.7-.5,6.1-1.9,11.1-10.8,13.9-24.2,14-39.3.1-17.7-7.2-31.4-18.8-43.6-.9-1-3.1-1.5-4.4-1.2-4.3,1-8.4,2.5-12.7,3.8v78.7Z"/>
    <path class="cls-1" d="M50,307c-1.7.1-2.7.5-3.5.2-15.1-5.3-27.2-13.9-32.5-29.8-6.4-19.4-7.1-39.2-.5-58.5,2.2-6.3,7.3-12,12.2-16.8,5.9-5.9,13-8.5,21.1-2.7,10,7.2,19.9,7.3,29.2-1.8,2.3-2.3,4.5-2.2,7.2,0,2.8,2.4,6.1,4.3,10.2,7.1-4.4,2.2-8,4.3-11.8,6-2.5,1.1-3.5,2.5-3.5,5.4.2,17.4,0,34.7.2,52.1,0,2,1.8,4.6,3.4,6,3.3,2.7,7.1,4.8,11.4,7.6-4.4,3-8.2,5.8-12.2,8.2-.9.5-2.9-.2-4-1-4.9-3.4-9.7-7-14.8-10.6-3.7,3.3-7.2,6.6-10.9,9.6-.9.7-2.6.6-3.9.9.6-1.2,1.1-2.5,1.7-3.7.1-.3.5-.5.8-.7,9.7-4.8,11.4-12.7,10.9-22.8-.9-15.6-.3-31.3-.2-46.9,0-3.3-.9-5.2-4-6.1-.8-.2-1.5-.7-2.3-1.1-9-4-14.1-3.1-19,5.7-3.4,6.1-5.9,13.2-7,20.2-2.2,13.4-1.5,27,1,40.4,2.4,12.7,8.5,23,18.7,31,.6.5,1,1.2,2,2.3Z"/>
    <path class="cls-1" d="M72.1,182.2c-8,2.2-16,4.6-24,6.7-13,3.5-28.2-1.7-35.3-12-6.9-10-4.1-24.8,6-31.4,7.7-5.1,22.6-1.8,25.6,5.7,2.2,5.3,0,11.1-5.3,14-5.4,3-13.9,1.8-16.2-2.9-1.1-2.2-1.3-6.1,0-8,1.4-2.1,5-4,7.6-3.8,2.6.1,5,2.9,7.5,4.4-1,1.6-1.7,4-3.2,4.5-2.1.8-4.7.2-7.2.2,2.1,3.5,5.8,4.3,9.2,2.2,3.7-2.2,4.8-6.2,2.9-9.5-2.7-4.5-6.7-6.6-11.9-6.3-6.3.4-10.6,4-12.9,9.6-5.1,12.3,4.6,27.7,18.1,29.3,12.5,1.4,24-2.2,35.6-6.3-3.7-3.8-3.5-8.2-1.3-12.1,5.3-9.3,11.6-18.2,23.2-19,7.1-.5,14.9.5,21.5,3.1,9.3,3.6,18,9,26.7,14.1,7.7,4.5,15,9.6,22.4,14.5,1.8,1.2,3.4,2.6,5.1,3.9-.3.6-.7,1.2-1,1.8-4.3-2.4-8.5-4.7-12.8-7.1h.1c-16-10.8-31.8-22-51.3-25.9-2.9-.6-6.1-1.3-9-.8-13,2.2-21.8,13.4-21.4,26.3,22.8-6.3,45.3-9,66,6.3-2.2.4-4.3,0-6.3-.6-3.9-1.3-7.6-3.1-11.5-4.3-16.1-5.2-31.8-3.9-47,3.4l.2-.2Z"/>
    <path class="cls-1" d="M136.2,313.4c-21.4-9.1-42.4-8.2-63,4.8l-.9-1.9c1.5-1.6,2.7-3.5,4.5-4.6,6.7-4.4,14.1-7.1,22.2-7.1,11.5,0,23.2-1.4,34,3.5,6,2.7,11.7,6.4,17.4,9.8,1,.6,1.6,1.9,2.4,3-.3.5-.6.9-.9,1.4-4.7-2.4-9.4-4.8-13.9-7.1-5.5,6.5-13,9.5-20.8,10.7-17,2.6-33.7,1.5-50-5.1-10.3-4.2-21.2-6.9-32.6-6-8.4.6-14.8,4.4-18.2,12.2-3.1,7.2-4.4,14.5.9,21.5,5.5,7.3,17.2,7.4,22.6,0,2.2-3,.8-8-2.8-10.2-4.1-2.5-8.3-1.2-10.6,3,2.5-.4,5.3-1.1,8-1.1,1.2,0,3.1,1.4,3.4,2.5.3,1.4-.3,3.6-1.3,4.5-3.2,2.7-7.4,4-10.8,1.2-2.1-1.7-3.9-5.4-3.7-8,.4-4.4,4.2-6.3,8.5-6.7,5.7-.5,10.6.8,13.6,6.3,2.4,4.5,1.2,8.7-1.7,12.5-.8,1-1.9,2.1-3.1,2.6-14.6,6.4-30.5-2.4-29.9-18,.6-14.7,11.1-25.3,25.9-26.2,11.9-.7,22.5,3.6,33.5,6.6,9.8,2.7,19.8,5.8,29.9,6.7,7.1.7,14.5-1.6,21.6-3.3,5.4-1.3,10.6-3.9,15.8-6,0-.5,0-1,0-1.6Z"/>
    <path class="cls-1" d="M111.1,271c0-6.9-.4-13.1,0-19.3.8-10.1-4.3-16.5-13.1-21.8,0,11.1-.2,21.6.2,32.1,0,1.7,3.1,3.2,4.6,4.9,1.4,1.6,2.7,3.3,4,5-3,.7-6.4,2.7-9,1.9-3.6-1-6.8-3.9-9.8-6.4-1.1-.9-1.6-2.9-1.7-4.5-.2-8.7-.2-17.5,0-26.3,0-1.4.9-3.4,2-4.2,8.1-5.3,16.9-5.3,25.4-1.5,6.4,2.9,8,9.6,8.5,16,.5,5.8.3,11.7,0,17.5,0,1.4-1.9,3.2-3.4,4-2.4,1.2-5.3,1.7-7.8,2.4Z"/>
    <path class="cls-1" d="M176.3,230.3c-2.9.2-5.1.4-8.8.7,6.8-9,12.8-16.9,18.9-24.9.4,0,.7.2,1.1.3v15.2c3-.6,5.3-1.1,7.6-1.5,2.2,9.5,1.7,10.3-7.4,10.9,0,2.4,0,4.9,0,7.4,0,9.8.2,19.6,0,29.4-.2,4.8.6,8.7,5.2,11.2,1.6.9,2.9,2.4,5,4.1-3.3,3-6,5.5-9,8.3-3.8-3.8-7.7-7.4-11.2-11.4-1-1.2-1.1-3.5-1.1-5.3,0-13.9,0-27.8.1-41.7,0-.8-.2-1.7-.3-2.7Z"/>
    <path class="cls-1" d="M352.5,244.8c.7-3.4.8-7.8-4.5-9.9-1.7-.7-3.7-.9-5.6-.7-1.8.2-3.7.9-5.4,1.6-5.2,2.2-9.3,1.8-11.3-4.3,6.2-4.6,7.2-4.5,12,1.2,3.3-1.1,6.6-2.3,10-3.5,6.7-2.5,16.1,4.1,16.1,11.3,0,3.8.2,7.6,0,11.3-.5,7.3-.5,14.2,8.8,16.3-5.9,6.9-7.7,7.4-13.9,2.3-3.5-3-6.6-3.1-10.6-1.4-5.5,2.3-11.3,3.9-16.9,6-3.4,1.3-4.8,0-5-3.4-.4-8.8,1.1-17.3,9.1-22.1,4.6-2.8,10.8-3,17.2-4.6ZM352.4,249.9c-4.8-2.1-9.3-1.8-12.9,1.8-3.5,3.5-4.2,12.3-1.7,17.3.8-.2,1.6-.5,2.4-.7q13.2-4.1,12.2-18.4Z"/>
    <path class="cls-1" d="M317.2,280.5c-3.8,3.6-7.6,7.1-11.6,10.8-2.6-2.6-5-5-7.6-7.6.6-.8.9-1.7,1.5-2.1,6.5-4.5,7.8-10.6,7.4-18.2-.6-11.8-.4-23.7,0-35.5.2-4.8-.9-8.2-5.2-10.5-1.2-.6-2.1-1.7-3.9-3.1,3-2.4,5.8-4.6,9-7.2,2.7,2.4,6.1,5.1,9.1,8.3,1.2,1.3,1.7,3.7,1.7,5.5.1,17.7,0,35.3.1,53,0,2.1.9,4.2,1.3,6.3-.6,0-1.3.1-1.9.2Z"/>
    <path class="cls-1" d="M460.8,152.2c2.5-.6,5.1-1.4,7.6-1.9,4.1-.7,7.4,1.1,8.8,4.7,1.5,3.7.7,7.5-3.2,9.9-4.8,3-12.8,2-16.6-2-3.7-4-4.1-9.8-.6-14.6,1.2-1.6,2.9-3,4.7-3.8,6.5-2.8,18.5-.3,23.4,4.6,6.3,6.4,7.7,15.1,4,23.7-5.3,12.1-20.5,19.6-34.4,16.4-10.5-2.4-20.8-5.7-31-9.1-17.5-5.8-34.6-5.8-51.5,2-2.8,1.3-5.8,1.9-9,2.2,5.2-5.7,11.8-8.7,19.1-9.9,14.7-2.5,29.2-2,43.6,2.6,10.7,3.4,21.5,6.9,32.5,8.3,17.3,2.2,27.3-6.9,27.7-24.1.3-11.5-12.1-18.6-22-13.1-1.3.7-1.9,2.9-2.8,4.4-.6.2-1.8.6-1.7.7.5,2.5.3,5.9,1.9,7.2,2,1.7,5.6,2.4,8.2,2,1.8-.3,3.1-3.3,4.6-5.1-.4-.4-.8-.8-1.3-1.1-.8,4.1-3.9,4.6-7,4.2-4.8-.6-5-4.4-4.8-8.1Z"/>
    <path class="cls-1" d="M362.9,315.4c3.7,1.2,7.6,2,11.2,3.5,15.5,6.8,31.1,7,47.1,2,6.2-2,12.5-3.6,18.5-6.1,9-3.6,18.3-4.2,27.8-3.7,9.6.5,19.9,9.9,23,20.8,2.3,8.1-1.4,17.2-9.3,22.6-8.8,6.1-23.1,2.4-26.1-6.8-1.5-4.7,1.2-10.6,6-12.8,5.5-2.5,13-1.3,15.6,2.6,2.3,3.5,1.5,8-1.8,10.5-3,2.3-10.6,2-12.3-.9-.8-1.4-1-4.6-.2-5.1,2-1.2,4.7-1.9,7-1.7,1.2.1,2.3,2.5,4.2,4.9-.2-1.9.1-4.3-.7-4.9-2.2-1.5-5.1-3.3-7.5-3-4,.5-6.5,3.6-6.2,8.1.2,4.1,4.3,7.8,9.2,8.3,12.2,1.4,20-7.6,17.5-20.2-2.4-12.2-10.2-18.4-22.7-18.8-13-.4-24.9,4-36.8,8.2-14.9,5.2-30,5.3-45.1,2.6-5.9-1-11.2-4.8-16.8-7.5-.7-.3-.8-1.8-1.2-2.8,0,0-.1.1-.1.1Z"/>
    <path class="cls-1" d="M156.1,268.7c-4.3,2.8-6.8,4.5-9.6,6.3-4.4-2.9-8.7-5.8-12.7-8.5,0-8.7,0-17.6-.1-26.4,0-1-1.7-2.2-2.9-3-1.8-1.2-3.8-2-5.9-3,6.1-6.4,7.7-7,14-2.6,4.4,3.1,7.8,2.9,12.4.3,8.4-4.8,8.6-4.4,16.2,2.9-3.2,2.3-6.3,4.5-9.7,7-1.4-2.5-2.6-4.6-3.7-6.5q-8.6,2.4-8.6,10.8c0,1,0,2.1,0,3.1,0,8-2.4,17.1,10.6,19.6Z"/>
    <path class="cls-1" d="M394.5,233c12.6-6.8,20.2-2.3,20.1,10.6,0,8.2,0,16.4-.9,24.5-.9,8-10.3,15.9-18.4,16.2-.5,0-1.1-.8-2-1.5,9.8-6.8,11.1-16.7,10.4-27.4-.2-2.9-.1-5.8,0-8.7.2-6.2.4-12.3-9.1-13.7Z"/>
    <path class="cls-1" d="M379.3,266.7c0-8.9.1-17.6-.1-26.3,0-1.1-1.6-2.4-2.8-3.1-1.8-1.2-3.8-2-5.9-3q6.8-6.9,19.3,1.3c0,9-.1,17.7.2,26.3,0,1.2,2,2.4,3.3,3.4,1.7,1.4,3.5,2.6,5.3,3.9-6.7,6.6-6.9,6.6-13.6,1.5-2-1.5-4.1-2.8-5.6-3.9Z"/>
    <path class="cls-1" d="M347.6,177.9c-4.4,2.4-8.8,4.8-13.2,7.2-.3-.3-.5-.6-.8-1,.3-.6.4-1.6.9-1.9,17.3-10.4,32.5-24.1,51.8-31.3,8.8-3.3,17.7-5.1,27-2.5,9.5,2.6,20.4,16.2,19.9,25-.1,1.6-1,3.1-1.6,4.7-.5,0-1,0-1.5-.1-.5-1.5-1.2-3-1.4-4.6-1.1-14.6-16.2-24.6-30.5-21.4-19.3,4.4-35.1,14.9-50.8,26l.2-.2Z"/>
    <path class="cls-1" d="M164.1,318.6c-4.8,3.1-9.6,6.3-14.3,9.4-12.6,8.2-24.4,17.9-39.2,22-6,1.7-12.4,2.7-18.6,2.6-10.6-.1-24.4-13.4-25.7-23.9-.2-2.1.8-4.3,1.3-6.5.6,0,1.2,0,1.8,0,.5,1.3,1.2,2.5,1.3,3.8,1.5,15.7,16.4,25.7,31.6,22.1,17.8-4.3,32.6-13.9,47.4-23.8,4.2-2.8,8.8-5.2,13.2-7.8.4.7.8,1.4,1.2,2.1Z"/>
    <path class="cls-1" d="M152.4,178.1c-1.1,1.7-1.8,3.9-3.3,5.2-8.9,7.2-19.2,11.4-30.5,12.3-11.6.9-23.4,1.8-34.5-3-3.4-1.5-6.6-3.5-9.6-5.8-1.3-.9-1.6-3.1-2.4-4.6,0,0-.2.2-.2.2,2.1.7,4.2,1.3,6.2,2.1,7.2,2.5,14.2,6.2,21.6,7.2,12.9,1.8,25.9,1,37.7-6.3,4.7-2.9,10.1-4.8,15.1-7.2h-.1Z"/>
    <path class="cls-1" d="M347.5,178.1c4.9,2.4,10,4.5,14.6,7.4,12.4,7.7,26,8,39.6,6.1,6.9-1,13.4-4.7,20-7.1,1.7-.6,3.5-1.4,5.5-1.5-3.5,6.8-9.7,9.8-16.2,11.1-21.1,4.2-41.6,3.4-59.7-10.2-1.7-1.3-2.5-3.9-3.7-5.9,0,0-.2.2-.2.2Z"/>
    <path class="cls-1" d="M157.7,196.7c.9,1.3,1.6,2.6,2.6,3.8,2.6,3.1,6.4,5.8,7.7,9.3,2.5,6.8-.6,11.8-7.3,14.9-6.1,2.7-15.4,1-18.2-3.9-1.3-2.3-1.8-5.6-1.3-8.1,1.3-5.8,5.7-9.4,11.7-13-.5,2.2-.6,3.3-1.1,4.2-1,1.6-2.2,3-3.4,4.5-4.2,5.8-4.6,9.9-1.2,12.2,5.4,3.6,14,2.1,16.3-3.6,1-2.4.4-6.7-1.2-8.7-3.8-4.6-8.7-8.2-13.1-12.3-2-1.8-3.9-3.7-5.8-5.5.3-.4.6-.9.9-1.3,1.9,1,3.8,2.1,5.7,3.1,2.6,1.5,5.2,3,7.9,4.5,0,0-.1,0-.1,0Z"/>
    <path class="cls-1" d="M345.7,200.8c7.3.6,12.5,8.5,13.2,13,.6,4.4-1.3,7.6-5,9.9-5.9,3.5-13.3,3.1-18.3-1-5.4-4.3-6.9-11.5-2.2-16.2,5.8-5.9,12.8-10.7,19.3-16,.4-.3,1.2,0,2.5,1-3.6,3.2-7.3,6.3-10.8,9.6-2.5,2.3-5.2,4.5-7.4,7.1-3.6,4.4-2.4,9.7,2.4,12.8,3.9,2.5,13.4,1.5,14.4-2.1.7-2.5-.3-6-1.5-8.5-1.5-3.2-4-6-6.5-9.5Z"/>
    <path class="cls-1" d="M143.8,309.5c3.8-3.4,7.5-6.7,11.3-10.1,2.4-2.2,5.3-4.1,7-6.7,1.5-2.3,3.3-6.2,2.4-8-1.5-3-5-6.2-8-6.7-3.3-.5-8.1,1.2-10.3,3.6-1.3,1.4.9,6.4,2.2,9.5,1.2,2.8,3.3,5.1,4.4,8.1-6.3-2.1-10.4-6.2-11.6-12.4-1.5-7.7,6.8-14.6,15.1-12.7,5.5,1.2,10.5,3.4,12.1,9.6,1.6,6.2-1.3,10.6-5.8,14.2-4.5,3.7-9.1,7.3-13.8,10.8-1.2.9-2.7,1.4-4.1,2.2-.3-.5-.6-.9-.9-1.4Z"/>
    <path class="cls-1" d="M354.6,310.9c-8-5.3-16.7-10.2-21.9-18.5-5.6-9,1.4-16.8,12-18.4,6.1-.9,13.2,4.5,14.2,9.5.9,4.5-4.4,14.2-12.7,15.7,2.2-3.3,4.1-5.8,5.7-8.4,2.1-3.4,5.3-7,.9-10.9-4-3.5-12-2.9-15.5.9-3.8,4.2-3.8,7.8.5,12.1,4.1,4.1,8.6,7.8,12.9,11.7,1.7,1.6,3.5,3.1,5.2,4.7-.5.5-1,1-1.5,1.5Z"/>
    <path class="cls-1" d="M261.9,395.6c.6-1.7,1.2-3.3,1.9-5.3,3.3,2.1,2.8,4.6,1,6.8-1.9,2.3-4.4,3-7.1.6-2.3-2.1-3.8-4.2-1-6.8,1.6-1.5,3.7-2.3,5.3-3.8,2.1-1.9,3.9-4.2,5.9-6.3.6-.6,1.3-1.1,1.9-1.7.4.8,1.5,1.9,1.2,2.3-1.4,2.2-2.8,4.5-4.7,6.2-1.6,1.5-4,1.9-5.6,3.4-.9.8-.8,2.7-1.1,4.1.8.1,1.5.3,2.3.4Z"/>
    <path class="cls-1" d="M324.4,290.1c-2-2.6-4.1-5.2-6.1-7.8l1.8-1.4c2,2.6,4.1,5.2,6.1,7.8-.6.5-1.2,1-1.8,1.4Z"/>
    <path class="cls-1" d="M319.2,280.3c-.2.5-.4,1-.6,1.4-.4-.4-.9-.8-1.3-1.2.6,0,1.3-.1,1.9-.2Z"/>
    <path class="cls-1" d="M229.7,339.2c-.3-.3-.6-.5-.8-.8.5,0,.9.2,1.4.3-.2.2-.4.4-.6.6Z"/>
  </g>
</svg>