<?xml version="1.0" encoding="UTF-8"?>
<svg id="Calque_1" data-name="Calque 1" xmlns="http://www.w3.org/2000/svg" version="1.1" xmlns:xlink="http://www.w3.org/1999/xlink" viewBox="0 0 500 500">
  <defs>
    <style>
      .cls-1 {
        fill: #75683b;
        stroke-width: 0px;
      }
    </style>
  </defs>
  <image width="710" height="410" transform="translate(-7942 -7992)" xlink:href="Norther-1.png"/>
  <g>
    <path class="cls-1" d="M387.5,165.5c-21.7,10.2-43.4,20.3-65.1,30.5-1.8.9-2.6,0-3.7-1-6.5-6.3-14.5-8.9-23.6-9.4v20.6c3.9-1.8,7.5-3.6,11.2-5.3.8-.4,2.1-.7,2.7-.3,9.5,5.2,18.9,10.5,28.5,15.9q-6.5,2.6-6.5,9.6c0,20.6.1,41.3,0,61.9,0,5.3.8,9.4,6.9,10.8-13.6,15-31.1,16.4-49.9,16.2,3.5-2.9,6.4-5.5,9.5-7.8,3.9-2.8,6.5-6,6.4-11.3-.1-24.9,0-49.8,0-74.7,0-1.1,0-2.2,0-3.3-6.2-.4-8.9,2-8.9,7.7,0,24.8,0,49.6,0,74.4,0,2.7-.9,4.4-2.8,5.9-2.9,2.1-5.9,4.3-8.9,6.3-.9.6-2.1,1-3.1.8-6.3-1.2-10.9-6.9-10.9-13.4,0-36.9,0-73.8,0-110.7v-2.3c-3.5,0-6.1,2-6.8,5.4-.2,1.1-.2,2.2-.2,3.3,0,35.3,0,70.7-.1,106,0,5.3,2.1,8.4,6.5,10.5,1.8.9,3.6,1.8,5.9,3h-49.1c2.4-1.6,5-3.1,7.4-4.7,2.8-2,4.1-4.7,4-8.3-.1-34.2-.1-68.4,0-102.6,0-4.9-2.1-8.1-5.9-10.5-5.6-3.5-11.8-4.6-18.3-4.9-13.2-.6-24.2,3.8-32.9,12.9-20.8-10.2-41.5-20.4-62.2-30.6,50,8.8,100.6,7.8,151.1,8.8-.4-5.1-4.1-7.5-13.2-9.1,7-3,14.4-3.8,21.9-3.1,7.8.7,14.7,3.3,17.8,11.9,11.3-.7,22.6-1.4,33.9-2.1,19.5-1.2,38.7-3.8,57.8-7.8.2.2.5.5.7.7Z"/>
    <path class="cls-1" d="M13.8,155.1c25.8,12.2,51.7,24.4,77.5,36.5,1.8.9,3.6,1.7,5.5,2.6,0,.3,0,.7,0,.7-6.4,1.3-7.3,5.5-7.2,11.4.4,32.4.5,64.8.5,97.2,0,4.4.5,7.9,6.5,9-11.9,5.5-22.9,10.6-34.3,15.9,0-1.8,0-3,0-4.2,0-41.7,0-83.4,0-125.2,0-2.4-.8-4.9-1.5-7.2-.3-1-1.6-1.7-3.1-3.2-.1,2-.2,2.8-.2,3.7-.1,40.3-.3,80.5-.3,120.8,0,9.1-3.5,16.3-10.6,21.8-9.8,7.7-21.4,10.3-33.6,11.3-2,.2-4,.3-6.1-.2,2.8-1.3,5.6-2.5,8.3-3.9,2.4-1.2,4.7-2.6,6.9-4.1,5.4-3.8,8-9.1,8-15.8,0-26.8,0-53.6,0-80.4,0-18.8-.2-37.7.3-56.5.3-10.2-3.4-18-11.1-24.3-2-1.6-3.9-3.3-5.9-5,.2-.2.4-.5.6-.7Z"/>
    <path class="cls-1" d="M485.1,154.7c-3.1,4.1-6.4,8-9.4,12.2-3.2,4.5-4.4,9.7-4.4,15.2,0,8.6-.2,17.3,0,25.9.1,3.8-.7,6.7-3.6,9.1-1,.8-1.8,1.9-2.7,2.8.1.4.1.7.3.8,5.3,3.4,6.1,8.3,6.1,14.3-.3,29,0,58.1-.2,87.1,0,6,2.1,10.8,6.9,14.2,4.4,3.1,9.3,5.6,14.2,8.6-9.3,0-18.1-1.5-26.4-5.2-9.3-4.2-16.4-10.4-19.2-20.7-.5-1.9-.7-4-.7-6,0-24.6-.1-49.1,0-73.7,0-4.3,0-7.9-5.5-8.9v97c-11-4.8-21.4-9.4-32.3-14.2,1.2-.7,2-1.2,2.8-1.7,2-1.3,3.1-2.9,3.1-5.5,0-34.9,0-69.8-.2-104.6,0-1.6-1.3-3.4-2.4-4.7-.9-1-2.4-1.5-4-2.4,12.1-6.3,23.8-12.5,35.6-18.7,13.2-6.9,26.4-13.9,39.6-20.8.6-.3,1.2-.5,1.8-.7.2.2.4.4.5.5ZM446.2,188.6c-.3-.1-.7-.3-1-.4-2.4,2.7-5.2,5.2-5.2,9.4,0,5,0,10.1,0,15.1,0,3.2,0,6.3,0,9.5.3.1.7.3,1,.4,1.7-2.2,4.7-4.3,4.9-6.6.6-9.1.2-18.3.2-27.4Z"/>
    <path class="cls-1" d="M166.2,299.5c-12.2,6.7-24.8,11.8-38,15.4-.7.2-1.7-.1-2.5-.5-9.5-4.3-19-8.6-28.5-12.9.1-.3.2-.5.3-.5,4.8-1.5,5.6-4.8,5.6-9.5-.3-21.8-.2-43.5,0-65.3,0-4.8.5-9.4-6.6-10.7,11.2-4.8,21.5-9.3,31.8-13.7,0-.5,0-.9.1-1.4-2.1-1.8-4.2-3.5-6.1-5.2,5.7-2.4,31,9.1,43.1,19.8,0,.2,0,.4-.2.5-5.1,2.8-5.4,7.3-5.3,12.6.3,21.5.3,43.1.2,64.6,0,2.3.8,3.9,2.7,4.9,1,.6,2,1.2,3.3,2ZM134.9,210.8c-4.5,1.5-5.6,2.9-5.6,6.9,0,27.1,0,54.3,0,81.4,0,.9.1,1.9.2,2.9,4-1.1,5.1-2.7,5.1-6.9,0-18.6.2-37.2.3-55.8,0-9.4,0-18.8,0-28.5Z"/>
    <path class="cls-1" d="M387.9,193.4c-2.2,1.8-4.1,3.3-5.7,4.9-1.9,1.8-2.1,3.1.8,4.5,8.6,4,17.1,8.2,26.5,12.8-5,.8-4.7,3.8-4.7,7,0,10.8,0,21.5,0,32.3,0,1.1,0,2.2,0,3.4-10.4,2.7-20.6,5.3-31,8,0,10.3-.2,20.5.2,30.7,0,1.7,2.9,4.4,4.8,4.7,4.3.6,8.9.5,13.2-.2,4.2-.7,8.2-2.6,12.5-4.1-.3.6-.6,1.2-1,1.7-5.5,6.3-11.9,11.6-19.3,15.4-1.1.6-2.6.8-3.8.5-13.4-2.9-26.4-6.9-38.1-15.7,5.9-1.2,5.3-5.6,5.3-9.9,0-21.4-.1-42.8,0-64.3,0-4.3-.6-7.8-5.2-9.3,7.5-9.2,34.3-22.3,45.4-22.2ZM373.6,257.5c2.1-1.8,5.4-.7,5.3-4.4,0-13.3,0-26.7,0-40,0-3.4-1.7-4.9-5.3-4.7v49.1Z"/>
    <path class="cls-1" d="M167.8,299.5c6.5-1.9,8-5.4,7.9-10.7-.3-23.5-.4-47.1-.3-70.6,0-3.5-1.4-5.1-4.3-6.2-.8-.3-1.6-.7-3-1.3,11.8-4.1,22.9-8,34-11.9,1.8-.6,3.6-1.2,5.4-1.8,9.6-3.2,16.9,0,21.1,9.1,1,2.2,1.5,4.7,1.6,7.1.2,7.2.1,14.4,0,21.5,0,1.1-.5,2.8-1.4,3.3-7.2,4.5-14.5,8.9-22.1,13.5,0-1.2-.2-2.2-.2-3.1,0-11.6-.1-23.1,0-34.7,0-3.5-1.8-5-5.2-5.8,0,1.1-.2,2.1-.2,3,0,28.5,0,57,0,85.5,0,3.9,1.7,6.8,4.1,9.5,2.6,3,5.4,5.9,8.2,8.9-11.9,0-24.4,1.3-35.4-5.4-3.6-2.2-6.3-6.1-10-9.8Z"/>
    <path class="cls-1" d="M386.8,164.8c.6-.2,1.3-.3,1.9-.5,0,.2.1.3.2.5-.5.2-1,.5-1.4.7l-.7-.7Z"/>
    <path class="cls-1" d="M484.6,154.2c.4-.1.7-.3,1.1-.4-.2.3-.4.6-.5.9-.2-.2-.4-.4-.5-.5Z"/>
    <path class="cls-1" d="M13.3,155.9c-.4-.2-.7-.4-1.1-.5,0-.1,0-.3.1-.4.5,0,1,.1,1.5.2-.2.2-.4.5-.6.7Z"/>
    <path class="cls-1" d="M493.3,345c0,0-.2.2-.2.2,0,0-.1-.1-.2-.2,0,0,.2-.2.2-.2,0,0,.1.1.2.2Z"/>
  </g>
</svg>