<?xml version="1.0" encoding="UTF-8"?>
<svg id="Calque_1" data-name="Calque 1" xmlns="http://www.w3.org/2000/svg" version="1.1" viewBox="0 0 500 500">
  <defs>
    <style>
      .cls-1 {
        fill: #75683b;
        stroke-width: 0px;
      }
    </style>
  </defs>
  <path class="cls-1" d="M44.1,142.6c32-26.1,68.2-42.3,109.7-46.1-20.3,7.5-38.3,18.4-52.7,35.1-1.3-1-2.6-2.4-4.2-3.1-1.3-.6-3-.4-4.6-.6.2,1.5-.1,3.3.5,4.5,1,2,2.4,3.8,4,5.4,18.9,19.2,27.4,42.9,30.2,69.1,1.9,17.6.4,34.9-2.7,52.4-4.1,22.6-11.5,43.9-22,64.3,0,0-.1,0-.2.1-1.7-2.4-3.3-4.9-5.3-7.1-.8-.9-2.4-1.2-3.6-1.7-.3,1.2-.8,2.5-.7,3.7.4,7.3,4.8,12.3,10,16.9,15.8,13.7,33,25.5,50.3,37.1.8.5,1.4,1.3,2.1,1.9-.2.3-.4.5-.5.8-4.7-2.1-9.4-4-14-6.3-31.1-15.6-61-33.2-88.9-54.2-10.8-8.1-20-17.8-26.7-29.6-3.1-5.5-5.4-11.4-8.1-17.2-.5-1.2-.9-2.4-1-4l4.5,3.8c.3,0,.7-.2,1-.3-.3-1.7-.3-3.6-.9-5.2-1.7-4.2-3.7-8.2-5.4-12.4-3.5-8.2-5.7-16.8-6.3-25.8,0-1.1,0-2.2,0-3,1.7.5,3.6,1.7,4.8,1.2,1.7-.7,3.3-2.5,4-4.2,3-6.8,3.6-14,2.3-21.3-1-5.4-2.7-6.2-7.7-4-.3.2-.8,0-1.7.1,1.4-2.5,2.6-4.8,3.9-6.9,1.5-2.3,3.1-4.5,4.8-6.7,1.6-2.1,3.2-4.3,5-6.2,5.8-5.9,11.8-11.6,17.7-17.4,2.5-2.4,5-4.9,7.2-7.5.8-.9,1.4-2.7,1-3.5-.5-.8-2.2-1-3.5-1.3-.6-.1-1.2,0-1.8.2-.2-.3-.3-.6-.5-.9ZM73.2,146.8c-2.2,2.4-5,5.3-7.6,8.3-16.4,18.6-26.1,40-27,65.1-.6,17.4,3.4,34,9.5,50.2,3.9,10.4,8,20.8,15,29.6,3.1,3.8,5.9,8,10.9,9.5,1.5.4,4.1-.1,5.1-1.2,1.1-1.1,1.2-3.5,1.1-5.3,0-1.1-1.4-2.1-2.2-3.3,1-.2,2.1-.4,3.1-.8,4.7-1.4,9.1-3.1,11.9-7.4,2.8-4.3,1.8-7.9-3.1-9.7-2.2-.8-4.6-1-7-1.5,8-12.2,14.8-24.8,18.9-38.7,6.1-20.7,6.2-41.7,3.7-62.9-1.1-9.6-3.7-18.9-9.5-26.9-4.6-6.5-10.6-11.2-18.7-12-1.9-.2-4.1,1.1-5.9,2.2-.3.2.9,2.8,1.6,4.9Z"/>
  <path class="cls-1" d="M437.7,209.2c-1.4.7-3.3,1.5-5,2.6-2.8,1.9-3.8,4.6-3,7.4.9,2.9,3,4.5,6.6,4.5,4.1,0,8-.9,11.1-3.8,1.6-1.5,3.6-3.8,3.7-5.7.1-3.9,2.3-5.5,4.9-7.5,7.8-6.1,12.4-14.6,16.2-23.5.5-1.2.2-2.9-.3-4.1-2.5-6.1-5.1-12.1-7.8-18.4,11.3,6.8,20.5,15.6,26.9,26.1-2.8,3.2-5.2,5.9-7.6,8.7-3.9,4.8-6.6,10.2-6.1,16.6.5,5.6,2.7,10.2,8.6,12.3.6.2,1.1,1.7,1,2.6-.6,11.1-3.7,21.7-7.4,32.2-.9,2.6-1.9,5.2-2.8,7.8-1.2,3.5-.4,6.5,1.8,8.4,2.2,1.8,5.5,1.8,8.6,0,1.2-.7,2.3-1.6,3.5-2.4.3.1.5.3.8.4-2.7,5-5.1,10.2-8,15-13.1,21.5-31.8,37.4-51.8,52.1-18.7,13.7-38.6,25.2-61.2,30.7-12,2.9-24.5,4.3-36.8,6.3-1.3.2-2.7,0-4.2-.4,53.9-11.9,98-37.4,123.9-88.5,4,4.7,9.3,4.5,13.5,0,1.2-1.2,2.1-2.8,2.7-4.4,1.8-4.8-.2-7.3-5.2-7.1-.4,0-.8,0-1.5,0,3.7-16.4,5-32.8.3-49.3,1.1-.3,2.2-.5,3.2-.8,2.8-.9,4.9-2.8,4.8-5.7,0-1.6-1.3-3.8-2.7-4.6-2.5-1.4-5.3-.7-7.2,1.5-1.2,1.5-1.8,3.6-2.8,5.3-.5.9-1.2,2.2-2,2.5-11.3,3.5-20.3,9.9-26.5,20.1,0,.2-.3.2-.7.5-4.1-6-6.5-12.7-8-19.7-3.4-16.6-3.1-33.1,2.3-49.3,1.4-4.3,3.8-8.3,5.8-12.5,1.3-2.8,2.7-5.5,3.9-8.3,1.1-2.6.6-5.1-1.3-7.1-2-2-4.5-2.8-7-1.6-2.2,1-3.4.3-5-1.1-15.2-13.8-31.2-26.5-49.8-35.5-10.8-5.2-22.3-9-33.4-13.5-.8-.3-1.7-.5-2.5-1.2,2.1,0,4.3-.1,6.4,0,2.1.2,4.2.7,6.3,1.1,2.2.4,4.4.8,6.6,1.3,32.4,7.1,61.7,21.1,88.9,39.9.5.3.9.8,1.3,1.2-.3.3-.4.4-.6.5-2.4.6-4.9,1.3-4.8,4.2.2,2.9,2.7,4.1,5.2,4.4,2.8.3,5.6-.2,8.7-.3-.8,1.6-1.7,3.3-2.7,5-6.9,11.4-12.5,23.3-12.9,36.9-.2,6,.5,12,.8,18.4Z"/>
  <path class="cls-1" d="M228,139.6c1.5-.3,2.8-.5,4.1-.9,3.1-1.1,4.3-4.1,2.5-6.9-.8-1.2-2.4-2.6-3.7-2.6-1.2,0-2.9,1.4-3.6,2.6-1,1.8-1.4,4-2.1,6.3-9.5-9.9-19.6-18.8-33.5-23.3,3.9,8.8,8.7,16.7,8.2,27-9.5-16-20.3-29.7-37.1-37.5,0-.3.1-.6.2-.9,5.2.6,10.4.9,15.5,1.8,17.3,3.1,34.7,6.1,51.8,9.8,11.2,2.4,21.9,1.7,33.1-.2,25.8-4.4,51.9-6.7,78.1-7.7.4,0,.7.1,1,.2-6.8,3.4-13.9,6.2-20.1,10.2-6.2,4-11.7,9.1-18.3,14.4,2-5.2,3.7-9.6,5.6-14.2-16.8,1.9-31.4,9.6-45.8,18.2-.4-1.3-.7-2.4-1.2-3.5-.8-2.1-2.2-3.5-4.7-2.9-2.5.6-4.1,2.3-4.4,4.9-.3,2.6,1.6,3.7,3.7,4.2,1.9.5,4,.5,5.9.7-2,9.8-4.2,19.4-6,29.1-3.6,18.7-5.7,37.5-6.7,56.5-1.3,26.2-2.4,52.4-3.5,78.6-.2,5.8-.3,11.7,0,17.5.1,2.3,1.7,4.5,2.6,6.8,1.7-1.3,3.7-2.3,5.1-3.8,6.8-7.5,14.1-14.3,24-17.5,1.5-.5,3.2-.6,4.8-.9,0,.2.2.5.2.7-1,.7-2.1,1.5-3.2,2.2-11.1,7.4-16.4,17.5-14.7,31.1.4,3.5-.4,7.1-.6,10.7-.4,0-.7,0-1.1,0-.3-1.1-.4-2.2-.8-3.3-1.4-4.2-4.1-4.9-7.3-1.9-4.5,4.2-6.6,9.8-8.5,15.4-4.3,12.7-6.9,25.8-7.5,39.3,0,1.3-.5,2.5-1.2,3.8-.4-3.2-.9-6.4-1.2-9.6-.3-3.4-.5-6.7-.6-10.1-.2-12.3,1.7-24.4,4.5-36.4,1.3-5.4,1.5-11-.4-16.3-.7-1.9-2.4-3.7-4.1-4.9-1.8-1.1-2.2-2.3-1.7-4,6-20.2,5.8-41,5.7-61.7-.2-36.3-3.9-72.4-11.1-108-.8-3.9-1.3-7.9-2-11.8,0-.3,0-.6,0-1.1Z"/>
  <path class="cls-1" d="M167.3,200.9c3.4,1.6,6.7,3,9.7,4.7,5.3,3,7.2,6.9,5.3,12.6-1.9,5.5-4.1,11.2-7.4,15.9-7,9.7-14.8,18.8-22.3,28.1-2.1,2.6-2.8,2.5-4.7-.4-9.1-13.1-14.2-27.8-15.4-43.7-.9-12.1-1.7-24.2-2.5-36.3,0-1.5,0-3.1,0-4.7,2.9-1.1,7-.8,7-5.2,0-3.1-2.7-3.7-5.2-4.4,0-.3,0-.6,0-.9,6.3-.6,12.7-1.6,19-1.8,10.7-.4,21.2.4,31.2,4.7,7.2,3.1,8.9,7.9,3.9,13.9-4.2,5.2-9.5,9.5-14.4,14.1-1.3,1.2-2.8,2.2-4.3,3.3ZM161.6,215.3c1.1-.8,2.2-1.4,3.1-2.2,1.7-1.5,1.4-3-.1-4.4-3.4-3.1-14.4-4.1-18.2-1.7-1.3.8-2.5,2.2-1,3.4,1.7,1.3,1.3,2.7,1.1,4.3-.4,3-.8,6.1-1.1,9.1-.7,6.6-1.3,13.2.8,19.7.6,1.8,1.8,3.5,2.8,5.2,1.5-1.2,3.4-2.2,4.6-3.8,6.8-8.7,8.9-18.8,8.1-29.7ZM181.2,179c-1.7-.8-2.1-1-2.6-1.2-6-2.3-12-1.5-18,.2-1.9.5-3.3.6-5-.8-1.9-1.5-4.2-2.4-7-.4,1.1,1,2,1.9,3,2.9-3.3,4.9-4.8,10.4-5.6,16.2-.3,1.9.5,2.6,2,3.1,4.4,1.3,6.9-.8,6.9-6,.7-.2,1.5-.4,2.3-.7,5.8-2.4,11.8-4.5,17.4-7.3,2.4-1.2,4-3.7,6.5-6Z"/>
  <path class="cls-1" d="M369.6,264.6c-4.7-6.2-7.8-13.3-8.9-20.8-1.7-11.3-2.6-22.7-3.1-34.1-.4-8.2.3-16.5.5-24.8,0-2.4.6-4.3,2.9-5.9,4.3-2.8,3.9-6.9-.5-9.5-.9-.5-1.8-.9-3.1-1.5,6.7-3.4,13.6-5,20.6-5.8,9.9-1,19.8-.4,29.4,2.8,6.3,2.1,7.7,5.4,3.6,11-6.3,8.6-13.4,16.5-22.3,22.6-1.3.9-2.8,1.8-3.7,3.1-.7,1-.7,2.5-1.1,3.8,1.2.3,2.5.7,3.7.7.7,0,1.5-.4,2.2-.7,13.3,16.1,21.8,49.9,18.2,73.1-5.6-22.7-16.2-42.2-31.5-59.8.5-1.2,1.3-2.9,1.8-4.8.8-3-.5-5.2-3.4-6.2-3.1-1.1-7.5,0-8,2.5-.3,1.4.6,3.5,1.7,4.7,1.2,1.4,1.6,2.6,1.5,4.3-.8,10.5-1.6,21-2.1,31.5-.2,3.5.8,7.1,1.2,10.6.1,1.1.1,2.2.2,3.3h0ZM376.9,182.6c-2,2.7-4.2,5.1-5.9,7.9-1.9,3-.9,4.8,2.5,4.2,10.5-1.7,19.7-6.2,26.5-14.5,1-1.2,1.7-4.2,1.1-4.9-1.2-1.2-3.6-2-5.4-1.7-4.2.7-8.3,2.2-12.6,3.4.5-2.3.8-4.8-2.3-5.6-2.5-.7-7.3,1.9-8.4,4.6-1.6,4.2,2.3,4.9,4.5,6.6Z"/>
  <path class="cls-1" d="M285.7,203.7c2.3-.4,5.5-.7,4.9-4.1-.2-1.2-3-1.9-4.8-2.9,4.5-6.1,11-10.8,18.9-14.1-6.3,22.4-4.5,44.7-2,67.8-3.4-2.9-6.5-5.2-9.3-7.9-2.2-2.1-4.1-2.1-6.6-.6-6.1,3.6-11.9,7.6-16.4,13.1-1.7,2.1-2.8.7-3.9-.6-5.3-6.5-8.3-13.9-8.7-22.2-.4-8.5,0-16.9,0-25.4,0-2.1.9-3,2.8-4.1,2.4-1.4,4.7-3.4,6.2-5.6,2-3.1.3-5.5-3.4-5.7-1,0-2,0-3,0,1.6-9.3,18.6-25.5,27-26.3-2.3,6.1-4.6,12-6.7,18-4.4,13-8.4,26.1-9.1,39.9-.1,3,.2,6.2,1,9,1.1,3.9,3.5,4.7,7.1,3.1,4.7-2.1,7.1-5.8,7-10.9-.1-6.8-.6-13.6-.9-20.6Z"/>
  <path class="cls-1" d="M349.3,177.2c4.5,17.7,3.3,34.7-2.6,52.1-.9-1.8-1.4-3-2-4.2-5.2-10.3-17.1-12.2-25.2-3.9-4.2,4.3-6.4,9.7-7.6,15.5-.7,3.6-1.4,7.1-2.1,10.8-7.8-8.8-3.8-59.4,5.6-73.2,2.5,1.9,4.4,6.1,8.3,3.9,3.2-1.8,2.1-5.1,1.4-8.2,5.8-4.1,12.2-6.7,19.4-7.6-1.5,3.3-3.2,6.4-4.1,9.6-.6,2-.7,5,.4,6.2,1,1,4,.2,6.1,0,.7,0,1.3-.5,2.5-.9ZM330.5,189.8c-.5.4-.8.7-1.1,1-5.3,4.8-9.8,10.1-12.3,16.9-.4,1.2-.1,3.5.7,4,.9.6,3,.2,4.2-.4,2.9-1.5,2.9-3.6.4-5.7-.4-.3-.8-.7-1.6-1.5,8.2-1.1,14.6,2.4,21.5,5.3-.6-7.1-1.6-13.8-5.2-19.9-1.2-2-2.8-3.7-4.5-5.3-.6-.5-2.1-.8-2.7-.4-.5.3-.6,1.8-.5,2.7.2,1.1.8,2.1,1.2,3.3Z"/>
  <path class="cls-1" d="M199.3,169.1c7.1-3.6,14.4-4.2,22.2-2-12.1,22.8-12,46.6-6.4,70.8,1.4,6.3,3.2,12.4,4.8,18.6.3,1.2.4,2.4,0,4-2.6-3.3-5.4-6.5-7.8-9.9-10.9-15.5-16-33.1-18.5-51.6-.7-4.7-.8-9.6-1.3-14.3-.2-2.2.4-3.8,2.8-4.3.7-.1,1.3-.6,1.9-.9,5.7-3.1,6.3-5.4,2.4-10.3Z"/>
  <path class="cls-1" d="M369.5,264.7c.2,0,.4.2.1,0,.1.3,0,0,0-.1,0,0,0,0,0,0Z"/>
</svg>