<?xml version="1.0" encoding="UTF-8"?>
<svg id="Calque_1" data-name="Calque 1" xmlns="http://www.w3.org/2000/svg" version="1.1" xmlns:xlink="http://www.w3.org/1999/xlink" viewBox="0 0 500 500">
  <defs>
    <style>
      .cls-1 {
        fill: #75683b;
        stroke-width: 0px;
      }
    </style>
  </defs>
  <image width="710" height="410" transform="translate(-7942 -7992)" xlink:href="Omnium_Gatherum-1.png"/>
  <g>
    <path class="cls-1" d="M46.6,240c0,6.8,0,13.5,0,20.3,0,2.8,1.8,4.1,4.3,4.9h-9.6c3.6-.8,4.3-3.4,4.2-6.6-.1-5.6-.1-11.2,0-16.8,0-3.3,0-6.4-4.2-7.3h9.4c3.1,7.7,6.3,15.5,9.7,23.8,1.8-4,3.6-7.6,5.2-11.3,1.4-3.3,2.7-6.7,4-10.1.7-1.9,1.9-2.8,4.1-2.5,2.1.2,4.1,0,6.5.3-4.1.7-4.7,3.5-4.6,6.8.1,5.7,0,11.4,0,17.1,0,4.4.4,4.9,4.8,6.7h-13.8c4.8-1.1,4.2-5,4.2-8.6,0-5.7,0-11.3-.6-17.2-3.8,8.6-7.6,17.2-11.7,26.5-4-9-7.7-17.5-11.4-26-.2,0-.4,0-.6,0Z"/>
    <path class="cls-1" d="M179.7,265.2h-8.9c3.7-.9,4.3-3.5,4.2-6.8-.1-5.6-.1-11.2,0-16.8,0-3.4-.1-6.4-4.4-7.4,2.7,0,5.4,0,8.1,0,.7,0,1.6.8,1.9,1.4,3.1,7.3,6.2,14.6,9.5,22.5,2.7-6.3,5.2-12.3,7.8-18.3.6-1.5,1.2-3,2-4.4.3-.6,1.2-1.2,1.8-1.2,2.6-.1,5.1,0,7.9.2-4.2.7-4.6,3.6-4.5,6.9,0,5.6,0,11.2,0,16.8,0,3.3.4,6.2,4.3,7h-13.4c4.2-1.1,4.4-4.3,4.3-7.8,0-6,0-11.9-.6-18-3.8,8.6-7.6,17.2-11.7,26.5-4-9.1-7.7-17.5-11.4-26-.2,0-.3,0-.5,0,0,7-.2,14,.2,21,0,1.6,2.3,3,3.4,4.3Z"/>
    <path class="cls-1" d="M475,265.9c-4-9.1-7.7-17.6-11.4-26.1-.2,0-.3,0-.5,0,0,6.9-.2,13.8.2,20.7,0,1.7,2.3,3.2,3.3,4.5h-8.7c4.7-1,4.2-4.6,4.1-8.1,0-5.5,0-11,0-16.5,0-3.2-1-5.3-4.4-6.1h9.7c3.1,7.6,6.3,15.4,9.7,23.8,3.5-8.3,6.9-16.1,10.3-24h9.1c-4.9,1-4.2,4.9-4.2,8.4,0,5.4,0,10.8,0,16.2,0,3.1.9,5.4,4.4,6.2h-13.5c4.2-.8,4.4-4,4.3-7.4,0-6,0-12.1-.6-18.3-3.8,8.6-7.6,17.2-11.7,26.5Z"/>
    <path class="cls-1" d="M324.5,265.2c4-.8,4.3-3.7,4.3-7,0-5.7,0-11.4,0-17.1,0-3.2-.6-5.9-4.3-6.7h14c-8,2.6-3.6,8.9-5.1,13.7,5.8,0,11.2,0,16.5,0,1.5-7.7.4-11.3-4.3-13.7h13.7c-4.3.9-4.2,4.2-4.2,7.5,0,5.4,0,10.8,0,16.2,0,3.3.1,6.3,4.2,7.3h-13.4c4.4-1.1,4.4-4.6,4.4-8.1,0-2.4,0-4.9,0-7.5h-16.6c0,3.5,0,6.9,0,10.4,0,2.8,1.6,4.4,4.4,5.1h-13.5Z"/>
    <path class="cls-1" d="M420.9,265.3h-6.8c-4.1-5.1-3.8-13.8-12.6-15.7,0,4.2-.4,7.9.2,11.5.3,1.6,2.6,2.9,3.7,4.1h-13.7c4.4-1.5,5.1-4.6,5-8.2-.1-5.1,0-10.2,0-15.2,0-4-.9-5.6-4.6-7.5,5.5,0,10.8-.2,16,0,6.6.4,10.5,4.8,8.5,9.8-.9,2.3-3.3,4-5.2,6.1,3.4,4,3.9,11,9.5,15ZM401.5,235.1v14.3c6.6.5,10.2-2,10.2-7,0-5.3-3.4-7.8-10.2-7.3Z"/>
    <path class="cls-1" d="M83.2,234.3c2.4,0,4.8-.2,7.1,0,1,.1,2.1,1.1,2.9,2,5.1,6.3,10.1,12.7,15.2,19.1.4.5.9,1,1.7,2,0-6.5,0-12.3,0-18.2,0-2.7-1.6-4.2-4.2-4.9h9.6c-4.7,1-4.2,4.8-4.2,8.3,0,7.5,0,14.9,0,22.4-.3.1-.6.3-.8.4-7.1-8.7-14.1-17.5-21.8-26.9,0,2.3,0,3.9,0,5.5,0,4.8,0,9.5,0,14.3,0,3.3.7,5.9,4.4,6.8h-9.6c4.5-.9,4.2-4.4,4.2-7.8,0-5.3,0-10.6,0-15.9,0-3.3-.8-5.9-4.3-7.3Z"/>
    <path class="cls-1" d="M362.3,234.4h25.1v7.3c-1-3.3-2.5-5.9-5.8-6.3-3-.4-6-.4-9.2-.6v13.9c5.4.7,6.5-.1,8.2-5.1v12c-1-1.7-1.5-3.6-2.8-4.6-1.3-1-3.4-1.1-5.4-1.7,0,3.8,0,6.9,0,10.1.1,3.4,2.3,5,5.4,5.5,5.3.9,8.6-.9,12.1-7.1v7.6h-27.3c4.8-.8,5.1-4.3,5-8.2-.1-5.1,0-10.1,0-15.2,0-4.5-.9-5.8-5.2-7.4Z"/>
    <path class="cls-1" d="M240.3,234.2c-8.5,4.5-11.6,14.3-8.2,23.5,1.3,3.6,3.6,6.4,7.5,7.4,5,1.3,8.8-1.9,9.1-7,.2-3.6-2.4-3.5-4.9-4.6h13.9c-4.3.8-4.4,4.2-3.9,7.4.4,2.6-1.7,2.2-2.7,2.4-3.8,1.1-7.7,2.6-11.5,2.5-8.3-.2-13.1-5.1-14-13.3-.9-8.4,3.7-16.1,10.8-18,1-.3,2.2-.2,4-.3Z"/>
    <path class="cls-1" d="M300.4,265.2c3.4-.8,4.3-3.2,4.2-6.4,0-7.8,0-15.6,0-23.5-6.6-1.6-10.4.4-13.5,6.9.2-2.6.3-5.2.5-7.8h31.2c.2,2.5.3,5,.5,7.4-2.3-6.9-7.9-6.8-13.6-6.9,0,8.7-.2,17.2.2,25.7,0,1.7,2.2,3.2,3.2,4.6h-12.5Z"/>
    <path class="cls-1" d="M132.6,265.3h-13.8c3.9-.8,4.4-3.7,4.3-7,0-5.7,0-11.4,0-17.1,0-4.4-.5-4.9-4.8-6.7h14.2c-3.9.6-4.6,3.5-4.6,6.7,0,5.7,0,11.4,0,17.1,0,3.3.6,6.1,4.6,7Z"/>
    <path class="cls-1" d="M275.4,265.1c5-1.7,5.5-2.7,3.8-6.7-2.4-5.8-2.4-5.8-8.8-5.8-1.4,0-2.8.2-4.5.4.3-.9.7-1.8,1-2.5,2.8,3.1,6.3.7,9.8,1.9-1.6-4.1-3-7.7-4.4-11.3-.7.3-1.3.5-2.2.9,1.3-3,2.3-5.5,3.4-8,.3,0,.6,0,.9,0,.5,1,1,1.9,1.4,2.9,3.2,7.6,6.3,15.3,9.7,22.7,1,2.2,3,3.8,4.3,5.4h-14.3Z"/>
    <path class="cls-1" d="M422.6,234.4h13.4c-4,.8-4.3,3.7-4.3,7,0,4.2,0,8.4,0,12.7,0,9,.9,10.1,9.3,12.1-2.2-.1-4.4,0-6.5-.5-5.4-1-7.6-3.7-7.6-9.1,0-5.2,0-10.3,0-15.5,0-3.2-.8-5.6-4.4-6.6Z"/>
    <path class="cls-1" d="M135.7,234.4h13.4c-4.3,1-4.3,4.3-4.3,7.8,0,4.2,0,8.4,0,12.7,0,8.1,1.6,9.9,9.2,11.4-2.6-.3-5.3-.3-7.8-.9-4.1-1-6.1-3.7-6.2-8,0-5.3,0-10.6,0-15.8,0-3.3-.4-6.1-4.4-7Z"/>
    <path class="cls-1" d="M15.8,234.8c-10.5,9.9-7.4,27.5,2.3,30.5-3.4.6-8.5-2.2-11.3-6.2-3.7-5.2-4.2-10.7-1.2-16.4,2.1-3.9,4.9-7.1,10.2-7.9Z"/>
    <path class="cls-1" d="M22.4,265.8c11.7-7.7,13.2-23.6,2.8-30.4,4.2-1.1,10.7,5.1,11.9,11.4,1.8,9.3-4.9,18-14.7,19Z"/>
    <path class="cls-1" d="M162.3,262.8c.2-7.1.4-14.2.7-21.3.1-3.2-.3-6.2-4.2-7.1h9.6c-4,1-4.5,4-4.4,7.5.1,4.6.2,9.3,0,13.9-.1,2.3-1.1,4.6-1.6,6.9h0Z"/>
    <path class="cls-1" d="M449.3,262.8c.2-7.1.4-14.2.7-21.3.1-3.2-.3-6.2-4.2-7.1h9.6c-4,1-4.5,4-4.4,7.5.1,4.6.2,9.3,0,13.9-.1,2.3-1.1,4.6-1.6,6.9h0Z"/>
    <path class="cls-1" d="M252.9,243.4c-1.9-4.3-4.1-8.2-8.9-9.6,2.8.5,5.7,1.1,8.9,1.7v7.9Z"/>
    <path class="cls-1" d="M265.3,256.6c-.8,3.2-2.7,6.8,2.1,8.6h-9.1c2.2-2.7,4.5-5.5,7-8.6Z"/>
    <path class="cls-1" d="M162.3,262.8c-.1-.2-.2-.4,0,0-.1-.4,0-.2,0,0,0,0,0,0,0,0Z"/>
    <path class="cls-1" d="M449.3,262.8c-.1-.2-.2-.4,0,0-.1-.4,0-.2,0,0,0,0,0,0,0,0Z"/>
  </g>
</svg>