<?xml version="1.0" encoding="UTF-8"?>
<svg id="Calque_1" data-name="Calque 1" xmlns="http://www.w3.org/2000/svg" version="1.1" viewBox="0 0 500 500">
  <defs>
    <style>
      .cls-1 {
        fill: #75683b;
        stroke-width: 0px;
      }
    </style>
  </defs>
  <path class="cls-1" d="M108.1,350.1c-25.3-9.6-47.9-23.5-67.2-42.5-1.7-1.6-3.8-3.1-5.9-4-1.3-.5-3.1,0-4.5.5-.5.2-1.1,1.5-.9,2.1.2.7,1.2,1.1,1.9,1.7.5-.7,1.1-1.5,1.7-2.4.2.3.9,1,.8,1.5-.2.8-.8,1.7-1.5,2.1-1.4.8-3,.5-4-.8-1.1-1.3-1.1-2.9-.1-4.3,1.6-2.3,4.6-3.2,7.2-1.9,1.9,1,3.8,2.3,5.4,3.7,6.4,5.5,12.8,11.2,19.2,16.7.8.7,1.6,1.2,2.5,1.7.1-.1.3-.3.4-.4-.4-.5-.8-1-1.3-1.4-6.2-5.6-12.5-11.1-18.5-16.9-3.9-3.8-7.3-8.1-11-12-1.5-1.6-3.2-2.9-5.1-4-.7-.4-2.6,0-3.1.7-.5.7-.4,2.3,0,3.3.8,1.7,2.2,1.5,4-.4.2.1.3.2.5.3-.6.8-1.1,2.2-1.9,2.4-1.1.2-2.7,0-3.6-.7-1.7-1.3-1.6-4.8-.2-6.6,1.2-1.6,3.4-2,5.5-.4,1.9,1.4,3.6,3.1,5.2,4.9,4.6,5.1,9.1,10.3,13.6,15.4.5.6,1.2,1.1,2.2,1.5-.2-.4-.3-.8-.5-1.1-3.2-4-6.5-8-9.8-12-7.6-9.4-13.2-20-18-31.1-1.1-2.5-1.6-5.4-4.6-6.5.1-.1.2-.2.3-.3,2.5.6,2.9.1,3.1-2.8.2,0,.4,0,.6,0,0,1,0,2,0,2.9,0,.6-.4,1.4-.2,1.9,4.2,10.6,9.1,20.9,16,30.1.2.3.5.5.7.7,0,.2.2.5.2.7,0,0,.2,0,.3,0,0-.3,0-.6-.1-.9-4.4-8.5-7.7-17.4-10.3-26.6-2.4-8.5-5.3-17-8-25.4-1-3-1.9-6-3.2-8.9-.6-1.4-1.9-2.4-3.9-1.3.5.6.9,1.1,1.3,1.5,0,.1-.1.3-.2.4-.6-.3-1.6-.5-1.8-.9-.3-.7-.2-1.8.3-2.3.5-.5,1.8-.9,2.4-.6,1.2.7,2.6,1.7,3.2,2.9,1.3,2.7,2.2,5.6,3.1,8.5,1.3,4.3,2.5,8.6,3.7,12.9.3,0,.5-.1.8-.2-.6-3.6-1.2-7.2-2-10.7-1.4-7-2.6-14-4.3-21-.7-2.9-2.4-5.7-3.9-8.4-.4-.8-1.3-1.5-2.2-2-1.1-.7-2.2-.8-2.8.6-.5,1.2,0,2.1,1.3,2.4.3,0,.5.1.8.2,0,.2,0,.4.1.6-.8.2-1.8.9-2.4.6-.8-.4-1.8-1.4-1.9-2.3,0-1.1.3-2.9,1.1-3.3,1.2-.6,3.3-1,4.3-.3,1.7,1.1,3.5,2.9,4.2,4.8,1.8,4.6,3,9.4,4.3,14.1.4,1.4.7,2.8,1.3,4.2-.9-14.2-1.7-28.4-2.5-42.3-3.8-1.2-4.2-1.6-4.2-3.5,1,.4,2.2,1.5,3.3,1.3,1.9-.3,2-2.1,1.7-4.2,1.6,1.7,1.5,3,.6,4.6-.3.5-.7,1.3-.6,1.8,2.2,9.2,1.8,18.7,2.6,28.1,0,.4,0,.7.4,1.1.1-.7.4-1.3.4-2,.8-18.6,4.7-36.5,12.6-53.5,3-6.5,5.5-13.2,6.7-20.3.6-3.7.7-7.3-.3-10.9-1.9-7.3-9.4-11.4-15.7-8.7-5.4,2.4-7.9,10.4-4.9,15.4,1.7,2.9,5.7,4.5,8.9,3.6,3.4-.9,5.1-4.5,3.6-7.7-.3-.6-.7-1.2-1.1-1.8,1.7.5,2.8,2.2,2.9,4.5.2,3.8-1.8,6.9-5.1,7.9-3.6,1.1-7.9-.5-10-3.8-2.3-3.6-2.4-7.5-1.3-11.5,1.3-5,4.3-8.5,9.4-9.5,5.3-1,9.8.9,13,5.3,3.7,5,4.2,10.6,2.7,16.6-2.1,8.8-5.8,17.1-9.3,25.4-3.7,8.8-6.3,17.8-7.8,27.2-.1.5-.3.9-.4,1.4.1,0,.2,0,.3.1l.5-1.2c6.2-16.5,13.5-32.5,23.2-47.2,3.5-5.3,7.2-10.5,10.9-15.6,2.9-4.1,5.9-8.1,6.7-13.3.2-1.6-.2-3.1-1.9-3.9-1.5-.7-2.8-.2-3.8,1-.5.6-1,1.6-.8,2.3.3.9,1.1,1.7,1.7,2.5.7-.6,1.4-1.2,2.2-2,0,.4.6,1.5.3,2-.5.7-1.6,1.4-2.4,1.3-1.1-.2-2.5-.8-3.1-1.7-1-1.4-.1-4.5,1.2-5.9,1.4-1.4,3.1-1.6,4.9-.9,2,.8,3.5,2.8,3.1,4.8-.5,2.5-1.2,5-2.4,7.2-1.6,3-3.6,5.8-5.7,8.4-8.2,10.1-14.5,21.5-20.4,33.1.4-.5.9-.9,1.2-1.4,15.5-24.3,36.5-43.2,59.1-60.7,5-3.9,9.9-7.8,13.6-13,4.9-6.8,6.6-14.5,5.4-22.7-1.2-7.7-6-12.6-13.8-14.3-6.5-1.4-14.5,1.8-18.4,7.5-2.8,4.1-4.4,8.7-3.8,13.8,1,8.3,9.9,13.7,17.7,10.8,4.5-1.7,6.1-8.5,2.9-12.1-1.7-1.9-5-2.1-6.9-.4-.4.4-.8.8-1.2,1.2.2-2.5,1.9-4.4,4.5-5.2,2.1-.6,4.8.6,6.2,2.8,4.2,6.4.6,15.4-6.8,17.1-9.3,2.1-16.6-2.8-18.4-12.4-2.3-11.8,5.4-22.8,17.6-25.4,11.8-2.4,21.1,4.3,22.8,16.2,1.9,14-3.8,24.8-14.3,33.2-12.3,9.9-24.5,19.9-35.6,31.2-.4.4-.7.8-.9,1.5.6-.3,1.2-.5,1.7-.9,16.1-12.3,33.7-21.7,52.1-29.8,1.4-.6,2.3-1.1,2.4-2.9,0-1.4,1.1-2.5,2.7-2.8,0,.2.2.4.1.4-1.2,1.3-2,2.7-.8,4.3,1.4,1.9,3.3,1.5,5.2.8,0,0,.1.1.2.2-1.5,2.2-3.5,2.7-5.8,1.4-.6-.3-1.6-.5-2.2-.3-15.7,6.6-30.8,14.4-44.8,24.3-.5.4-1,.8-1.5,1.2,0,0,0,.3,0,.8,21.9-11.7,45-17.7,69.7-17.7-4.1.8-8.3,1.4-12.4,2.4-14.4,3.5-27.3,9.7-37.4,20.8-8.9,9.6-13.7,21.2-15.4,34-2.8,21.1,4.6,39.1,17.8,55,9,10.9,20.1,19.2,32.4,26,4.4,2.5,8.9,5,13.3,7.5,13-26,40-38.5,62.4-38.2.8-3.2.6-3.7-2.4-4.3-5.7-1.2-9.8-4.4-11.7-9.9-1.7-5.1-3.3-10.2-4.8-15.4-3.2-11.3-8.1-21.6-17.4-29.2-16.3-13.5-38.6-9.7-51.7,6.7-10.2,12.7-9.7,29.1.7,41,10.1,11.5,26.5,12.9,37.8,3.3,10.7-9.1,10.1-24.7-1.2-32.2-6.3-4.2-15.9-3.9-21.8.7-4.9,3.8-6.2,10.7-2.9,16,2.1,3.3,5.2,4.7,9.1,4.4,3.1-.2,5-2.1,5.2-4.7.2-2.5-1.3-4.3-4.2-5.2,2.3-1,4.3-.8,5.8.6,2,1.9,2.7,4.9,1.6,7.4-1,2.3-2.7,3.7-5,4.6-7.6,2.8-15.7-2.1-17.2-10.6-1.1-6.4,1.9-12.5,7.9-15.8,7.8-4.3,19.9-4.4,27.6,4.7,6.7,7.8,7.1,19.5.6,27.8-7.7,9.7-18,13.2-29.9,10.2-12.2-3-22.7-11.9-25.3-26.8-1.9-10.7,2.5-28.5,18-37,11.5-6.3,23.7-7.3,36.2-3.9,27.2,7.4,44.5,24.7,51.3,52.2.8,3.3,1,6.8,1.5,10.3.1.7.5,1.3.8,2,.3-.6.8-1.2.8-1.9,1.5-18.2-2.6-34.9-13.4-49.7-12.8-17.6-30.1-27.4-51.8-29.5-1.6-.2-3.2.1-4.9.3-1.5.1-3.1.3-4.7.1,1.8-.8,3.6-1.4,5.4-2.3,4.5-2.4,9.1-4.8,13.5-7.5,5.4-3.4,9.6-8,12.9-13.6,2.8-4.8,5.7-9.6,8.6-14.3,1.7-2.8,2.8-3.4,5.1-3.8-3.8,5.6-3.5,11.5-1.6,17.5.6,2,2.1,4,3.7,5.3,4.1,3.4,8.2,7,12.9,9.6,9.5,5.3,18.3,11.5,26.1,19.1,0,.1.2.2.3.3.3.2.5.4.8.6.1,0,.2.2.3.3,0,0,0-.1,0-.2-.1,0-.3,0-.4,0-.1-.3-.2-.6-.3-1,0-.2-.2-.4-.3-.6-4.2-6-8.4-12-12.8-18-3.8-5.3-7.8-10.5-9.3-17-1.8-7.7,1.9-18.6,13.5-19.7,5-.5,9.2,1.7,12,5.9,2.7,4.1,3,8.7.8,13.1-2.8,5.7-11.3,7.4-16.3,3.6-4.2-3.2-4-11,.4-13.9,2-1.4,4.2-1.1,6.3-.2,1.8.8,2.5,2.4,2.6,4.3.1,1.8-.7,3.1-2.3,4-1.8,1-2.9.5-3.6-1.7.2,0,.4-.1.6,0,1.6.6,2.9.5,3.3-1.4.4-1.8-.7-2.8-2.3-3.3-2.6-.8-4.6.3-5.6,2.9-1.8,4.9.9,9.1,6.1,9.4,5.2.3,8.2-1.4,9.5-5.2,1.6-4.7,0-10-4-12.6-4.3-2.9-8.9-3-13.4-.4-4.6,2.7-5.8,7.1-5.6,12,.2,4.8,1.9,9.1,4.7,13,5.8,8.2,11.8,16.4,17.8,24.6,4.5,6.2,9,12.5,13.5,18.8.4.5.7,1,1.1,1.4.2,0,.3-.1.5-.2-.9-2.4-1.9-4.8-2.7-7.2-.9-2.7-1.9-5.5-2.5-8.3-.5-2.7,1.3-4.8,3.8-5.2,2.9-.4,5.6,1.1,6,3.7.2,1-.3,2.4-1,3.1-.5.5-1.9,0-3.2,0,1.3-.8,2.2-1.3,3-1.8-1-1.1-1.9-2.6-3.1-3-1.5-.5-3,.5-3.4,2.1-.3,1-.3,2.2,0,3.1,3,8.3,6,16.6,9.1,24.9,0,.2.2.4.3.5.2,0,.3-.2.5-.2-.6-2.4-1.3-4.8-1.7-7.2-.4-2-.7-4.1-.6-6.1.3-3.1,2.8-4.9,5.8-4.4,2.7.4,4.4,2.7,3.8,5.6-.2,1-1.2,2-2.1,2.6-.5.4-1.6,0-2.4-.4,1.6-.5,3.3-.7,3.1-2.9-.2-1.9-1.5-2.6-3.2-2.9-1.7-.2-3.5,1.1-3.4,3,.1,3.3.4,6.8,1.4,10,5.1,16.4,8.7,33.1,9.6,50.3.2,4.3.5,8.6,1.2,12.9.1-1.9.5-3.7.4-5.6-.3-8.6-.6-17.1-1-25.7-.3-6.7-1.6-13.4,0-20.1.7-3.2,1.9-6.6,3.8-9.3,5-7.3,14.2-6.6,18.6,1,3.5,6.2,2.6,12.2-2.3,15.8-2.7,1.9-6.4,1.8-8.8-.3-2.5-2.1-3.1-5.9-1.6-8.7.8-1.4,2-2.4,3.6-2.1,1.1.3,2.1,1.2,2.8,1.7-1.5.6-3.1.7-3.9,1.6-1.3,1.5-.9,4.4.4,5.7,2.3,2.3,6.4,1.9,8.2-.8,3.1-4.6,1.4-12.5-3.4-15.4-4.7-2.9-10.6-1-13.7,4.4-2.1,3.6-3,7.6-2.9,11.6.2,7.4.9,14.8,1.3,22.2.9,15.2,0,30.3-2.8,45.2-1,5.1-2,10.2-3,15.4,0,.5-.2.9-.3,1.4.1,0,.2,0,.3,0l.4-1.1c.9-3.7,1.8-7.4,2.7-11.1.6-2.7,1.4-5.3,3.5-7.3,2.3-2.1,5.6-2.3,7.4-.2.8,1,1.4,2.7,1.1,3.8-.4,1.2-1.8,2.3-3,2.9-.7.3-2.1-.5-2.9-1.1-.3-.3.3-1.6.5-2.2.9.7,1.5,1.3,2.1,1.8.5-.6,1.3-1.2,1.4-1.9,0-1.3-.5-2.8-2.1-2.6-1.3.2-3,.9-3.7,1.9-1.2,1.6-2,3.6-2.5,5.5-.8,3.1-1.2,6.2-1.7,9.3,1.2-.5,2.5-1.2,3.8-1.4,2.5-.5,5,1.2,5.4,3.6.4,2.3-1.1,4.4-3.6,4.9-1.5.3-2.6-.2-3.1-1.5-.6-1.4.5-2,1.6-2.6h0c.3.8.6,2.2,1,2.3,1.3.2,2-.8,2.1-2.1,0-1.5-.5-2.7-2.1-2.5-1.3.1-2.9.5-3.8,1.4-1.7,1.6-3.2,3.6-4.3,5.6-5.8,11-11.3,22.1-18.8,32.1-1.8,2.4-3.8,4.6-5.7,6.9-.2.2-.4.4-.5.6,0,0,.1.2.2.2.2-.2.4-.3.7-.5,6.7-3.9,13.5-7.7,20.1-11.7,2.4-1.4,4.5-3.2,4.7-6.4.1-1.9-1-2.9-2.3-2.2-.5.3-1.1,1-1.1,1.4,0,.6.7,1.1,1.3,2-.5,0-1.4.4-1.8,0-.6-.5-1-1.4-1-2.1,0-1.4,2-3.3,3.4-3.3,2.1,0,2.5,1.5,2.8,3.1.4,2.4-.4,4.4-2.2,5.9-2.1,1.7-4.3,3.1-6.6,4.6-2,1.3-4.1,2.5-6.1,3.8-.2.1-.5.2-.7.3,0,0,0,.2,0,.3.3,0,.6-.1.9-.2,9.5-4.2,19.2-7.8,29.5-9.8,3.3-.6,6.7-1.1,10.1-1.5,1.4-.1,1.8-.6,1.8-1.9,0-3.2,0-6.3,0-9.8-4.4.5-8,2.4-11.1,4.7,1.1-4.6,2.2-9.4,3.3-14.3,2.2.5,4.8,1.2,7.8,2v-2.5c0-14.2,0-28.3,0-42.5,0-6.4-2.9-8.9-9.3-7.8-1,.2-1.9.4-3,.6.6-2.4,2.1-3.8,4.3-4.4,3.1-.7,4.3-2.7,4.4-5.6.1-2.5.3-5.1.5-8,4.7,6.4,10.3,11.5,17.5,13.7-.6,1.7-1.6,3.2-1.7,4.8-.2,4.4,0,8.7.2,13.2.7-1.7,1.2-3.4,2-5,.9-2,1.7-4.2,3.1-5.8,4.6-5,5.3-11.2,5.7-17.5,0-.7,0-1.4.2-2.1,0-.3.3-.6.7-1.6.7,1.2,1.4,1.9,1.6,2.8.4,2.7.9,5.5.8,8.2-.2,6.7,2.3,12.4,5.7,17.9,7,11.4,8.8,23.7,5.8,36.7-.6,2.6-2.1,5-3.1,7.5-.2,0-.4-.1-.6-.2.3-2.3.7-4.6.9-6.9.8-8.7-.8-16.7-6.5-23.7-4.3-5.3-7.8-11.1-8.9-18.4-.6.9-1,1.4-1.4,2-4.1,6.8-6.1,14.1-6.3,22-.2,7.4,0,14.7,0,22.1,0,.8.6,1.9,1.3,2.3,8.2,5.6,16.9,7.3,26.1,2.2-1.1,3.2-8.2,7.6-12.6,8.1-4.6.6-6.9,0-14.8-3.7v10.6c3.5.4,7,.8,10.4,1.3,15.5,2.5,30.2,7.7,44.5,14.1,10.6,4.8,21.2,9.7,31.8,14.4,6.1,2.6,12.6,3.5,19.1,1.9,5.6-1.4,9.8-4.6,11.3-10.6.6-2.5-.1-4.6-1.9-6.4-4.5-4.7-14.5-6.5-20.4-3.7-2.5,1.2-4,3.2-4,6,0,2.7,1.5,4.6,3.9,5.5,1.9.7,3.9,1.1,5.9,1.2,2.9.2,4.5-1.1,4.8-3.1.2-2-.6-2.9-3.6-3.8,2.5-1.1,4.2-.7,5.3,1,1.3,2.1.8,4.7-1.1,6.3-4.7,3.7-15.2,1.3-17.7-4.1-1.7-3.6-.5-7.4,3-9.8,4.4-2.9,9.4-3.3,14.5-2.8,3.7.4,7.2,1.6,10.2,3.9,4.3,3.3,5.6,7.9,3.4,12.8-2.7,6.1-7.8,9-14.1,9.9-9.7,1.4-18.6-1.4-27.3-5.3-10.5-4.8-21-9.8-31.6-14.3-5.7-2.4-11.8-4-17.7-5.9-.7-.2-1.4-.3-2.1-.3,5.6,3.1,10,7.5,14.2,12.2,2,2.2,4.4,4.2,6.9,6,1.1.8,2.7,1.2,4.1,1.2,1,0,2.2-.8,2.9-1.6.3-.4,0-2-.6-2.4-.8-.5-2.1-.3-3.5-.5.9-.5,1.7-1.3,2.5-1.3,1,0,2.5.8,2.7,1.5.3,1.3.4,3.3-.4,4-1.1,1-3,1.5-4.6,1.5-2.9,0-5.3-1.5-7.3-3.4-1.8-1.6-3.5-3.3-5.1-5.1-9.9-11-22.7-15.9-37.2-17.1-.4,0-.8,0-1.4,0,0,10.3-.5,20.5,1.7,30.5.5,2.1,1.6,3.9,2.5,6-7.5,3-10.3,10.1-12.2,17.5-1.3,5-1.8,10.3-2.6,15.4,0,.5-.1,1.1-.2,1.6-.2.1-.4.2-.6.3-.4-.5-.9-1-1.1-1.6-.2-.4,0-1,0-1.5,0-22,0-43.9,0-65.9v-2.7c-4.4.7-8.7,1.1-12.9,2-20.1,4.4-38.2,13.4-54.8,25.4-.1,0-.2.2-.3.3-.2.1-.3.2-.5.3-.2.1-.4.3-.6.4,0,0,0,.1.1.2.2-.1.5-.2.7-.4.2,0,.4-.1.6-.2,4.7-2.4,9.4-4.8,14.1-7.3,4.6-2.5,9.5-4.4,14.7-5.1,4.5-.7,9.1,1.6,11.6,5.8,2.6,4.3,2.2,10.2-.8,14-2.8,3.6-8.1,5.3-12.4,4.1-4.6-1.3-7.3-6.4-6.2-11.3,1.1-4.6,5.3-7.3,10.2-6.3,2.7.5,4.3,2.8,4.1,5.6-.2,2.1-1.5,3.2-4,3.2.5-.6,1-1.1,1.4-1.7,1.2-2,.5-3.9-1.7-4.7-2.3-.8-4.6-.3-6,1.4-1.7,2-2,4.2-.8,6.5,2,3.8,5.4,5.5,9.5,4.6,3.7-.8,6.7-4.5,6.8-8.5,0-6.3-2.6-9.6-10.4-10.1-4.5-.3-8.9,1-12.9,3-9.7,4.8-19.4,9.8-29.1,14.7,1.2.1,2.4.1,3.6.5,1.5.5,3.1,1,4.4,1.9,2.3,1.7,2.9,5.3,1.5,7.5-1.6,2.6-5.2,3.7-7.8,2.5-1.7-.7-2.4-2.1-2.5-3.9,0-1.5.2-3,1.8-3.5,1.2-.3,2.7-.3,3.8.2,1.5.7,1.8,2.2.8,3.6-.8,1.1-1.9,1.8-2.9.6.6-.7,1.1-1.2,1.7-1.8-.6-.4-1.2-1.2-1.9-1.2-1.3-.1-1.9.7-1.9,2,0,2.8,2.8,4.5,5.4,3.1,1.7-.9,2.8-2.3,2.8-4.4,0-2.3-.9-4-3-5-3.4-1.7-6.9-.9-10.4-.2-1,.2-2,.7-3,1-1.5.4-2.4,1-2.9,2.8-.8,3.3-4.9,4.6-7.5,2.5-1.4-1.1-2.4-1.1-4-.3.9,1.1,1.8,2.3,2.7,3.4,7.7,9.9,13.3,20.7,15.4,33.1,5.6,33.3-15.1,56-41.5,60.2-19.3,3-36.9-2.3-49.4-18.5-16.7-21.7-8.6-50.5,6.8-63.1,5.2-4.3,11.2-6.7,17.7-8.5-1.3,0-2.7,0-4,0-1.4,0-2.8,0-4.2,0-8.5-.3-17-.5-25.5-.8-2.6,0-5.2-.2-7.8,0-.9,0-1.9.8-2.7,1.5-.4.4-.6,1.4-.4,1.8.3.6,1.2,1,1.9,1.2.4,0,.9-.5,1.4-.8-.3-.5-.6-1-1.2-1.9.9.2,2.2.3,2.3.5,0,.9,0,2-.4,2.6-1.3,1.5-3.6,1.4-4.9,0-1.3-1.5-1.1-3.6.7-4.8,2.4-1.7,5.2-1.7,8-1.5,2.3.2,4.6.5,7,.7.7,0,1.4,0,2.1-.4-3.3-.4-6.7-.7-10-1.2-6.2-.9-12.3-2.1-18.4-2.8-2.4-.3-5.1,0-7.4.7-2.3.7-2.9,3.2-1.4,4.5.6.5,1.6.8,2.4.8.4,0,1.2-.9,1.1-1.2-.2-.7-.9-1.2-1.7-2.2,1.2.2,2.8,0,3,.5.4,1,.4,2.4,0,3.3-1.1,1.9-3.7,2.3-5.4,1.1-2-1.4-2.6-4.8-.9-6.6,1.1-1.2,2.7-2.1,4.2-2.5,4.1-1.2,8.1.3,12.1,1,.9.1,1.8.3,2.8,0-.4-.2-.8-.5-1.2-.6-8.9-2.8-17.2-6.6-25.4-11.1-7-3.9-14.2-7.3-22.2-8.6-1.8-.3-3.9-.3-5.6.2-5.1,1.3-7,8.3-3.6,12.2,1.7,2,5.3,2.6,7.8,1.3,2.1-1,2.9-3.2,2.2-6-.3-1.3-.8-2.5-2.4-2.5-1.6,0-2.6.5-2.9,2.1,0,.2-.2.3-.4.5-1-2.6-.6-4.1,1.3-5,2.6-1.2,5.3-.4,6.6,2,1.6,3.1,1.3,6.2-.8,9-2.2,3-5.3,3.8-8.9,3.2-5.3-1-8.3-6.7-6.3-11.8,2.2-5.5,8.1-8.7,14-7.3,8.6,2,16.5,5.8,24.3,9.7,10.6,5.3,21.5,9.5,33.1,12.4.4,0,.9.1,1.3.2,0,0,0-.2,0-.3-.3-.1-.7-.3-1-.4ZM105,285.7c0,0,.2.2.3.2,0,0,0-.2,0-.3,0,0-.2,0-.3.1,0-.2,0-.5,0-.7-3.3-4-5.8-8.8-11.3-10.4-.2.2-.3.4-.5.6,3.8,3.4,7.6,6.7,11.5,10.1.2.1.3.3.5.4ZM81.5,131.4c-.2,0-.5.2-.7.3,0,0,0,.2,0,.2.3,0,.6-.1.9-.2.2-.2.5-.4.7-.6,0,0-.1-.2-.2-.3-.3.2-.5.4-.8.6ZM134.1,294.5c1.7.2,2.5-.8,3.5-2-2.4-1.1-2.4,1.3-3.5,2,0,0,0,0,.1.1,0,0,0,0,0,.1,0-.1-.1-.2-.2-.3ZM116.9,301.9c0,0-.2-.2-.3-.2,0,0,0,.1,0,.2.1,0,.2,0,.3,0-.3,2.9,2.3,2.3,3.8,3.6-.1-2.9-2.2-2.9-3.8-3.6ZM115.4,311.5c-1.6,1.3-4.6,1.2-4.4,4.4,2.6-.2,2.9-.4,4.6-4.3,0-.1.1-.2.2-.3-.1,0-.3.1-.4.2ZM142.5,319.4c.1,0,.2-.2,0,0,.2-.2,0-.1,0,0,.7.9,1.5,1.8,2.2,2.7,3.7,4.4,8.3,7.4,13.8,9,0,0,0,.2,0,.3,0,0,.1-.1.2-.2-.1,0-.2,0-.3,0,0-.2,0-.4-.1-.6-4.1-4.9-9.4-8.3-14.9-11.4-.2-.1-.6,0-.9.1ZM176.8,364.3c0,.1,0,.2.1.3,0,0,0-.2.1-.2-.1,0-.2,0-.3,0-1.6-2.7-3.1-5.4-4.7-8.1-.1-.2-.7-.4-1.1-.3-3.9.4-7.9.9-11.8,1.4.9.5,1.8.6,2.7.9,5,2,10,4.1,15,6.1ZM110.5,295.1c.1,0,.2.2.4.2,0-.2,0-.3,0-.5-1-1.3-1.9-2.7-3.1-3.8-1.7-1.6-3.8-2.8-5.5-4.3-4-3.6-7.9-7.2-12-11-.5.5-1.2,1-2,1.7,2,1.9,3.7,3.8,5.7,5.3,5.5,4.2,11.1,8.2,16.6,12.3ZM113.5,301.9c0,0,.2.2.2.3,0-.2,0-.3,0-.5-.8-.9-1.3-2.2-2.3-2.8-8.2-4.8-15.6-10.6-22.6-17.1-.6-.6-1.2-1.1-1.8-1.7-.2,0-.4.2-.6.3.3,1.2.3,2.7.9,3.7,1.3,2,2.6,4.1,4.4,5.6,6.3,5.5,13.9,8.9,21.6,12.2ZM137.8,310.9c0,0,.2-.1.3-.2,0,0,0,0-.1-.1,0,.1-.1.2-.2.3,1.1,3,3.6,4.4,6.3,5.8,6.9,3.6,13,8.1,17.9,14.3.9,1.2,2.2.9,2.9-.5.8-1.8,0-4.4-1.6-5.6-7.4-5.3-15.3-9.9-23.5-13.7-.6-.3-1.3-.2-1.9-.3ZM147.1,328.2c-.2-.1-.5-.2-.7-.4,0,0,0,.1-.1.2.2.2.4.3.5.5,2.5,2.8,4.7,5.8,5.7,9.6.1.5.8,1,1.2,1.3,5.3,3.5,10.6,7,15.9,10.5,0,0,.3,0,.8,0-.2-.6-.2-1.3-.5-1.8-1.6-2.8-3.2-5.5-4.8-8.3-1.8-3.1-3.7-5.9-7.9-6.1-1.2,0-2.4-.8-3.5-1.4-2.3-1.3-4.5-2.6-6.7-4ZM68.8,170.9c-2.9,5.7-4.5,11.9-5.4,18.2-2.3,16.3,0,32.2,5.3,47.6,4.5,13,11.2,24.7,20.9,34.5.6.6,1.5,1.3,2.2,1.2,3.1-.4,5.5.8,7.7,2.7,1.3,1.1,2.6,2.3,3.8,3.4-.2-.5-.6-1.2-.8-1.9-.8-2.5-1.7-4.9-2.2-7.4-.2-1.2-.6-1.8-1.6-2.4-5.3-3-10.1-6.8-14.1-11.4-14.6-16.4-19.9-36.1-20.2-57.5-.1-9.1,1.9-18,4.5-26.7,0-.3.1-.6.2-.9,0,0-.2,0-.3,0,0,.2-.2.5-.2.7ZM180.4,160.1c-.3,0-.6,0-1,0,0,0,0,.2,0,.3.2,0,.5.1.7.2,10.8,8.8,16.9,20.4,20.2,33.7,1.3,5.1,2.9,10,4.7,14.9.6,1.6,1.7,3.1,3,4.2,3.1,2.4,6.8,3.2,10.6,3.8,2.3-19.8-16.4-47.5-38.2-57ZM212.1,297.2c3.4,1.4,5.3,0,5.2-3.8,0-2.4-1.7-4.6-4.1-5.5-4.6-1.7-9.7,1.8-9.9,6.8-.4,9,6.2,15.2,15.2,13.9,9.6-1.4,16.2-6.9,19.5-15.9,5.4-14.9,1.6-28.1-8.1-39.9-3.3-4-5.4-8.1-4.3-13.4.3-1.4.4-2.8.6-4.3-1.4-.4-2.6-.7-4.2-1.1-5,23.3-20.7,37.7-40.2,48.9,15.6,17.6,15.7,40.5,2.5,57.3,2,1.9,4.1,3.7,6.2,5.7,2,2,4.7,1.6,6.1-1,1.1-2.1,3.2-3.4,5.4-2.7,1.9.6,3.3,0,4.7-.8,1.2-.7,2.4-1.2,3.5-1.9,11.5-6.7,21.9-14.7,29.3-25.9,10.3-15.8,13.9-33.4,12.5-52-.8-10-4.2-19.2-11.1-26.7-3-3.3-6.5-6-10.9-8,.3,1.5-1.2,2.8.6,4.1,6.5,4.6,10.8,10.8,13,18.3,5.3,17.8,1.9,34.4-7.3,50-3.5,6-9,9.6-16,10.9-10.6,1.9-19.5-5.8-18.4-16.2.7-6.3,4.5-9.5,10.6-8.8,5.3.6,8.8,7.1,6,11.8-.7,1.1-2.4,2-3.7,2.2-.8.1-1.8-1.3-2.7-2h0ZM101.9,131.8c-10.4,6.9-18.4,16-24.5,26.9-9.5,17-12.4,35.2-9.3,54.3,2.1,13,6.5,25.1,14.4,35.8,4.9,6.7,11,12.1,18.3,16.1,3.1-4.6,7.4-5.3,11.5-1.6,1.8,1.6,3.4,3.7,4.4,5.9,2.4,5.3,4.5,10.8,6.4,16.3.6,1.8,1.4,2.8,3.2,3,3,.3,4.8,1.7,5,4.8,0,0,.2.1.5.4,1.2-4.7,4.5-4.6,8-3.9,1.3,4.3-1.7,6-5.4,7.8,3.9.2,4.7,2,4.4,4.8,0,.5.7,1.4,1.4,1.7,3.3,1.7,6.7,3.2,10.1,4.9,5,2.4,10,5.2,12.9,10,2.9,4.8,7.1,8.1,11.3,11.6,1.1.9,2.1,1.9,3.2,2.8,1.2,1.1,2.5,2.2,3.8,3.5.5-.9.9-1.6,1.2-2.3,7.6-15.8,4.1-35.5-8.6-47.7-.5-.4-1.5-.6-2.2-.5-7,1.4-13.7.6-19.6-3.6-1.2-.8-2.4-2.2-2.8-3.5-.9-3.6-1.3-7.3-1.9-10.9,0-.5-.6-.8-1.3-1.1-7.9-4.3-15.9-8.3-23.5-13-13.3-8.3-24.8-18.6-33.1-32.1-13-21.1-15.1-43.3-5-66.2,4.1-9.3,10.4-16.9,17.7-23.9,0-.2.2-.4.2-.6-.3,0-.5.2-.8.3ZM113.5,309.5c-3-.8-5.1-1.9-4.9-5.1,0-1.7-1-2.3-2.4-3-3.9-2-7.9-3.9-11.5-6.4-3-2.1-5.8-4.8-8.2-7.6-2-2.3-2.8-5.3-2-8.6.2-.6-.3-1.5-.8-2.1-3.6-4.9-7.7-9.4-10.9-14.6-8.2-13.5-12.4-28.4-14.4-44-2.7-21.7,1.7-41.9,13.7-60.3,9.8-14.9,23-26.2,38.4-35,.6-.4,1.3-.8,1.9-1.2-1.1-.2-2.2-.1-3.1.2-13.9,5.4-26.5,13-37.3,23.4-13.1,12.6-21.6,28.1-27.8,44.9-7.3,19.8-9.9,40.1-5.5,60.9,5.2,24.8,16.1,46.9,32.9,65.8,24,27.2,54.1,39.9,90.5,36.7,1.9-.2,3.8-.5,5.5-2.6-5-3.2-9.9-6.3-14.9-9.4-1.4,4.6-3.3,5.8-7.7,5-1.6-.3-3.4-.8-4.7-1.7-2.3-1.5-4.4-3.3-6.3-5.3-4.7-4.9-7.6-10.8-9.6-17.2-.3-.9-1-2-1.8-2.2-3-.8-5.3-2-5.3-5.6,0,0-.1,0-.4-.3-1.2,4.6-4.9,4.3-8.3,4.6-1.2-4.5.1-7.7,4.9-9.4ZM165.3,398.9c-3.3-4.9-8-8-13.8-8.5-3.4-.3-6.8-.6-9.8,1.7-1.4,1.1-1.8,2.1-1.1,3.9,3.1,7.4,15.1,15.1,25.8,10.3,10.7-4.9,16.9-16.3,14.9-28.5-.2-1.3-.6-2.7-1.5-3.6-9.3-9.4-20.3-13.9-33.4-10.5-15.1,3.9-25.1,13.2-28.5,28.8-3.4,15.5,1.4,28.6,13.2,38.6,11,9.3,24.1,12,38.2,9.7,33.9-5.6,43.2-34.1,39.4-57-2-11.9-8.3-22-15.6-31.4-.4-.5-1.3-.8-1.9-.6-.5.1-1.1.9-1.3,1.5-1,3.7-5.3,5.1-7.8,2.4-1.1-1.2-2-1.4-3.4-1-.8.2-1.6.4-2.5.6,1.6,3.9,3.1,7.7,4.7,11.4.5,1.1,1.1,2.1,1.8,3,8.5,9.8,12.5,21,9.6,33.9-2.1,9.3-7.1,16.5-16.4,19.9-6.5,2.3-13.2,2.4-19.9,1.3-12-2-19.6-9.4-22-21.3-.6-3.2,0-6.2,1.3-9.1.3-.7.5-1.5.5-2.2-.5-5.3.8-10.1,3.9-14.4,3.6-4.8,10.4-6.9,15-4.8,3.6,1.7,5.9,4.5,7,8.3-4.2-4.9-9.3-6.7-15.4-4.1-4.5,1.9-7.2,6.9-6.9,12.3,4.8-3.2,9.9-3.2,15.1-1.2,5.1,2,9,5.3,10.7,10.6ZM253,288.7c.3,0,.5,0,.5,0,.2-.3.4-.6.5-.9,3.6-9.9,5.8-20.1,6.5-30.6,1.4-23.3-3.1-45.6-12.7-66.8-7.3-16.1-17.2-30.4-31.3-41.4-11.9-9.3-25.2-14.6-40.5-14.8-2.9,0-5.8.7-8.8,1.1,19,4.7,34.1,14.8,45.1,30.6,11,15.8,15,33.6,12.9,52.7,1.4.3,2.6.5,4,.8v-7.6c2,.8,3.8,1.6,5.7,2.4,0-1.6.1-3,.2-4.6,2.5.8,4.8,1.6,7,2.3-.5,2.6-.9,4.9-1.4,7.2-1.3-.6-2.4-1.2-4-2,.2,2.8.3,5.1.4,7.4-2.1-.9-4.2-1.9-6.3-2.8-.8,2-.2,2.8,1.6,3.7,2.7,1.3,5.3,2.8,7.5,4.7,9.9,8.1,13.7,19.3,14.9,31.5.9,9.2.3,18.3-1.9,27.3ZM220.4,234l-.6-.3c-.3.6-.7,1.1-.9,1.7-2.9,9.8-8.8,17.5-16.9,23.5-1.8,1.4-4,2.5-6.2,3.2-4.7,1.5-8.2-.5-9.2-5.3-.3-1.3-.9-1.5-2-1.7-4.4-.9-6.7-4.1-5.7-8.5.5-2.1,1.5-4.2,2.8-5.8,1.8-2.1,4-4,6.3-5.6,7.6-5.4,16-8.3,25.4-8.5.1-1.2.3-2.4.4-3.6-23.1-1.9-54.5,17.5-60.8,37.4.9.6,1.8,1.2,2.8,1.8,7.8,5.1,15.4,10.6,22.1,17.1,1.3,1.3,2.3,1.4,3.8.6,18.6-8.9,30.6-23.5,37.6-42.6.4-1.1.7-2.3,1.1-3.5ZM183.1,379c0,.8,0,1.5,0,2.3-.1,6.4-1.2,12.5-4.3,18.2-3.7,6.7-8.9,11.8-16.9,12.4-9.8.8-17.3-3.5-22.9-11.5-.4-.5-.7-1.1-1.1-1.6-.5,1.6-.8,3.1-.4,4.5,1.8,7.3,6,12.7,12.9,15.8,5.3,2.4,10.9,3,16.6,2.5,8-.7,14.6-4.1,18.5-11.4,5.9-10.8,3.8-21.2-2.5-31.2ZM242.6,279.4c5.8-16.1-1.3-41.8-13.4-47.4-1.8,8.7-1.2,11.5,4.1,18.5,1,1.3,1.9,2.7,2.8,4,2.4,3.2,3.8,6.9,4.5,10.9.7,4.8,1.4,9.7,2,14.1ZM213.1,227.9c-1.6.2-3,.2-4.3.4-9.7,1.3-17.9,5.5-24.4,12.8-1.4,1.6-2.5,3.8-3.1,5.9-.8,3.4,1.2,5.4,4.9,5.5.7-4.4,2.9-8.2,6.2-11.2,5.1-4.6,11.1-7.5,17.8-8.7,1.3-.2,1.8-.8,2.1-1.9.2-.8.4-1.6.7-2.8ZM125.3,315.9c1.5,6.3,3.5,12.2,7.1,17.4,2.6,3.7,5.3,7.4,9.6,9.4,1.8.9,4,1,6.1,1.2.6,0,1.6-.9,1.9-1.6.7-1.4.3-2.5-1.3-3.2-7.8-3.7-14-9.1-17.2-17.3-1.2-3-3.3-4.6-6.1-6ZM189.2,255.6c.8,3.4,3.1,5,6.5,4,1.9-.5,3.7-1.4,5.3-2.6,7-4.9,11.9-11.4,14.9-19.4.5-1.3.9-2.7,1.5-4.3-1.8.4-3.5-.6-4.4,1.8-4.1,11.1-12.8,17-23.7,20.5ZM189.2,253.1c10.5-2.8,17.4-9.3,22-18.9-8.6.6-22.5,11-22,18.9ZM180.4,339.3c-4.3-3.8-8.3-7.4-12.6-11.1-.5,2.7-.8,5.1-3.2,5.9,2.8,4.6,5.5,9,8.3,13.7,2.4-2.7,4.8-5.4,7.5-8.4ZM122.2,291.1c-.4-1.4-.6-2.7-1.1-3.8-2.5-6.3-5-12.5-7.7-18.7-1-2.3-2.9-4-5.4-4.8-1.8-.6-3.4-.4-4.4,1.4-.2.4,0,1.4.2,1.7,6.7,5.4,10.9,12.5,14,20.3.8,2,2.1,3.1,4.2,3.9ZM62.3,223.7c-.5,13.2,14.5,45,24.2,51.8.6-.6,1.3-1.2,2-1.8-13.9-14.1-21.9-31.1-26.2-50ZM170.5,283.4c-6.1-5.4-12.4-9.6-19.3-13.4.2,3.6,0,7.2,2.7,9.4,4.6,3.8,10.3,4.6,16.7,4ZM188.8,348.7c0-.1.1-.2.2-.3-2.2-2.1-4.4-4.2-6.5-6.2-2.9,2.3-5.8,4.7-8.9,7.2.4.8.8,1.7,1.3,2.5.8-.2,1.4-.3,2-.4,2-.4,4.1-.5,5.5-2.6,1-1.3,2.8-1.6,4.5-.9.6.2,1.3.4,1.9.7ZM149.3,336.4c-3.5-6.7-9-10.7-15.2-14.9,3.1,7.3,8.1,11.9,15.2,14.9ZM102.6,269.4c1.6,7.4,6.2,12.1,11.6,16.7-.6-4.3-7.2-13.7-11.6-16.7ZM130.5,312.7c.7,2.5,1.4,4.9,4.1,6.2,1.6.7,2.9,2,4.4,3,1.4,1,2.7,2,4.1,3-3.2-5.1-5.6-11-12.6-12.1ZM158.8,318.5c.1-.2.2-.5.4-.7-6.8-6-15.3-9-23.5-12.5.5.9,1.1,1.7,2,2.1,6.5,3.5,13.1,7,19.6,10.4.5.3,1,.5,1.6.7ZM106.7,282.6c2.8,4.7,5,10,11.1,11.5-.3-1.8-1-3.2-2.6-4.3-2.5-1.7-4.7-3.9-7-5.8-.5-.4-1-.9-1.5-1.3ZM231.7,215.2c-.2,1.7-.4,3.1-.6,4.5,1.3.4,2.5.8,3.8,1.2v-4.8c-1-.3-2-.6-3.2-.9ZM227.3,230.5c-1.4-.5-2.7-.9-4-1.4-.3,1.3-.6,2.5-.9,3.7,1.3.4,2.6.7,3.9,1.1.3-1.2.6-2.2.9-3.5ZM214.8,227.9c-.3,1.6-.5,2.8-.7,4.1q3.9.3,4.2-3.8c-1.1,0-2.2-.2-3.4-.3ZM128.7,306.4c.7,4.2,4.5,3.7,6.8,5.7-.5-4.3-4-4.2-6.8-5.7ZM223.6,227.8c1.3.4,2.6.8,3.9,1.3.2-1.1.4-2,.6-3.1-1.2-.5-2.4-.9-3.8-1.5-.2,1.1-.5,2.1-.7,3.3ZM215.3,221c1.4,0,2.5.2,3.8.2v-3c-1.3-.3-2.6-.5-4-.8,0,1.3.2,2.3.2,3.6ZM215.3,222.9c0,1.4-.2,2.5-.2,3.8,1.3,0,2.4.1,3.7.2,0-1.3.2-2.3.2-3.5-1.2-.1-2.3-.3-3.7-.4ZM225,219.7c-.1,1.1-.2,1.8-.3,2.7,1.3.4,2.6.7,3.9,1.1.2-1,.4-1.7.5-2.6-1.4-.4-2.6-.8-4.2-1.2ZM124.1,309.7c-.4,3.2,2.2,3.7,4.1,4.9-.3-2.7-1.2-4.6-4.1-4.9ZM119.6,300.2c-.6-3.6-3.6-3.4-5.6-5,.6,3.4,3.2,3.8,5.6,5ZM129.2,295.2c-1-3.9-1-3.9-4.3-4.1,0,2.8,2.4,2.9,4.3,4.1ZM119.9,312.8c.1,4,.6,4.4,3,4.2-.2-2-.5-3.8-3-4.2ZM237.5,212c-.6,3.3-.5,3.4,2,4,.1-1.1.3-2.2.4-3.4-.8-.2-1.5-.4-2.4-.6ZM132.5,305.1c-.4-2.7-2.9-2.5-4.8-3.7.2,3.3,3.2,2.6,4.8,3.7ZM111.4,304.1c0,2.8,2.5,2.3,4.2,3.5-.3-2.9-2.7-2.7-4.2-3.5ZM123.1,297.4c.3-2.7,0-3-3.2-3.4,1.1,1.1,2.1,2.3,3.2,3.4ZM130.6,299.9c-.3-2.3-2.4-2.3-4.2-3.2.4,2.8,2.8,2.3,4.2,3.2ZM222.9,221.9c0-1,.2-1.8.2-2.8-.7-.1-1.2-.2-1.8-.3q-.3,2.6,1.5,3.1ZM121.3,310.9c.4-2.9-1.3-3.2-2.8-3.7-.2.2-.4.4-.5.6,1,1,2,1.9,3.3,3.2ZM123.4,304.5q0,2.1,2.7,2.8-.2-1.9-2.7-2.8ZM221.1,223.7q-.4,3.2.7,3.6.9-3-.7-3.6ZM122.5,299.1c-.3.3-.5.6-.8.9,1,.8,1.9,1.6,2.9,2.4.3-.3.5-.6.8-.9-1-.8-1.9-1.6-2.9-2.5ZM219.7,232.2l.8.4c.4-1.2.8-2.5,1.3-3.7l-.8-.4c-1.2.8-.7,2.5-1.2,3.6ZM133.9,299.7c-.2.2-.4.3-.5.5.9.8,1.7,1.5,2.8,2.5.8-2.8-1.2-2.4-2.2-3ZM259.6,177.8c-.2,0-.4,0-.5,0,0,.5.2,1,.3,1.4,0,0,.1,0,.2,0,0-.5,0-1,0-1.4ZM63.3,324c-.2.2-.3.3-.4.4,0,0,.2.3.2.3.2,0,.3-.1.5-.2,0-.1-.2-.3-.3-.5Z"/>
  <path class="cls-1" d="M464.9,295.9c-3.1,1.3-6,2-9.1,0-2.3-1.5-5-1.2-7.1-.1,1-3.7,2.2-7.6,3.2-11.4.3-1.2.2-2.5.2-3.8,0-38.3,0-76.6,0-114.9,0-4.8-.8-9.6-1.9-14.2-1.3-5.3-3.4-6.6-8.9-6.8,2.9-6.2,10-8.5,12.8-14.7.6,8.9,7.9,12.9,13.6,18.6-2.8.4-3.5,2-3.6,3.6-.8,6.7-1.9,13.3-2,20-.3,19.5-.1,38.9-.1,58.4,0,4.3,0,8.6,0,13.6,6-8.3,11.5-16.1,13.7-25.7.8,5.1,1.6,10.3,2.5,15.4,1.1,5.8,3,11.3,5.7,16.6,2.5,4.9,4.6,10,6.6,15.1,2.7,6.8,2.9,13.9,1.3,21.1-1.9,8.3-4.7,16.3-10.3,23-1.5,1.8-3.5,3.3-5.3,4.8-.5.4-1.3.6-2,.8,9-9.4,10.8-20.9,9.8-33.1-.8-9.4-4.1-18-8.9-26.1-2.7-4.5-5.1-9-5.6-14.9-1.3,1.4-2.2,2.5-3.1,3.6-2.8,3.7-4.2,7.8-4.2,12.4,0,10.1,0,20.1,0,30.2,0,3.1.7,6.1,2.9,8.7Z"/>
  <path class="cls-1" d="M428.7,287.1c1-.3,2.2-1,2.9-.7,1.1.6,2.3,1.8,2.6,2.9.7,2.4.3,4.9-2,6.5-2.5,1.7-5.2,2.2-8,.7-3.9-2.1-6.8-5.3-9.1-9-1.5-2.3-2.7-4.8-4.4-7-1.5-2-3.4-3.7-5.1-5.5,2.6-1.1,3.9-3.6,4.1-6.6.2-3.3.2-6.6.2-10,0-10.8,0-21.5,0-32.3,0-3.3-.4-3.7-3.6-4.3-1.2-.2-2.4-.3-3.9-.5,6.4-4.2,11.2-9.6,14.5-16.3,3.3-6.6,4-13.7,4.6-21,.4,0,.7.1,1.1.2-.5,11.5-.9,23-1.4,34.7h8.6v2.9h-8.5v2.2c0,16.6-.1,33.1,0,49.7,0,4.3.9,8.7,1.5,13,.2,1.3.9,2.6,1.7,3.6.7.9,1.9,1.7,3,2,1.3.4,3,.3,3.4-1.5.4-1.6-.4-2.7-2.3-2.9,0-.3,0-.6,0-.9Z"/>
  <path class="cls-1" d="M375.5,212.9c.3,1.3.7,2.6,1,3.9.4,2.2.5,4.5,1.2,6.6,1.7,5.4,5.3,8.7,11.5,9.1-1.9,2.1-3.7,3.9-5.4,5.8-3,3.5-6,7.1-7,11.7-.3,1.4-.2,3.1.2,4.5.4,1.4,2,1.9,3.1,1.3.7-.4,1.4-1.8,1.3-2.7,0-.7-1.3-1.3-2.2-2.2.3-.2,1.1-1.1,1.6-.9,1,.3,2.3.9,2.8,1.8,1.7,2.9-1.1,7.1-4.6,7-3.9-.1-6.9-3.1-6.3-6.9.5-2.8,1.6-5.5,2.8-8.1.7-1.3.7-2.1-.1-3.2-.8-.9-1.5-1.9-2.3-2.8-1.3-1.3-2.6-2.5-4.3-4.2-.2,1.6-.5,2.7-.5,3.8,0,11.3,0,22.6,0,34,0,4.4.8,8.6,2.9,12.5,3.8,7.3,9.6,9.3,17.5,5.8-2.3,3.3-5,5.3-8.5,5.5-2.6.2-5.5,0-7.9-.9-5-1.8-9.9-1.9-14.9-.4-.3,0-.5,0-.9.2,2.8-10.8,1.6-21.7,1.9-32.5,0-3.6,0-7.2,0-10.8,0-2.9-.3-3.2-3.6-2.5.5-1.3.8-2.6,1.5-3.5,3.2-4.3,6.3-8.7,9.7-12.8,3.6-4.3,5.9-9,7-14.5.3-1.5.8-3,1.3-4.6.4,0,.7,0,1.1,0Z"/>
  <path class="cls-1" d="M152.8,91c-.7.4-1.6,1.3-2,1.1-.7-.4-1.5-1.3-1.6-2.1,0-.6.9-1.7,1.5-1.8.9-.1,1.2-.4,1.6-1.2.3-.7,1.4-1.1,2.4-1.3.2-.8.4-1.5.6-2.3-.2,2.6,1.6,2.6,3.3,2.7h0c-1.5,1.4-2.8.7-4.2-1.1-.5,1.1-1.4,2.1-1.2,2.7.2.6,1.5.9,2.2,1.3-1.2,1.3-2,1.1-4-1.9-.5,1.3-1.4,2.4-1.2,3.2.3,1.1,1.5,1.3,2.6.6,0,0,0,0,0,0Z"/>
  <path class="cls-1" d="M141.9,100.8c-.5,1.2-1.8,1.7-3.4,1.5-1.7-.2-2.7-1.3-2.9-2.9-.2-1.7.5-3,2.6-3.8-.9,1.7-2.1,3.4-.3,4.6,1,.7,2.6.5,4,.7Z"/>
  <path class="cls-1" d="M145.9,97.1c-.8,1.2-1.9,1.9-3.2,1.2-.9-.5-1.8-1.5-1.9-2.4-.1-.9.7-1.9,1.4-2.6,0,1.1-.4,2.6,0,3,.9.7,2.3.6,3.5.8h0Z"/>
  <path class="cls-1" d="M15.1,181.7c3.4,1.3,4.4.7,4.3-2.3.2,0,.3,0,.5-.1.1.8.6,1.8.3,2.5-.4.8-1.4,1.9-2.2,1.9-1.1,0-2.2-.8-3.3-1.2l.4-.7Z"/>
  <path class="cls-1" d="M146.6,90.7c0,.9-.4,2.2,0,2.6.5.6,1.8.6,3.1.9-1.1.3-2,.8-2.8.6-.7-.2-1.7-1.2-1.7-1.8,0-.8.8-1.7,1.2-2.6,0,0,.1.1.2.2Z"/>
  <path class="cls-1" d="M18.3,176.1c-.5.9-.7,2.2-1.4,2.7-1.3.9-2.5.1-3.2-1.3.9.2,1.9.7,2.5.4.7-.3,1-1.3,1.5-2,.2,0,.4.2.6.2Z"/>
  <path class="cls-1" d="M163.7,79.9c-.8.7-1.3,1.4-1.7,1.4-.6,0-1-.8-1.5-1.2.4-.4.8-1.2,1.3-1.2.5,0,1,.6,1.9,1.1Z"/>
  <path class="cls-1" d="M12.3,173.8c1.1.5,2,1.2,2.3,1,.7-.3,1-1.2,1.8-2.2-.2,1,0,2-.5,2.5-.4.5-1.4.8-2,.6-.6-.2-1-1-1.7-1.8Z"/>
  <path class="cls-1" d="M15.3,255.5c2.2.6,2.6.2,2.7-2.2.2,0,.4,0,.6,0,0,.9.1,2-.3,2.6-.9,1.2-2.2,1.1-3.1-.2,0,0,.1-.1.2-.2Z"/>
  <path class="cls-1" d="M146.5,90.5c.2,0,.5,0,.7-.1-.2.1-.4.2-.5.3,0,0-.1-.1-.2-.2Z"/>
  <path class="cls-1" d="M137.2,103.4c.1,0,.2-.2.3-.3,0,.2-.1.3-.2.5,0,0-.1-.1-.2-.2Z"/>
  <path class="cls-1" d="M16.4,259.1c0-.2,0-.4,0-.7.1.1.3.2.4.4-.1.1-.2.2-.3.3Z"/>
  <polygon class="cls-1" points="145.9 97.2 145.8 97 145.9 97.1 145.9 97.2"/>
  <polygon class="cls-1" points="152.9 90.9 152.9 91 152.8 91 152.9 90.9"/>
  <path class="cls-1" d="M274,276.6c.1,0,.2,0,.3,0-.1,0-.2,0-.3,0,0,0,0,0,0,0Z"/>
  <path class="cls-1" d="M15.2,255.7c0-.2,0-.4,0-.6,0,.1.2.3.3.4,0,0-.1.1-.2.2Z"/>
  <polygon class="cls-1" points="158.6 86.1 158.6 86 158.7 86.1 158.6 86.1"/>
  <path class="cls-1" d="M212.1,297.2c-.1,0-.2-.2-.3-.3h.1c0,0,.1.1.2.3,0,0,0,0,0,0Z"/>
</svg>