<?xml version="1.0" encoding="UTF-8"?>
<svg id="Calque_1" data-name="Calque 1" xmlns="http://www.w3.org/2000/svg" version="1.1" xmlns:xlink="http://www.w3.org/1999/xlink" viewBox="0 0 500 500">
  <defs>
    <style>
      .cls-1 {
        fill: #75683b;
        stroke-width: 0px;
      }
    </style>
  </defs>
  <image width="710" height="410" transform="translate(-7942 -7992)" xlink:href="Svartsot-1.png"/>
  <g>
    <path class="cls-1" d="M425.7,278.2c3.5-6.5,6.2-13.4,5.2-20.9-.9-6.4-2.8-12.8-4.3-19.1-.2-.7-.4-1.4-.6-2.1.9-.9,2.2-1.6,2.5-2.6,1.2-5.1,2.1-10.2,3.1-15.3.8-4.1.4-7.8-2.7-11,7.2-.3,14.4-.9,21.6-.6,3.2.1,6.3,2,9.9,3.3-2.4,3-4.2,4-7.2,3.2-2.4-.6-5-.9-7.4-.8-1,0-1.9,1.8-2.8,2.8,1.1.7,2.2,2,3.3,2,2.7-.1,5.6-.5,8.1-1.4,6.2-2.5,11.5-6.6,15.9-11.6,1.5-1.7,2.3-4.1,3-6.2.7-2.4,1.7-2.4,3.3-.9.3.3.6.6.9.9,4.2,5.1,9.6,6.2,15.9,5.1,1.3-.2,2.6-.2,4.2-.2-.6,3.3-3,3.6-5,4.2-8.4,2.7-17,5-25.3,7.9-19.8,6.9-31.6,27.2-25.8,48.2,1.1,3.9,2.9,7.5,4.3,11.3,1.5,4.4,3.4,8.8,4.1,13.4.4,2.6-1,5.7-2.2,8.3-.4.9-3,1.7-4,1.3-1.3-.5-2.3-2.2-3.2-3.6-.3-.4.3-1.7.9-2.1.3-.2,1.3.4,2,.7.7.3,1.6,1.2,1.9,1,.6-.4,1.1-1.3,1.2-2,.4-2.8-.9-5.2-3.6-5.6-4.2-.6-8.6-.6-12.9-.6-1.2,0-2.5.5-3.7.8.5-2.6,2.3-5.3-.6-7.7Z"/>
    <path class="cls-1" d="M272.2,250.1c-1.9,3.7-4,7.4-5.7,11.2-1.2,2.9,0,4,3.2,3.5-.4,2.7.3,6.1-4.5,5.8,1.7,7,3.3,13.6,4.9,20.2-2.5-4.2-4.9-8.4-7.5-12.6-1.3-2.2-2.5-4.7-4.4-6.2-2.1-1.6-5-2.9-7.6-3.1-2.9-.3-5.1,2.6-4.5,4.6,1,3.4,3.1.1,5.5,1-1.1,1.1-2,2.6-2.8,2.6-1.5,0-4-.5-4.4-1.4-.7-1.8-1.1-4.8,0-6,3.4-3.9,7.4-7.2,11.3-10.7,3.3-3,5.9-6.2,5-11-.4-2.5-1.6-4.4-4.2-5.1-2.2-.6-2.9-1.6-1.1-3.6,1.8-2,2-4.3.1-6.3-2.1-2.2-4.2-.8-6,.5-3.7,2.7-4.5,8.2-1.4,11.6,2.3,2.5,1.8,3.7-.8,5.4-3.9,2.6-5.3,6.7-5.8,11.2-1,8.6,0,16.6,5.8,23.6,1.6,2,2.7,4.6,3.6,7,.3.9-.4,2.3-1.1,3.3-1.4-4.7-5.1-7.4-11.2-7.7-3.1-.1-6.2.3-9.2.5-.5-1.1-.9-2.2-1.4-3.2,5.7-7.7,6.7-16.4,3-24.7-2.1-4.6-2.2-7.7-.5-12.1,1.8-4.6.9-9.6-1.3-14.2,2.6-.8,3-2.6,1.8-4.7-.5-1-1.7-1.6-2.6-2.3,6.6.6,12.7-.2,17.7-5.1.5-.5,1.7-.4,2.5-.6.2,1.2.5,2.4.7,3.9,6.5-.7,13.8-2.6,19.8,3.2-4.8,6.8-3.3,14.4-3.1,22.5,1.9-2.8,3.6-4.8,5.9-1.4Z"/>
    <path class="cls-1" d="M59.8,269q3.8,3.2,9.9-1c2.1,1.7,4,3.8,6.3,5,2.8,1.4,7.4-.4,9.2-3.1,2.1-3.1,2-7-1-9.5-2.4-2-5.3-3.5-8-5.1-4-2.3-8.2-4.3-12.2-6.5-1-2.7-1.9-5.4-3-8-1.2-2.9-1-5.4,1.4-7.8,1.3-1.2,2.1-2.9,3.1-4.3,7.8,7.2,17.4,11.6,26.9,16.1,1.6.8,3.2,1.6,4.8,2.5-2.4.8-1.5,2.1-.9,3.7,1.1,2.8,2.3,5.8,2.3,8.7.1,5.5-.6,11-.8,16.5,0,1.7.5,3.5.7,5.2-4.1,2.2-8.2,4.6-12.4,6.5-8.3,3.7-16.8,4.3-25.5,1.1-1.3-.5-2.4-1.2-3.6-1.9,1.9-.3,2.4-1.5,1.9-3.2-.4-1.4-.9-2.8-1.5-4.1-1.3-2.8-1.2-5.2,1.1-7.5.8-.8.9-2.2,1.4-3.4Z"/>
    <path class="cls-1" d="M305.9,229.9c-2.2,2.9-4.5,5.6-6.5,8.6-7,10.1-9.2,20.9-4.4,32.6,2,4.9,3.9,9.9,5.5,14.9.7,2,.9,4.2.9,6.3,0,2.6-1.8,3.5-4.2,3-.7-.1-1.4-.8-2.1-1.3.5-.6.8-1.3,1.4-1.8,1.8-1.5,1.7-3.1-.5-4.1-3.9-1.8-7.8-1.6-11.8-.3-1.4.4-3.1.2-4.7.2.1-1.7-.1-3.5.5-4.9,3.9-8.9,6.2-18.1,5.4-27.9-.8-10-4.9-18.1-13.5-23.7,0,0,0,0,0,0,0-2.1,1.4-2.8,3.3-3.2,2.6-.5,4.5-1.9,5-4.7.5-3.1-.3-5.9-3.1-7.5-1.2-.7-3.1-.8-4.4-.4-2,.7-1.8,2.2,0,3.4.7.5,1,1.4,1.5,2.1-.9.2-2,.8-2.8.6-3.2-.8-4.5-5-2.1-7.4,1.2-1.2,3-2.3,4.6-2.4,9.7-.4,19.3-.4,29-.6.3,1.7.5,3.3.8,5-2,.3-4,.4-5.9,1-1,.3-2.3,1.6-2.3,2.4,0,.8,1.4,1.8,2.3,2.3,1.1.6,2.4.6,3.6.9l.2-.5c0,.1.1.3.2.4,1.1,0,2.2-.1,3.4-.2.2,2.3.4,4.6.6,6.8Z"/>
    <path class="cls-1" d="M329.1,243.3c8.1,7.6,18.3,11.1,28.5,14.3,8,2.6,13.5,7.2,15.9,15.4,1.4,4.6.6,9.3-2.3,11.7-.8-1.2-1.4-2.9-2.5-3.3-.8-.3-2.2,1.3-3.6,2.2-3.9-4.2-8-1.5-12.2.4-4.5,2-8.7,4.7-13.3,6.1-3.5,1-7.4.3-11.2.4-.8-2.2-1.4-4.6-2.5-6.7-2.2-4.3-2.3-4.5,1.5-7.6,1.4-1.2,2.8-2.5,4.3-3.9.8.8,1.5,1.5,2.2,2.1,1.9,1.7,4.1,1.9,6.1.4,2.2-1.5,3.1-3.9,1.6-6.1-1.5-2.2-3.6-4.1-5.8-5.8-2.9-2.2-6.1-3.9-9.1-5.8,2.3-1.2,1.5-2.7.5-4.2-1-1.4-2.1-2.8-3.3-4.4,3-.9,5.8-1.5,5.2-5.2Z"/>
    <path class="cls-1" d="M228,285.6c.5,1.1.9,2.2,1.4,3.2,0,.3,0,.6,0,.9-.5.6-1,1.3-1.5,1.9-1.4-.7-3-1.2-4.3-2-5.8-3.9-12.2-4.8-18.9-3.2-6.5,1.5-12.9,3.4-19.4,5.1.3-.8.6-1.6.8-2.4.4-.3.8-.6,1.5-1-.8-.4-1.4-.7-2.1-1,.1-1.3.7-2.9.3-4-1.1-2.9,0-4.7,2.2-6.3,4.2.9,8.3,1.3,11.8-1.9,0,0,0,0,0,0,.2-.2.4-.5.7-.7,0,0,0,0,0,0,.6-.6,1.3-1.3,1.9-1.9h0c1.4-3.4,3.9-6.7,4.1-10.1.2-6.8-.5-13.8-1.4-20.6-.5-4.2-3.5-7-7.1-9.4-3.4-2.3-6.6-4.9-9.8-7.5-.8-.7-1.4-1.7-2.1-2.6l.6-.8c1,.5,2.2.7,3.1,1.4,6.3,5,13.5,6,21.1,4.9.7-.1,1.5-.2,2.2-.2,10.8-.6,16.5,6.7,12.9,16.9-1.1,3.2-3.5,6-5.7,8.7-.7.9-2.4,1.1-3.7,1.6-.4-1.8-1.4-3.8-1.2-5.5.2-1.8,1.8-3.3,2.6-5.1.5-1,.9-2.3.8-3.4-.1-1.1-1-2.1-1.6-3.1-1,.7-2.7,1.3-2.8,2.1-.5,3.9-1.2,7.9-.5,11.6,1,5.1,2.3,10.5,7.9,13.1.4.2.6,2.4,0,3.1-4.4,6.3-2.5,16.2,4.3,20.3.2-.7.3-1.4.5-2.1h0c.5,0,.9-.1,1.4-.2Z"/>
    <path class="cls-1" d="M164.1,290.8c-4.4-1.5-8.7-3.4-13.2-4.3-11.7-2.3-22.4.9-32.4,7-1.4.9-2.9,1.6-4.4,2.5-.3-.7-.6-1.5-.9-2.2,3-2,6.1-3.9,9.1-5.9,5.6-3.7,8.9-8.8,9.4-15.5.3-3.9-.9-7.6-4.2-10.1-1.7-1.2-2-2.4-.5-4.2,1.1-1.4,1.8-3.1,2.7-4.6.4-.6.8-1.4,1.3-1.6,3.7-1.2,7.4-2.3,11.9-3.7,0,3.4,0,6.4,0,9.4,0,1.9,0,3.8,0,5.7,0,2.5,1.1,3,3.2,2.1,5.2-2.3,8-6.3,8.3-11.8.1-2.8.9-4.4,3.7-5.5,2.1-.8,3.8-2.6,5.7-4,.2,1.6.6,3.3.5,4.9-.4,5.4-1,10.9-1.3,16.3,0,.8.7,1.6,1.1,2.4-2.7,2-5.5,4-8.2,6-6.2,4.8-5.9,7.3,1,11,2.5,1.3,5.1,2.6,7.6,3.9-.1.7-.2,1.3-.4,2Z"/>
    <path class="cls-1" d="M375.6,252.5c4.5,5,14.5,4.5,18.7-1,.6-.8,1.2-1.6,2.1-2.7,1.6,3.2-.1,5-1.7,6.6-5.1,5-11.5,5.9-18.1,4.4-3.2-.7-6.4-2.4-9.2-4.2-4.2-2.6-8.2-5.8-12.3-8.6-3.5-2.4-6.9-5-11.6-4.8-.3,0-.6-.2-.9-.3-.2-.1-.2-.3-1.3-1.5,1.2-.7,2.5-1.3,3.5-2.2,2.5-2.6,2.3-5.1-.9-6.8-5.5-3-11.2-3.9-16.9-.2,0-1.1,0-2.3,0-3.4,0-3.1-.2-6.1-.3-9.2,7.5-3.8,18.7-1.7,25.7,4.9,2.1,2,4.1,4,5.9,6.2,3.6,4.5,8.3,6.8,13.7,8,.9.2,1.9.4,2.8.7,2.9.9,3.1,1.6.9,3.7-3.5,3.6-3.6,7.3-.2,10.5h0Z"/>
    <path class="cls-1" d="M65.4,228.7c-1,1.5-1.8,3.1-3.1,4.3-2.4,2.3-2.6,4.8-1.4,7.8,1.1,2.6,2,5.3,3,8-10.4-5.3-20.9-10.6-29.5-18.9-1.7-1.6-3.3-3.3-5-4.9.3-1,.3-2.5,1-2.8,2.8-1.5,2.8-3.7,2.1-6.2,7.4,1.8,13.2-.7,18.4-5.9,3.3-3.3,7.1-6,10.7-9,0,1.5.4,3.1,0,4.5-1.1,4-1.5,7.8,1.3,11.3-1.9,4.5-.4,8.3,2.4,11.8Z"/>
    <path class="cls-1" d="M63,217c-2.8-3.5-2.4-7.3-1.3-11.3.4-1.4,0-3,0-4.5,8-5.1,16.6-4.7,24.9-1.5,3.6,1.4,6.5,4.5,9.7,6.8.3.3.7.6,1,.9h.2s0,.2,0,.2c.3,2.4.4,4.8.8,7.2.5,2.5,1.4,4.9,2.1,7.3.8,2.6.2,4.7-1.9,6.6-.9.8-1.1,2.3-1.6,3.5-4.7-.7-9.4-1.5-14.5-2.3,1.1-.9,2.1-1.7,3-2.6,1.5-1.4,3.1-2.6,4.2-4.3,1.8-2.8,1-6-1.4-8-5.2-4.3-20.1-5.5-25.4,2Z"/>
    <path class="cls-1" d="M407,262.8c3.8-4.2,6.8-8.7,6.2-14.6-.3-2.4-1.5-4.6-2.4-6.9,0-.6,0-1.4.3-1.9,2-2.5,2.1-4.9.4-7.6-.2-.3.6-1.4,1-2.1.4.2.8.3,1.1.5,4.1,2.2,8,3.1,11-2.2.2.2.4.4.6.6-.1.8,0,1.7-.5,2.4-2.6,4.5-1.4,9.3-1.1,14,.4,6.5,1.2,13.1.9,19.6-.4,8.6-4.7,15-12.8,18.5-.8.3-1.5.8-2.2,1.2-.2-1.9-.7-3.7-.7-5.6,0-3.2.7-6.4.4-9.5-.2-2.2-1.6-4.4-2.4-6.6Z"/>
    <path class="cls-1" d="M59.8,269c-.4,1.1-.6,2.6-1.4,3.4-2.3,2.3-2.4,4.7-1.1,7.5.6,1.3,1.1,2.7,1.5,4.1.5,1.7,0,2.9-1.9,3.2-7.6-3.5-12.7-9.7-18-15.8-3.3-3.8-7.2-7.1-10.8-10.6-.3-.2-.7-.4-1-.6,0,0,0,0,0,0,.5-.8.7-2,1.4-2.4,3.8-2.1,3.2-4.8,1.3-7.9-.3-.5-.4-1.2-.6-1.8,6.1-1,11,1.3,15.4,5.4,2.2,2,4.6,3.8,7,5.6,2.2,1.6,4.5,2.4,7,.3.5-.4,1.4-.4,2.4-.2-2.2,3.2-3,6.3-1.3,9.7Z"/>
    <path class="cls-1" d="M326.8,218.5c.1,3.1.2,6.1.3,9.2,0,1.1,0,2.3,0,3.4-2.3,3.6-1.2,7,.7,10.3.2.3.4.6.7.9.2.3.5.6.7.9.5,3.6-2.2,4.3-5.2,5.2,1.2,1.7,2.3,3,3.3,4.4,1,1.5,1.8,3-.5,4.2-6.4-3.1-12.8-6.2-19.1-9.4-2-1-3.6-2.6-5.4-3.9.5-1.1,1.2-2.1,1.4-3.2.2-1.3,0-2.7,0-4,4.8-8.6,13.2-12.8,21.3-17.3.5-.2,1.1-.4,1.6-.6h.2Z"/>
    <path class="cls-1" d="M98.4,281.4c-.3-1.7-.8-3.5-.7-5.2.2-5.5.9-11,.8-16.5,0-2.9-1.3-5.9-2.3-8.7-.6-1.7-1.5-3,.9-3.7,4.4,2.1,9,4,13.3,6.4,4.7,2.6,8.4,6.5,10.9,11.3-.3,1.1-.7,2.2-.9,3.3-.7,2.8-1.4,5.6-2.1,8.4,0,0,0,0,0,0-.3.3-.6.7-.9,1,0,.5,0,.9,0,1.4-.6.3-1.1.5-1.7.8-.2,0-.4,0-.7,0-1-.1-2.1-.3-3.1-.4-3.9.4-7.7.8-11.6,1.1-.4.2-.8.3-1.3.5-.2,0-.4.1-.6.2Z"/>
    <path class="cls-1" d="M412.6,229.7c-.4.7-1.2,1.7-1,2.1,1.7,2.7,1.6,5.2-.4,7.6-.3.4-.2,1.2-.3,1.9-2.6-2-5.2-2.3-7.7.2-1.3,1.3-2.4,1.5-3.3-.6-1.4-3.2-2.9-3.3-5.5-1-2.7,2.4-3,5.7-3.5,9-.9,5.1-4.4,7.3-9.4,5.9-1.9-.5-2.6-1.3-2.1-3.4.7-3.3.7-6.8,1.6-10,.8-3,1.9-6.2,3.8-8.5,5.7-7.2,18.7-11.8,27.9-3Z"/>
    <path class="cls-1" d="M97,232c.5-1.2.7-2.7,1.6-3.5,2-1.9,2.6-4,1.9-6.6-.7-2.4-1.6-4.8-2.1-7.3-.5-2.3-.6-4.8-.8-7.2,5.4,5.3,10.7,10.7,16.4,15.7,2.1,1.8,5.1,2.6,7.7,3.8-.6,4.4-1.2,8.7-1.8,13.1-.1,1.1-.5,2.3-.2,3.3.7,2.3,1.7,4.5,2.6,6.8-4.9-1.3-8.4-4.5-12.1-7.7-4.2-3.6-8.7-6.9-13.1-10.4Z"/>
    <path class="cls-1" d="M122.3,250.1c-.9-2.3-1.9-4.5-2.6-6.8-.3-1,0-2.2.2-3.3.6-4.4,1.2-8.7,1.8-13.1.7-1,1.5-2,2.6-3.6.8.6,2.4,1.5,3.4,2.9,1.5,2.2,3.4,2.7,5.8,2.2,4-.9,8-2.1,9-6.6,1-4.7-1.1-8.7-4.7-11.9-.9-.8-1.9-1.5-2.9-2.2.2-.4.3-.7.5-1.1,1.1.4,2.4.6,3.3,1.3,5.3,3.7,6.6,9.3,6.2,15.2-.4,6.4-1.3,12.7-1.9,19.1-.2,2.4-1.6,3.9-3.8,4.1-2.5.3-5.2,0-7.7-.5-.5,0-.6-2-.9-3.1-.8-3.5-1.4-7.1-2.3-10.5-.3-1.2-1.4-2.2-2.4-3.6-2.9,2.8-3.9,6-2.7,9,2.5,6.1,5.9,11.5,14,11-5,2.1-9.7,5-15.1,1.7Z"/>
    <path class="cls-1" d="M327.3,276.1c-3.8,3.1-3.7,3.3-1.5,7.6,1.1,2.1,1.7,4.4,2.5,6.7-7.1-1.7-12.6-5.9-17.5-11.1-2.4-2.6-4.9-5-7.3-7.6-.3-.2-.6-.5-.9-.7,0,0,0,0,0,0,.1-.8,0-1.9.4-2.5,1.9-2.5.9-4.3-.7-6.5-.8-1.1-.7-2.9-1-4.4,5.4,2.5,10.8,4.9,16.2,7.3,2.2,1,4.4,1.7,6.6,2.5-2.8,6.3-2.6,7,3.1,8.6Z"/>
    <path class="cls-1" d="M164.1,267.9c-.4-.8-1.2-1.6-1.1-2.4.4-5.4,1-10.9,1.3-16.3.1-1.6-.3-3.3-.5-4.9,6.6-9.6,6.3-19.2-1-30.4.6-.5,1.2-1.1,1.8-1.6,1.7,3.5,3.4,7,5,10.6.7,1.5.9,3.3,1.6,4.8,1.7,4.5,2.8,5,7.5,3.7.3,0,.6,0,1.8.3-.9,2.3-1.6,4.4-2.8,7.5,3.9-3.4,7.2-6.7,12.2-6.3-.1,1.3-.2,2.7-.3,4-.4.7-1,1.4-1.2,2.2-.8,2.2-1.8,2.8-4.1,1.5-1-.6-2.6-.3-3.9-.2-1.5.1-2.9.5-5.1.9-1.7,2.4-3.9,5.5-6,8.6-.6.9-1.3,1.9-1.3,2.8,0,1.8,0,4.3,1,5.2.9.8,3.4,0,5.1-.2.3,0,.6,0,1.3.3-2.1,4-5.8,6.4-9.5,8.7-.2.2-.5.3-.7.5,0,0,0,0,0,0-.3.2-.6.4-.9.5-.1,0-.2.1-.3.2Z"/>
    <path class="cls-1" d="M407,262.8c.8,2.2,2.2,4.3,2.4,6.6.3,3.1-.4,6.3-.4,9.5,0,1.9.4,3.7.7,5.6-4.6,3.7-10.4,4.1-15.9,5.1-5.6,1-11.3,1.9-16.9,3.2-3.9.9-7.4,2.7-9.1,6.8-.2.6-.5,1.2-.8,1.8l-1.5-.7c.2-1.1,0-2.7.7-3.4,2.4-2.2,5-4.7,7.9-6.1,4.6-2.2,9.7-3.3,14.2-5.6,7.7-3.8,12.8-9.7,12.7-19,0-.8,1-1.9,1.9-2.4,1.3-.7,2.8-.9,4.2-1.4Z"/>
    <path class="cls-1" d="M270.1,290.9c-1.6-6.6-3.2-13.3-4.9-20.2,4.8.3,4.1-3.1,4.5-5.8,1.7-1.2,2.9-.8,3.2,1.2.3,2.1.4,4.2.5,6.3.5,15.7,10.9,25.9,26.6,26.3.6,0,1.3,0,1.9.1,1.2.5,2.5,1,3.7,1.5-2.9.5-5.7,1.3-8.6,1.3-6.9,0-13.5-1.5-19.7-4.6-2.4-1.2-4.3-3.3-6.4-5,0-.2,0-.4,0-.6,0,0,0,.1,0,.1-.2-.2-.5-.5-.7-.7h0Z"/>
    <path class="cls-1" d="M188,276.8c-2.1,1.6-3.2,3.4-2.2,6.3.4,1.1-.2,2.7-.3,4-.3,0-.6,0-.9,0-.5-.2-1-.3-1.6-.5-1.6-.9-3.1-1.8-4.7-2.7-3-1.6-6.1-3.2-9.1-4.9-.5-.3-1-.6-1.6-1,5.9-7.2,10.4-15.6,19.6-19.1-.2,2.7.2,5.1,2.8,6.6-1,1.3-2.2,2.6-3,4-1.5,2.6-1.3,5,.9,7.2Z"/>
    <path class="cls-1" d="M376.8,261.9c4.6-.5,8.4-1,12.3-1.2.6,0,1.4,1,2,1.7,1.9,2.3,3.5,4.8,5.6,6.9,1.5,1.4,1.9,2.7,1.1,4.5-4,8.7-5.7,7.9-11.5,3.2-4.7-3.7-6.8-9.3-9.5-15.1Z"/>
    <path class="cls-1" d="M305.9,229.9c-.2-2.3-.4-4.6-.6-6.8,3.2-1.7,6.4-3.4,9.6-5.1h-.1c.2-.2.5-.4.7-.7h-.1c2.6-2.2,5.4-4.3,7.6-6.9,1.6-1.9,2.5-4.4,3.8-6.9,2,1.7,3.9,3.3,5.8,4.9.4.2.7.5,1.1.7,0,0,0,0,0,0,.1,1.3.2,2.6.3,3.9,0,0,0,0,0,0-.5.2-1.1.4-1.6.6,0,0,0,0,0,0-.4.2-.9.4-1.3.6-8.8,3.6-16.8,8.4-24,14.6-.2.3-.4.6-.7.9-.1.2-.3.3-.5.3Z"/>
    <path class="cls-1" d="M428.9,207.1c3.1,3.1,3.5,6.9,2.7,11-1,5.1-1.9,10.3-3.1,15.3-.2,1-1.6,1.7-2.5,2.6-1.7-2.1-.3-3.8.6-5.6,0-1.3,0-2.5,0-3.8-.6-.1-1.5-.6-1.9-.4-4.1,2.6-4.7,2.5-7.7-1.9,1.8,0,3.4,0,5,0,5.1,0,6.7-1.6,6.6-6.7,0-4.9-3.1-8.2-7.2-8-.9,0-1.9.3-2.7.8-2.3,1.4-1.9,2.5,1.6,5.7-1.2.1-2.7.8-3.4.3-1.1-.8-2.5-2.6-2.3-3.7.2-1.8,1.3-4.2,2.7-4.8,2.3-1,5.1-1,7.7-1.2,1.2-.1,2.5.2,3.8.3Z"/>
    <path class="cls-1" d="M29.3,248.2c.2.6.2,1.3.6,1.8,2,3,2.5,5.7-1.3,7.9-.7.4-1,1.6-1.4,2.4-8.2-1.6-16.4-3.2-24.6-4.8,0-.4,0-.7,0-1.1,1,0,2.1-.4,3-.2,4.3.9,8,0,11.8-2.4,3.6-2.2,7.4-4.3,11.9-3.6Z"/>
    <path class="cls-1" d="M190.1,265.5c-2.5-1.5-3-3.9-2.8-6.6,2.9-1.6,5.8-3,8.6-4.7,1.5-.9,2.6-2.4,3.9-3.6,0,0,0,0,0,0,2.9-2.9,3.4-6.7,1.1-10.3-2.6-4-6.5-5.2-11.3-3.5.1-1.3.2-2.7.3-4,6-.4,11.3,2.3,13.6,6.9,2.5,5.2,1.7,11.6-2.6,15.9-3.4,3.5-7.2,6.6-10.8,9.8Z"/>
    <path class="cls-1" d="M272.2,250.1c-2.3-3.4-4-1.4-5.9,1.4-.2-8.2-1.7-15.8,3.1-22.5.9.9,1.8,1.7,2.7,2.6,0,0,0,0,0,0,3.2,6.2,3.9,12.4.2,18.7Z"/>
    <path class="cls-1" d="M219,290.3c1.1.2,2.3.3,3.7.6-7.7,9.8-26.2,13.4-36.9,7.5,0-.6.1-1.2.2-1.9,6.1.5,12.2,1.3,18.3,1.3,5.9,0,10.6-3.4,14.7-7.4,0,0,0,0,0,0Z"/>
    <path class="cls-1" d="M301.5,257.7c.3,1.5.2,3.3,1,4.4,1.6,2.2,2.6,4,.7,6.5-.5.6-.3,1.6-.4,2.5-1.9-1.1-3.9-2.1-5.8-3.3-2.1-1.3-4.1-6.2-2.9-8.4.6-1.1,2.4-1.8,3.8-2.2,1.1-.3,2.5.3,3.7.5Z"/>
    <path class="cls-1" d="M32.5,216c.7,2.5.7,4.7-2.1,6.2-.6.3-.7,1.8-1,2.8-2.1-1.5-4.1-2.9-5.3-3.8-2,.5-3.6,1.5-4.4,1.1-1.8-1.1-1.9-4.2,0-5.5,1.7-1.1,4-1.8,6.1-1.9,2.1-.1,4.3.6,6.5,1Z"/>
    <path class="cls-1" d="M425.7,278.2c2.9,2.3,1.1,5.1.6,7.7-4.1,2.4-8.1,5-12.3,7.3-2,1.1-4.2,1.9-6.3,2.8-.2-.4-.4-.7-.6-1,7.3-4.4,13.9-9.4,18.6-16.7Z"/>
    <path class="cls-1" d="M228.5,227.6c.9.8,2,1.4,2.6,2.3,1.2,2.1.8,3.9-1.8,4.7-2.7-4.8-7.4-7.4-11.9-10.2-1.1-.7-2.1-1.7-3.1-2.6.3-.4.6-.9.9-1.3,3.9,2.1,7.8,4.2,11.7,6.3.6.2,1.2.5,1.8.7,0,0,0,0,0,0Z"/>
    <path class="cls-1" d="M118.2,276.7c.7-2.8,1.4-5.6,2.1-8.4.3-1.1.6-2.2.9-3.3,3.9,5.6,4.6,13.2,1.5,16.6-1.5-1.6-3-3.3-4.5-4.9Z"/>
    <path class="cls-1" d="M252.6,301c.9-.9,1.6-2.1,2.7-2.6,4-2,8.1-3.8,12.2-5.5.7-.3,1.7.3,2.5.4-.5.6-.9,1.6-1.6,1.9-3.8,1.9-7.6,3.7-11.5,5.4-1.2.5-2.5.7-3.8,1.1-.2-.3-.4-.5-.5-.8Z"/>
    <path class="cls-1" d="M303.7,216.6c-.3-1.7-.5-3.3-.8-5,3.4.8,7,1.4,10.3,2.6,1,.3,1.5,2.1,2.2,3.2,0,0,.1-.1.1-.1-.2.3-.5.5-.7.8h.1c-3.7-.5-7.5-1-11.2-1.5Z"/>
    <path class="cls-1" d="M186,296.5c0,.6-.1,1.2-.2,1.9-.2,0-.3,0-.5,0-.4-.2-.9-.3-1.3-.5-.2,0-.4,0-.6-.1-.6-.2-1.2-.4-1.8-.5-5.9-2.2-11.7-4.3-17.6-6.5.1-.6.2-1.3.4-1.9,5.3,2,10.6,3.9,15.9,5.8,1.9.7,3.8,1.2,5.7,1.8Z"/>
    <path class="cls-1" d="M305.5,300.4c-1.2-.5-2.5-1-3.7-1.5,1.6-.7,3.2-1.5,4.8-2.2,0,0,0,0,0,0,2.3-2.5,2.1-3-1.2-4.9.8-2.8,2.8-2.6,4.9-2,0,0,0,0,0,0,1.7,4.2,1.4,6.1-1.8,8.6-.2.3-.5.6-.7.9,0,0,0,0,0,0-.3.2-.7.4-1,.6,0,0,0,0,0,0-.4.2-.8.4-1.3.6h0Z"/>
    <path class="cls-1" d="M113.2,293.8c.3.7.6,1.5.9,2.2,0,0,0,0,0,0-.2.2-.4.4-.7.6,0,0,0,0,0,0-.2.2-.4.4-.7.6,0,0,0,0,0,0-.3.2-.6.4-1,.7-.2.2-.5.4-.7.6-.3.2-.6.5-.9.7,0,0,0,0,0,0-.2.2-.5.4-.7.6,0,0,0,0,0,0-.3.2-.6.4-1,.7-1.6,1.2-3.2,2.4-4.9,3.6-.2-.3-.5-.6-.7-.9,2-4.5,6.4-6.6,10.1-9.3Z"/>
    <path class="cls-1" d="M227.8,291.7c.5-.6,1-1.3,1.5-1.9,4,1.1,8,2.2,12,3.3,0,.4-.1.7-.2,1.1-3.6,1.2-7-.2-10.4-1.3-.6-.2-1.3-.5-1.9-.7,0,0,0,0,0,0-.3-.2-.7-.4-1-.6,0,0,0,0,0,0Z"/>
    <path class="cls-1" d="M407.1,294.9c.2.3.4.7.6,1-3.8,2-7.6,3.9-11.3,5.9l-.8-1.5c3.1-3.2,7.1-4.6,11.5-5.4Z"/>
    <path class="cls-1" d="M274.4,257.2c2.6.2,5.2.4,7.9.7.4,0,.9,1,.8,1.4,0,.5-.7,1.2-1.2,1.2-2.9.3-5.5-.4-7.8-2l.2-1.3Z"/>
    <path class="cls-1" d="M203.6,257.7c2.5.2,2.2,2,1.6,3.5-.8,2.1-4,3-6.7,1.8.9-1,1.7-1.9,2.5-2.8,0,0,0,0,0,0,.3-.2.6-.4.9-.6.1-.2.2-.3.4-.3.2-.3.4-.6.7-.9,0,0,0,0,0,0l.6-.6s0,0,0,0Z"/>
    <path class="cls-1" d="M159.6,299.4c3.6-1.4,7.3-2.8,10.9-4.3.2.5.4.9.5,1.4-2.7,1.1-5.5,2.3-8.2,3.4-.5.2-1,.4-1.5.5,0,0,0,0,0,0-.6-.3-1.2-.7-1.8-1Z"/>
    <path class="cls-1" d="M186.1,289.1c-.3.8-.6,1.6-.8,2.4-2,.6-4.1,1.1-6.1,1.7-.1-.5-.3-1-.4-1.4,2.5-.9,4.9-1.8,7.4-2.7Z"/>
    <path class="cls-1" d="M416.1,283.8c-.8,1.8-1.5,3.5-2.4,5.5-3.2-3.7-2.9-4.3,2.4-5.5Z"/>
    <path class="cls-1" d="M164.6,212.2c-.6.5-1.2,1.1-1.8,1.6-.7-1-1.6-2-2.2-3.1-.4-.7-.3-1.7-.4-2.6.8.4,1.6.8,2.5,1.3.2.3.4.6.7.9,0,0,0,0,0,0,.4.7.9,1.3,1.3,2h0Z"/>
    <path class="cls-1" d="M303.6,236.6c0,1.3.2,2.7,0,4-.2,1.1-.9,2.1-1.4,3.2-1.8-1.2-1.6-2.8-.6-4.4.6-1,1.4-1.9,2.1-2.8Z"/>
    <path class="cls-1" d="M334.1,212.9c-.1-1.3-.2-2.6-.3-3.9,2,.5,4,.9,6,1.4,0,.4,0,.8,0,1.2-1.9.5-3.9.9-5.8,1.4Z"/>
    <path class="cls-1" d="M463,217.5c1.5-.2,3.1-.4,4.6-.6,0,.5.1,1.1.2,1.6-1.5.2-3.1.4-4.6.6,0-.6-.1-1.1-.2-1.7Z"/>
    <path class="cls-1" d="M159.6,299.4c.6.3,1.2.7,1.8,1-1.4.5-2.8,1.1-4.2,1.6-.2-.4-.4-.7-.5-1.1,1-.5,1.9-1,2.9-1.5Z"/>
    <path class="cls-1" d="M426.7,226.7c0,1.3,0,2.5,0,3.8,0-1.3,0-2.5,0-3.8Z"/>
    <path class="cls-1" d="M111.9,279.6c1,.1,2.1.3,3.1.4-1-.1-2.1-.3-3.1-.4Z"/>
    <path class="cls-1" d="M164.6,212.3c-.4-.7-.9-1.3-1.3-2,.4.7.9,1.3,1.3,2Z"/>
    <path class="cls-1" d="M228.6,227.6c-.6-.2-1.2-.5-1.8-.7.6.2,1.2.5,1.8.7Z"/>
    <path class="cls-1" d="M115.7,280c.6-.3,1.1-.5,1.7-.8-.6.2-1.1.5-1.7.8Z"/>
    <path class="cls-1" d="M183.1,286.5c.5.2,1,.3,1.6.5-.5-.2-1-.3-1.6-.5Z"/>
    <path class="cls-1" d="M326.5,218.6c-.5.2-1.1.4-1.6.6.5-.2,1.1-.4,1.6-.6Z"/>
    <path class="cls-1" d="M332.4,213.6c.5-.2,1.1-.4,1.6-.6-.5.2-1.1.4-1.6.6Z"/>
    <path class="cls-1" d="M228.9,292.2c.6.2,1.3.5,1.9.7-.6-.2-1.3-.5-1.9-.7Z"/>
    <path class="cls-1" d="M181.7,297.3c.6.2,1.2.4,1.8.5-.6-.2-1.2-.4-1.8-.5Z"/>
    <path class="cls-1" d="M161.3,300.4c.5-.2,1-.4,1.5-.5-.5.2-1,.4-1.5.5Z"/>
    <path class="cls-1" d="M99.1,281.2c.4-.2.8-.3,1.3-.5-.4.2-.8.3-1.3.5Z"/>
    <path class="cls-1" d="M27.1,260.2c.3.2.7.4,1,.6-.3-.2-.7-.4-1-.6Z"/>
    <path class="cls-1" d="M97.2,207.2c-.3-.3-.7-.6-1-.9.3.3.7.6,1,.9Z"/>
    <path class="cls-1" d="M331.1,214.1c.4-.2.9-.4,1.3-.6-.4.2-.9.4-1.3.6Z"/>
    <path class="cls-1" d="M117.3,277.8c.3-.3.6-.7.9-1-.3.3-.6.7-.9,1Z"/>
    <path class="cls-1" d="M270,290.9c.2.2.5.5.7.7-.2-.2-.5-.5-.7-.7Z"/>
    <path class="cls-1" d="M227.9,291.6c.3.2.7.4,1,.6-.3-.2-.7-.4-1-.6Z"/>
    <path class="cls-1" d="M270.8,291.5c0,.2,0,.4,0,.6,0-.2-.1-.4,0-.6Z"/>
    <path class="cls-1" d="M328.4,242.4c-.2-.3-.4-.6-.7-.9.2.3.4.6.7.9Z"/>
    <path class="cls-1" d="M163.3,210.4c-.2-.3-.4-.6-.7-.9.2.3.4.6.7.9Z"/>
    <path class="cls-1" d="M306.5,229.6c.2-.3.4-.6.7-.9-.2.3-.4.6-.7.9Z"/>
    <path class="cls-1" d="M333.7,209c-.4-.2-.7-.5-1.1-.7.4.2.7.5,1.1.7Z"/>
    <path class="cls-1" d="M165.2,267.2c.2-.2.5-.3.7-.5-.2.2-.5.3-.7.5Z"/>
    <path class="cls-1" d="M113.4,296.6c.2-.2.4-.4.7-.6-.2.2-.4.4-.7.6Z"/>
    <path class="cls-1" d="M112.8,297.2c.2-.2.4-.4.7-.6-.2.2-.4.4-.7.6Z"/>
    <path class="cls-1" d="M111.8,297.9c.3-.2.6-.4,1-.7-.3.2-.6.4-1,.7Z"/>
    <path class="cls-1" d="M164.4,267.8c.3-.2.6-.4.9-.5-.3.2-.6.4-.9.5Z"/>
    <path class="cls-1" d="M184.1,297.9c.4.2.9.3,1.3.5-.4-.2-.9-.3-1.3-.5Z"/>
    <path class="cls-1" d="M110.2,299.2c.3-.2.6-.5.9-.7-.3.2-.6.5-.9.7Z"/>
    <path class="cls-1" d="M307.8,299.2c.2-.3.5-.6.7-.9-.2.3-.5.6-.7.9Z"/>
    <path class="cls-1" d="M109.6,299.8c.2-.2.5-.4.7-.6-.2.2-.5.4-.7.6Z"/>
    <path class="cls-1" d="M306.8,299.8c.3-.2.7-.4,1-.6-.3.2-.7.4-1,.6Z"/>
    <path class="cls-1" d="M108.6,300.5c.3-.2.6-.4,1-.7-.3.2-.6.4-1,.7Z"/>
    <path class="cls-1" d="M302.7,271c.3.2.6.5.9.7-.3-.2-.6-.5-.9-.7Z"/>
    <path class="cls-1" d="M305.5,300.4c.4-.2.8-.4,1.3-.6-.4.2-.8.4-1.3.6Z"/>
    <path class="cls-1" d="M301.5,223.2c.1,0,.3,0,.4,0,0-.1-.1-.3-.2-.4l-.2.5Z"/>
  </g>
</svg>