<?xml version="1.0" encoding="UTF-8"?>
<svg id="Calque_1" data-name="Calque 1" xmlns="http://www.w3.org/2000/svg" version="1.1" xmlns:xlink="http://www.w3.org/1999/xlink" viewBox="0 0 500 500">
  <defs>
    <style>
      .cls-1 {
        fill: #75683b;
        stroke-width: 0px;
      }
    </style>
  </defs>
  <image width="710" height="410" transform="translate(-7942 -7992)" xlink:href="Thyrfing-1.png"/>
  <g>
    <path class="cls-1" d="M203.5,142.7c2.3,2.2,4.6,4.4,7.7,7.3,1.6-7.9,3-14.4,4.3-20.9h1.9v21.5c3-.3,5-.6,7.3-.8.4-10.9-1-21.8,7.2-32.1-1,11.8-6.7,22.4.2,32.5,9.6-1.7,11-9.2,11.1-16.3.3-19.2-.2-38.5-.5-57.7-.1-7.8-2.2-14.7-8.3-20.4-2.5-2.3-2.9-6.8-4-9.7,5.7,2.9,10.9,5.5,16.2,8.2,1.8-3.6,3.6-7.2,5.1-10.4,0,0,.2,1.1.6,2.1,1.3,2.9,3,8.2,4,8,3.9-.5,7.9-2.3,11.3-4.4,1.7-1.1,2.5-3.8,3.7-5.9,1.2,7-.6,11.4-5,16.5-2.4,2.9-5,6.7-5.1,10.2-.7,22.3-.7,44.7-.9,67.1,0,.9,0,1.9.3,2.8,1.2,5.2,2.5,11.4,9.3,10.6,6.7-.8,5.9-7.4,5.5-12.2-.6-6.6-2.2-13.1-2.8-19.8,4.6,5.7,7.6,11.9,7.2,19.5-.1,2.6-.9,5.3-.4,7.8.3,1.8,2.3,3.3,3.5,4.9,1.6-1.5,4.3-2.8,4.5-4.4.6-5,.2-10,1.5-15.3,1.3,6.2,2.6,12.5,4.1,19.5,2.6-1.8,4.9-3.3,7.1-4.8.5.2,1,.4,1.5.7-1.9,3.9-3.9,7.9-5.8,11.7,1.6,2.6,3.2,5.2,4.8,7.8-.3.2-.7.5-1,.7-1.5-1.2-3-2.3-4.6-3.5-3.3,6.9-5.1,14.5-9.7,19.7-7.6,8.6-11.2,17.9-11.4,29,0,3.3-1.4,6.5-3.3,9.5-.3-6.2-.7-12.5-1-19-13.3,3.4-13.8,21.1-2.1,33.4-9.2,9.9-9.5,21-3.8,32.7.5,1.1.6,2.8.1,3.9-5.8,12.1-4.8,25.1-4.8,38,0,35.1.9,70.2,0,105.3-.3,13.4-4.3,26.7-6.6,40-.6,0-1.3,0-1.9,0-1.8-10.8-5-21.7-5.3-32.5-1-37.2-1-74.4-1.5-111.5-.1-10,1.1-20.5-1.7-29.8-2.6-8.7-2.5-16-.2-24.5,2.2-8.1-2.6-15.2-8.5-21.5,9.2-7.3,10.7-17.5,9.4-28.2-.3-2.3-4.4-4.2-6.8-6.3l-2.7.6c-.6,7-1.1,14-1.8,23-2.4-12.6-4.4-23.5-6.5-34.8-18.2,8.2-13.1,24.4-17.7,36.9-.5-3.3-1.4-6.5-1.3-9.8.6-10.4-4.9-17.5-11.2-25.1-4.8-5.7-6.3-14.1-9.3-21.2.6-.4,1.2-.7,1.8-1.1,1.4,2.1,2.8,4.2,4.2,6.3,2.7,3.9,5,8.2,8.2,11.5,3.9,3.9,8.6,4,13.7,1,5.4-3.1,5.3-6.8,3.2-11.8-2.1-5-3.7-10.2-5.8-15.8-2.7,1.3-4.5,2.2-6.2,3.1-.3-.2-.5-.5-.8-.7,1.8-2.3,3.6-4.6,4.8-6.2-2.2-5.1-4.1-9.5-6-14,.4-.4.8-.7,1.2-1.1ZM285,163.5c-.7-.9-1.4-1.7-2.1-2.6-3.3,1.3-8,1.6-9.7,4-3.7,5.2-4.2,11.5,1.3,18.2,3.5-6.5,7-13.1,10.5-19.6ZM226.5,172.2c.8,3.1,1.4,5.6,2,8.1,6.1-13.2,3.2-19.2-6.4-17.7-.7,7.6.3,9.8,4.4,9.6Z"/>
    <path class="cls-1" d="M166.9,169.6c-2.6,6-5.1,11.9-8.2,19,14.2-4.4,16.9-7.8,15.9-19,14.8,18,18,39.3,22.4,60.3-4.4-9.6-8.5-19.4-13.2-28.8-1.6-3.1-5.7-8.1-6.9-7.6-5.4,1.9-10.3,5.5-15.2,8.9-.6.4.4,3.4,1,5.1,17.1,40.3,34.3,80.6,51.5,120.9.2.5,0,1.3,0,4.3-13.2-22.8-32.9-35.1-53.2-47.7,5.6.4,11.2.8,18.1,1.4-10.1-24.4-19.7-47.6-29.8-71.8-3.9,6.8-7.2,12.7-11.6,20.6-1.3-14.9,11.5-26.7,3.4-41-13.3,29.9-20.9,60.3-24.2,91.7-1.9-5.3-3.3-10.8-5.8-15.7-9.6-19.1-30.7-22.3-45.6-7.1-11.1,11.4-17,25.7-21.3,40.7-1.2,4.3-2.4,8.6-3.7,12.8-.6,0-1.2,0-1.8,0,0-3.5-.2-7,0-10.6,2-39,14-74.7,35.3-107.3,2.2-3.4,2.4-5.8.4-9.5-13-24.6-17.9-50.6-8.7-77.3,5.2-15.1,17.1-25,32.9-29.6-2.1,1.8-4.6,3.2-6.3,5.3-5.4,6.3-11.5,12.3-15.4,19.4-5.2,9.3-.1,18.5,10.3,20.5,12.9,2.4,25.2-.1,36.3-7.2,4.1-2.6,7.1-2.1,11.6-.3,9.6,3.8,19.8,6.2,29.8,8.6,6.5,1.6,13.3,2.1,19.9,4.3-11.8.6-23.6,1.2-35.4,1.8-12,.6-15,4.7-10.9,15.7,1.8,5,4.3,9.8,7.5,17.2,3-4,4.6-6.7,6.7-8.9,1.9-2,4.3-3.6,7.5-6.1,0,11.6-14.6,19.2-7,31.2,4.2-5.3,8.2-10.4,12.2-15.5.5.4,1,.8,1.5,1.2ZM73.4,131.7c-6.2,12.8-2.6,43,6.6,56.2,7.1-7.4,14.2-14.9,21.3-22.4.5.5,1.1,1,1.6,1.5-6.9,11.6-13.8,23.2-21.4,35.9-4.3.3-13.6,21.6-16.2,41.6,7.7-1.4,15.8-4.7,23.2-3.6,7.7,1.1,14.9,6.5,22.4,10,2.9-22.2,9.7-42.6,20-62,2-3.8,4-9.1,2.9-12.7-3.5-11.1-8.6-21.6-12.9-32.4-1.5-3.9-4-5.2-8.2-5-12,.8-23.8.2-34.7-5.8-1.4-.8-3.1-.9-4.6-1.3Z"/>
    <path class="cls-1" d="M342.4,154.3c4.3,3.6,8.6,7.2,13.8,11.5,2.7-7,5.3-13.6,7.7-20.1,2-5.3-.5-8.6-5.5-9.5-7.3-1.2-14.6-1.9-22-2.2-7.8-.4-15.7,0-23.5,0,0-.6,0-1.3-.1-1.9,10.3-1.5,20.6-3.3,31-4.4,8-.8,15.6-2.2,21.9-7.5,3.6-3,6.9-1.8,11.1-.2,8.7,3.5,17.8,6.7,27,8.2,7.1,1.1,15.7.8,19.6-7,4.1-8.1,2-16.5-3.8-23.4-4.1-4.8-9.1-8.8-14.5-14,3.1,1,5.6,1.5,7.7,2.7,16.5,9.1,23.3,23.4,25.9,41.8,3.2,23-2.3,43.3-12.9,63.1-.8,1.6-.4,4.7.7,6.3,18.4,27.2,28.4,57.6,33.5,89.6,1.4,8.4.9,17,1.3,24.7-5.1-11.5-10.3-23.6-15.9-35.5-1.9-4-5.1-7.4-7.6-11.2-12-18.6-43.1-13-49.6,8.7-1.5,5-2.6,10.1-4.8,15.4-.8-33.1-11.2-63.8-22.4-95.6-4.8,5.2-5.5,9.5-3.7,14.8,3,8.5,5.5,17.1,6.7,26.3-3.7-6.5-7.5-13-12.2-21.3-10.3,25.3-19.8,48.6-29.7,73,6.9-.8,12.2-1.4,19.9-2.3-21,14.8-43.8,24.6-56.1,46.5,17.3-40.2,34.6-80.5,52-120.7,3.2-7.5,2.1-9.6-8.2-15.3-6.1-3.4-9.5-.8-11.8,4.4-3.5,7.8-6.7,15.8-10,23.7-1.1,2.5-2.1,5.1-3.9,7.3,3.4-21.5,8.2-42.4,22.3-59.8.3.3.7.6,1.1.9-2.6,9.2,1,13.8,14.7,17.7-2.6-7-5-13.4-7.4-19.7.6-.3,1.1-.6,1.7-1,3.7,5.4,7.4,10.9,11.3,16.6,3.2-4.4,3.7-8.3.9-13.1-3-5.1-4.9-10.8-7.2-16.2.4-.3.8-.7,1.2-1ZM421.2,188.7c6.5-17.4,12.8-34,8.7-52.4-.7-3.1-.9-6.4-5.1-4.1-11.3,6.4-23.4,7.2-36,6.5-2.4-.1-6.4,1.1-7.2,2.8-5.1,10.2-9.9,20.6-13.7,31.3-1.4,3.9-.4,9.2,1.1,13.4,5.2,15.2,11.3,30.1,16.6,45.3,2.1,6.2,3,12.7,4.5,19.1,8.2-3.7,15.2-8.8,22.8-9.8,7.4-1,15.4,2.1,22.9,3.3-2.5-8.6-4.3-18-8-26.6-3.5-8.3-9-15.8-13.6-23.7-5.3-9-10.5-18-15.8-27,.5-.4,1.1-.8,1.6-1.2,7,7.5,13.9,15.1,21.2,23Z"/>
    <path class="cls-1" d="M292.2,229.4c-2.5-17.1-5.3-34.2,0-51.4,3.1,17.1,5.4,34.2,0,51.4Z"/>
    <path class="cls-1" d="M202.3,143.8c0-.6-.1-1.2-.2-1.9.5.3.9.5,1.4.8-.4.4-.8.7-1.2,1.1Z"/>
    <path class="cls-1" d="M341.2,155.3c0-.6-.1-1.2-.2-1.8.5.3.9.6,1.4.9-.4.3-.8.7-1.2,1Z"/>
    <path class="cls-1" d="M165.4,168.4l1.4-1c0,.7,0,1.5,0,2.2-.5-.4-1-.8-1.5-1.2Z"/>
    <path class="cls-1" d="M326.3,170.2c.4-.3.8-.6,1.3-.9,0,.6-.1,1.2-.2,1.8-.4-.3-.7-.5-1.1-.9Z"/>
  </g>
</svg>