<?xml version="1.0" encoding="UTF-8"?>
<svg id="Calque_1" data-name="Calque 1" xmlns="http://www.w3.org/2000/svg" version="1.1" xmlns:xlink="http://www.w3.org/1999/xlink" viewBox="0 0 500 500">
  <defs>
    <style>
      .cls-1 {
        fill: #75683b;
      }

      .cls-1, .cls-2 {
        stroke-width: 0px;
      }

      .cls-2 {
        fill: #842a04;
      }
    </style>
  </defs>
  <image width="710" height="410" transform="translate(-7942 -7992)" xlink:href="Tyr-1.png"/>
  <g>
    <path class="cls-1" d="M391.2,286.7c1.3,1.4,2.7,2.8,4,4.2h-.1c.4.3.7.7,1.1,1.1h-.1c.4.3.7.6,1.1,1h0c.4.6.8,1.3,1.1,2v-.2c.3.4.6.8,1,1.1h-.1c.4.2.7.6,1.1,1h-.1c.4.3.7.6,1.1,1h-.1c.4.3.7.6,1.1,1h0c.4.6.8,1.3,1.1,2v-.2c.2.4.6.8,1,1.1h-.1c.4.2.7.6,1.1,1h-.1c.4.3.7.6,1.1,1h0c1.4,1.6,2.7,3.3,4.1,5h-.1c.4.3.7.6,1.1,1h-.1c.4.2.7.6,1.1,1h-.1c.4.3.7.6,1.1,1h0c.4.6.8,1.3,1.1,2v-.2c.2.4.6.8,1,1.1h-.1c.4.2.7.6,1.1,1h-.1c.4.3.7.6,1.1,1h-.1c.4.3.7.6,1.1,1h0c.4.6.8,1.3,1.1,2v-.2c.6.7,1.3,1.4,2,2.1h-.1c2,2.3,4.1,4.6,6.1,7h-.1c.4.3.7.7,1.1,1h-.1c.4.3.7.6,1.1,1h-.1c.4.3.7.6,1.1,1h0c.7.9,1.4,1.9,2.1,3h-.1c.4.3.7.6,1.1,1h-.1c.4.3.7.6,1.1,1h0c.4.6.8,1.3,1.1,2v-.2c.6.7,1.3,1.4,2,2.1h-.1c.4.3.7.7,1.1,1h0c.4.6.8,1.3,1.1,2v-.2c1.2,1.4,2.6,2.8,4,4.2h-.1c.4.3.7.7,1.1,1h-.1c.4.3.7.6,1.1,1h-.1c.4.3.7.6,1.1,1h0c.7.9,1.4,1.9,2.1,3h-.1c.4.3.7.6,1.1,1h0c.4.6.8,1.3,1.1,2v-.2c.2.4.6.8,1,1.1h-.1c.7.6,1.4,1.3,2.1,2h-.1c.4.3.7.7,1.1,1,0,0,0-.1,0-.1,2,2.4,4.1,4.7,6.1,7.1h-.1c.4.3.7.7,1.1,1h-.1c.4.3.7.6,1.1,1h0c.7.9,1.4,1.9,2.1,3h-.1c.4.3.7.6,1.1,1h-.1c.4.3.7.6,1.1,1h0c1.7,1.5,3.1,4.2,5,4.6,4.3,1,3.3,3.9,3.4,6.6,0,3.1-1.9,4-4.6,4-2.3,0-4.7,0-7,0-140.8,0-281.5,0-422.3,0-3.8,0-7.7,0-11.5.1-.1-3.4-.2-6.7-.3-10.1,2.6-.4,5.1-1.2,7.7-1.2,17.7-.1,35.4,0,53.2-.1,1.8,0,3.6-.8,5.5-1.3,0-77.1,0-154.3,0-231.4,0-3.8,0-7.7.2-11.5.1-.7.2-1.3.4-2-.3-.2-.7-.3-1-.5-1.2,1.9-2.4,3.8-3.6,5.7h.1c-1,1-2,2-3.1,3v-.2c-.3.7-.7,1.4-1,2.1h0c-.4.3-.7.6-1.1,1h.1c-.7.9-1.4,1.9-2.1,3,0,0,0-.1,0-.1-.4.4-.7.8-1.1,1.1,0,0,.1-.1.1-.1-.7,1-1.4,2.1-2.1,3.1,0,0,0-.1,0-.1-.4.4-.7.7-1.1,1.1h.1c-.4.3-.7.6-1.1,1,0,0,.1-.1.1-.1l-5.1,6.1h.1c-.7.6-1.4,1.3-2.1,2v-.2c-.3.7-.6,1.4-1,2.1,0,0,0-.1,0-.1-.4.4-.7.8-1.1,1.1h.1c-.4.3-.7.6-1.1,1v-.2c-.2.7-.6,1.4-1,2.1,0,0,0-.1,0-.1-.4.4-.7.8-1.1,1.1h.1c-.7.9-1.4,1.9-2.1,3h0c-.4.3-.7.6-1.1,1h.1c-.4.3-.7.6-1.1,1h.1c-1.4,1.6-2.7,3.3-4.1,5,0,0,0-.1,0-.1-.4.4-.7.8-1.1,1.1,0,0,.1-.1.1-.1-.7,1-1.4,2.1-2.1,3.1h0c-.4.3-.7.6-1.1,1h.1c-.4.3-.7.6-1.1,1,0,0,.1-.1.1-.1-.4.4-.7.8-1.1,1.1,0,0,.1-.2.1-.2-.4.7-.8,1.4-1.1,2.1h0c-.4.3-.7.6-1.1,1,0,0,.1-.1.1-.1-.4.4-.7.8-1.1,1.1,0,0,.1-.2.1-.2-.4.7-.8,1.4-1.1,2.1h0c-.4.3-.7.6-1.1,1,0,0,.1-.1.1-.1-.4.4-.7.8-1.1,1.1,0,0,.1-.1.1-.1-1.4,1.7-2.7,3.4-4.1,5.1h0c-.4.2-.7.6-1.1,1,0,0,.1-.1.1-.1-.4.4-.7.8-1.1,1.1v-.2c-.2.7-.6,1.4-1,2.1h0c-.4.3-.7.6-1.1,1h.1c-.4.3-.7.6-1.1,1h.1c-.4.3-.7.6-1.1,1h.1c-1.4,0-2.8-.1-4.2-.1h.1c-.4-.3-.8-.6-1.2-1h.1c-.7-.3-1.4-.6-2.1-1h.1c-.4-.3-.8-.6-1.2-1h.1c0-2,0-4,0-6.1,0,0-.1.1-.1.1.7-.7,1.4-1.4,2.1-2.2,0,0-.1.2-.1.2.4-.7.8-1.4,1.1-2.1h0c.4-.3.7-.6,1.1-1h-.1c.4-.3.7-.6,1.1-1,0,0-.1.2-.1.2.4-.7.8-1.4,1.1-2.1,0,0,0,.1,0,.1.4-.4.7-.8,1.1-1.1,0,0-.1.1-.1.1.4-.4.7-.8,1.1-1.1,0,0-.1.1-.1.1.4-.4.7-.8,1.1-1.1,0,0-.1.2-.1.2l1.1-2.1s0,.1,0,.1c.4-.4.7-.8,1.1-1.1h-.1c.4-.3.7-.6,1.1-1h-.1c.4-.3.7-.6,1.1-1h-.1c1-1.2,2.1-2.6,3.1-4h0c.4-.2.7-.6,1.1-1h-.1c.7-.6,1.4-1.3,2.1-2v.2c.3-.7.6-1.4,1-2.1h0c.4-.3.7-.6,1.1-1h-.1c.4-.3.7-.6,1.1-1,0,0-.1.1-.1.1l1.1-1.1s-.1.2-.1.2c.4-.7.8-1.4,1.1-2.1h0c.4-.3.7-.6,1.1-1h-.1c.4-.3.7-.6,1.1-1,0,0-.1.1-.1.1l3.1-4.1s0,.1,0,.1c.4-.4.7-.8,1.1-1.1h-.1c.7-.6,1.4-1.3,2.1-2v.2c.3-.7.6-1.4,1-2.1h0c.4-.3.7-.6,1.1-1h-.1c.4-.3.7-.6,1.1-1,0,0-.1.1-.1.1.4-.4.7-.8,1.1-1.1,0,0-.1.2-.1.2.4-.7.8-1.4,1.1-2.1,0,0,0,.1,0,.1.4-.4.7-.8,1.1-1.1,0,0-.1.1-.1.1.4-.4.7-.8,1.1-1.1h-.1c.4-.2.7-.6,1.1-1v.2c.3-.7.6-1.4,1-2.1h0c.4-.2.7-.6,1.1-1h-.1c1.4-1.6,2.7-3.3,4.1-5h0c.4-.2.7-.6,1.1-1,0,0-.1.1-.1.1.4-.4.7-.8,1.1-1.1h-.1c.4-.2.7-.6,1.1-1h-.1c.4-.2.8-.6,1.1-1v.2c.2-.7.6-1.4,1-2.1h0c.4-.3.7-.6,1.1-1h-.1c.4-.3.7-.6,1.1-1v.2c.3-.7.6-1.4,1-2.1,0,0,0,.1,0,.1.4-.4.7-.8,1.1-1.1,0,0-.1.1-.1.1,2-2,3.9-4.1,5.9-6.1-.2-.4-.4-.8-.6-1.2-5.9,0-11.8,0-17.7,0-13.1-.1-26.2-.3-39.2-.5,0-3.1,0-6.2,0-9.4,14.3-.2,28.6-.4,43-.5,44-.2,88-.4,132-.5,23.5,0,47,0,70.5-.1,2,0,4-.5,5.9-.7,1-.2,1.9-.7,2.9-.7,28.8,0,57.6,0,86.5,0,2.6.3,5.3.7,7.9.7,29.1.1,58.2,0,87.4.2,2.6,0,5.2.8,7.8,1.2,0,3.4,0,6.7,0,10.1-2.5.1-5,.4-7.4.4-30.4,0-60.8,0-91.2,0-1.9,0-3.8,0-5.7,0-.2.5-.3.9-.5,1.4l6,3.7s-.1,0-.1,0c.4.4.8.7,1.1,1.1,0,0-.1-.1-.1-.1,1,1,2.1,2.1,3.1,3.1h-.2c.7.3,1.4.6,2.1,1h-.1c.4.3.8.6,1.1,1h-.1c.4.2.8.6,1.1,1h-.1c1.4.9,2.7,2,4.1,3h-.1c.4.3.8.6,1.1,1h-.1c1,.6,2,1.3,3.1,2h-.1c.4.3.8.7,1.1,1,0,0-.1-.1-.1-.1.4.4.8.7,1.1,1.1,0,0-.1-.1-.1-.1,2,1.7,4.1,3.4,6.1,5.1h-.1c1.1.9,2.1,2,3.2,3h-.2c.7.3,1.4.6,2.1,1,0,0-.1,0-.1,0,.4.4.8.7,1.1,1.1,0,0-.1-.1-.1-.1.7.7,1.4,1.4,2.1,2.1,0,0-.2-.1-.2-.1l2.1,1.1h-.1c.4.3.8.7,1.1,1,0,0-.1-.1-.1-.1,1.4,1,2.7,2.1,4.1,3.1h-.1c.4.3.8.7,1.1,1,0,0-.1-.1-.1-.1.4.4.8.7,1.1,1.1h-.1c1.1.9,2.1,1.9,3.2,3h-.2c1,.6,2.1,1.3,3.1,2h-.1c.7.6,1.4,1.3,2.2,2h-.2c.7.3,1.4.6,2.1,1h-.1c.4.3.8.6,1.1,1h-.1c.4.2.8.6,1.1,1h-.2c.7.3,1.4.6,2.1,1,0,0-.1,0-.1,0,.4.4.7.7,1.1,1.1h-.1c.4.2.8.6,1.1,1h-.1c.4.2.8.6,1.1,1h-.1c.3,1.3.7,2.7,1,4.1,0,0,0-.1,0-.1-.4.4-.8.8-1.1,1.1,0,0,.1-.1.1-.1-.4.4-.8.7-1.1,1.1h.1c-.4.3-.8.6-1.1,1h.1c-.4.3-.7.6-1.1,1h.1c-.4.3-.8.6-1.1,1h.1c-.4.3-.7.6-1.1,1,0,0,.1-.1.1-.1-.4.4-.7.7-1.1,1.1,0,0,.1-.1.1-.1-.4.4-.7.7-1.1,1.1h.1c-.4.2-.8.6-1.1,1h.1c-1.4,1-2.7,2-4.1,3.1,0,0,.1-.1.1-.1-.4.4-.8.8-1.1,1.1,0,0,.1-.1.1-.1-3.7,3.7-7.4,7.4-11.1,11.1h.1c-.4.2-.8.6-1.1,1h.1c-.4.2-.8.6-1.1,1,0,0,.1-.1.1-.1-.4.4-.8.7-1.1,1.1,0,0,.1,0,.1,0-2,2-4.1,4.1-6.1,6.1,0,0,0-.1,0-.1l-1.1,1.1s.1-.1.1-.1c-.4.4-.7.7-1.1,1.1,0,0,.1-.1.1-.1-.4.4-.7.7-1.1,1.1h.1c-.4.3-.7.6-1.1,1h.1c-.4.3-.7.6-1.1,1,0,0,.1-.1.1-.1-.4.4-.7.7-1.1,1.1,0,0,.1,0,.1,0-2.4,2-4.7,4.1-7.1,6.1h.1c-.4.2-.8.6-1.1,1h.1c-.4.2-.8.6-1.1,1h.1c-.4.2-.8.6-1.1,1h.1c-.4.2-.8.6-1.1,1,0,0,.1-.1.1-.1-.4.4-.8.8-1.1,1.1,0,0,.1-.1.1-.1-.4.4-.8.8-1.1,1.1,0,0,.1-.1.1-.1-.4.4-.8.7-1.1,1.1h.1c-.4.2-.8.6-1.1,1h.1c-.4.2-.8.6-1.1,1,0,0,.1-.1.1-.1-.4.4-.8.7-1.1,1.1,0,0,.1-.1.1-.1-.4.4-.8.7-1.1,1.1h.1c-1.4,1-2.7,2-4.1,3.1h.1c-.4.2-.8.6-1.1,1,0,0,.1-.1.1-.1-.4.4-.8.8-1.1,1.1,0,0,.1-.1.1-.1-.4.4-.8.8-1.1,1.1h.1c-.4.2-.8.6-1.1,1,0,0,.1-.1.1-.1-2.7,2.4-5.5,4.7-7.9,7.3-.6.7,0,2.5-.1,3.7h-.1c.4.3.7.6,1.1,1,0,0-.1-.1-.1-.1.4.4.7.8,1.1,1.1h0c1,1.2,2.1,2.6,3.1,4h-.1c.4.3.7.6,1.1,1h-.1c.4.3.7.6,1.1,1h0c1,1.2,2.1,2.6,3.1,4h-.1c.4.3.7.6,1.1,1h-.1c.4.3.7.6,1.1,1h0c.4.6.8,1.3,1.1,2,0,0-.1-.2-.1-.2,1.4,1.4,2.7,2.8,4.1,4.2h-.1c.4.3.7.7,1.1,1h-.1c.4.3.7.6,1.1,1h0c.7.9,1.4,1.9,2.1,3h-.1c.4.3.7.6,1.1,1h-.1c.4.3.7.6,1.1,1h0c.4.6.8,1.3,1.1,2v-.2c.2.4.6.8,1,1.1h-.1c.4.2.7.6,1.1,1h-.1c.4.3.7.6,1.1,1h-.1c.4.3.7.6,1.1,1h0c.4.6.7,1.3,1.1,2v-.2ZM309.1,377.8c.4.4.7.8,1.1,1.1h-.2c1.9.3,3.7,1,5.6,1,9.3.1,18.7-.2,28,.2,4.9.2,6.6-1.2,6.6-6.4-.2-82.3-.2-164.6,0-246.9,0-4.9-1.6-6.2-6.3-6.2-31.3.2-62.6,0-93.9.1-1.7,0-3.3.8-5,1.3,0,55.6,0,111.2,0,166.7,0,2.6.1,5.6,1.4,7.6,3.6,5.6,7.8,10.7,11.8,16,.3.5.6,1,.9,1.5h-.1c.4.2.7.6,1.1,1h0c.4.6.8,1.3,1.1,2v-.2c.2.4.6.8,1,1.1h-.1c.4.3.7.6,1.1,1h0c.4.6.7,1.3,1.1,2v-.2c.6.7,1.3,1.4,2,2.2h0c1.4,1.6,2.7,3.3,4.1,5h-.1c.4.3.7.6,1.1,1h-.1c.4.3.7.6,1.1,1h0c.4.6.8,1.3,1.1,2v-.2c.3.4.6.8,1,1.1h-.1c.4.3.7.6,1.1,1h0c.7.9,1.4,2,2.1,3h0c.4.6.8,1.3,1.1,2v-.2c.6.7,1.3,1.4,2,2.2h-.1c1.7,1.9,3.4,4,5.1,6h-.1c.4.3.7.6,1.1,1h0c.7.9,1.4,1.9,2.1,3h-.1c.4.3.7.6,1.1,1h0c.4.6.8,1.3,1.1,2v-.2c.2.4.6.8,1,1.1h-.1c.4.3.7.6,1.1,1h0c.4.6.8,1.3,1.1,2v-.2c.6.7,1.3,1.4,2,2.1h0c.4.6.7,1.3,1.1,2v-.2c1.2,1.4,2.6,2.8,4,4.2h0c1,1.3,2.1,2.6,3.1,4h-.1c.4.3.7.6,1.1,1h0c.7.9,1.4,1.9,2.1,3h-.1c.4.3.7.6,1.1,1h0c.4.6.8,1.3,1.1,2h-.1c.4.2.7.6,1.1,1h-.1ZM416,180.8c.4-.4.8-.7,1.1-1.1h-.1c3.9-1.6,3-3.3,0-4.9,0,0,.1.1.1.1-.4-.4-.8-.8-1.1-1.1h.2c-.7-.2-1.4-.6-2.1-1h.1c-.4-.3-.8-.6-1.1-1,0,0,.1.1.1.1-.4-.4-.8-.7-1.1-1.1,0,0,.1.1.1.1-.4-.4-.8-.7-1.1-1.1,0,0,.2.1.2.1-.7-.4-1.4-.8-2.1-1.1h.1c-.4-.3-.8-.6-1.1-1h.1c-1-.6-2.1-1.3-3.1-2,0,0,.1,0,.1,0-.4-.4-.7-.7-1.1-1.1h.1c-.4-.2-.8-.6-1.1-1h.1c-.4-.2-.8-.6-1.1-1,0,0,.1.1.1.1l-4.2-4.1h.2c-.7-.3-1.4-.6-2.1-1h.1c-.7-.6-1.4-1.3-2.1-2h.2c-.7-.3-1.4-.7-2.1-1h.1c-.4-.3-.8-.7-1.1-1h.1c-.4-.2-.8-.6-1.1-1h.2c-.7-.3-1.4-.6-2.1-1h.1c-.4-.3-.7-.7-1.1-1,0,0,.1.1.1.1l-1.1-1.1h.1c-.4-.3-.8-.6-1.1-1h.1c-2-1.6-4.1-3.3-6.1-5h.1c-.4-.3-.8-.7-1.1-1,0,0,.1.1.1.1-.7-.7-1.4-1.4-2.2-2.1,0,0,.2.1.2.1-.7-.4-1.4-.8-2.1-1.1h.1c-.4-.3-.8-.6-1.1-1,0,0,.1.1.1.1-.4-.4-.8-.7-1.1-1.1h.1c-.7-.3-1.4-.6-2.1-1,0,0,.1,0,.1,0-.4-.4-.7-.7-1.1-1.1,0,0,.1.1.1.1-.4-.4-.8-.7-1.1-1.1h.1c-.5-.2-1-.5-1.5-.8-1.3-1-2.6-2-3.8-3-.7.2-1.4.4-2,.6-.1.8-.3,1.6-.3,2.5,0,30.4,0,60.8,0,91.1,0,1.1.5,2.2.8,3.3.4,1,.7,2,1.1,3,.6-.5,1.1-1,1.7-1.6,0,0,0,0,0,0,2-2,4-4,6.1-6h0c.4-.3.7-.6,1.1-1h0c.4-.3.7-.6,1.1-1,0,0,0,0,0,0l1.1-1.1s0,0,0,0c1-.7,2-1.4,3-2.1,0,0,0,0,0,0,.6-.7,1.2-1.5,1.8-2.2.3-.3.7-.6,1-.9.3-.3.7-.6,1-1,.4-.3.7-.7,1.1-1,2-1.9,4.1-3.9,6.1-5.8.3-.3.7-.7,1-1,.3-.3.7-.7,1-1,.3-.3.7-.7,1-1,.5-.5,1-1,1.6-1.5.4-.3.7-.6,1.1-.9.7-.6,1.4-1.3,2.1-1.9.3-.3.7-.6,1-.9.3-.3.7-.6,1-1,.3-.3.7-.6,1-1,.4-.3.7-.7,1.1-1,2-2,4-3.9,6.1-5.9.3-.3.7-.7,1-1,.2-.2.4-.4.6-.5,1.5-1.2,3-2.4,4.4-3.6,0,0-.1.1-.1.1l1.1-1.1s-.1.1-.1.1c.4-.4.8-.7,1.1-1.1h-.1c.4-.3.8-.6,1.1-1h-.1c.4-.2.8-.6,1.1-1,0,0-.1.1-.1.1.4-.4.8-.7,1.1-1.1h-.1ZM446.8,370.2c-.3-.4-.6-.8-.9-1.1-.3-.4-.6-.7-.9-1.1-.5-.5-.9-1-1.4-1.6l-.9-1.1c-.3-.4-.6-.7-.9-1.1-.3-.4-.6-.7-.9-1.1-.3-.4-.6-.7-.9-1.1-.3-.4-.6-.7-.8-1.1l-1-1c-.3-.3-.6-.7-1-1-.7-.9-1.5-1.8-2.2-2.7-.3-.4-.6-.8-.9-1.2-.3-.3-.6-.7-.9-1-.5-.5-.9-1.1-1.4-1.6-.3-.4-.6-.8-.9-1.1-.3-.4-.6-.7-.9-1.1-.3-.4-.6-.7-.9-1.1-.5-.5-.9-1-1.4-1.6-.3-.4-.6-.8-.9-1.1-.3-.4-.6-.7-.9-1.1-.3-.4-.6-.7-.9-1.1l-.9-1.1c-.3-.4-.6-.7-.9-1.1-.3-.3-.6-.7-1-1-.3-.3-.6-.7-1-1-.7-.9-1.5-1.8-2.2-2.8-.3-.4-.6-.8-.9-1.2-.3-.3-.7-.7-1-1-.4-.6-.9-1.1-1.3-1.7-.3-.4-.6-.8-.9-1.1-.3-.4-.6-.7-.9-1.1-.3-.4-.6-.7-.9-1.1-.5-.5-.9-1-1.4-1.6-.3-.4-.6-.8-.8-1.1-.9-1.1-1.8-2.1-2.7-3.2-.3-.4-.7-.7-1-1.1-.3-.3-.6-.7-.9-1-.7-.9-1.5-1.8-2.2-2.8-.3-.4-.7-.8-1-1.1l-.9-1.1c-.3-.3-.7-.7-1-1-.4-.5-.9-1.1-1.3-1.6-.3-.4-.6-.8-.9-1.2-.3-.4-.6-.7-.9-1.1-.3-.4-.6-.7-.9-1.1-.5-.6-.9-1.2-1.4-1.8-.9-1-1.8-2-2.8-3-.3-.4-.6-.7-.9-1.1-.3-.4-.6-.7-.9-1.1-.3-.3-.6-.7-.9-1-.5-.5-.9-1.1-1.4-1.6-.3-.4-.6-.8-.8-1.2-.3-.4-.6-.7-.9-1.1-.3-.4-.6-.7-1-1.1-.3-.4-.6-.7-.9-1.1-1-1.3-2.1-2.6-3.1-3.8-.3-.4-.6-.7-.9-1.1-.5-.5-1-1-1.5-1.5-1.5-1.8-3-3.7-4.5-5.5-.3-.3-.7-.7-1-1-.5-.5-1-1-1.5-1.6-.6-.8-1.1-1.5-1.7-2.3-.3-.4-.6-.7-1-1.1-.3-.3-.6-.7-.9-1-.5-.5-.9-1.1-1.4-1.6-.3-.4-.6-.8-.9-1.2-.3-.4-.6-.7-.9-1.1-.5-.5-.9-1.1-1.4-1.6-.3-.3-.6-.6-.8-1-.6-.8-1.3-1.5-1.9-2.3-.3.8-.6,1.6-.9,2.4-.1,1-.3,2-.3,3,0,32.8,0,65.6,0,98.4,0,1.5.5,2.9.7,4.4.2.1.3.3.5.4,1.6.5,3.2,1.5,4.8,1.5,27.8,0,55.7,0,83.5,0,1.3,0,2.6-.4,3.8-.6,0-.3,0-.7,0-1-.6-.2-1.2-.4-1.7-.7-.7-1-1.4-1.9-2.1-2.9-.3-.4-.6-.7-1-1.1-.5-.5-1-1-1.4-1.6-.3-.4-.6-.8-.9-1.2ZM193.2,360.9c-.3.4-.6.8-.9,1.1-1,1.3-2,2.6-3.1,3.9-.3.4-.7.7-1,1.1-.8,1.1-1.7,2.2-2.5,3.4-.5.5-1,1-1.5,1.6-.3.4-.6.8-.9,1.2-.7.9-1.4,1.9-2.1,2.8-.3.4-.6.7-.9,1.1-1.5,2.5-1.5,2.7,2.3,2.7,14.3,0,28.6,0,42.8,0,6.3,0,6.6-.3,6.6-6.9,0-18.8,0-37.5,0-56.3,0-1.1-.2-2.2-.3-3.3-.3-.1-.6-.2-.9-.3-.6,1-1.1,2-1.7,3-.3.4-.5.8-.8,1.1-.3.4-.6.8-.9,1.1-.4.6-.8,1.1-1.3,1.7-.3.4-.6.7-1,1.1-1,1.3-2,2.6-3,3.9-.3.4-.7.7-1,1.1-1.6,2-3.2,4-4.8,6.1-.6.7-1.2,1.5-1.8,2.2-.4.6-.9,1.1-1.3,1.7-.3.4-.6.8-.9,1.2-.7.9-1.4,1.9-2.1,2.8-.3.3-.7.7-1,1-1.3,1.7-2.6,3.3-3.9,5-.3.4-.6.8-.9,1.2-.9,1.1-1.7,2.2-2.6,3.3-.5.6-1,1.1-1.4,1.7-1,1.3-2,2.6-3,3.9l-1,1.1c-.7,1-1.4,1.9-2.1,2.9-.3.3-.6.7-1,1ZM181.1,357.8h-.1c.4-.3.7-.6,1.1-1h-.1c1-1.3,2.1-2.6,3.1-4,0,0,0,.1,0,.1.4-.4.7-.8,1.1-1.1h-.1c.4-.3.7-.6,1.1-1,0,0-.1.1-.1.1.7-.7,1.4-1.4,2.1-2.1,0,0-.1.2-.1.2.4-.7.7-1.4,1.1-2.1h0c.4-.3.7-.6,1.1-1,0,0-.1.1-.1.1.4-.4.7-.8,1.1-1.1,0,0-.1.2-.1.2.4-.7.8-1.4,1.1-2.1,0,0,0,.1,0,.1.4-.4.7-.8,1.1-1.1h-.1c.4-.3.7-.6,1.1-1,0,0-.1.1-.1.1.4-.4.7-.8,1.1-1.1,0,0-.1.2-.1.2.4-.7.8-1.4,1.1-2.1,0,0,0,.1,0,.1.4-.4.7-.8,1.1-1.1,0,0-.1.1-.1.1,1-1.4,2.1-2.7,3.1-4.1h0c.4-.2.7-.6,1.1-1h-.1c.4-.3.7-.6,1.1-1h-.1c.7-.6,1.4-1.3,2.1-2,0,0-.1.2-.1.2.4-.7.8-1.4,1.1-2.1,0,0,0,.1,0,.1.4-.4.7-.8,1.1-1.1h-.1c.7-.6,1.4-1.3,2.1-2v.2c.3-.7.6-1.4,1-2.1,0,0,0,.1,0,.1.4-.4.7-.8,1.1-1.1v.2c.3-.7.6-1.4,1-2.1h0c.4-.3.7-.6,1.1-1h-.1c.4-.3.7-.6,1.1-1h-.1c1.7-1.9,3.4-4,5.1-6h-.1c.7-.6,1.4-1.3,2.1-2h-.1c.4-.2.8-.6,1.1-1,0,0-.1.2-.1.2.4-.7.8-1.4,1.1-2.1h0c.7-.9,1.4-1.9,2.1-3h0c.4-.3.7-.6,1.1-1h-.1c.4-.3.7-.6,1.1-1h-.1c.4-.3.7-.6,1.1-1,0,0-.1.2-.1.2.4-.7.8-1.4,1.1-2.1h0c.4-.3.7-.6,1.1-1h-.1c.4-.4.7-.9,1.1-1.5v.2c.2-2.1.7-4.3.7-6.4,0-53.9,0-107.9,0-161.8,0-4.7-1.1-6.6-6.4-6.6-35.3.2-70.6.1-105.9.1-1.6,0-3.2.2-5.5.3,1,1.3,1.5,2,2.1,2.7,0,0-.1-.1-.1-.1.4.4.7.8,1.1,1.1,0,0,0-.1,0-.1.7,1,1.4,2.1,2.1,3.1,0,0,0-.1,0-.1,2.4,3,4.7,6.1,7.1,9.1h-.1c.4.3.7.6,1.1,1h0c.7.9,1.4,1.9,2.1,3h-.1c.4.3.7.6,1.1,1h0c.4.6.8,1.3,1.1,2v-.2c.2.4.6.8,1,1.2h-.1c.4.3.7.6,1.1,1h0c.4.6.8,1.3,1.1,2h-.1c.4.2.7.6,1.1,1h0c.4.6.7,1.3,1.1,2v-.2c.2.4.6.8,1,1.1h-.1c.7.6,1.4,1.3,2.1,2h0c1.4,1.6,2.7,3.3,4.1,5h0c.7.9,1.4,2,2.1,3h-.1c.4.3.7.6,1.1,1h0c.4.6.8,1.3,1.1,2v-.2c.3.4.6.8,1,1.1h-.1c.4.3.7.6,1.1,1h0c.4.6.8,1.3,1.1,2v-.2c.2.4.6.8,1,1.1h-.1c.4.3.7.6,1.1,1h0c.4.6.7,1.3,1.1,2v-.2c.6.7,1.3,1.4,2,2.1h0c1,1.3,2.1,2.6,3.1,4h-.1c.4.3.7.6,1.1,1h0c.7,1,1.4,2.1,2.1,3.2,1,1.1,2,2.3,3,3.4.3.5.6.9,1,1.4h0c.4.6.7,1.3,1.1,2v-.2c.2.4.6.8,1,1.2h-.1c.4.3.7.6,1.1,1h0c.4.6.7,1.3,1.1,2v-.2c1.4,2.9,4.5,5.7.9,9.2,0,0,.1,0,.1,0-1,.7-2.1,1.4-3.1,2.1h.1c-1.7.3-3.5.6-5.2.9h0c-.4-.6-.7-1.4-1.1-2.1v.2c-.3-.4-.6-.8-1-1.1,0,0,.1.1.1.1-.4-.4-.7-.8-1.1-1.1h0c-.7-.9-1.4-2-2.1-3h0c-.4-.6-.7-1.3-1.1-2v.2c-.6-.7-1.3-1.4-2-2.2h0c-.7-.9-1.4-2-2.1-3h.1c-.4-.3-.7-.6-1.1-1h0c-.7-.9-1.4-1.9-2.1-3h.1c-.4-.3-.7-.6-1.1-1h0c-.4-.6-.7-1.3-1.1-2h.1c-.4-.2-.7-.6-1.1-1h0c-.7-.9-1.4-2-2.1-3h0c-.7-.9-1.4-2-2.1-3h0c-.4-.6-.7-1.3-1.1-2v.2c-1.6-2.1-3.3-4.1-5-6.2,0,0,0,.1,0,.1-.7-1-1.4-2.1-2.1-3.1h.1c-.4-.3-.7-.6-1.1-1h0c-.7-.9-1.4-2-2.1-3h0c-.7-.9-1.4-2-2.1-3h0c-.4-.6-.7-1.3-1.1-2v.2c-.2-.4-.6-.8-1-1.1h0c-.4-.6-.7-1.3-1.1-2v.2c-.6-.7-1.3-1.4-2-2.2h.1c-1-1.3-2.1-2.6-3.1-4h0c-1-1.3-2.1-2.6-3.1-4h0c-.7-.9-1.4-2-2.1-3h0c-.4-.6-.7-1.3-1.1-2v.2c-.3-.3-.8-.7-1.2-1-1.5-1.9-3.1-3.8-4.6-5.6-.3,2.5-.9,4.9-.9,7.4,0,76.5,0,153.1,0,229.6,0,2.5.6,4.9.9,7.4,17.5.2,34.9.5,52.4.3,3.9,0,7.2-3,7-7.8h0c1.3-.7,2.8-1.2,3.8-2.2,2.2-2.2,4.2-4.6,6.3-7,.5-.7,1.1-1.4,1.6-2.1,0,0,0,.1,0,.1.4-.4.7-.8,1.1-1.1ZM268,342.8h.1c-.4-.3-.7-.6-1.1-1h0c-1-1.2-2.1-2.6-3.1-4h.1c-.4-.3-.7-.6-1.1-1h0c-.7-.9-1.4-1.9-2.1-3h.1c-.4-.2-.7-.6-1.1-1h.1c-.4-.3-.7-.6-1.1-1,0,0,0,.1,0,.1l-1.1-2.1h.1c-.4-.2-.7-.6-1.1-1h.1c-.4-.3-.7-.6-1.1-1h0c-.7-.9-1.4-2-2.1-3h0c-.4-.6-.8-1.3-1.1-2v.2c-1.9-2.4-3.9-4.8-6-7.2h.1c-.4-.3-.8-.6-1.1-1h0c-.2-.5-.5-1.2-1.3-3.1-.4,2.1-.7,2.8-.7,3.6,0,19.9,0,39.8,0,59.8,0,1.3,1,2.6,1.6,3.9h-.2c14.9,0,29.7,0,44.6,0-4.1.2-8.3.3-12.4.2-10.1-.2-20.2-.4-30.4-.6h45c.3-.8.6-1.5.9-2.3-3.5-3.3-7-6.7-10.5-10h0c-.2-1.1-.2-2.6-.8-3.5-3.6-5.2-7.3-10.3-11-15.4-.3-.5-.7-1-1-1.4h0c-.4-.6-.7-1.3-1.1-2v.2c-.2-.4-.6-.8-1-1.1Z"/>
    <path class="cls-1" d="M95.3,134.7c0,3.8-.2,7.7-.2,11.5,0,77.1,0,154.3,0,231.4-6.3.1-12.6.4-18.9.4-14.8,0-29.6,0-44.4,0-2.6,0-2.6,0-3,2.2.1,3.4.2,6.7.3,10.1,0,.2.2.5.3.7,0,0,.1.2.1.2h.2c149,0,298.1,0,447.1,0,0,.4.1.8.2,1.3-.9.3-1.8.8-2.8.9-1.3.2-2.7,0-4,0-145.5,0-291,0-436.5,0q-7.4,0-7.4-7.6c0-3.1,0-6.2,0-9.8,2.6,0,4.4,0,6.2,0,17.7,0,35.3,0,53,0,8.2,0,7.6,1.1,7.6-7.4,0-48.7,0-97.4,0-146,0-25,0-50,0-75,0-2,0-3.9,0-5.9-.4-.2-.8-.4-1.3-.6-18.4,23-36.8,46-55.4,69.2-4.7-3-9-5.8-13.3-8.7-.6-.4-.8-1.7-1.1-2.5.4-.3.8-.6,1.1-.8.3-.4.6-.7.9-1.1,1.1-1.3,2.1-2.6,3.2-3.9.3-.4.6-.7.9-1.1,1.4-1.7,2.7-3.3,4.1-5,.3-.4.6-.7.9-1.1,1.1-1.3,2.1-2.6,3.2-3.9.3-.4.6-.7.9-1.1,1.1-1.3,2.1-2.6,3.2-3.9.5-.5.9-1.1,1.4-1.6,1.2-1.5,2.4-2.9,3.6-4.4.3-.4.6-.7.9-1.1,1.4-1.6,2.7-3.3,4.1-4.9.3-.4.6-.7.9-1.1.8-.9,1.5-1.8,2.3-2.8.3-.4.6-.7.8-1.1.5-.6.9-1.1,1.4-1.7.6-.7,1.2-1.5,1.8-2.2.3-.4.6-.7.9-1.1.5-.6.9-1.1,1.4-1.7,1.2-1.5,2.4-2.9,3.6-4.4,1.1-1.3,2.1-2.6,3.2-3.9.3-.4.6-.7.8-1.1.3-.4.6-.8.9-1.1.7-.9,1.5-1.9,2.2-2.8.3-.4.6-.7.9-1.1.5-.6,1-1.1,1.5-1.7.3-.4.5-.7.8-1.1.3-.4.6-.7.9-1.1.3-.4.6-.7.9-1.1,2.6-3,5.1-6.1,8.5-10H30.3v-17.5h447.6v17h-97l-.7,1.5c20.4,16.7,40.8,33.5,61.9,50.8-8.7,8.1-17,15.9-25.3,23.8-.3-.4-.5-.8-.8-1.2,2.1-2.6,4.3-5.1,6.4-7.7,0,0-.1.1-.1.1.4-.4.8-.8,1.1-1.1,0,0-.1.1-.1.1,1.4-1.1,2.7-2.1,4.1-3.2,0,0-.1,0-.1,0,.4-.4.8-.7,1.1-1.1,0,0-.1.1-.1.1.4-.4.7-.7,1.1-1.1,0,0-.1.1-.1.1.4-.4.7-.7,1.1-1.1,0,0-.1.1-.1.1.4-.4.7-.7,1.1-1.1,0,0-.1.1-.1.1.4-.4.7-.7,1.1-1.1,0,0-.1.1-.1.1.4-.4.7-.7,1.1-1.1,0,0-.1.1-.1.1.4-.4.8-.7,1.1-1.1,0,0-.1.1-.1.1.4-.4.8-.7,1.1-1.1,0,0-.1.1-.1.1.4-.4.8-.8,1.1-1.1,0,0,0,.1,0,.1,3.8-2.4,1-3.2-1-4.2,0,0,.1.1.1.1-.4-.4-.8-.7-1.1-1.1,0,0,.1.1.1.1-.4-.4-.8-.7-1.1-1.1,0,0,.1.1.1.1-.4-.4-.7-.7-1.1-1.1,0,0,.1,0,.1,0-.7-.4-1.4-.8-2.1-1.1,0,0,.2.1.2.1-.4-.4-.8-.7-1.1-1.1,0,0,.1.1.1.1-.4-.4-.8-.7-1.1-1.1,0,0,.1,0,.1,0-.7-.4-1.4-.8-2.1-1.1,0,0,.2.1.2.1-.7-.7-1.4-1.4-2.2-2.1,0,0,.1.1.1.1-1-.7-2.1-1.4-3.1-2.1,0,0,.2.1.2.1-1.1-1-2.1-2.1-3.2-3.1,0,0,.1.1.1.1-.4-.4-.8-.7-1.1-1.1,0,0,.1.1.1.1-.4-.4-.8-.7-1.1-1.1,0,0,.1,0,.1,0-1.4-1-2.7-2.1-4.1-3.1,0,0,.1.1.1.1-.4-.4-.8-.7-1.1-1.1,0,0,.1,0,.1,0-.7-.4-1.4-.8-2.1-1.1,0,0,.2.1.2.1-.7-.7-1.4-1.4-2.1-2.1,0,0,.1.1.1.1-.4-.4-.8-.7-1.1-1.1,0,0,.1,0,.1,0-.7-.4-1.4-.8-2.1-1.1,0,0,.2.1.2.1-1.1-1-2.1-2.1-3.2-3.1,0,0,.1.1.1.1-2-1.7-4.1-3.4-6.1-5.1,0,0,.1.1.1.1-.4-.4-.8-.7-1.1-1.1,0,0,.1.1.1.1-.4-.4-.8-.7-1.1-1.1,0,0,.1,0,.1,0-1-.7-2-1.4-3.1-2.1,0,0,.1.1.1.1-.4-.4-.8-.7-1.1-1.1,0,0,.1,0,.1,0-1.4-1-2.7-2.1-4.1-3.1,0,0,.1.1.1.1-.4-.4-.8-.7-1.1-1.1,0,0,.1.1.1.1-.4-.4-.8-.7-1.1-1.1,0,0,.1,0,.1,0-.7-.4-1.4-.7-2.1-1.1,0,0,.2.1.2.1-1-1-2.1-2.1-3.1-3.1,0,0,.1.1.1.1-.4-.4-.8-.7-1.1-1.1,0,0,.1,0,.1,0-1-1.1-1.9-2.1-3.6-4,2.7,0,4.4,0,6.2,0,30.4,0,60.8,0,91.2,0,1.7,0,3.4-.9,5.1-1.5,0-3.4,0-6.7,0-10.1-1.7-.8-3.3-2.2-5-2.2-32.7,0-65.4,0-98.1,0-28.8,0-57.6,0-86.5,0-1,0-1.9.4-2.9.7-2.7,0-5.3-.2-8-.2-57.1.1-114.1.3-171.2.4-22.8,0-45.6,0-68.4.1-1.3,0-2.5,1-3.8,1.6,0,3.1,0,6.2,0,9.4.2.5.5,1.5.8,1.6,1.7.2,3.3.1,5,.1,16.1,0,32.2,0,49.1,0-1.3,2.5-2.2,4.3-3.2,6.1,0,0,.1-.1.1-.1-.4.4-.7.8-1.1,1.1,0,0,0-.1,0-.1-.4.7-.8,1.4-1.1,2.1,0,0,.1-.2.1-.2-.4.4-.7.8-1.1,1.1,0,0,.1-.1.1-.1-.4.4-.7.8-1.1,1.1,0,0,0-.1,0-.1-.4.7-.7,1.4-1.1,2.1,0,0,.1-.2.1-.2-.4.4-.8.8-1.1,1.1,0,0,.1-.1.1-.1-.4.4-.7.8-1.1,1.1,0,0,.1-.1.1-.1-.4.4-.7.8-1.1,1.1,0,0,.1-.1.1-.1-.4.4-.7.8-1.1,1.1,0,0,0-.1,0-.1-1.4,1.7-2.7,3.4-4.1,5.1,0,0,.1-.1.1-.1-.4.4-.7.8-1.1,1.1,0,0,0-.1,0-.1-.4.7-.8,1.4-1.1,2.1,0,0,.1-.2.1-.2-.4.4-.7.8-1.1,1.1,0,0,.1-.1.1-.1-.4.4-.7.8-1.1,1.1,0,0,.1-.1.1-.1-.4.4-.7.8-1.1,1.1,0,0,0-.1,0-.1-.4.7-.8,1.4-1.1,2.1,0,0,.1-.2.1-.2-.4.4-.7.8-1.1,1.1,0,0,.1-.1.1-.1-.4.4-.7.8-1.1,1.1,0,0,.1-.1.1-.1-.4.4-.7.8-1.1,1.1,0,0,0-.1,0-.1-.4.7-.7,1.4-1.1,2.1,0,0,.1-.2.1-.2-.7.7-1.4,1.4-2.1,2.1,0,0,.1-.1.1-.1-.4.4-.7.8-1.1,1.1,0,0,0-.1,0-.1-1,1.4-2.1,2.7-3.1,4.1,0,0,.1-.1.1-.1-.4.4-.7.8-1.1,1.1,0,0,.1-.1.1-.1-.4.4-.7.8-1.1,1.1,0,0,0-.1,0-.1-.4.7-.8,1.4-1.1,2.1,0,0,.1-.2.1-.2-.4.4-.7.8-1.1,1.1,0,0,.1-.1.1-.1-.4.4-.7.8-1.1,1.1,0,0,.1-.1.1-.1-.4.4-.7.8-1.1,1.1,0,0,0-.1,0-.1-.4.7-.8,1.4-1.1,2.1,0,0,.1-.2.1-.2-.7.7-1.4,1.4-2.1,2.2,0,0,.1-.1.1-.1-.4.4-.7.8-1.1,1.1,0,0,0-.1,0-.1-1,1.4-2.1,2.7-3.1,4.1,0,0,.1-.1.1-.1-.4.4-.7.8-1.1,1.1,0,0,.1-.1.1-.1-.4.4-.7.8-1.1,1.1,0,0,.1-.1.1-.1-.4.4-.7.8-1.1,1.1,0,0,0-.1,0-.1-.4.7-.8,1.4-1.1,2.1,0,0,.1-.2.1-.2-.4.4-.7.8-1.1,1.1,0,0,.1-.1.1-.1-.4.4-.7.8-1.1,1.1,0,0,.1-.1.1-.1-.4.4-.7.8-1.1,1.1,0,0,0-.1,0-.1-.4.7-.8,1.4-1.1,2.1,0,0,.1-.2.1-.2-.4.4-.7.8-1.1,1.1,0,0,.1-.1.1-.1-.4.4-.7.8-1.1,1.1,0,0,0-.1,0-.1-.4.7-.8,1.4-1.1,2.1,0,0,.1-.2.1-.2-.7.7-1.4,1.4-2.1,2.2,0,0,.1-.1.1-.1-1.6,1-3.2,2-4.7,3.1.3.5.7,1.1,1,1.6,1.2.5,2.5,1,3.7,1.6,0,0-.1-.1-.1-.1.4.4.8.7,1.2,1.1,0,0-.1,0-.1,0,.7.4,1.4.7,2.1,1.1,0,0-.1-.1-.1-.1.4.4.8.7,1.2,1.1,0,0-.1,0-.1,0,1.4.9,2.8,3.8,4.2,0,0,0-.1,0-.1,0,.4-.4.7-.8,1.1-1.1,0,0-.1.1-.1.1.4-.4.7-.8,1.1-1.1,0,0-.1.1-.1.1.4-.4.7-.8,1.1-1.1,0,0,0,.1,0,.1.4-.7.8-1.4,1.1-2.1,0,0-.1.2-.1.2.4-.4.7-.8,1.1-1.1,0,0-.1.1-.1.1.4-.4.7-.8,1.1-1.1,0,0,0,.1,0,.1,1.4-1.7,2.7-3.4,4.1-5.1,0,0-.1.1-.1.1.4-.4.7-.8,1.1-1.1,0,0-.1.1-.1.1.4-.4.7-.8,1.1-1.1,0,0,0,.1,0,.1.4-.7.8-1.4,1.1-2.1,0,0-.1.2-.1.2.4-.4.7-.8,1.1-1.1,0,0-.1.1-.1.1.4-.4.7-.8,1.1-1.1,0,0,0,.1,0,.1.4-.7.8-1.4,1.1-2.1,0,0-.1.2-.1.2.4-.4.7-.8,1.1-1.1,0,0-.1.1-.1.1.4-.4.7-.8,1.1-1.1,0,0-.1.1-.1.1.4-.4.7-.8,1.1-1.1,0,0,0,.1,0,.1.7-1,1.4-2.1,2.1-3.1,0,0-.1.1-.1.1.4-.4.7-.8,1.1-1.1,0,0,0,.1,0,.1,1.4-1.7,2.7-3.4,4.1-5.1,0,0-.1.1-.1.1.4-.4.7-.8,1.1-1.1,0,0-.1.1-.1.1.4-.4.7-.7,1.1-1.1,0,0,0,.1,0,.1.7-1,1.4-2.1,2.1-3.1,0,0-.1.1-.1.1.4-.4.7-.8,1.1-1.1,0,0,0,.1,0,.1.4-.7.8-1.4,1.1-2.1,0,0-.1.2-.1.2.4-.4.7-.8,1.1-1.1,0,0-.1.1-.1.1.4-.4.7-.8,1.1-1.1,0,0,0,.1,0,.1.4-.7.8-1.4,1.1-2.1,0,0-.1.2-.1.2.7-.7,1.4-1.4,2.1-2.2,0,0-.1.1-.1.1,1.7-2,3.4-4.1,5.1-6.1,0,0-.1.1-.1.1.4-.4.7-.8,1.1-1.1,0,0-.1.1-.1.1.4-.4.7-.7,1.1-1.1,0,0,0,.1,0,.1.7-1,1.4-2.1,2.1-3.1,0,0-.1.1-.1.1.4-.4.7-.8,1.1-1.1,0,0,0,.1,0,.1.7-1,1.4-2.1,2.1-3.1,0,0-.1.1-.1.1.4-.4.7-.8,1.1-1.1,0,0,0,.1,0,.1.4-.7.8-1.4,1.1-2.1,0,0-.1.2-.1.2,1-1,2-2.1,3.1-3.1,0,0-.1,0-.1,0,1.4-1.1,2.8-2.1,4.3-3.2Z"/>
    <path class="cls-1" d="M395.2,290.8c-.2-.8-.3-1.5-.9-3.8,2.3,2.2,3.6,3.2,4.7,4.5,19.9,23.5,39.7,47,59.5,70.6.9,1,1.5,2.1,2.3,3.2-.4.3-.8.6-1.2,1-1.9-1.8-3.7-3.7-5.6-5.5,0,0,0,.1,0,.1-.4-.4-.7-.8-1.1-1.1,0,0,.1.1.1.1-.7-.7-1.4-1.4-2.1-2.1,0,0,.1.1.1.1-.4-.4-.8-.8-1.1-1.1,0,0,.1.2.1.2-.4-.7-.8-1.4-1.1-2.1,0,0,0,.1,0,.1-.4-.4-.7-.8-1.1-1.1,0,0,.1.1.1.1-.7-1-1.4-2.1-2.1-3.1,0,0,0,.1,0,.1-.4-.4-.7-.7-1.1-1.1,0,0,.1.1.1.1-.4-.4-.7-.8-1.1-1.1,0,0,.1.1.1.1-.4-.4-.7-.8-1.1-1.1,0,0,.1.1.1.1-1.4-1.4-2.7-2.8-4.1-4.2,0,0,.1.2.1.2-.4-.7-.8-1.4-1.1-2.1,0,0,0,.1,0,.1-.4-.4-.7-.8-1.1-1.1,0,0,.1.1.1.1-.7-.7-1.4-1.4-2.1-2.1,0,0,.1.2.1.2-.4-.7-.8-1.4-1.1-2.1,0,0,0,.1,0,.1-.4-.4-.7-.8-1.1-1.1,0,0,.1.1.1.1-.4-.4-.7-.8-1.1-1.1,0,0,.1.1.1.1-.7-1-1.4-2.1-2.1-3.1,0,0,0,.1,0,.1-.4-.4-.7-.7-1.1-1.1,0,0,.1.1.1.1-.4-.4-.7-.8-1.1-1.1,0,0,.1.1.1.1-.4-.4-.7-.8-1.1-1.1,0,0,.1.1.1.1-2-2.4-4.1-4.7-6.1-7.1,0,0,.1.1.1.1-.7-.7-1.4-1.4-2.1-2.1,0,0,.1.2.1.2-.4-.7-.8-1.4-1.1-2.1,0,0,0,.1,0,.1-.4-.4-.7-.8-1.1-1.1,0,0,.1.1.1.1-.4-.4-.7-.8-1.1-1.1,0,0,.1.1.1.1-.4-.4-.7-.8-1.1-1.1,0,0,.1.1.1.1-.4-.4-.7-.8-1.1-1.1,0,0,.1.2.1.2-.4-.7-.8-1.4-1.1-2.1,0,0,0,.1,0,.1-.4-.4-.7-.8-1.1-1.1,0,0,.1.1.1.1-.4-.4-.7-.8-1.1-1.1,0,0,.1.1.1.1-.4-.4-.7-.8-1.1-1.1,0,0,.1.1.1.1-1.4-1.7-2.7-3.4-4.1-5.1,0,0,0,.1,0,.1-.4-.4-.7-.8-1.1-1.1,0,0,.1.1.1.1-.4-.4-.7-.8-1.1-1.1,0,0,.1.1.1.1-.4-.4-.7-.8-1.1-1.1,0,0,.1.2.1.2-.4-.7-.8-1.4-1.1-2.1,0,0,0,.1,0,.1-.4-.4-.7-.8-1.1-1.1,0,0,.1.1.1.1-.4-.4-.7-.8-1.1-1.1,0,0,.1.1.1.1-.4-.4-.7-.8-1.1-1.1,0,0,.1.1.1.1-.4-.4-.7-.8-1.1-1.1,0,0,.1.2.1.2-.4-.7-.8-1.4-1.1-2.1,0,0,0,.1,0,.1-.4-.4-.7-.8-1.1-1.1,0,0,.1.1.1.1-.4-.4-.7-.8-1.1-1.1h.1Z"/>
    <path class="cls-1" d="M413.9,202.4c-16.4,16-32.7,31.9-49.3,48,5.2,6.5,10.2,12.7,15.2,18.8-.4.3-.8.7-1.2,1-1.2-.8-2.4-1.7-3.6-2.5,0,0,.1.2.1.2-.4-.7-.8-1.4-1.1-2.1,0,0,0,.1,0,.1-.4-.4-.7-.8-1.1-1.1,0,0,.1.1.1.1-.4-.4-.7-.8-1.1-1.1,0,0,.1.1.1.1-1-1.4-2.1-2.7-3.1-4.1,0,0,0,.1,0,.1-.4-.4-.7-.8-1.1-1.1,0,0,.1.1.1.1-.4-.4-.7-.8-1.1-1.1,0,0,.1.1.1.1-1-1.4-2.1-2.7-3.1-4.1,0,0,0,.1,0,.1-.4-.4-.7-.8-1.1-1.1,0,0,.1.1.1.1-.4-.4-.7-.8-1.1-1.1,0,0,.1.1.1.1.7-1.4,1.1-2.9,2-4.1,1.9-2.4,4-4.6,6-6.9,0,0-.1.1-.1.1.4-.4.8-.8,1.1-1.1,0,0-.1.1-.1.1.4-.4.8-.8,1.1-1.1,0,0-.1.1-.1.1.4-.4.8-.8,1.1-1.1,0,0-.1.1-.1.1.4-.4.8-.8,1.1-1.1,0,0-.1.1-.1.1,1.4-1.1,2.7-2.1,4.1-3.2,0,0-.1,0-.1,0,.4-.4.8-.7,1.1-1.1,0,0-.1.1-.1.1.4-.4.8-.7,1.1-1.1,0,0-.1.1-.1.1.4-.4.8-.7,1.1-1.1,0,0-.1.1-.1.1.4-.4.8-.7,1.1-1.1,0,0-.1.1-.1.1.4-.4.8-.7,1.1-1.1,0,0-.1.1-.1.1.4-.4.8-.8,1.1-1.1,0,0-.1.1-.1.1.4-.4.8-.8,1.1-1.1,0,0-.1.1-.1.1.4-.4.8-.8,1.1-1.1,0,0-.1.1-.1.1.4-.4.8-.8,1.1-1.1,0,0-.1.1-.1.1.4-.4.8-.8,1.1-1.1,0,0-.1.1-.1.1.4-.4.8-.8,1.1-1.1,0,0-.1.1-.1.1,2.4-2,4.7-4.1,7.1-6.1,0,0-.1,0-.1,0,.4-.4.7-.7,1.1-1.1,0,0-.1.1-.1.1.4-.4.7-.7,1.1-1.1,0,0-.1.1-.1.1.4-.4.7-.7,1.1-1.1,0,0-.1.1-.1.1.4-.4.7-.7,1.1-1.1,0,0-.1.1-.1.1.4-.4.7-.7,1.1-1.1,0,0-.1.1-.1.1.4-.4.7-.7,1.1-1.1,0,0,0,.1,0,.1,2-2,4.1-4.1,6.1-6.1,0,0-.1,0-.1,0,.4-.4.8-.7,1.1-1.1,0,0-.1.1-.1.1.4-.4.8-.7,1.1-1.1,0,0-.1.1-.1.1.4-.4.8-.7,1.1-1.1,0,0-.1.1-.1.1.5-.2,1.1-.4,1.6-.5.4.3.8.7,1.2,1Z"/>
    <path class="cls-1" d="M379.9,269.3c5.3,6.1,10.7,12.3,16,18.4-.4.3-.7.7-1.1,1-1.2-.7-2.4-1.3-3.6-2,0,0,0,.2,0,.2-.4-.7-.7-1.4-1.1-2.1,0,0,0,.1,0,.1-.4-.4-.7-.8-1.1-1.1,0,0,.1.1.1.1-.4-.4-.7-.8-1.1-1.1,0,0,.1.1.1.1-.4-.4-.7-.8-1.1-1.1,0,0,.1.1.1.1-.4-.4-.7-.8-1.1-1.1,0,0,.1.2.1.2-.4-.7-.8-1.4-1.1-2.1,0,0,0,.1,0,.1-.4-.4-.7-.8-1.1-1.1,0,0,.1.1.1.1-.4-.4-.7-.8-1.1-1.1,0,0,.1.1.1.1-.7-1-1.4-2-2.1-3.1,0,0,0,.1,0,.1-.4-.4-.7-.7-1.1-1.1,0,0,.1.1.1.1-.4-.4-.7-.8-1.1-1.1,0,0,.1.1.1.1-.2-.5-.4-1.1-.5-1.6.4-.3.8-.7,1.2-1Z"/>
    <path class="cls-1" d="M460.9,365.3c1,1.1,2.2,2.1,3.1,3.2,3.3,4.2,5.8,9.3,12.5,9.2-4.6,2.2-7.7.4-10.3-2.9,0,0,0,.1,0,.1-.4-.4-.7-.8-1.1-1.1,0,0,.1.1.1.1-.4-.4-.7-.8-1.1-1.1,0,0,.1.1.1.1-.7-1-1.4-2-2.1-3.1,0,0,0,.1,0,.1-.4-.4-.7-.7-1.1-1.1,0,0,.1.1.1.1-.4-.4-.7-.8-1.1-1.1,0,0,.1.1.1.1-.2-.5-.3-1.1-.5-1.6.4-.3.8-.6,1.2-1Z"/>
    <path class="cls-1" d="M415,201.4c-.3.3-.7.7-1,1-.4-.3-.8-.7-1.2-1,.3-.3.7-.6,1-.9.4.3.8.6,1.2.9Z"/>
    <path class="cls-1" d="M416,200.4c-.3.3-.7.7-1,1-.4-.3-.8-.6-1.2-.9.3-.3.7-.6,1-1,.4.3.8.6,1.2.9Z"/>
    <path class="cls-1" d="M416.6,199.7c-.2.3-.4.5-.7.7-.4-.3-.8-.6-1.2-.9.3-.3.7-.7,1-1,.3.4.5.8.8,1.2Z"/>
    <polygon class="cls-2" points="29.8 391.1 29.6 391.2 29.5 391 29.7 390.9 29.8 391.1"/>
    <path class="cls-1" d="M164.2,186.4c-1-1.1-2-2.3-3-3.4-.7-1.1-1.4-2.2-2.1-3.3,0,0,0,.1,0,.1-.4-.4-.7-.8-1.1-1.1,0,0,.1.1.1.1-1-1.4-2.1-2.7-3.1-4.1,0,0,0,.1,0,.1-.7-.7-1.4-1.4-2.1-2.1,0,0,.1.2.1.2-.4-.7-.7-1.4-1.1-2.1,0,0,0,.1,0,.1-.4-.4-.7-.8-1.1-1.1,0,0,.1.1.1.1-.4-.4-.7-.8-1.1-1.1,0,0,.1.2.1.2-.4-.7-.8-1.4-1.1-2.1,0,0,0,.1,0,.1-.4-.4-.7-.8-1.1-1.1,0,0,.1.1.1.1-.4-.4-.7-.8-1.1-1.1,0,0,.1.2.1.2-.4-.7-.8-1.4-1.1-2.1,0,0,0,.1,0,.1-.4-.4-.7-.8-1.1-1.1,0,0,.1.1.1.1-.7-1-1.4-2.1-2.1-3.1,0,0,0,.1,0,.1-1.4-1.7-2.7-3.4-4.1-5.1,0,0,0,.1,0,.1-.7-.7-1.4-1.4-2.1-2.2,0,0,.1.1.1.1-.4-.4-.8-.8-1.1-1.1,0,0,.1.2.1.2-.4-.7-.7-1.4-1.1-2.1,0,0,0,.1,0,.1-.4-.4-.7-.8-1.1-1.1,0,0,.1.1.1.1-.4-.7-.8-1.4-1.1-2.1,0,0,0,.1,0,.1-.4-.4-.7-.8-1.1-1.1,0,0,.1.1.1.1-.4-.4-.7-.8-1.1-1.2,0,0,.1.2.1.2-.4-.7-.8-1.4-1.1-2.1,0,0,0,.1,0,.1-.4-.4-.7-.8-1.1-1.1,0,0,.1.1.1.1-.7-1-1.4-2.1-2.1-3.1,0,0,0,.1,0,.1-.4-.4-.7-.8-1.1-1.1,0,0,.1.1.1.1-2.4-3-4.7-6.1-7.1-9.1,0,0,0,.1,0,.1-.7-1-1.4-2.1-2.1-3.1,0,0,0,.1,0,.1-.4-.4-.7-.8-1.1-1.1,0,0,.1.1.1.1,1.5-.7,3-1.9,4.5-1.9,35-.1,70,0,105,0,1.6,0,3.2.2,5.4.3v173.3s0-.2,0-.2c-.4.5-.7,1.1-1.1,1.6,0,0,.1-.1.1-.1-.4.4-.7.8-1.1,1.1,0,0,0-.1,0-.1-.4.7-.8,1.4-1.1,2.1,0,0,.1-.2.1-.2-.4.4-.7.8-1.1,1.1,0,0,.1-.1.1-.1-.4.4-.7.8-1.1,1.1,0,0,.1-.1.1-.1-.4.4-.7.8-1.1,1.1,0,0,0-.1,0-.1-.7,1-1.4,2.1-2.1,3.1,0,0,0-.1,0-.1-.4.7-.8,1.4-1.1,2.1,0,0,.1-.2.1-.2-.4.4-.8.8-1.1,1.1,0,0,.1-.1.1-.1-.7.7-1.4,1.4-2.1,2.2,0,0,.1-.1.1-.1-1.7,2-3.4,4.1-5.1,6.1,0,0,.1-.1.1-.1-.4.4-.7.8-1.1,1.1,0,0,.1-.1.1-.1-.4.4-.7.7-1.1,1.1,0,0,0-.1,0-.1-.4.7-.8,1.4-1.1,2.1,0,0,.1-.2.1-.2-.4.4-.7.8-1.1,1.1,0,0,0-.1,0-.1-.4.7-.8,1.4-1.1,2.1,0,0,.1-.2.1-.2-.7.7-1.4,1.4-2.1,2.1,0,0,.1-.1.1-.1-.4.4-.7.8-1.1,1.1,0,0,0-.1,0-.1-.4.7-.8,1.4-1.1,2.1,0,0,.1-.2.1-.2-.7.7-1.4,1.4-2.1,2.1,0,0,.1-.1.1-.1-.4.4-.7.8-1.1,1.1,0,0,.1-.1.1-.1-.4.4-.7.8-1.1,1.1,0,0,0-.1,0-.1-1,1.4-2.1,2.7-3.1,4.1,0,0,.1-.1.1-.1-.4.4-.7.8-1.1,1.1,0,0,0-.1,0-.1-.4.7-.8,1.4-1.1,2.1,0,0,.1-.2.1-.2-.4.4-.7.8-1.1,1.1,0,0,.1-.1.1-.1-.4.4-.7.8-1.1,1.1,0,0,.1-.1.1-.1-.4.4-.7.8-1.1,1.1,0,0,0-.1,0-.1-.4.7-.8,1.4-1.1,2.1,0,0,.1-.2.1-.2-.4.4-.7.8-1.1,1.1,0,0,.1-.1.1-.1-.4.4-.7.8-1.1,1.1,0,0,0-.1,0-.1-.4.7-.7,1.4-1.1,2.1,0,0,.1-.2.1-.2-.7.7-1.4,1.4-2.1,2.1,0,0,.1-.1.1-.1-.4.4-.7.8-1.1,1.1,0,0,.1-.1.1-.1-.4.4-.7.8-1.1,1.1,0,0,0-.1,0-.1-1,1.4-2.1,2.7-3.1,4.1,0,0,.1-.1.1-.1-.4.4-.7.8-1.1,1.1,0,0,.1-.1.1-.1-.4.4-.7.8-1.1,1.1,0,0,0-.1,0-.1-.5.7-1.1,1.4-1.6,2.1-2.1,2.3-4.1,4.8-6.3,7-1,1-2.5,1.5-3.8,2.2.3-.7.5-1.4.8-2.2,0,0,0,0,0,0,.4-.7.8-1.4,1.2-2.1,0,0,0,.2,0,.2,1-1.1,2-2.1,3-3.2h-.1c.4-.3.7-.7,1.1-1.1h0c1-1.3,2.1-2.6,3.1-3.9,0,0-.1,0-.1,0,.4-.4.7-.7,1.1-1.1h0c.4-.6.8-1.3,1.2-2v.2c.6-.7,1.3-1.4,1.9-2.1h0c.4-.6.8-1.3,1.2-2,0,0-.1.2-.1.2.4-.4.7-.8,1.1-1.1,0,0,0,.1,0,.1.7-.7,1.4-1.4,2-2.1h0c.4-.6.8-1.3,1.2-2v.2c1.2-1.4,2.6-2.8,3.9-4.2h0c.4-.3.7-.7,1.1-1.1,0,0,0,0,0,0,.7-1,1.4-2,2.1-3,0,0-.1,0-.1,0,.4-.4.7-.7,1.1-1.1h0c.4-.3.7-.6,1.1-1h0c.7-.9,1.4-1.9,2.1-2.9h0c.4-.3.7-.7,1.1-1h0c.4-.6.8-1.3,1.2-2v.2c.6-.7,1.3-1.4,1.9-2.1h-.1c.4-.3.7-.7,1.1-1h0c.4-.6.8-1.3,1.1-2v.2c.9-1,1.9-2.1,2.9-3.1h-.1c.4-.3.7-.7,1.1-1.1h0c.7-1.1,1.3-2.2,2-3.3,1-1.2,2-2.4,3-3.5.4-.4.7-.7,1.1-1.1h0c.4-.3.7-.6,1.1-1h0c.4-.3.7-.6,1.1-1h0c.4-.6.8-1.3,1.1-2h-.1c.4-.2.7-.6,1.1-1h0c.4-.3.7-.6,1.1-1h0c.4-.3.7-.6,1.1-1h0c.4-.6.8-1.3,1.2-2h-.1c.4-.2.7-.6,1.1-1h0c.4-.3.7-.6,1.1-1h0c.4-.3.7-.6,1.1-1h0c.4-.3.7-.6,1.1-1h0c.4-.6.8-1.3,1.1-2h0c.4-.2.7-.6,1.1-1h0c.4-.3.7-.6,1.1-1h0c.5-1.9,1.6-3.9,1.6-5.8,0-53.5,0-107,0-160.5,0-1.8-.2-3.5-.3-5.3h-108.6c19.6,25.8,38.7,50.8,58.1,76.2-2.9,2-5.4,3.7-7.8,5.4-2.4,1.7-4.9,3.3-7.3,4.9-3.5-4.3-6.6-8.2-9.7-12.1,0,0,0,0,0,0-1-1.4-2-2.7-3-4.1h0c-.7-.9-1.4-2-2.1-3h0c-2.7-3.6-5.4-7.3-8-11h0c-1-1.3-2-2.7-3-4h0c-.7-.9-1.4-2-2.1-3h0c-.7-.9-1.4-2-2.1-3h0c-.3-.3-.7-.7-1-1h.1c-3.3-4.6-6.7-9.3-10-14h0c-3.3-4.7-6.5-9.4-9.8-14-.3.1-.7.3-1,.4v234.2c16.6,0,32.9,0,49.2-.1,1.2,0,2.3-1.5,3.5-2.2,0,0,0,0,0,0,.4-.4.7-.7,1.1-1.1,0,0,0,0,0,0,.4-.4.7-.7,1.1-1.1,0,0,0,0,0,0,.8-.6,1.5-1.2,2.3-1.9.1,4.8-3.1,7.8-7,7.8-17.4.3-34.9-.1-52.3-.3,0-1.7-.2-3.3-.2-5,0-77.1,0-154.3,0-231.4,0-2.7.1-5.3.2-8,1.5,1.9,3.1,3.8,4.6,5.6.5.3.9.7,1.4,1,0,0-.1-.2-.1-.2.4.7.7,1.4,1.1,2.1,0,0,0-.1,0-.1.7,1,1.4,2.1,2.1,3.1,0,0,0-.1,0-.1,1,1.4,2.1,2.7,3.1,4.1,0,0,0-.1,0-.1,1,1.4,2.1,2.8,3.1,4.1,0,0-.1-.1-.1-.1.7.7,1.4,1.4,2.1,2.2,0,0-.1-.2-.1-.2.4.7.7,1.4,1.1,2.2,0,0,0-.1,0-.1.4.4.7.8,1.1,1.1,0,0-.1-.2-.1-.2.4.7.7,1.4,1.1,2.1,0,0,0-.1,0-.1.7,1,1.4,2.1,2.1,3.1,0,0,0-.1,0-.1.7,1,1.4,2.1,2.1,3.1,0,0,0-.1,0-.1.4.4.7.8,1.1,1.1,0,0-.1-.1-.1-.1.7,1,1.4,2.1,2.1,3.1,0,0,0-.1,0-.1,1.7,2.1,3.4,4.1,5.1,6.2,0,0-.1-.2-.1-.2.4.7.7,1.4,1.1,2.1,0,0,0-.1,0-.1.7,1,1.4,2.1,2.1,3.1,0,0,0-.1,0-.1.7,1,1.4,2.1,2.1,3.1,0,0,0-.1,0-.1.4.4.7.8,1.1,1.1,0,0-.1-.1-.1-.1.4.7.7,1.4,1.1,2.1,0,0,0-.1,0-.1.4.4.7.8,1.1,1.1,0,0-.1-.1-.1-.1.7,1,1.4,2.1,2.1,3.1,0,0,0-.1,0-.1.4.4.7.8,1.1,1.1,0,0-.1-.1-.1-.1.7,1,1.4,2.1,2.1,3.1,0,0,0-.1,0-.1.7.7,1.4,1.4,2.1,2.2,0,0-.1-.2-.1-.2.4.7.7,1.4,1.1,2.1,0,0,0-.1,0-.1.7,1,1.4,2.1,2.1,3.1,0,0,0-.1,0-.1.4.4.7.8,1.1,1.1,0,0-.1-.1-.1-.1.4.4.7.8,1.1,1.1,0,0-.1-.2-.1-.2.4.7.7,1.4,1.1,2.1,0,0,0,0,0,0,2.6,3.9,3.5-.4,5.2-1,0,0-.1,0-.1,0,1-.7,2.1-1.4,3.1-2.1,0,0-.1,0-.1,0,1.4-.9,2.9-1.8,5.1-3.1-2.3-2.4-4.2-4.2-6-6.1,0,0,.1.2.1.2-.4-.7-.7-1.4-1.1-2.1,0,0,0,.1,0,.1-.4-.4-.7-.8-1.1-1.1,0,0,.1.1.1.1-.4-.4-.7-.8-1.1-1.1,0,0,.1.2.1.2-.4-.7-.7-1.4-1.1-2.1,0,0,0,.1,0,.1-.3-.5-.6-.9-1-1.4Z"/>
    <path class="cls-1" d="M258.3,312.4c-4-5.3-8.2-10.5-11.8-16-1.3-2-1.4-5-1.4-7.6,0-55.6,0-111.2,0-166.7,1-.1,2-.4,2.9-.4,32.5,0,65,0,97.5,0,1.1,0,2.2.4,3.3.6v256.5h-38.6s.2.1.2.1c-.4-.4-.7-.8-1.1-1.1,0,0,.1.1.1.1-.4-.4-.7-.8-1.1-1.1,0,0,.1.1.1.1-.4-.7-.8-1.4-1.1-2.1,0,0,0,.1,0,.1-.4-.4-.7-.8-1.1-1.1,0,0,.1.1.1.1-.7-1-1.4-2.1-2.1-3.1,0,0,0,.1,0,.1-.4-.4-.7-.8-1.1-1.1,0,0,.1.1.1.1-1-1.4-2.1-2.7-3.1-4.1,0,0,0,.1,0,.1-1.4-1.4-2.7-2.8-4.1-4.2,0,0,.1.2.1.2-.4-.7-.7-1.4-1.1-2.1,0,0,0,.1,0,.1-.7-.7-1.4-1.4-2.1-2.1,0,0,.1.2.1.2-.4-.7-.8-1.4-1.1-2.1,0,0,0,.1,0,.1-.4-.4-.7-.8-1.1-1.1,0,0,.1.1.1.1-.4-.4-.7-.8-1.1-1.1,0,0,.1.2.1.2-.4-.7-.8-1.4-1.1-2.1,0,0,0,.1,0,.1-.4-.4-.7-.8-1.1-1.1,0,0,.1.1.1.1-.7-1-1.4-2.1-2.1-3.1,0,0,0,.1,0,.1-.4-.4-.7-.8-1.1-1.1,0,0,.1.1.1.1-1.7-2-3.4-4.1-5.1-6.1,0,0,.1.1.1.1-.7-.7-1.4-1.4-2.1-2.2,0,0,.1.2.1.2-.4-.7-.8-1.4-1.1-2.1,0,0,0,.1,0,.1-.7-1-1.4-2.1-2.1-3.1,0,0,0,.1,0,.1-.4-.4-.7-.8-1.1-1.1,0,0,.1.1.1.1-.4-.4-.7-.8-1.1-1.1,0,0,.1.2.1.2-.4-.7-.8-1.4-1.1-2.1,0,0,0,.1,0,.1-.4-.4-.7-.8-1.1-1.1,0,0,.1.1.1.1-.4-.4-.7-.8-1.1-1.1,0,0,.1.1.1.1-1.4-1.7-2.7-3.4-4.1-5.1,0,0,0,.1,0,.1-.7-.7-1.4-1.4-2.1-2.2,0,0,.1.2.1.2-.4-.7-.7-1.4-1.1-2.1,0,0,0,.1,0,.1-.4-.4-.7-.8-1.1-1.1,0,0,.1.1.1.1-.4-.4-.7-.8-1.1-1.1,0,0,.1.2.1.2-.4-.7-.8-1.4-1.1-2.1,0,0,0,.1,0,.1-.4-.4-.7-.8-1.1-1.1,0,0,.1.1.1.1-.3-.5-.6-1-.9-1.5ZM346.5,374.2c.1-1.8.3-3.6.3-5.4,0-76.1,0-152.1,0-228.2,0-1.7-.1-3.3-.2-5v-11.5h-99.7v6.7c0,51.3.1,102.6-.2,153.9,0,6.4,1.7,11.4,5.5,16.2,19.2,24.3,38.2,48.8,57.4,73.1,1,1.3,2.9,2.6,4.4,2.6,10,.2,20,.2,30,0,.8,0,1.7-1.6,2.5-2.5Z"/>
    <path class="cls-1" d="M362.9,130.9c1.3,1,2.6,2,3.8,3,.5.3,1,.6,1.5,1,0,0-.1-.1-.1-.1.4.4.8.7,1.1,1.1,0,0-.1-.1-.1-.1.4.4.7.7,1.1,1.1,0,0-.1,0-.1,0,.7.4,1.4.8,2.1,1.1,0,0-.1-.1-.1-.1.4.4.8.7,1.1,1.1,0,0-.1-.1-.1-.1.4.4.8.7,1.1,1.1,0,0-.1,0-.1,0,.7.4,1.4.8,2.1,1.1,0,0-.2-.1-.2-.1.7.7,1.4,1.4,2.2,2.1,0,0-.1-.1-.1-.1.4.4.8.7,1.1,1.1,0,0-.1,0-.1,0,2,1.7,4.1,3.4,6.1,5.1,0,0-.1-.1-.1-.1.4.4.8.7,1.1,1.1,0,0-.1-.1-.1-.1.4.4.8.7,1.1,1.1,0,0-.1-.1-.1-.1.4.4.7.7,1.1,1.1,0,0-.1,0-.1,0,.7.4,1.4.8,2.1,1.1,0,0-.2-.1-.2-.1.4.4.8.7,1.1,1.1,0,0-.1-.1-.1-.1.4.4.8.7,1.1,1.1,0,0-.1,0-.1,0,.7.4,1.4.8,2.1,1.1,0,0-.2-.1-.2-.1.7.7,1.4,1.4,2.1,2.1,0,0-.1,0-.1,0,.7.4,1.4.7,2.1,1.1,0,0-.2-.1-.2-.1,1.4,1.4,2.8,2.7,4.2,4.1,0,0-.1-.1-.1-.1.4.4.8.7,1.1,1.1,0,0-.1-.1-.1-.1.4.4.8.7,1.1,1.1,0,0-.1-.1-.1-.1.4.4.7.7,1.1,1.1,0,0-.1,0-.1,0,1,.7,2.1,1.4,3.1,2.1,0,0-.1-.1-.1-.1.4.4.8.7,1.1,1.1,0,0-.1,0-.1,0,.7.4,1.4.8,2.1,1.1,0,0-.2-.1-.2-.1.4.4.8.7,1.1,1.1,0,0-.1-.1-.1-.1.4.4.8.7,1.1,1.1,0,0-.1-.1-.1-.1.4.4.8.7,1.1,1.1,0,0-.1,0-.1,0,.7.4,1.4.8,2.1,1.1,0,0-.2-.1-.2-.1.4.4.8.8,1.1,1.1,0,0-.1-.1-.1-.1,0,1.7,0,3.3,0,5,0,0,.1,0,.1,0-.4.4-.8.7-1.1,1.1,0,0,.1-.1.1-.1-.4.4-.8.7-1.1,1.1,0,0,.1-.1.1-.1-.4.4-.8.7-1.1,1.1,0,0,.1-.1.1-.1-.4.4-.8.7-1.1,1.1,0,0,.1-.1.1-.1-.4.4-.8.7-1.1,1.1,0,0,.1-.1.1-.1-.4.4-.8.7-1.1,1.1h.1c-1,0-2,0-3,0,2.3-2.7,4.7-5.4,7.4-8.5-16.9-13.9-33.7-27.8-51-42.1v89.5c.4.2.8.5,1.2.7,2.6-2.8,5.1-5.5,7.7-8.3.9-.2,1.7-.4,2.6-.6,0,.7,0,1.5,0,2.2,0,0,0,0,0,0-1,.7-2,1.4-3,2.1,0,0,0,0,0,0-.4.4-.7.7-1.1,1.1,0,0,0,0,0,0-.4.4-.7.7-1.1,1.1,0,0,0,0,0,0-.4.4-.7.7-1.1,1.1,0,0,0,0,0,0-2,2-4,4-6.1,6,0,0,0,0,0,0-.7-1.7-2.1-3.4-2.1-5.1-.1-29.5-.1-59,0-88.5,0-1.7.6-3.5,1-5.2Z"/>
    <path class="cls-1" d="M245.5,378.8s.2,0,.2,0c-.2-1.1-.5-2.3-.5-3.4,0-19.1,0-38.2,0-57.3,0-1.1.6-2.1.8-3.2,0,0,0-.1,0-.1.4.4.8.7,1.1,1.1,0,0-.1-.1-.1-.1,2,2.4,4,4.8,6.1,7.2,0,0-.1-.2-.1-.2.4.7.8,1.4,1.1,2.1,0,0,0-.1,0-.1.7,1,1.4,2.1,2.1,3.1,0,0,0-.1,0-.1.4.4.7.8,1.1,1.1,0,0-.1-.1-.1-.1.4.4.7.8,1.1,1.1,0,0-.1-.1-.1-.1.4.7.8,1.4,1.1,2.1,0,0,0-.1,0-.1.4.4.7.8,1.1,1.1,0,0-.1-.1-.1-.1.4.4.7.8,1.1,1.1,0,0-.1-.1-.1-.1.7,1,1.4,2.1,2.1,3.1,0,0,0-.1,0-.1.4.4.7.8,1.1,1.1,0,0-.1-.1-.1-.1,1,1.4,2.1,2.7,3.1,4.1,0,0,0-.1,0-.1.4.4.7.8,1.1,1.1,0,0-.1-.1-.1-.1.4.4.7.8,1.1,1.1,0,0-.1-.2-.1-.2.4.7.7,1.4,1.1,2.1,0,0,0-.1,0-.1.3.5.7,1,1,1.4,3.7,5.1,7.4,10.2,11,15.4.6.9.5,2.3.8,3.5-.7-.6-1.4-1.3-2.1-1.9-.5-.6-.9-1.1-1.4-1.7-1-1.3-2-2.6-3-3.9-1-1.3-2-2.7-3-4-3.3-4.3-6.7-8.7-10-13-1-1.3-2-2.6-3-4-3.9-5.2-7.8-10.5-12.5-16.9v55.2h41.4c-2.3-3.6-4.4-6.8-6.4-9.9,3.5,3.3,7,6.7,10.5,10-.3.8-.6,1.5-.9,2.3-15,0-30,0-45,0-.6.1-1.2.2-1.8.4Z"/>
    <path class="cls-1" d="M430.9,351.1l.8,1.1c.5.5.9,1.1,1.4,1.6l.9,1.1c.3.4.6.7.9,1.1.7.9,1.5,1.9,2.2,2.8.3.3.7.7,1,1,.3.3.6.7,1,1,.3.4.6.7.9,1.1.3.4.6.7.9,1.1.3.4.6.7.9,1.1.3.4.6.7.9,1.1.3.4.6.7.9,1.1.5.5,1,1,1.5,1.6.3.4.6.7.9,1.1.3.4.6.8.9,1.1.3.4.5.8.8,1.2.5.5,1,1,1.5,1.5.3.4.6.7.9,1.1.7,1,1.4,1.9,2.1,2.9-1,.4-2,1.1-3,1.1-28.3,0-56.7,0-85,0-.8,0-1.6-.3-2.4-.4,0-33.6,0-67.2.2-100.8,0-1.8,1.2-3.5,1.8-5.3.3.3.5.7.8,1,.5.5,1,1.1,1.5,1.6.3.4.6.7.9,1.1.3.4.5.8.8,1.2.5.5.9,1.1,1.4,1.6.3.3.6.7.9,1,.3.4.6.7.9,1.1.6.8,1.1,1.6,1.7,2.3.5.5,1,1,1.5,1.6.3.3.7.7,1,1,1,1.4,2,2.9,3,4.3-.5.3-.9.6-1.4,1-1.2-1.2-2.3-2.3-3.5-3.5-2.7-3.3-5.3-6.5-8.8-10.8v99.6h83.7c-2.7-3.1-4.7-5.4-6.8-7.8-.3-.4-.6-.7-.9-1.1-.9-1.1-1.8-2.1-2.7-3.2-.5-.5-1-1.1-1.4-1.6-.3-.4-.6-.7-.9-1.1-.3-.4-.6-.7-.9-1.1-.6-.7-1.1-1.5-1.7-2.2-.5-.5-1-1.1-1.4-1.6-.3-.4-.6-.7-.9-1.1-1.7-2-3.3-4-5-6-.3-.4-.6-.7-.9-1.1-.9-1.1-1.8-2.1-2.8-3.2-.3-.3-.5-.7-.8-1-.5-.6-1-1.1-1.5-1.7-.3-.4-.6-.7-.9-1.1-.6-.7-1.1-1.5-1.7-2.2-.5-.5-1-1.1-1.5-1.6-.3-.4-.6-.8-.9-1.1-1.2-1.4-2.4-2.9-3.6-4.3-.5-.5-.9-1.1-1.4-1.6-.3-.4-.6-.7-.9-1.1-.3-.6-.7-1.2-1-1.8.4-.4.8-.8,1.2-1.3.7.6,1.5,1.2,2.2,1.8.3.4.5.8.8,1.1.5.5,1,1,1.5,1.5.3.4.6.7.9,1.1.3.4.6.7.9,1.1.3.4.6.7.9,1.1.5.6.9,1.1,1.4,1.7.3.4.6.7.9,1.1.3.4.6.7.9,1.1.7.9,1.5,1.9,2.2,2.8l1,1c.3.3.6.7,1,1,.3.4.6.7.9,1.1.3.4.6.7.9,1.1.3.4.6.7.9,1.1.3.4.6.7.9,1.1.3.4.6.7.8,1.1.5.5,1,1,1.5,1.6.3.4.6.7.9,1.1.3.4.6.7.9,1.1Z"/>
    <path class="cls-1" d="M180.2,377c.3-.4.6-.7.9-1.1.7-1,1.4-1.9,2.2-2.9.3-.4.6-.7.9-1.1.5-.5,1-1,1.5-1.6.8-1.1,1.7-2.3,2.5-3.4.3-.4.6-.7.9-1.1,1-1.3,2.1-2.6,3.1-3.9.3-.4.6-.7.9-1.1.3-.3.6-.7,1-1,.7-1,1.4-1.9,2.1-2.9.3-.4.6-.7.9-1.1,1-1.3,2-2.6,3.1-3.9.5-.5,1-1,1.5-1.6.9-1.1,1.7-2.3,2.6-3.4.3-.4.6-.7.9-1.1,1.3-1.7,2.7-3.3,4-5,.3-.4.6-.7.9-1.1.7-1,1.4-1.9,2.2-2.9.3-.4.6-.7.9-1.1.5-.6.9-1.1,1.4-1.7.6-.7,1.2-1.5,1.8-2.2,1.6-2,3.3-4,4.9-6.1.3-.4.6-.7.9-1.1,1-1.3,2.1-2.6,3.1-3.9.3-.4.6-.7.9-1.1.4-.6.9-1.1,1.3-1.7.3-.4.6-.7.9-1.1.3-.4.6-.7.9-1.1.7.7,2,1.4,2,2.1.1,19.1,0,38.3.1,57.4,0,2.7-1.3,3.4-3.7,3.4-14.8,0-29.6,0-44.4,0-1,0-1.9-1.1-2.9-1.7ZM228.8,320.4c-15.3,19.1-29.8,37.1-44.9,55.9h44.9v-55.9Z"/>
    <path class="cls-1" d="M386,297.9c.3.4.6.7.9,1.1.3.4.6.7.9,1.1.3.4.5.8.8,1.1.5.5,1,1.1,1.4,1.6.3.3.6.7,1,1,.3.4.6.7.9,1.1.3.4.6.7.9,1.1.9,1.1,1.8,2.2,2.7,3.4.5.5,1,1,1.5,1.5.3.4.6.7.9,1.1.3.4.6.7.9,1.1.3.4.6.8.8,1.1.5.5.9,1.1,1.4,1.6.3.3.6.7.9,1,.3.4.6.7.9,1.1.3.4.6.7.9,1.1.7.9,1.5,1.9,2.2,2.8.3.3.6.7,1,1,.3.4.6.7.9,1.1.2.5.4,1,.5,1.5-.4.4-.8.8-1.2,1.3-.6-.5-1.1-.9-1.7-1.4-.3-.3-.5-.7-.8-1-.5-.6-1-1.1-1.5-1.7-1.1-1.3-2.1-2.5-3.2-3.8-.3-.4-.6-.7-.9-1.1-.3-.4-.6-.8-.9-1.1-1.5-1.8-3.1-3.6-4.6-5.4-1.3-1.6-2.7-3.3-4-4.9-.5-.5-1-1.1-1.5-1.6-.3-.4-.6-.7-.9-1.1-1.1-1.3-2.1-2.6-3.2-3.8-.3-.4-.6-.7-.9-1.1-.3-.4-.6-.7-.9-1.1-1.4-1.6-2.8-3.2-4.1-4.9-.3-.4-.6-.7-.9-1.1-.2-.5-.4-1-.6-1.5.5-.3.9-.6,1.4-1,.5.4,1,.8,1.5,1.2.5.5,1,1,1.5,1.5.3.4.6.7.9,1.1,1,1.3,2.1,2.6,3.1,3.9.3.4.6.7.9,1.1Z"/>
    <path class="cls-1" d="M376,216.7c.8-1.6,1.6-3.2,2.3-4.8h-.2c.4-.4.7-.7,1.1-1.1h-.1c1-.6,2-1.3,3-2h0c.4-.3.7-.7,1.1-1,0,0,0,0,0,0,.4-.4.7-.7,1.1-1.1,0,0,0,0,0,0,.4-.4.7-.7,1.1-1.1h0c.4-.3.7-.6,1.1-1h0c.4-.3.7-.6,1.1-1,0,0,0,0,0,0,.4-.4.7-.7,1.1-1.1h0c.4-.3.7-.6,1.1-1h0c.4-.3.7-.6,1.1-1h0c.7-.2,1.3-.5,2-.8.4.4.8.8,1.3,1.2-.3.4-.5.8-.8,1.2-.3.3-.7.6-1,.9-.5.5-1,1-1.5,1.5-.3.3-.7.7-1,1-.3.3-.7.7-1,1-.3.3-.7.7-1,1-2,2-4.1,3.9-6.1,5.9-.3.3-.7.6-1,1-.3.3-.7.6-1,1-.3.3-.7.6-1,.9-.6,0-1.2.1-1.9.2Z"/>
    <path class="cls-1" d="M406.2,186c.6,0,1.3-.1,1.9-.2-.5,1.2-1,2.3-1.5,3.5-.3,0-.4.3-.5.6-.3.3-.7.7-1,1-2,2-4.1,3.9-6.1,5.9-.3.3-.7.6-1,1-.3.3-.7.6-1,1-.3.3-.7.6-1,1-.3.3-.7.6-1,.9-.5.2-.9.4-1.4.7-.4-.4-.8-.8-1.3-1.2.7-1,1.4-2.1,2.1-3.1h-.1c.4-.3.7-.7,1.1-1.1h-.1c.4-.3.7-.6,1.1-1h0c1.3-.9,2.7-2,4-3,0,0,0,0,0,0,.4-.4.7-.7,1.1-1.1,0,0,0,0,0,0,.4-.4.7-.7,1.1-1.1h0c.4-.3.7-.6,1.1-1,0,0,0,0,0,0,.4-.4.7-.7,1.1-1.1,0,0,0,0,0,0,.4-.4.7-.7,1.1-1.1,0,0,0,0,0,0,.4-.4.7-.7,1.1-1.1v.2Z"/>
  </g>
</svg>