<?xml version="1.0" encoding="UTF-8"?>
<svg id="Calque_1" data-name="Calque 1" xmlns="http://www.w3.org/2000/svg" version="1.1" xmlns:xlink="http://www.w3.org/1999/xlink" viewBox="0 0 500 500">
  <defs>
    <style>
      .cls-1 {
        fill: #75683b;
        stroke-width: 0px;
      }
    </style>
  </defs>
  <image width="710" height="410" transform="translate(-7942 -7992)" xlink:href="Vintersorg-1.png"/>
  <g>
    <path class="cls-1" d="M142.5,137.7c1.6-1.5,3.1-3.2,4.7-4.6.9-.8,2.1-1.3,3.7-1.1-5.1,5.8-10.2,11.5-15.3,17.3.2.5.5,1.1.7,1.6,3-.5,6-1.1,9.1-1.6.2.3.3.7.5,1-2,1-4,2.1-6.2,3.2v3.5c5,.5,11.5-4.8,11.3-9.3,0-2.1-.9-4.1-1-6.1,0-1.2.8-2.4,1.4-3.8,3.9,3.2,3.7,6.6,2.5,9.6,3.5,2.5,6.6,4.7,10.6,7.6-5.9.6-10.4,1-14.8,1.4,0,.5,0,.9,0,1.4,6.4-.3,12.9-.7,19.7-1.1,0,.7.1,1.8.2,3-6.5.5-12.8.9-19.1,1.4,0,.4,0,.8-.1,1.3,4.2.3,8.5.5,12.5.8-.2,2.3-.3,4.2-.5,6.4-2,.1-4.5,0-6.9.5-1.3.2-2.4,1.3-3.6,1.9.8,1.3,1.3,3.4,2.5,3.9,2.1.8,4.6.7,7.2,1-1.2.8-2.5,1.7-4.3,2.9,1.9,1.6,3.7,3.3,5.6,4.7,19.6,13.4,30.7,32.5,37.1,54.9.3,1.2-.7,2.7-1.1,4.1-1.1-1.1-2.8-2.1-3.2-3.5-4.5-17.2-12.3-32.5-25.5-44.6-2.9-2.7-6.3-4.8-9.5-7.3-2.2-1.7-4.4-3.3-6.4-4.9-2.4,1.5-4.7,3-7.9,5.1,1.3,3.1,2.9,6.7,4.6,10.8-.6.4-1.4.9-2.2,1.4-2.3-4.8-4.5-9.4-6.7-13.9l-1.7.7c2.8,6.8,5.5,13.6,8.3,20.4-.1.3-.2.7-.3,1-.8-.6-2.1-1-2.4-1.8-2-4.7-3.8-9.5-5.7-14.2-.6-1.4-1.2-2.8-1.8-4.2-.5.2-1,.4-1.4.6,1.5,4.4,3,8.9,4.6,13.3-.3.2-.6.4-.9.7-1.5-2.6-3.1-5.2-4.6-7.9-.3.2-.7.3-1,.5.5,2.5,1,4.9,1.5,7.7-4.6-1.6-5.3-8.9-11.6-7.6.6,3.6,2.3,6.3,6.2,7.2.8.2,1.9.7,2.2,1.4,3.4,6.9,11.5,9.1,15.4,15.5.7,1.1,1.1,2.7.9,4-.4,4-.8,7.3,4.5,8.9,2,.6,3,4.8,4.4,7.4-.6.4-1.1.8-1.7,1.2-1.9-1.9-3.5-4.7-5.7-5.4-2.5-.8-5.6.3-9.1.6.3,2.3.7,4.3,1.2,7.5-1.8-2-2.8-3.2-4.1-4.8-5.1,6.2-6.8,14.4-11.4,20.6-.4-.3-.9-.5-1.3-.8l12-25.4c-.5-.2-1-.5-1.5-.7-2.6,5.1-5.2,10.2-7.8,15.4l-.9-.5c2-5.4,4-10.9,6.1-16.3-.5-.2-1.1-.4-1.6-.6-2.7,6.7-5.4,13.4-8.2,20.4.9.2,1.7.5,3.3.9-1.3,2.1-2.5,3.9-4.1,6.3-14.7-19.5-32.3-25.9-55.2-13,2.9-6.3,6.9-9.6,12-10.4,11.7-1.9,23.2-.7,33,6.7,3.1,2.3,5.5,5.6,8.9,9,2.6-6.5,5.3-13.1,7.7-19-2.5-3-4.8-5.8-7.2-8.7.2,0,.4-.1.6-.2-2.2-1.1-4.4-2.2-6.6-3.2-.9-.4-2-.8-2.9-.6-5.8,1.7-10.3-.7-14.5-4.4-1.5-1.3-3.4-2.3-4.6-3.2-7.6,2.7-14.9,4-22.3,2.9-5.9-.9-11.4.3-16.9,1.7-.6.1-1,.5-1.6.8-4.5,1.9-7.2,1.3-8.6-2.1-1.7-4.1,1.2-7.1,3.9-7.7,4.6-1,6.4-3.7,8.1-7.4,1.1-2.3,3.1-3.1,6.1-2.8,2.6.3,5.7-.9,8.1-2.2,3-1.7,5.6-2.2,8.8-.8.9.4,2.8-.1,3.5-.9,1.8-1.8,3.3-4.1,4.7-5.8-4.9-2.2-9.7-4.4-15-6.9,3.5-1.2,6.7-2.3,10.6-3.7-4.8-3.1-9.6,2.6-14.1-2,5.9-1.4,10.9-2.5,15.9-3.6-.1-.5-.2-.9-.3-1.4-8.4,0-16.3,4.8-24.7,3.9,0-.6-.1-1.2-.2-1.8,5.7-1.1,11.5-2.3,17.3-3.4-3.7-3.8-9.2,2.4-12.8-3.4,5-.6,9.4-1.2,14.2-1.8-1.7-3.5-2.8-5.9-4.3-8.9,2.1.2,3.8.4,5.8.7-1.4-1.9-2.6-3.5-3.8-5.1.3-.3.6-.6.9-.8,2.3,1.2,4.7,2.4,7,3.7.2-.4.5-.8.7-1.2-3.4-2.5-6.9-5-10.3-7.5l.9-1.3c4.3,2.2,8.5,4.4,12.8,6.5.2-.4.5-.9.7-1.3-4.3-2.7-8.7-5.3-13-8-1.8-1.1-3.7-2.3-5.4-3.6-.5-.4-.5-1.6-.9-3.4,8.4,5.3,15.9,10.1,23.5,14.8.3-.5.6-.9,1-1.4-3-2-5.9-4.1-9-6.1-3.2-2.1-6.4-4.1-9.9-6.3.8-.9,1.5-1.7,2.4-2.6,4.1,2.8,8.2,5.5,13,8.8-.4-5.3-7.2-5.1-6.4-10.2,4.3.7,6,7.3,11.3,3.6,0,2.4-.2,4.6,0,6.7.2,1.7.6,3.6,1.6,4.9.7,1,2.5,1.2,3.8,1.8,0-1.3,0-2.5,0-3.8-.1-2.2-.5-4.3-.3-6.5.2-2.9,2.6-6-2.2-7.8-1.2-.5-1.1-4.3-1.9-8,3.9,3.7,7.2,6.9,10.3,9.8,3.5-2.4-1.5-7,4.2-8.1.5,5.3,1,10.5,1.5,15.6.3,0,.6,0,.9,0,0-4.2,0-8.4,0-12.6,0-3.7-2.9-7.8,1.5-12.2.6,7.6,1.1,14,1.6,20.4.5,0,1,0,1.5,0,0-2.4,0-4.8,0-7.2-.1-2.6-.4-5.1-.7-8.8,5.7,4,1.3,10,4.8,14.3v-11.8c1.4-.3,2.4-.6,3.7-.9v9c5-1.4,6.1-3.1,6.7-10.2.4,0,.8-.1,1.2-.2.4,4.2.8,8.4,1.2,13.7,2.7-3.2,4.8-5.7,6.9-8.2.4.4.8.8,1.2,1.2-2.2,3.4-4.3,6.7-7.1,11,7.2-1.8,6.1-12,14.3-11.7-3.3,4.7-6.3,8.8-9.3,13-.3.3-.6.6-.9.9-2.4,2.4-4.8,4.9-7.2,7.3.3.3.6.6.9.9,3.2-1.7,5.3-4.7,7.4-7.7.2,0,.4-.1.4-.4ZM68,207l11.7,4.9c.5-.7,1.1-1.4,1.6-2.1-2.1-1.1-4.2-2.3-6.3-3.4.3-.4.7-.7,1-1.1,1.1.6,2.2,1.1,3.3,1.7,5.3,3,9.4,2.3,14-1.7,1.7-1.5,4-2.4,5.9-3.7.3-.2.4-.7.8-1.3-1.1-.4-2.1-.7-3.4-1.1,1.4-1.6,2.5-2.8,4.4-4.9-4.2,0-7.7-1-10.3.3-2.6,1.2-4.1,4.6-6.4,7.4-.2-1.5-.4-3-.6-4.6-2.6-.3-5.4-.6-8.3-.9-4.6-.5-2.4,5.1-5.6,6.4-.3-1.1-.5-2-1-4.2-1.6,2.9-2.5,4.7-3.5,6.5-.3-.6-.6-1.2-.7-1.4-1.8.7-3.5,1.4-5.2,2.1,0,0-.2-.1-.4-.2.1,0,.2-.1.4-.2,1.7,1.3,3.4,2.6,5.2,3.8,1.4.9,1.8.7,2.6-.9.3-.4.5-.8.8-1.2ZM119.6,183.1c9.2,0,19.8-10,18.7-19-1.3-11-8.2-20.3-20.1-20.1-11.6.1-19.9,7.8-20.3,19.6-.4,11.1,9.2,19.5,21.7,19.5ZM102.7,196.6c-.2,2.5-.3,4.1-.4,5.7,1.3.3,2.8.7,4.3,1.1,0,.2,0,.5,0,.7-3.5.8-6.9,1.7-10.4,2.5.1.5.3,1.1.4,1.6,4.9,3.3,9.3.8,14-1.7-.5,1.7-1.1,3.4-2.2,4.1-1.5.9-3.5.9-5.3,1.4,5.3,4.2,8.4,4.2,13.3.5,1-.8,2.5-.9,3.8-1.3.1.3.3.7.4,1-.7,1.2-1.4,2.4-2.3,4,2.4.4,4.5.8,6.6,1.1.4-1.2.9-2.7,1.4-4.3,3.5,1.2,2.8,3.3,2,5.5-2.2,6,.2,8.8,6.9,7.8-.4-1.6-.7-3.2-1.1-4.9,6.5.9,2.4,8.2,7.2,10.4,0-2.3-.5-4.6,0-6.5,2.1-6.8-.1-10.4-7.1-11.1-1.2-.1-2.4-.3-3.5-.4,0-.4,0-.7,0-1.1h4.4c-.9-1.8-2.3-2.3-3.3-3.3-1.1-1.1-1.6-3.5-2.6-3.7-3.7-.7-6-3.4-9-5.1-.2-.1-.7-.2-.9,0-3.5,2.2-6-.5-8.9-1.7-2.5-1-5.1-1.6-7.8-2.5ZM142.4,168.6c-1.8,3.3-3.3,6.1-5.1,9.5,2.4,1.4,4.7,3.9,6.5,3.6,3-.5,5.8-2.9,8.3-4.3-1.6-4.6-2.6-8.6-4.4-12.2-.7-1.4-3.1-1.9-4.8-2.8-.4,1.8-.9,3.5-1.2,5.3,0,.5.7,1.1.6.9ZM130.9,128.4c-3.7,2.7-7.2,4.9-10.3,7.5-.8.7-.7,2.5-1,3.8,1.2-.5,2.4-.9,3.5-1.4.9-.4,1.7-1,3.3-2-1,2.1-1.5,3.3-1.9,4.3,2,.9,3.7,1.7,6.1,2.8,1.1-2.7,2.9-5.3,3.1-8,.2-2-1.6-4.2-2.8-7.1ZM80.4,157.7c2.2,8,9.8,2.7,12.7,6.1,1.2-4,2.3-7.9,3.5-12-6.6-2.5-9.6,5.9-16.2,5.9ZM132.5,195.8c.8-4.7,1.5-9.1,2.4-14.4-5.4,2.8-9.4,4.8-13.8,7.1,3.8,2.4,7.1,4.5,11.5,7.3ZM82.6,180.6c3.2,3.5,14.3,4.6,17,2.1.7-.6,1.1-1.6,1.6-2.4-1.4-1.4-2.5-2.6-3.9-4-4.2,4-8.6,6.7-14.8,4.4ZM105.2,144.6c1.7-1.5,4.4-2.9,4.8-4.7.9-4.3-1.7-7.3-6-9.8.3,5-3.4,9.4,1.1,14.5ZM97,174.4c-.6-1.1-1.2-1.8-1.5-2.6-1.4-3.7-2.7-4.1-5.3-1-2,2.4-3.3,5.3-4.9,7.9l.8,1.1c3.5-1.8,7-3.5,10.9-5.5ZM106.5,194.2c2.8-2.5,5.5-4.9,8.3-7.5-3.7-1.2-6.7-2.2-9.8-3.2.5,3.3.9,6.6,1.5,10.7ZM60.8,211.5c-3.9-4.7-7.6.5-11.3-1.8.3,1.5.5,2.7.6,2.7,3.3-.2,6.7-.6,10.7-1ZM119.9,189.9c-.4.2-.8.3-1.2.5.3,3-.1,6.3,4.1,7.7-1-2.7-1.9-5.5-2.9-8.2ZM115,198.6c.7,0,1.5-.2,2.2-.3-.7-2.8-1.3-5.5-2-8.3-.6.1-1.2.2-1.8.4.5,2.7,1,5.4,1.6,8.1Z"/>
    <path class="cls-1" d="M136.5,326.2c.6-2.5,1.2-5.1,1.8-7.6.4-1.8.9-3.7,1.2-5.5.2-1.1.8-2.6.3-3.3-2.1-3.1-1.5-5.1,1.8-6.8.6-.3.4-2,.6-3.1.2-.8.4-1.6.3-1.4,4,2.1,7.6,4,12,6.3.3-3.4.5-6,.7-9.1h-7.6c-.1-.5-.2-.9-.3-1.4,2.7-.7,5.4-1.4,9.2-2.4-3.3-.8-5.6-1.4-8.8-2.1,6.7-4.3,13.1-3.7,14.9.9-3.1,1.8-3.9,4-3.7,8.2.3,5-1.6,10.3-7,13.7-4.4,2.8-8.3,6.6-7.9,12.9.4,5.2-2.5,8.4-6.1,12.3-4.1,4.5-9.3,5.9-13.9,8.8-.6.4-.9,1.3-1.4,1.9-.5.7-.7,2-1.3,2.1-5.8,1.5-11.5,3.3-17.4,3.9-3.2.3-6.7-1.4-10.3-2.3-.9,1.1-2.2,2.7-3.3,4.1-2.6,0-4.7,0-6.8,0-1.4,0-3,.2-4.3-.3-4-1.4-7.8-3.2-11.7-4.5-3.8-1.2-5.2-4-4.9-7.4.3-3.7,3.3-3.8,6.4-3.5,1,.1,2.2-.5,3-1.2,3.9-3.5,10-4.2,14.3-1.6,2.3,1.4,4.8,2.8,1.9,6.3,2.1.4,3.6.7,5.2,1-1.1-5.7-.7-6.1,5.3-6.1,1.2,0,2.5-1,3.7-1.7,2.2-1.3,4.3-2.7,6.4-4.2.7-.5,1.3-1.4,1.8-2.2,2.4-4.2,5-4.8,9.1-2,1.4,1,2.9,1.9,4.6,3.1-.2-5.6,4.1-4,6.6-4.9,1.8-.6,3.7-.7,5.6-1,.3,0,.6,0,.8.2,0,0,0,.3,0,.4-2,4.3-5.8,4.3-9.6,3.4-1.5,5.8-3.9,6.5-8.5,2.8-3.9-3.1-4.3-3-6.6,1.5q5,4,3.1,6.9c-2.5-1.5-5-3-7.4-4.4-.4.3-.8.6-1.2.9,1.1,1.6,2.2,3.2,3.8,5.6-2.7-1-4.8-1.7-6.4-2.3-1,.7-1.7,1.6-2.6,1.8-1.7.3-3.4,0-6.2,0,2.5,2,4.1,3.3,5.7,4.5-.2.3-.3.5-.5.8-1.4-.2-2.8-.4-4.8-.7,3.2,4.1,7.2,4.2,10.8,3.4,3.6-.8,8-2.3,10.1-5,2-2.7,2.1-6.4,6.7-3.8,0,0,.2-.1.3-.2,0-.8.2-1.6.2-2.3,2.3-.2,4.4-.5,5.6-.6-.5-2.4-.9-4.2-1.2-5.7,3.2,0,6.4.9,8.2-.3,1.7-1.1,2.1-4.4,3.2-7.3-2.1.2-3,.3-3.8.3ZM66.4,345.1c0,.6,0,1.2-.1,1.8,1.3.9,2.5,2.6,3.8,2.6,5.6-.1,10.3,6.5,16.5,2.3,1.2-.8,2.4-1.6,3.6-2.4-1.1-.6-2.2-1.4-3.4-1.9-.6-.2-1.4,0-2.2,0,.6-2.8,3.4-6-1.3-7.4-4.3-1.2-7.5.6-8.1,3.7-3,.4-5.8.8-8.6,1.1ZM141.5,307.8h11.2c-9.5-3.9-12-3.5-11.2,0Z"/>
    <path class="cls-1" d="M48.9,313.6c-1.6,2.6-3.2,5.2-5.1,8.3,1.8.8,3.4,1.5,4.9,2.1.3.2.6.5,1,.7-1.9,2.6-3.8,5.2-6.4,8.8-3.9-3.9-7.7-7.2-10.9-11.1-7.4-9.1-11.5-19.5-10.9-31.4.2-4.3.3-8.6,0-12.8-.2-1.8-1.8-3.4-2.8-5.2-1.7,1.3-3.4,2.6-4.9,4.1-.6.6-.6,1.9-.9,3.1-4.1-8.5,0-16.1,8.6-16.1,0-7.3.3-14.6-.2-21.8-.1-1.7-2.7-4.5-4.3-4.7-2.6-.3-5.6.9-8,2.2-1.5.8-2.3,2.9-4.2,5.5.7-7,1.8-12.6,6.2-16.8,4.6-4.4,12.4-2.2,14.6,4.3,1.2,3.4,1.7,7.1,2,10.7.3,3.8,0,7.6.1,11.4,0,1.2.6,2.3,1,3.5,0,.3,0,.7,0,1-.4,1.7-1,3.3-1,5-.1,7.3.2,14.7-.2,21.9-.7,13.4,3,24.7,14.3,33.6,2.2-2.5,4.4-4.8,6.5-7.2.3.3.5.6.8.9Z"/>
    <path class="cls-1" d="M61.2,381.2c1.6,0,2.3-.1,3,0,12.6,3.4,25.3,3,38.2,1.6,26.6-2.8,48.6-15.2,67.8-32.8,9.7-8.9,16.6-20.3,21.5-32.5,2.3-5.6,3.5-11.6,5.6-17.3.9-2.4,2.9-4.3,4.3-6.5.6.3,1.2.5,1.8.8-1,4.4-1.7,9-3.1,13.3-5.8,18.4-15.9,34.4-29.5,47.6-10,9.7-22.2,16.7-35,22.7-15.5,7.2-31.9,8.6-48.5,9-8,.2-16.2-.4-23.9-3.3-.7-.3-1.1-1.3-2.2-2.5Z"/>
    <path class="cls-1" d="M375.2,245.6c15.6,0,26.2,10,26.2,24.9,0,15.1-10.6,25.3-26.3,25.3-15.4,0-26.3-10.3-26.4-24.9-.1-14.9,10.8-25.3,26.5-25.3ZM355,270.6c0,1.3,0,2.7,0,4,.7,10.1,7.8,18.2,17,19.4,10,1.4,18.7-3.8,21.9-13.2,2.2-6.6,2.2-13.4,0-20-3.5-10.8-15.1-16.3-25.7-12.5-8.7,3.1-13.3,10.8-13.2,22.3Z"/>
    <path class="cls-1" d="M52.5,234.6c-1.6-1.3-3.1-2.6-5.5-4.6,2.7-2.5,6.1-5.8,9.7-8.8.6-.5,2.9,0,3.4.7,1.9,2.6,3.4,5.5,4.9,8.4,1.6,3.2,3.6,5.4,8,4.2-.7,1.1-.9,2.1-1.5,2.6-4.7,3.9-4.9,9.1-4.8,14.7.2,14.3-.1,28.6.1,42.9,0,3.5,1.6,7,2.4,10.3-2.2,1-4.9,2.2-7.7,3.4-.5.1-1,.3-1.5.4.3-2.8.7-5.6,1-8.4,0-.1-1.1-.3-1.7-.5-.3-.3-.6-.6-.9-.8.7-1.8,2.3-3.9,1.8-5.2-.5-1.4-3-2.1-5.3-3.4h5.8v-28c-4.4.6-8.1,1.1-12.7,1.8.8-1,.9-1.2,1-1.2,12.3-2.4,12.1-2.4,12.4-15,.2-6.4-3.2-10.1-7.9-13.4-.4,0-.7,0-1.1,0Z"/>
    <path class="cls-1" d="M416.9,294.3h-5.5c0-11.4.2-22.6,0-33.8-.1-4.5-1.2-9-1.8-14,2.2,1.1,5,2.5,7.4,3.8v20.3c9.6-.5,16.1-6.5,16-14.9,0-5.3-1.6-6.8-6.9-6.8-1.7,0-3.4,0-5.6,0,4.2-3.9,11.6-3.9,15.7-.5,3.5,2.9,4.5,8.7.9,12.7-3.9,4.4-8.9,7.8-13.4,11.6,7,6.9,14.7,14.4,22.2,21.9-3.9.8-7.9.3-11.1-3.6-3.3-4.1-6.7-8.2-10.3-12.2-2-2.2-4.4-3.9-6.7-5.9-.3.3-.7.5-1,.8v20.8Z"/>
    <path class="cls-1" d="M264.1,246.3c2.7,1.3,5.5,2.7,8.1,3.9v20.6c10.9-2.3,15.4-6.6,16.1-12.7.9-7.2-1.3-10-8.6-9.6-1.6,0-3.2.3-5-.7,3.3-.7,6.7-2.5,9.8-2,3.3.6,7.1,2.5,9.1,5.1,2.4,3.2,1.3,7.8-1.5,10.7-4,4-8.7,7.2-13,10.7,7.2,7.1,15,14.7,22.3,21.9-6.3.9-7.3.7-12.2-4.8-3.3-3.7-6.3-7.8-9.7-11.5-1.9-2-4.3-3.5-7.3-5.9v22.1h-4.7c-1.7-15.6,2.7-31.7-3.2-48Z"/>
    <path class="cls-1" d="M495.5,246.4c-1,2.7-1.6,4.4-2.3,6.2-7.9-5.1-16.7-5.7-25.5-2.3-7.8,3-12.4,9.1-13.1,17.5-.8,9.6,1.2,18.4,9.9,24.1,7,4.6,18.2,2.4,25.7-4.6.9-.9,1.9-1.7,3-2.7,1.4,12.7,0,21-7.7,23.2,1.2-4.3,2.5-9.2,3.8-14.2-6.6.8-12.1,1.9-17.5,2-13.2,0-22.4-9.3-23.5-23.3-.9-11.9,7.8-23,20.1-24.5,8.8-1.1,17.7-1,27.1-1.4Z"/>
    <path class="cls-1" d="M145,254.1v41.4c-12.2-14.6-23.7-28.4-36-43.3,0,10,.1,18.7,0,27.5-.1,5.3.3,10.3,4.8,14.8h-6.4c0-10,0-20.1,0-30.2s0-3.5,0-5.3c0-4.6,1.8-10-5.7-11.5,5.9-1.4,9.6-.4,13.3,4.4,8.9,11.7,18.7,22.7,29,35v-32.9c.3,0,.7,0,1,0Z"/>
    <path class="cls-1" d="M313.9,250c-5,7.5-2.5,14.2,6.3,16.7,4.4,1.3,8.9,2.3,13.2,3.7,4.9,1.6,7.4,5.9,6.9,11-.5,4.8-4.1,9.2-9,10,3.9-3.2,5.5-7.5,3.5-11.3-1.4-2.7-5-4.6-8.1-5.9-4-1.8-8.5-2.5-12.7-3.9-4.8-1.6-7.8-5.8-7.7-10.3,0-4.8,2.9-8.6,7.5-10Z"/>
    <path class="cls-1" d="M219.3,261.5c-.9,3.3-2.4,6.5-2.5,9.9-.2,6.6,1.7,12.8,6.2,17.9,3.2,3.7,7.6,4.7,12.3,5.1-1.6.2-3.1.5-4.7.7-12.9-1.2-21.9-14.1-19.6-28.2,1.5-9.6,8.2-16.4,18.7-18.9,1.9-.4,3.8-.6,5.7-.9,0,.5,0,.9,0,1.4-7,1.6-13.6,4-16,11.9,0,.4,0,.7,0,1.1Z"/>
    <path class="cls-1" d="M175.3,253.9c-.8,1.1-1.6,2.3-2.4,3.4-4.9,7-6.5,14.9-5.1,23.2,2.2,13,17.2,18.3,28.9,10.4,2.2-1.5,4-3.4,6.1-5.1,1.4,2.9.4,4.5-2.2,6-10.6,6-21.2,6-31.4-.3-7.4-4.5-10.5-15.2-6.9-23,2.8-6,6.3-11.5,11.9-15.4.4.3.7.6,1.1.9Z"/>
    <path class="cls-1" d="M92.9,294.4h-5.7c.3-2.7.9-5.1.9-7.6.1-9.6,0-19.2,0-28.8,0-6.6-.7-7.7-6.6-11.2h11.4v47.6Z"/>
    <path class="cls-1" d="M86,273.2c-3.6,1-6.2,1.7-8.7,2.5,2.3,1.2,4,2.1,5.6,3,2.8,1.7.7,3.8.4,5.8-.3,2.2-.5,4.5-.8,6.7-.4,3.3-.8,6.7-1.4,10.9-4.6-3.1-8.1-5.5-12-8.2.3-2.6,3.5-3.8,6.8-1.1,1.1.9,1.9,2.1,3.7,4.2-.4-2.5-.6-3.6-.7-4.7-.2-2.1-.2-4.2-.5-6.3-.4-2.4-1.1-4.8-1.6-7.1-2.8.4-4.8.8-6.8,1.1-.2-.4-.3-.7-.5-1.1,1.9-1.3,3.8-2.5,6.1-4-.9-.4-1.3-.6-1.6-.7-1.6-.3-3.2-.5-4.7-1-.3-.1-.4-2.4,0-2.7,1.4-.9,3.1-2,4.6-1.9,3,.2,6.1,1.1,9,1.9,1,.3,1.7,1.5,3.1,2.8Z"/>
    <path class="cls-1" d="M70.6,302.8c9,1.8,16.8,3.5,24.7,4.9,1.3.2,2.9-.5,4.2-1.2,6.6-3.5,14.8-4.6,18.3-12.7,2-4.8,4.2-9.5,6.4-14.2.3-.6,1.2-.9,1.9-1.4.6,1.1,1.9,2.4,1.7,3.2-1.4,4.3-2.3,9.1-5.1,12.4-5.9,7-12,14.3-22.1,15.8-8.4,1.2-16.6.5-24.6-2-1.9-.6-3.3-2.9-5.3-4.7Z"/>
    <path class="cls-1" d="M152.9,249.7c1.5-1.9,2.9-3.7,3.8-4.9,4.2.7,8.5,1.9,12.7,2,12.2.3,24.3,0,36.9,0-1.1,2.3-2,4.1-2.9,6-7-5.8-14.8-4.6-22.8-2.9-1.5.3-3.4-1.2-5.1-1.1-7.2.4-14.3,1-21.4,1.5-.4,0-.8-.5-1.2-.8h0Z"/>
    <path class="cls-1" d="M201.9,281.9c-.8-9.2-1.6-18.1-2.4-27.4,5.9,3.2,4.5,9.4,5.2,14.2.6,4.2,3.8,9.9-2.9,13.2Z"/>
    <path class="cls-1" d="M219.3,261.5c0-.4,0-.7,0-1.1,11.8-.8,23.8,1.8,35.7-1.9v4.4c-6.5-.4-12.9-.8-19.4-1.1-5.4-.2-10.9-.2-16.3-.4Z"/>
    <path class="cls-1" d="M317.7,249c7.6-4.5,14.9-1.6,22.5.7-.8,2.3-1.6,4.2-2.4,6.6-4-5.8-9.2-8.4-16-7.6-1.4.2-2.8,0-4.2.1v.2Z"/>
    <path class="cls-1" d="M150.6,274.1c.5,1.5.9,2.9,1.4,4.5-4.8-1.1-5.2-2.2-4.1-9,3-.4,5.9-.9,8.8-1,.9,0,2.1.8,2.7,1.6.2.3-.6,2.1-1.2,2.3-2.4.7-4.9,1.1-7.7,1.7Z"/>
    <path class="cls-1" d="M327.4,294.9c-5.8-.6-11.6-1.2-17.9-1.9,1.1-2.9,1.8-4.8,2.7-6.9,3.2,6.2,8.9,7.4,15.4,6.8,0,.7,0,1.3-.1,2Z"/>
    <path class="cls-1" d="M110.9,274c1.4-3.1,2.8-6.1,4.3-9.2,2.4,2.8,4.9,5.6,8,9.2h-12.3Z"/>
    <path class="cls-1" d="M230.6,295.1c1.6-.2,3.1-.5,4.7-.7,7.8-.1,14.6-2.5,19.4-9.4,1,4.7,1,4.8-2.6,6.7-6.8,3.4-13.8,5.6-21.5,3.5Z"/>
    <path class="cls-1" d="M235.3,248.5c0-.5,0-.9,0-1.4h22.1c-.8,1.9-1.6,3.8-2.5,6-5.6-5.3-12.6-4.8-19.5-4.6Z"/>
    <path class="cls-1" d="M101.6,276.6c2,2.3,5.8,4.1,2.7,8.1-1.2-.9-2.7-2.8-3.6-2.6-1.6.4-2.8,2.2-4.3,3.4-2.1-4.6-.2-7.5,5.3-8.9Z"/>
    <path class="cls-1" d="M37,242.2c-.9.6-1.7,1.2-2.4,1.7v-36.8c.2,0,.5,0,.7,0,0,2.5.2,5,0,7.5-.3,2.5-1.2,4.9-1.7,7.4-.3,1.7-.6,3.5-.4,5.2.4,4.3.9,8.5,1.6,12.8,0,.6,1.1,1.1,1.7,1.7.2.2.4.4.6.5Z"/>
    <path class="cls-1" d="M157.2,259.5c4.7-1.5.3-8.3,6.4-8.5.6,2.6,1.1,4.8,1.5,7,.5,2.9-1.6,3.5-7.9,1.4Z"/>
    <path class="cls-1" d="M79.5,256.4c-2.2,3.4-4,6.5-6.2,9.2-.4.5-2.5-.3-3.8-.5.4-1,.6-2.5,1.4-2.8,2.3-1.1,5.8-1.3,2.2-5,0,0,1.1-1.7,1.8-1.8,1.1-.2,2.2.4,4.6.9Z"/>
    <path class="cls-1" d="M75.9,252.9c1.9-3.7,3.6-4.1,6.3-1.4.8.8,1.8,1.5,2.4,2.4.4.6.5,1.5.3,2.2,0,.3-1.3.5-1.8.3-2.4-1.1-4.7-2.3-7.1-3.5Z"/>
    <path class="cls-1" d="M148.4,253.8c2.8.9,5.7,1.7,8.5,2.6.1.4.3.7.4,1.1-2.1.5-4.4,1.9-6.2,1.3-1.7-.5-2.8-3-4.1-4.6.4-.1.9-.3,1.3-.4Z"/>
    <path class="cls-1" d="M140.3,253.8l-5.3,8.7c-.6-.3-1.1-.6-1.7-.9,1.6-3,3.3-6,4.9-9,.7.4,1.3.7,2,1.1Z"/>
    <path class="cls-1" d="M48.9,313.6c-.3-.3-.5-.6-.8-.9,2.9-3.9,5.8-7.8,8.8-11.6.3.3.5.6.8.9-2.9,3.9-5.8,7.7-8.8,11.6Z"/>
    <path class="cls-1" d="M145,254.1c-.3,0-.7,0-1,0-1.6-2.2-3.1-4.5-4.7-6.8h5.7v6.8Z"/>
    <path class="cls-1" d="M104.7,273.3h-9.2c0-.4,0-.7,0-1.1h9.2v1.1Z"/>
    <path class="cls-1" d="M31.9,254.8c1-2.6,1.9-5.2,2.6-7.1.2.3,1,1.5,1.8,2.7.2.2.4.4.7.5-5,3-1.4,7.9-2.4,11.8-.5-2-.4-4-.6-6,0-.5-1-.8-1.5-1.3-.2-.2-.4-.5-.6-.7Z"/>
    <path class="cls-1" d="M153,249.6c-1,0-1.9,0-3.2-.2-2.1-4.5,2.7-4,4.7-6.5-.7,2.8-1.1,4.7-1.6,6.7,0,0,0,0,0,0Z"/>
    <path class="cls-1" d="M146.2,243.8c1.9-2.2,3.1-3.7,4.4-5.1.3.1.7.3,1,.4-.3,1.3-.3,3-1.1,3.8-.8.8-2.5.6-4.2.9Z"/>
    <path class="cls-1" d="M52.6,318.4c2.3-3.2,4.6-6.3,6.8-9.5l1.3.9c-2.4,3.1-4.8,6.3-7.3,9.4-.3-.3-.6-.5-.9-.8Z"/>
    <path class="cls-1" d="M49,323.4c1.2-1.7,2.4-3.3,3.6-5,.3.3.6.5.9.8-1.2,1.7-2.5,3.5-3.7,5.2-.3-.3-.5-.6-.8-1Z"/>
    <path class="cls-1" d="M39,238.9c.7-.8,1.5-1.6,2.2-2.5l.8.7c-.8.8-1.6,1.6-2.3,2.4-.2-.2-.4-.4-.7-.7Z"/>
    <path class="cls-1" d="M52.5,234.6c.4,0,.7,0,1.1,0-1,.5-1.9,1.1-2.9,1.6h0c.6-.5,1.2-1.1,1.8-1.7Z"/>
    <path class="cls-1" d="M40.7,245.9c.6-.6,1.2-1.2,1.8-1.8.3.2.5.5.8.7-.6.6-1.3,1.2-1.9,1.7-.2-.2-.4-.5-.6-.7Z"/>
    <path class="cls-1" d="M45.1,234.2c-.7.6-1.4,1.2-2,1.8-.3-.3-.6-.6-.9-1,.8-.5,1.5-1,2.3-1.4.2.2.5.4.7.6Z"/>
    <path class="cls-1" d="M39.7,239.6c-.5.5-1,.9-1.5,1.4l-.5-.5c.4-.5.9-1,1.3-1.6.2.2.4.4.7.7Z"/>
    <path class="cls-1" d="M49.1,237.7c.5-.4,1.1-.9,1.6-1.3,0,0,0,0,0,0-.2.7-.5,1.3-.7,2-.3-.2-.6-.4-.9-.6Z"/>
    <path class="cls-1" d="M28.4,259.4c0-.3,0-.7,0-1,.3-.3.5-.6.8-.8.2.2.5.4.7.6-.5.4-1,.8-1.5,1.3Z"/>
    <path class="cls-1" d="M57.7,302c-.3-.3-.5-.6-.8-.9.3-.3.5-.6.8-1,.3.2.6.4.9.5-.3.5-.6.9-.9,1.4Z"/>
    <path class="cls-1" d="M42.5,244.2c.5-.5.9-1,1.4-1.5.2.3.4.6.6.9-.4.5-.8.9-1.2,1.4-.3-.2-.5-.5-.8-.7Z"/>
    <path class="cls-1" d="M43.9,242.7c.4-.4.9-.8,1.3-1.2.3.2.5.4.8.7-.5.5-1,.9-1.4,1.4-.2-.3-.4-.6-.6-.9Z"/>
    <path class="cls-1" d="M46.1,240.6c.5-.5,1-1,1.5-1.4.2.3.4.6.6.9-.5.5-.9.9-1.4,1.4-.2-.3-.5-.5-.7-.8Z"/>
    <path class="cls-1" d="M29.2,257.5c.3-.3.6-.6.9-.9.2.2.4.4.7.6-.3.3-.6.6-.8.8-.2-.2-.5-.4-.7-.6Z"/>
    <path class="cls-1" d="M45.2,241.5c.3-.3.6-.6.9-.9.2.3.5.5.7.8-.3.3-.5.5-.8.8-.3-.2-.5-.4-.8-.7Z"/>
    <path class="cls-1" d="M38.1,248.6c.3-.3.6-.6.9-.9.2.2.4.4.7.6-.3.3-.6.6-.9.9-.2-.2-.4-.4-.7-.6Z"/>
    <path class="cls-1" d="M30.1,256.6c.3-.3.6-.6.9-.9.2.2.4.4.6.6-.3.3-.6.6-.9.9-.2-.2-.4-.4-.7-.6Z"/>
    <path class="cls-1" d="M36.4,241.6c.4-.2.7-.5,1.1-.7-.2.4-.3.8-.5,1.2-.2-.2-.4-.4-.6-.5Z"/>
    <path class="cls-1" d="M317.6,248.8h.3c0,0-.2.2-.2.2,0,0,0-.2,0-.2Z"/>
    <path class="cls-1" d="M31,255.7c.3-.3.6-.6.9-.9.2.2.4.5.6.7-.3.3-.6.6-.8.8-.2-.2-.4-.4-.6-.6Z"/>
    <path class="cls-1" d="M47.5,239.2c.3-.3.6-.6.9-.8.2.3.4.5.6.8-.3.3-.6.6-.9.9-.2-.3-.4-.6-.6-.9Z"/>
    <path class="cls-1" d="M39.9,246.8c.3-.3.6-.6.9-.9.2.2.4.5.6.7l-.8.8c-.2-.2-.4-.4-.7-.6Z"/>
    <path class="cls-1" d="M37.2,249.5c.3-.3.6-.6.9-.9.2.2.4.4.7.6-.3.3-.6.6-.9.9-.2-.2-.4-.4-.7-.6Z"/>
    <path class="cls-1" d="M59.1,299.9c-.2.2-.4.5-.6.7-.3-.2-.6-.4-.9-.5.2-.4.4-.7.7-1.1.3.3.6.6.9.8Z"/>
    <path class="cls-1" d="M39,247.7c.3-.3.6-.6.9-.9.2.2.4.4.7.6-.3.3-.6.6-.9.9-.2-.2-.4-.4-.7-.6Z"/>
    <path class="cls-1" d="M45.9,233.3c-.3.3-.6.6-.9.9-.2-.2-.5-.4-.7-.6.3-.3.6-.6.9-.9.2.2.4.4.6.6Z"/>
    <path class="cls-1" d="M36.3,250.4c.3-.3.6-.6.8-.9.2.2.4.4.7.6-.3.3-.6.6-.8.8-.2-.2-.4-.4-.7-.5Z"/>
    <path class="cls-1" d="M45.3,232.7c.4-.2.7-.4,1.1-.7-.2.4-.3.8-.5,1.2-.2-.2-.4-.4-.6-.6Z"/>
    <path class="cls-1" d="M48.4,238.4c.2-.2.4-.5.6-.7.3.2.6.4.9.6-.3.3-.6.6-.9.9-.2-.3-.4-.5-.6-.8Z"/>
    <path class="cls-1" d="M49,323.4c.3.3.5.6.8,1v.2s-.2.1-.2.1c-.3-.2-.6-.5-1-.7,0-.3,0-.5.4-.6Z"/>
    <path class="cls-1" d="M61.4,308.4c-.3.4-.6.8-.9,1.2-.2-.3-.4-.5-.7-.8.5-.1,1-.3,1.5-.4Z"/>
    <path class="cls-1" d="M102.6,167.7c9.1,2.5,17.5,4.7,25.9,7,0,.3.2.5.2.8-1.3.2-2.7.8-3.9.5-6.7-1.5-13.4-3.1-19.9-5-1-.3-1.5-2.1-2.3-3.3Z"/>
    <path class="cls-1" d="M116,166c0-3.6,1.1-7.7-.3-10.1-1.4-2.4-5.5-3.1-8.2-4.4,5.4-1.3,10.6-.5,11.9,2,1.1,2.1-1.1,10.3-3.4,12.5Z"/>
    <path class="cls-1" d="M133.5,164.2q-8.1,2.5-7.7-1c-1.5-.5-2.9-.9-4.8-1.5,7.9-2.8,8.2-2.7,12.4,2.5Z"/>
    <path class="cls-1" d="M101.4,157.1c5.4-4.2,7.4-4,12.2,1.4-4.4,2.7-8.3.7-12.2-1.4Z"/>
    <path class="cls-1" d="M133,159c-3.6-3-8.8,1.4-13-3.2,5.3,0,9.9-1.5,13,3.2Z"/>
    <path class="cls-1" d="M67.2,208.2c-.3-.3-.6-.6-.9-.9.2-.4.5-.7.7-1.1.3.2.6.5.9.7-.3.4-.5.8-.8,1.2Z"/>
    <path class="cls-1" d="M66.3,207.3c-.1-.5-.3-.9-.4-1.4.4,0,.7.2,1.1.3-.2.4-.5.7-.7,1.1Z"/>
    <path class="cls-1" d="M130.9,132.6c0,0,.2,0,.2,0,0,0,0,.2.1.3-.2,0-.3,0-.5,0,0,0,.1-.2.2-.3Z"/>
    <path class="cls-1" d="M54,276.8c1.2.7,2.5,1.4,4.3,2.4-.9,1.8-1.9,4-3.2,6.7-5.2-5.9-4.5-12.1-4.3-18.2,0-1.8,2.6-2.1,4.3-.7,1,.9,2.8,1.3,3.2,2.3,1.5,3.7.4,6.3-4.3,7.5Z"/>
    <path class="cls-1" d="M58,251.1c1.3,7.5,1.1,7.8-4.3,8.9-.9-3.9,2.5-5.6,4.3-8.9Z"/>
  </g>
</svg>