<?xml version="1.0" encoding="UTF-8"?>
<svg id="Calque_1" data-name="Calque 1" xmlns="http://www.w3.org/2000/svg" version="1.1" viewBox="0 0 500 250">
  <defs>
    <style>
      .cls-1 {
        fill: #75683b;
        fill-rule: evenodd;
        stroke-width: 0px;
      }
    </style>
  </defs>
  <g id="surface1">
    <path class="cls-1" d="M74.3,20.1C21.9,37.6,4,64.5,4.8,94.3c1.6,25.1,32.2,59.7,62.6,68.4,9,1.9,12.6,10.8,8.2,18.2-17.4,23.8-18.5,48.6-2.9,42.5-7.2,0-8.4-7.6-6.1-9,3.4-2.4,7.2-4.8,10.6-6.9,1.3,2.9,2.4,5.6,3.9,8.4-.5-3.1-1.3-6.9-1.9-9.8,15.3-11.7,41.2-11.1,59.7-8.4,9.8,1.3,11.4,7.4,26.2,12.4,9.2,3.1,28.2,0,35.7-27.4,3.7,3.4,7.4,6.6,11.1,10-3.4,9.2-1.3,12.9,2.6,15.3-4.5-6.9-2.6-10,.3-13.7,4.5,1.9,9.8,2.9,17.7,0,1.3-.5,2.2,1.6,1.1,3.4-3.9,13.2,1.1,21.2,7.6,27.2,2.6,2.2,3.7,6.9,5,9.8,1.1-2.4,1.9-5.3,2.9-7.6,1.3-2.6,15.6-11.9,9.8-29.3-.8-2.4,0-4.5,1.3-3.9,3.4,1.1,15.9,2.9,18.2.5,2.9,3.1,2.6,8.4-.5,13.4,3.7-.8,6.4-8.2,2.9-14,5.8-1.9,11.1-6.1,15.9-11.4,5.8,18.5,16.9,27.4,28,28.2,12.9,1.1,16.9-1.9,33.3-11.9,17.9-10.6,52.5-5.8,71.5,6.4,0,7.2-2.4,9.8-4.2,13.4,2.4-2.6,4.8-4.8,7.2-11.4,2.4,1.1,4.8,2.6,7.4,5.3-.8,3.9-3.9,7.2-6.9,9.2,19.8-3.7,9.5-25.6,3.4-39.9-1.6-3.1-1.3-5,2.9-5.6,19.5-3.1,33.8-18.5,42.8-33.3-5.6,4.5-10.8,1.6-11.1-4.8v-40.2c5.3-1.1,11.7-5,17.7-10.8,6.9,20.6.5,31.5-3.1,43.3,21.4-30.7,2.4-65.3-19.8-77.6-5.8-3.1-17.4-9.8-30.7-15.9-11.9-5.6-17.4-15.1-22-22v51c-5.6-4.8-8.4-12.6-12.4-26.7-5.6,29.3-18.7,38.8-33.8,43.3,4.5,2.6,7.4,5.3,7.4,9.8,0,21.7-.3,43.6,0,65.3,0,6.9-3.1,11.4-6.6,12.9,4.2,1.3,9,3.7,12.2,5.8,1.3-6.6,7.4-7.9,7.2-14-3.4,3.9-6.6,5.3-6.1,2.2v-80.9c6.6-5.3,13.4-12.2,19.5-22,3.7,6.4,7.2,11.9,11.4,16.1,0,15.9-.3,31.7-.5,47.5-11.7-7.4-14.3-16.4-10.8-26.7-6.1,9.8-5.3,20.6,5.3,32.2,9.2,10,6.1,17.7-5.8,20.3,17.9,1.1,36.2-12.4,34.6-33-1.3-18.7-9.2-31.7-14.3-39.4v-41.9c11.4,8.4,28.2,9.5,43.6,20.6v39.6c-17.2,11.7-19.5,24.6-15.6,30.9-2.2-8.4,1.9-19,15.9-25.6v15.9c0,7.2-6.9,11.4-10.3,16.4-5,7.6-2.6,14.8,1.9,14.5-6.1-6.9,0-12.4,8.4-17.4v20.1c-9.2,14.3-40.2,16.4-58.6,7.6,3.7,15.9,30.1,29.3,33.8,40.7.8,2.4,1.1,5,1.3,7.6l-8.4-5.3c-2.4-31.9-62.3-24-99.1-21.4-17.7,1.6-28-3.7-22-10.3,2.4-2.4,4.8-4.5,7.2-6.9l-8.4-4.2v-49.4c6.9,5.3,6.4,11.1,4.5,16.9,9-6.4,11.7-17.4,3.4-30.7-2.4,3.1-5,7.2-7.4,10.6v-5.6c-1.9-1.6-4.2-3.4-6.1-5-1.6,4.8-6.4,10-9.8,12.4,2.4,1.9,4.2,3.4,4.2,6.4,0,15.3-.3,30.7-.3,46.3-1.1,1.9-2.4,3.9-3.4,5.8,3.4.5,3.9,1.9,4.8,3.1,7.4,12.6,11.9,19.5,18.7,22.7,7.4,3.7,17.7,2.9,37.2,1.6-7.6,5.3-21.7,12.6-31.9,10-11.4-2.9-22.1-12.9-25.1-31.7-6.9,8.7-15.6,16.9-20.1,17.9-3.1-3.1-6.9-6.1-7.4-8.7-.3-1.9,1.6-5,2.6-6.1,1.9-2.2,2.4-2.4,4.5-.8,14.5-18.2,14.3-21.4,10.6-28,.8,7.2-1.6,11.9-5.3,15.3-3.7-1.6-7.4-3.1-12.4-4.2v-11.4c6.4-5.8,11.7-10.6,19.5-24,2.2-4.2.8-7.4-.8-10-4.2-6.4-9.5-11.4-16.1-16.7-6.1,6.9-12.2,11.7-17.9,13.4,2.6,5.6,3.1,50.5,0,54.7,14.3-.8,12.2,13.4,4.5,22.4-4.8-3.4-9.8-7.6-14.5-11.1-4.8,3.9-9.8,7.6-14.5,11.7-8.2-7.4-7.4-15.9-2.9-23.8-1.3-1.9-2.6-3.7-4.2-6.6v-47.2c0-2.4,1.3-5.8,3.4-7.9-3.4-1.1-6.1-2.4-8.7-5.6-2.4,3.9-5.6,7.2-9.8,10,2.2,1.3,4.5,2.9,4.5,4.8v45.4c-1.3,1.6-2.9,3.9-3.9,5.6,5.8,6.6,9.2,12.6,10.3,19.3-1.9,3.1-3.9,6.1-6.1,7.9-5.8-3.7-11.4-9.8-16.4-17.2-8.2,44.6-39.1,31.2-46,25.1,21.7,1.3,31.7-2.6,39.1-23.2,2.6-7.6,10-12.9,15.1-19.5,0-11.1-.3-22.4-.5-33.5-2.2-1.6-4.2-3.4-6.4-5,2.2-3.9,5.6-6.9,6.9-11.9,1.3-4.8-.8-9.5-6.1-9.8,3.1,1.6,5.3,5.8,3.9,8.2-.5,1.3-1.9,2.2-5.6.5-3.4-1.6-6.9-3.7-9.8-7.4-6.4,7.9-12.2,14.3-17.4,17.2,0,10.8,3.1,21.2,6.4,29.3-7.4,13.4-9.2,27.4,1.3,30.7-4.2-4.2-6.9-5.6-5.6-13.4,4.2,3.7,9,7.9,13.2,11.9-1.6,8.7-9.2,10.3-17.9,10-75.6-10.8-90.4,1.1-92.4,21.2-2.9,1.9-5.8,3.4-8.7,5.3,0-8.7,7.6-21.2,22.9-29,10.6-5.6,21.4-14.8,24.8-24.3-30.9,7.2-48.3-.8-72.3-15.1-19.5-11.7-34.6-28.8-34.9-46-.3-27.7,19-48.6,56.7-61.5,2.4,24.8-11.1,30.9-20.9,42.8-17.9,18.2-22,33.5-15.3,41.5-4.2-14.8,4.5-28.2,18.5-38.5,6.6-5,13.2-10.3,18.7-16.9v16.1c-11.1,13.2-24.8,23.2-18.7,29.6-1.9-9,14-19.8,18.5-20.3v31.2c-17.7-.8-25.6,2.6-29,8.4,15.1-9.8,34.3-3.1,52,7.2,12.6,7.9,22.9,12.4,34.6,11.9,2.2-2.2,3.7-5.8,4.2-11.1-3.7,2.9-7.6,3.7-12.2,2.2-15.1-4.8-26.4-10-39.6-15.9v-19c2.9-2.6,7.4-1.9,14.3,2.2,5.6-2.6,11.1-5,16.7-7.6-9,2.4-12.9,3.9-17.4-2.6,14.3-8.7,29-17.2,43.3-25.9-15.6-10-20.9-25.6-22-46.5-8.7,10-31.5,15.6-36.2,28.5v-29h.3-.6ZM75.6,99.1c14.3-9,28.5-18.2,42.8-27.2-7.9-10.6-14.5-22.9-14.5-39.9-17.7,5.6-29.3,16.9-28.8,27,.3,13.7.3,26.4.8,40.2,0,0-.3,0-.3,0ZM130.8,192.8c-14,.5-22.7-3.9-50.5,8.2,3.7-9,9-20.1,48.3-19.5,19.3.3,30.1,6.9,52.3,4.5-1.1,8.7-20.1,9.8-38.8,8.4-24.3-16.9-47.8-6.6-57.5,3.7,11.9-7.2,32.7-12.9,46.5-5l-.3-.3h0ZM136.1,176c-2.4-3.7-5.6-6.9-9-9.8,1.6-1.6,4.5-3.9,4.2-7.4,0-14,.3-29,0-42.8,0-2.4-1.9-3.9-3.9-5.8,2.9-3.9,6.4-8.2,9.5-12.2,2.4,1.3,4.2,3.1,6.6,4.5l-.8,5c3.4-.5,5.3-3.4,8.2-9.8,4.8,3.1,10.8,6.1,16.9,6.4-2.6,3.4-3.7,6.1-3.7,8.4v44.6c0,2.6,2.4,5.6,4.2,7.2-3.7,3.4-6.6,7.6-9,11.9-2.2-2.4-4.8-5-6.9-7.4.5-3.1,1.1-6.1,1.1-8.7v-38.5c0-2.4.5-5.3,1.6-7.2-4.2-1.3-8.4-3.1-12.4-4.8v47.2c0,3.1,1.9,6.4,3.7,7.6-5.3,2.9-9.5,11.4-9.5,11.1l-.8.3h0ZM197.4,117.6c-3.7,4.8-7.4,9.5-11.1,14-3.7-6.6-4.5-13.7-4.5-20.3s.5-3.1,2.4-2.2c4.2,2.9,8.7,6.4,12.9,8.4h.3ZM191.8,127.8c.8-1.1,3.4,1.9,3.4,3.4,0,10.3.3,19.3.5,29.3,0,1.3-1.3,1.9-2.4.8-4.8-4.5-9.5-9.2-14-13.7-.5-.8-1.1-1.9-.3-2.9.8-1.3,11.9-15.9,12.6-16.9h0ZM218.2,71.6c2.9,4.5,6.1,9,9.8,12.4-4.8,5-3.9,10-3.9,14.8-.8-.8-1.6-1.3-2.6-1.9.5-2.4-.5-16.7-3.4-25.4h.3,0ZM261.3,69.2c4.5,12.6-1.1,10.8-10,2.4-5.3,6.4-10.6,12.4-16.9,14.8,1.3,6.1,1.6,13.4,1.1,20.1-2.4,2.9-4.5,5-6.9,8.2,2.2-.8,5.3-1.9,7.6-1.6,0,23.2-.3,46.7-.3,70.3,2.9-2.6,6.4-5,10-7.2,0-21.2.3-41.5.5-63.1,2.9,0,5.8,0,8.7.5,0-3.9,0-7.4.8-11.1-2.9.8-5.8,1.1-9.2.5v-19.5c3.1,2.2,6.1,3.9,9.2,6.1,2.6-3.1,5.6-6.6,7.6-10,2.6-4.5-1.1-9-2.6-10.3h.3ZM223.4,187.3c1.3.8,3.1,2.2,4.5,2.9-3.7,2.4-7.6,2.4-10.8,1.3,1.1-.8,4.8-3.1,6.4-4.2h0ZM269.7,187.3c-1.3.8-3.1,2.2-4.5,2.9,3.7,2.4,7.6,2.4,10.8,1.3-1.1-.8-4.8-3.1-6.4-4.2h0ZM246.5,186.5c-3.1,2.2-5.8,5-7.9,7.9,3.7,5,6.9,10.3,7.9,15.9,1.3-5.6,4.5-11.1,8.2-15.6-1.9-2.9-6.9-7.4-8.2-8.2h0ZM236.4,198.1c5.8,6.4,9,15.6,7.6,27.7-6.6-7.6-12.9-14.3-7.6-27.7ZM256.3,198.1c-5.8,6.4-9,15.6-7.6,27.7,6.6-7.6,12.9-14.3,7.6-27.7ZM272,111.8c14.8,14,13.2,24,0,32.7v-32.7ZM335.5,96.7c2.6,3.1,5.8,4.8,8.7,6.6-2.2,1.6-3.4,4.8-3.4,9.5v45.2c2.2,1.9,4.5,3.4,6.6,5.3,1.3-1.3,2.9-2.6,4.2-3.9,0-14.5,0-29-.3-43.8,0-5.6-1.3-5.8-4.2-7.9,3.7-3.4,7.6-6.4,10-10.6,2.2,2.6,5.6,5,8.4,6.4-2.4,2.6-3.4,5.8-3.7,9.2v45.4c1.3,1.9,2.6,3.1,4.2,5-3.4,3.9-6.6,9.2-9,13.7-2.9-5.3-5-8.2-7.9-11.9-3.9,2.6-7.6,7.4-10.3,11.4-2.9-5-6.4-8.7-12.6-10.6,1.9-2.2,3.1-4.8,3.7-8.7v-44.6c0-2.2-2.9-3.7-4.5-4.8,1.9-1.3,9.5-9.2,10-11.1v.3h.2ZM382.5,190.5c15.6.3,14.3-.3,45.4,9.8-4.2-7.4-9.5-19-53.6-18.7-21.7,0-33.8,6.6-58.6,4.5,6.9,8.2,31.9,6.1,53.1,5,20.3-10.8,47-4.8,54.7,5.6-13.4-6.1-23.8-10.3-41-6.1h0ZM421.3,93.8c11.1,18.5,10.8,34.6,0,44.1,0,0,0-44.4,0-44.1ZM471.5,66.1v25.9c5.6-2.6,11.9-10.3,12.2-14-1.1-3.4-8.7-10.6-12.2-11.9"/>
  </g>
</svg>