<?xml version="1.0" encoding="UTF-8"?>
<svg id="Calque_1" data-name="Calque 1" xmlns="http://www.w3.org/2000/svg" version="1.1" viewBox="0 0 187 84">
  <defs>
    <style>
      .cls-1 {
        fill: #75683b;
        fill-rule: evenodd;
        stroke-width: 0px;
      }
    </style>
  </defs>
  <g id="surface1">
    <path class="cls-1" d="M27.2,2C7.4,8.6.6,18.8.9,30.1c.6,9.5,12.2,22.6,23.7,25.9,3.4.7,4.8,4.1,3.1,6.9-6.6,9-7,18.4-1.1,16.1-2.7,0-3.2-2.9-2.3-3.4,1.3-.9,2.7-1.8,4-2.6.5,1.1.9,2.1,1.5,3.2-.2-1.2-.5-2.6-.7-3.7,5.8-4.4,15.6-4.2,22.6-3.2,3.7.5,4.3,2.8,9.9,4.7,3.5,1.2,10.7,0,13.5-10.4,1.4,1.3,2.8,2.5,4.2,3.8-1.3,3.5-.5,4.9,1,5.8-1.7-2.6-1-3.8.1-5.2,1.7.7,3.7,1.1,6.7,0,.5-.2.8.6.4,1.3-1.5,5,.4,8,2.9,10.3,1,.8,1.4,2.6,1.9,3.7.4-.9.7-2,1.1-2.9.5-1,5.9-4.5,3.7-11.1-.3-.9,0-1.7.5-1.5,1.3.4,6,1.1,6.9.2,1.1,1.2,1,3.2-.2,5.1,1.4-.3,2.4-3.1,1.1-5.3,2.2-.7,4.2-2.3,6-4.3,2.2,7,6.4,10.4,10.6,10.7,4.9.4,6.4-.7,12.6-4.5,6.8-4,19.9-2.2,27.1,2.4,0,2.7-.9,3.7-1.6,5.1.9-1,1.8-1.8,2.7-4.3.9.4,1.8,1,2.8,2-.3,1.5-1.5,2.7-2.6,3.5,7.5-1.4,3.6-9.7,1.3-15.1-.6-1.2-.5-1.9,1.1-2.1,7.4-1.2,12.8-7,16.2-12.6-2.1,1.7-4.1.6-4.2-1.8v-15.2c2-.4,4.4-1.9,6.7-4.1,2.6,7.8.2,11.9-1.2,16.4,8.1-11.6.9-24.7-7.5-29.4-2.2-1.2-6.6-3.7-11.6-6-4.5-2.1-6.6-5.7-8.3-8.3,0,6.3,0,13,0,19.3-2.1-1.8-3.2-4.8-4.7-10.1-2.1,11.1-7.1,14.7-12.8,16.4,1.7,1,2.8,2,2.8,3.7,0,8.2-.1,16.5,0,24.7,0,2.6-1.2,4.3-2.5,4.9,1.6.5,3.4,1.4,4.6,2.2.5-2.5,2.8-3,2.7-5.3-1.3,1.5-2.5,2-2.3.8,0-10.2,0-20.4,0-30.6,2.5-2,5.1-4.6,7.4-8.3,1.4,2.4,2.7,4.5,4.3,6.1,0,6-.1,12-.2,18-4.4-2.8-5.4-6.2-4.1-10.1-2.3,3.7-2,7.8,2,12.2,3.5,3.8,2.3,6.7-2.2,7.7,6.8.4,13.7-4.7,13.1-12.5-.5-7.1-3.5-12-5.4-14.9,0-5.2,0-10.7,0-15.9,4.3,3.2,10.7,3.6,16.5,7.8,0,4.9,0,10.1,0,15-6.5,4.4-7.4,9.3-5.9,11.7-.8-3.2.7-7.2,6-9.7,0,2.2,0,3.8,0,6,0,2.7-2.6,4.3-3.9,6.2-1.9,2.9-1,5.6.7,5.5-2.3-2.6,0-4.7,3.2-6.6,0,2.4,0,5.2,0,7.6-3.5,5.4-15.2,6.2-22.2,2.9,1.4,6,11.4,11.1,12.8,15.4.3.9.4,1.9.5,2.9l-3.2-2c-.9-12.1-23.6-9.1-37.5-8.1-6.7.6-10.6-1.4-8.3-3.9.9-.9,1.8-1.7,2.7-2.6l-3.2-1.6c0-6.2,0-12.5,0-18.7,2.6,2,2.4,4.2,1.7,6.4,3.4-2.4,4.4-6.6,1.3-11.6-.9,1.2-1.9,2.7-2.8,4,0-.6,0-1.5,0-2.1-.7-.6-1.6-1.3-2.3-1.9-.6,1.8-2.4,3.8-3.7,4.7.9.7,1.6,1.3,1.6,2.4,0,5.8-.1,11.6-.1,17.5-.4.7-.9,1.5-1.3,2.2,1.3.2,1.5.7,1.8,1.2,2.8,4.8,4.5,7.4,7.1,8.6,2.8,1.4,6.7,1.1,14.1.6-2.9,2-8.2,4.8-12.1,3.8-4.3-1.1-8.4-4.9-9.5-12-2.6,3.3-5.9,6.4-7.6,6.8-1.2-1.2-2.6-2.3-2.8-3.3-.1-.7.6-1.9,1-2.3.7-.8.9-.9,1.7-.3,5.5-6.9,5.4-8.1,4-10.6.3,2.7-.6,4.5-2,5.8-1.4-.6-2.8-1.2-4.7-1.6,0-1.4,0-2.9,0-4.3,2.4-2.2,4.4-4,7.4-9.1.8-1.6.3-2.8-.3-3.8-1.6-2.4-3.6-4.3-6.1-6.3-2.3,2.6-4.6,4.4-6.8,5.1,1,2.1,1.2,19.1,0,20.7,5.4-.3,4.6,5.1,1.7,8.5-1.8-1.3-3.7-2.9-5.5-4.2-1.8,1.5-3.7,2.9-5.5,4.4-3.1-2.8-2.8-6-1.1-9-.5-.7-1-1.4-1.6-2.5,0-6,0-11.9,0-17.9,0-.9.5-2.2,1.3-3-1.3-.4-2.3-.9-3.3-2.1-.9,1.5-2.1,2.7-3.7,3.8.8.5,1.7,1.1,1.7,1.8,0,5.8,0,11.5,0,17.2-.5.6-1.1,1.5-1.5,2.1,2.2,2.5,3.5,4.8,3.9,7.3-.7,1.2-1.5,2.3-2.3,3-2.2-1.4-4.3-3.7-6.2-6.5-3.1,16.9-14.8,11.8-17.4,9.5,8.2.5,12-1,14.8-8.8,1-2.9,3.8-4.9,5.7-7.4,0-4.2-.1-8.5-.2-12.7-.8-.6-1.6-1.3-2.4-1.9.8-1.5,2.1-2.6,2.6-4.5.5-1.8-.3-3.6-2.3-3.7,1.2.6,2,2.2,1.5,3.1-.2.5-.7.8-2.1.2-1.3-.6-2.6-1.4-3.7-2.8-2.4,3-4.6,5.4-6.6,6.5,0,4.1,1.2,8,2.4,11.1-2.8,5.1-3.5,10.4.5,11.6-1.6-1.6-2.6-2.1-2.1-5.1,1.6,1.4,3.4,3,5,4.5-.6,3.3-3.5,3.9-6.8,3.8-28.6-4.1-34.2.4-35,8-1.1.7-2.2,1.3-3.3,2,0-3.3,2.9-8,8.7-11,4-2.1,8.1-5.6,9.4-9.2-11.7,2.7-18.3-.3-27.4-5.7-7.4-4.4-13.1-10.9-13.2-17.4-.1-10.5,7.2-18.4,21.5-23.3.9,9.4-4.2,11.7-7.9,16.2-6.8,6.9-8.3,12.7-5.8,15.7-1.6-5.6,1.7-10.7,7-14.6,2.5-1.9,5-3.9,7.1-6.4,0,2,0,4,0,6.1-4.2,5-9.4,8.8-7.1,11.2-.7-3.4,5.3-7.5,7-7.7,0,3.9,0,8,0,11.8-6.7-.3-9.7,1-11,3.2,5.7-3.7,13-1.2,19.7,2.7,4.8,3,8.7,4.7,13.1,4.5.8-.8,1.4-2.2,1.6-4.2-1.4,1.1-2.9,1.4-4.6.8-5.7-1.8-10-3.8-15-6,0-2.5,0-4.8,0-7.2,1.1-1,2.8-.7,5.4.8,2.1-1,4.2-1.9,6.3-2.9-3.4.9-4.9,1.5-6.6-1,5.4-3.3,11-6.5,16.4-9.8-5.9-3.8-7.9-9.7-8.3-17.6-3.3,3.8-11.9,5.9-13.7,10.8,0-3.6,0-7.4,0-11ZM27.7,31.9c5.4-3.4,10.8-6.9,16.2-10.3-3-4-5.5-8.7-5.5-15.1-6.7,2.1-11.1,6.4-10.9,10.2.1,5.2.1,10,.3,15.2ZM48.6,67.4c-5.3.2-8.6-1.5-19.1,3.1,1.4-3.4,3.4-7.6,18.3-7.4,7.3.1,11.4,2.6,19.8,1.7-.4,3.3-7.6,3.7-14.7,3.2-9.2-6.4-18.1-2.5-21.8,1.4,4.5-2.7,12.4-4.9,17.6-1.9ZM50.6,61c-.9-1.4-2.1-2.6-3.4-3.7.6-.6,1.7-1.5,1.6-2.8,0-5.3.1-11,0-16.2,0-.9-.7-1.5-1.5-2.2,1.1-1.5,2.4-3.1,3.6-4.6.9.5,1.6,1.2,2.5,1.7l-.3,1.9c1.3-.2,2-1.3,3.1-3.7,1.8,1.2,4.1,2.3,6.4,2.4-1,1.3-1.4,2.3-1.4,3.2v16.9c0,1,.9,2.1,1.6,2.7-1.4,1.3-2.5,2.9-3.4,4.5-.8-.9-1.8-1.9-2.6-2.8.2-1.2.4-2.3.4-3.3,0-4.9,0-9.7,0-14.6,0-.9.2-2,.6-2.7-1.6-.5-3.2-1.2-4.7-1.8,0,5.9,0,12,0,17.9,0,1.2.7,2.4,1.4,2.9-2,1.1-3.6,4.3-3.6,4.2ZM73.8,38.9c-1.4,1.8-2.8,3.6-4.2,5.3-1.4-2.5-1.7-5.2-1.7-7.7,0-1,.2-1.2.9-.8,1.6,1.1,3.3,2.4,4.9,3.2ZM71.7,42.8c.3-.4,1.3.7,1.3,1.3,0,3.9.1,7.3.2,11.1,0,.5-.5.7-.9.3-1.8-1.7-3.6-3.5-5.3-5.2-.2-.3-.4-.7-.1-1.1.3-.5,4.5-6,4.8-6.4ZM81.7,21.5c1.1,1.7,2.3,3.4,3.7,4.7-1.8,1.9-1.5,3.8-1.5,5.6-.3-.3-.6-.5-1-.7.2-.9-.2-6.3-1.3-9.6ZM98,20.6c1.7,4.8-.4,4.1-3.8.9-2,2.4-4,4.7-6.4,5.6.5,2.3.6,5.1.4,7.6-.9,1.1-1.7,1.9-2.6,3.1.8-.3,2-.7,2.9-.6,0,8.8-.1,17.7-.1,26.6,1.1-1,2.4-1.9,3.8-2.7,0-8,.1-15.7.2-23.9,1.1,0,2.2,0,3.3.2,0-1.5,0-2.8.3-4.2-1.1.3-2.2.4-3.5.2,0-2.5,0-4.9,0-7.4,1.2.8,2.3,1.5,3.5,2.3,1-1.2,2.1-2.5,2.9-3.8,1-1.7-.4-3.4-1-3.9ZM83.7,65.3c.5.3,1.2.8,1.7,1.1-1.4.9-2.9.9-4.1.5.4-.3,1.8-1.2,2.4-1.6ZM101.2,65.3c-.5.3-1.2.8-1.7,1.1,1.4.9,2.9.9,4.1.5-.4-.3-1.8-1.2-2.4-1.6ZM92.4,65c-1.2.8-2.2,1.9-3,3,1.4,1.9,2.6,3.9,3,6,.5-2.1,1.7-4.2,3.1-5.9-.7-1.1-2.6-2.8-3.1-3.1ZM88.6,69.4c2.2,2.4,3.4,5.9,2.9,10.5-2.5-2.9-4.9-5.4-2.9-10.5ZM96.1,69.4c-2.2,2.4-3.4,5.9-2.9,10.5,2.5-2.9,4.9-5.4,2.9-10.5ZM102.1,36.7c5.6,5.3,5,9.1,0,12.4,0,0,0-12.4,0-12.4ZM126.1,31c1,1.2,2.2,1.8,3.3,2.5-.8.6-1.3,1.8-1.3,3.6,0,5.6,0,11.5,0,17.1.8.7,1.7,1.3,2.5,2,.5-.5,1.1-1,1.6-1.5,0-5.5,0-11-.1-16.6,0-2.1-.5-2.2-1.6-3,1.4-1.3,2.9-2.4,3.8-4,.8,1,2.1,1.9,3.2,2.4-.9,1-1.3,2.2-1.4,3.5,0,5.7,0,11.5,0,17.2.5.7,1,1.2,1.6,1.9-1.3,1.5-2.5,3.5-3.4,5.2-1.1-2-1.9-3.1-3-4.5-1.5,1-2.9,2.8-3.9,4.3-1.1-1.9-2.4-3.3-4.8-4,.7-.8,1.2-1.8,1.4-3.3,0-5.6,0-11.3,0-16.9,0-.8-1.1-1.4-1.7-1.8.7-.5,3.6-3.5,3.8-4.2ZM143.9,66.5c5.9.1,5.4-.1,17.2,3.7-1.6-2.8-3.6-7.2-20.3-7.1-8.2,0-12.8,2.5-22.2,1.7,2.6,3.1,12.1,2.3,20.1,1.9,7.7-4.1,17.8-1.8,20.7,2.1-5.1-2.3-9-3.9-15.5-2.3ZM158.6,29.9c4.2,7,4.1,13.1,0,16.7,0,0,0-16.8,0-16.7ZM177.6,19.4c0,3.2,0,6.6,0,9.8,2.1-1,4.5-3.9,4.6-5.3-.4-1.3-3.3-4-4.6-4.5"/>
  </g>
</svg>