<?xml version="1.0" encoding="UTF-8"?>
<svg id="Calque_1" data-name="Calque 1" xmlns="http://www.w3.org/2000/svg" version="1.1" xmlns:xlink="http://www.w3.org/1999/xlink" viewBox="0 0 500 500">
  <defs>
    <style>
      .cls-1 {
        fill: none;
      }

      .cls-1, .cls-2 {
        stroke-width: 0px;
      }

      .cls-3 {
        clip-path: url(#clippath);
      }

      .cls-2 {
        fill: #75683b;
      }
    </style>
    <clipPath id="clippath">
      <rect class="cls-1" x="4.6" y="194.9" width="490.8" height="110.2"/>
    </clipPath>
  </defs>
  <g id="surface1">
    <g class="cls-3">
      <path class="cls-2" d="M56.1,304.9c-1.2-.2-1.6-.4-3.7-1.1-1.7-.6-5.6-3.1-6.9-4.3-3.4-3.5-5.3-7.6-4.9-11.1,0-.8.3-2,.5-2.6.3-1.1,1.5-3.5,1.8-3.7,0,0,.5-.5.9-1,.4-.6,1.7-1.6,3-2.6,2.5-1.7,2.9-2,4.4-2.5,1.6-.5,1.6-.5,1-2-.8-1.9-2.9-6.1-4.4-8.6-3.9-6.6-8.5-15.2-9.6-17.9-.2-.5-.5-1-.6-1.3-.5-.8-3.4-8.5-4.7-12.4-1-3.2-2.8-10.1-3.2-12.4-.1-.6-.2-.8-.9-1-3-1-9.4-4.8-12.6-7.5-.5-.4-1.2-.9-1.6-1.1-1-.5-7.2-6.7-7.7-7.7-.2-.4-.6-1-.8-1.2-.6-.7-1.3-1.7-1.5-2.2-.2-.4-.1-.6.1-.9.3-.4.4-.3,1.7.5,2.9,1.9,6.5,3.6,10.6,5.3,2.9,1.1,10.7,3,15.2,3.6,3.3.5,4.3.5,8,.4,3.3,0,4.7-.2,6.6-.6,4.2-.8,9.7-2.2,12.6-3.3.8-.3,2.6-.9,3.9-1.4s3-1.1,3.5-1.4c.5-.3,1.2-.6,1.5-.7.3,0,1.3-.5,2.1-.9s2.1-1,2.8-1.3c2.4-1.1,4-1.8,4.2-1.8s.6-.2,1-.4c.5-.2,1-.4,1.2-.4s.4,0,.5-.2c.1-.2,2-.8,3.6-1.2,3.8-.9,10.3-1.5,15.1-1.4,3.3,0,9.8.7,11.6,1.1.5.1,1.6.4,2.6.6,2.9.7,4.4,1.1,4.6,1.2.1,0,.8.3,1.4.5,3.6,1,7.8,2.8,7.8,3.3,0,.4-1,1.5-1.7,1.8-.6.3-1.4.9-5.4,4.1-1.3,1-2.6,2-2.9,2.2-.5.3-3.2,2.5-6.8,5.7-1,.8-2.9,2.6-4.3,3.9-1.4,1.3-3.6,3.5-4.9,4.7-2.8,2.6-5.9,5.7-7.6,7.7-1.4,1.7-2.8,2.8-3,2.5,0-.1,0-.3,0-.4.2-.2-.5-2.4-.9-3.3-1.6-3.2-4-5.8-7.3-8-2.7-1.8-4.1-2.5-5.7-2.8-.7-.1-1.7-.3-2.2-.4-2-.3-8.4.3-9.3.9-.3.2-.4.6-.5,2.3,0,1.9.3,5.6.8,8.3.4,1.9,1.8,7.3,2.1,7.6.2.2.4.6.5,1,.3.9,1.7,2.2,2.8,2.7.4.2,1.5.4,2.3.5,1.4.1,1.6,0,3.9-.8,3.4-1.3,7.4-3.4,10.6-5.5,3.1-2.1,3.4-1.4,1.3,4.3-.4,1-.7,2-.7,2.2s-.2.9-.5,1.7c-.3.8-.6,1.8-.7,2.4-.1.6-.4,2.1-.8,3.4-.6,2.6-1.4,6.5-1.6,7.9-.2,2-.4,4.3-.4,4.5,0,.4-.4,3.5-.5,3.6s-.9-.8-1.4-1.8c-1.1-2.1-3.7-5.1-4.6-5.3-.8-.2-1.4.7-1.3,1.6.1.8,1.6,4.7,2,5.3.2.2.3.5.3.7s.2.6.3.9c.5,1,1.4,3.4,1.6,4.1.1.7.2.9.6,2.5.3,1.3.8,5.2.8,6.5,0,1.9-.3,4-1.3,8.2-.3,1.4-1.7,4.5-2.2,5-.2.2-.6.8-1.1,1.4-1.2,1.7-4.6,5-6,5.8-1.1.6-2.5,1.3-2.8,1.3s-.6.2-1,.4c-1.1.6-3.8,1.4-5.3,1.6-2.2.3-5.1.4-6.4.1h0ZM63.5,300.9c1.3-.3,2.6-.7,3-.8.7-.2,2.7-1.5,3.9-2.5.4-.4,1-.9,1.4-1.2.9-.8,3.2-3.6,3.9-4.7.8-1.4,1.5-3.8,2.3-7.8,0-.3.1-1.9.1-3.4,0-3.6-.5-5.6-2.3-10-.4-.9-.9-1.9-1-2.1-.6-.9-2-4.3-2.4-5.7-.2-.8-.4-2-.4-2.8,0-1.3,0-1.5.8-2.8,1-1.8,1.4-2.1,2.8-2.6l1.2-.4.8.5c.5.3,1.4,1,2.1,1.6l1.3,1.1v-.8c.6-2.9,1.3-5.9,2.1-8.5.7-2,1.4-4.8,1.3-4.9s-.7.3-1.5.7c-5.2,3.1-9.8,4.3-12.4,3.4-1.3-.5-3.2-1.9-4.2-3-.7-.8-2.3-3.7-2.9-5.2-.3-.8-1.2-4.3-1.4-5.9-.1-.6-.3-1.3-.4-1.6s-.3-1.3-.3-2.3-.2-2.9-.3-4.3c-.1-1.4-.2-3.5-.2-4.5v-1.9l1.1-.5c3.1-1.5,5.7-1.9,11.1-1.7,2.8.1,3.4.2,5.6.8s5.5,2.1,8.4,4.1c1.2.9,4.7,4.3,5.4,5.3.7,1.1.9,1.1,3.4-1.9.7-.8,1.6-1.7,2.1-2.2s2.1-1.9,3.6-3.3,2.9-2.8,3.3-3.1,1.5-1.4,2.7-2.5c1.2-1.1,2.5-2.2,2.9-2.7.7-.6,7.1-5.7,9.1-7.3.7-.5.6-.6-1.1-1.1-.6-.2-1.5-.5-1.9-.6-1.6-.6-8.6-2.5-10.1-2.8-2.4-.5-7.1-.7-10.1-.5-7,.5-8.8.7-12.9,1.8-4.9,1.3-6,1.7-8.2,2.7-1.3.6-2.8,1.2-3.4,1.4s-1.9.7-2.9,1.2c-2.9,1.3-13.6,4.8-16.1,5.2-1.2.2-2.2.4-2.4.5-.4.2-4.7,1-7,1.2-2.7.3-6.7.3-9.6-.1-2.6-.4-12.9-2.6-13.2-2.9-.1-.1-1-.5-2-.8-1-.3-2.6-1-3.6-1.4-1-.5-1.9-.8-1.9-.7-.1.1,1.9,1.9,3.2,2.8,4.7,3.4,7.5,5,11.3,6.5,1.3.5,2.5,1,2.8,1.1s.8.3,1.3.4c1.4.4,1.7.8,1.9,2.4,0,.7.3,2.2.5,3.2s.4,2.4.5,3.1c0,.7.2,1.4.3,1.5s.2.4.2.5c.3,1.9,3,10,4.1,12.2.4.9,1,2.1,1.2,2.7.2.6.5,1.2.6,1.3s.6,1.2,1.2,2.5c1.4,3.2,2.2,4.9,3.2,6.6.5.8,1,1.9,1.3,2.4.2.5.7,1.4,1.1,1.9.6.9,1.3,1.9,2.2,3.7.2.4,1.1,1.9,2,3.4,2.4,4.1,5.2,9.7,6,12.1.6,1.8.7,2.4.7,4.1,0,3.2-.9,5.3-2.7,6.2-1.3.7-2.4.6-3.2-.2-.4-.4-.8-1-1-1.4-.3-.7-.3-.9,0-1.8.4-1.3,1.5-2.9,2.1-3.3.3-.1.5-.3.5-.5s0-.4,0-.5c0-.4-1.1-.4-1.4,0-.1.2-.5.3-.7.3s-.6.1-.7.3-.3.3-.4.3c-.4,0-2.5,1.6-3.3,2.7-1.4,1.7-1.8,2.4-2,3.5,0,.6-.2,1.3-.2,1.7-.1.8.2,2.8.8,4.4.8,2.3,2.8,5.1,4.6,6.2,1.2.7,3.5,1.8,4.8,2.2,2.2.7,5.1.6,8.4-.3h-.2ZM57,298.9c-2.4-.3-5-1.4-6.5-2.8-.3-.3-.9-.8-1.3-1.2-2.3-2.1-2.9-7.8-1-9.8.6-.7.9-.5.9.6s.2,1.3.5,1.9c1,2,2.6,3,4.8,3,1.1,0,1.4-.1,2.3-.7.6-.4,1.2-1,1.3-1.3.2-.3.4-.7.5-.8.2-.3.6-1.4,1-3.5.5-2.2.2-5.6-.7-7.6-.2-.5-.8-1.9-1.4-3.2s-1.2-2.6-1.5-2.9c-.2-.3-.8-1.3-1.2-2.4-.5-1-1-2.1-1.2-2.3-.2-.3-.4-.6-.4-.7s-.4-.9-.9-1.7c-.5-.8-1.3-2.5-1.8-3.6-1.7-3.9-2.2-4.7-2.9-6-.7-1.2-2.2-4.2-2.2-4.4s-2.1-4.6-2.6-5.4c-.3-.4-.5-.9-.5-1.1s-.4-1.1-.8-2.2c-1.2-2.8-2.3-5.9-3-8.2-.4-1.1-.8-2.4-.9-2.9-.6-1.7-1.3-5.3-1.4-7.1,0-1-.2-2-.2-2.2s0-1.1,0-1.8c0-1.2,0-1.4-.5-1.5-1.7-.5-6.3-2-7.3-2.5-1.3-.6-1.6-1.2-.5-1,.4,0,1,.3,1.5.4,1.3.4,6.6.9,9.5.8,3.3-.1,7.3-.4,7.6-.6.1,0,1.4-.3,2.8-.5,1.4-.2,2.8-.4,3.1-.5,1.6-.4,2.6-.6,2.9-.7.2,0,.9-.3,1.5-.5,3.3-1,4.1-1.2,5.8-1.7s5.1-1.7,6.6-2.4c1.7-.7,2.1-.9,3-1.2.5-.2,1.4-.5,1.9-.7,1.6-.7,1.8-.8,2.7-1.1,1.6-.6,7.8-2.5,8.5-2.7.4,0,1.8-.4,3.1-.6,3-.6,10.4-.9,12.2-.5.6.2,1.9.3,2.9.5,1,.1,2,.2,2.3.3.9.1,4.5,1.1,5.1,1.4.3.2.7.3.8.3s.4.2.7.5c.5.5.5.5.2.9-.2.3-.7.8-1.2,1.2-.8.7-5.4,5.2-10.7,10.4-3.9,3.9-6.3,6-6.8,6s-.6-.3-.9-.6c-.3-.3-.9-.8-1.3-1.1-.4-.2-1.7-1.2-3-2-2.7-1.8-4.1-2.6-7.6-3.7-5.3-1.8-9.4-2-15.9-.8-5.4,1-7.7,1.6-7.9,2.1-.2.5,0,4.1.2,5.7.1.7.3,2.3.5,3.6.2,1.3.3,2.7.4,2.9s.2,1.3.3,2.2c.1.9.5,2.6.7,3.7s.5,2.3.6,2.6.2.8.3,1.1c.1.3.4,1.2.6,2,.3.8.8,2,1.1,2.7s.9,1.7,1.1,2.2,1.2,1.7,2.1,2.6c1.6,1.6,1.8,1.7,3.3,2.1,2.2.7,3.4.8,5.6.4,1.9-.3,4.4-1,4.6-1.3,0-.1.4-.2.8-.2.8,0,1,.4.7,1.2-.1.3-.3.8-.3,1.1-.1.5-.2.6-1.4.5-2.2,0-5.2.6-6,1.4-.2.2-.4.3-.5.3-.4,0-2.1,2.8-2.2,3.7-.4,1.7-.2,4.5.4,6.5.6,2.1,1.4,4,2.2,5.6.6,1.1,1.6,3.8,2.5,6.6.3,1,.6,2.3.7,4.1.4,5,.3,5.8-1.8,10-.8,1.6-2.3,3.6-2.7,3.6s-.5.3-.8.7c-.8.8-2,1.8-2.5,2.1-.8.6-4.1,2.1-4.4,2.1s-.6.1-.8.3c-.6.3-3.7.5-5.4.3h0ZM65,293.5c2-.6,5.1-2.3,6.1-3.3,1.6-1.5,2.5-3.9,2.2-5.9-.1-.7-.3-1.1-1-1.7-.9-.9-2.2-1.4-2.6-1-.1.1-.3.6-.3,1-.1.8,0,.8.7,1.1,1.1.4,1.5,1,1.3,2.1-.3,1.7-1.6,3.1-4.3,4.4-1.6.8-1.6.8-2.2.3s-.4-.7-.4-2.1.1-2.2.2-2.9l.2-1.3-.8-.7c-.4-.4-.8-.6-.9-.6-.2.2-.7,2.3-.9,3.5-.2,1.6-.2,5.5,0,6.2.1.4.2.7.2.8,0,.5.3.5,2.3-.1h0ZM68.9,286.8c.9-1.1.9-2.3,0-1.8-.3.2-.5.2-.7,0-.6-.4-.5-1.5.1-3.1,1-2.5,1.1-3.2.6-4.2-.4-.8-.5-.9-1.3-.9s-1,.1-1.5.7c-.7.8-.8,1.1-.3,1.6.3.3.4.3.6,0,.4-.4.9-.4,1.3,0,.4.5.4,1-.5,4.4-.9,3.3-.8,3.9.6,3.9s.8-.2,1.2-.6h0ZM66.4,281.8c.1-.5,0-.7-.5-1-.8-.5-2-2.1-2.7-3.4-.5-1-.6-1.5-.8-3.8,0-.6-.1-1-.2-1s-.3-.2-.6-.4c-.7-.5-.9-.1-.6,1.3.1.6.3,1.5.3,2.1.2,2.5,1.8,5.4,3.8,6.8.9.6,1,.6,1.2-.6h0ZM72.5,278.7c.6-1.8.6-3.6,0-5.2-.4-.9-.7-1.3-1.6-2-1.6-1.2-2.7-1.8-3.7-2-.5-.1-.6,0-.7.3-.3.8,0,1.1,1.1,1.7.6.3,1.5.9,1.9,1.4,1.4,1.5,1.8,2.9,1.3,5.4-.4,1.6-.3,1.9.7,1.8.4,0,.6-.3,1-1.4h0ZM67,275.4c.8-.5,1.1-2.1.5-2.1s-.3,0-.5-.1c-.2,0-.4.1-.6.6-.3.8-.7.9-1.2.4-.3-.4-.3-1.3.4-5.2.5-2.6.2-4-.8-4.6-1.2-.7-1.5-.7-2.2,0-1.3,1.2-1.4,1.9-.6,2.4.5.3.6.3,1,0s.5-.3.9,0c.5.4.5.4.2,1.7-.1.7-.3,1.7-.4,2.3-.6,3.2.1,5,2,5s1.1-.2,1.4-.3h0ZM62.8,269.3v-1c.1,0-1-.6-1-.6-3.6-2-4.7-3.3-5-6.5,0-.8-.2-1.6-.3-1.7s-.5-.3-.9-.3q-.8,0-.4,2.6c.4,1.9.6,2.8,1.4,4.5.5,1.2,2,2.7,3,3.2,1.3.6,2.7,1,2.8.9,0,0,.2-.6.3-1.1h0ZM69.1,267.5c0-.8-.2-2.8-.5-4.3-.5-2.3-1.1-3.6-2-4.4-.9-.8-3.3-1.9-4.3-2.1-.9-.1-.9-.1-.8.4,0,.3.1.8.1,1.1,0,.6,0,.7,1.7,1.2,1.3.4,1.8.7,2.4,1.3.4.4.8,1,.8,1.2s.1.6.2.9c.3.7.6,3.4.4,4.2-.2.8,0,1,.9,1.3.9.3,1.1.3,1.1-.8h0ZM61.2,262.8c.9-.2,1.9-1.1,1.9-1.6s-.9-.7-1.3-.3-1,.4-1.4,0-.6-1.6-.4-4.3c.4-3.8,0-5.1-1.7-5.5-1.4-.3-2.3.5-2.6,2-.1.7,0,.8.5,1.1.8.4.7.4,1-.2.2-.6.7-.8,1.1-.5.3.2.3.7.3,2.6,0,3.5.2,5.7.7,6.3.4.6.7.7,1.8.4h0ZM57.6,257v-1.1c0,0-1.2-.4-1.2-.4-1.9-.7-3.7-1.9-4.3-2.9-.1-.2-.4-.6-.6-.9-.6-.8-1.3-3.3-1.3-4.3s0-.9-.5-1c-1.4-.4-1.8.2-1.3,2.1.2.6.3,1.2.2,1.3,0,.3,1,2.3,1.8,3.7.7,1.1,2.3,2.5,3.8,3.3.6.3,3.1,1.2,3.3,1.2s.1-.5.1-1.1h0ZM63.9,255.3c.4-1.5,0-5.9-.8-7.7-.3-.6-1.3-1.8-2.3-2.7-.8-.7-3.9-1.4-5.1-1.2-.8.1-1.1.4-1.1,1s.1.5.5.5c1.4,0,2.7.2,3.2.5.3.2.7.3.9.3.5,0,2.5,2.1,2.9,2.9.2.4.3.8.2.9,0,0,0,.4.1.7.1.3.3,1,.3,1.5s.2,1.5.2,2.3c0,.8.2,1.5.2,1.6.2.4.7.1.8-.4h0ZM55.2,250.5c.6-.1.7-.3,1.5-2.3.3-.7.2-.8-.5-1-.7-.3-1-.2-1,.4s-.6,1-1,.7c-.6-.4-.8-1.5-.7-3.9.1-2.9-.2-4.1-1.3-5.1-.6-.5-.8-.6-1.5-.5-1,.1-1.7.8-1.9,1.6-.1.5,0,.7.3,1,.6.5.7.5,1.1-.3.4-.8.7-.8,1.6,0l.7.6-.3,2c-.4,2.6-.2,4.3.4,5.6.6,1.2,1.3,1.5,2.6,1.2h0ZM51,244.8c.1-.2.2-.6.2-.9,0-.4-.1-.5-.5-.5-1,0-3.2-1-4-1.7-1.8-1.7-3.2-5.9-3.1-9.4,0-1,0-1.1-.7-1.4-.4-.2-.8-.2-.9-.2-.3.3-.4,2.8-.2,4.5.6,4,1.5,6.2,3.4,7.9.9.9,1.4,1.1,2.5,1.4,2.4.6,3,.7,3.2.2h0ZM57.9,241.4c.4-1.4.4-3.8.1-5.3-.3-1.6-1.5-3.8-2.5-4.7-.7-.7-2.8-1.8-2.8-1.6s-.3,0-.6-.2c-.9-.5-1.2-.3-1.6.9-.5,1.3-.5,1.2,0,1.2s1.1.4,2,.8c1.4.7,1.8,1,2.5,1.9,1,1.4,1.3,2.6,1.2,5.6,0,1.3,0,2.4,0,2.5s.4.1.8.1c.6,0,.7,0,1-1.2h0ZM50.6,236.8c.4-.4.9-1.2,1.1-1.7l.4-1-.9-.4c-1-.5-1.5-.5-1.5-.2s-.2.5-.5.7c-.4.4-.5.4-.8.2-.4-.3-.4-1.2,0-2.9,1.6-6.2,1.7-7.2,1.1-8.2-.4-.6-1.1-1-2.4-1.1-1.3-.2-2.3.6-3.2,2.3-.3.6-.1.9.8,1.2.5.2.6.2,1-.4.3-.4.6-.6,1-.6,1.3,0,1.3,1.1,0,6-1.1,4.3-.7,5.9,1.5,6.5,1.4.4,1.7.3,2.4-.4h0ZM45.2,229.8c0,0,.2-.6.2-1.1.1-.9.1-1-.3-1.1-.3,0-1.1-.4-1.8-.8-1.6-.8-2.2-1.7-2-2.9.2-.7,1-2.1,1.2-2.1s.7-.5,1.4-1.1c2-1.7,2.8-1.9,4.3-1.1,4.3,2.1,5.1,3.6,4.1,6.8-.3.9-.3,1.3-.2,1.4.4.3,1.7.6,1.9.5.3-.2,1.3-3.4,1.3-4.3,0-1.5-.4-2.6-1.2-3.2-.4-.3-1.5-1.2-2.4-1.9-.9-.8-1.7-1.4-1.8-1.4s-.8-.4-1.5-.9c-2-1.3-2.2-1.3-4.6.8-2,1.7-3.7,3.5-4.4,4.6-.8,1.3-1.2,3.2-.8,4,.3.7,2.5,2.6,2.9,2.6s.5.2.9.3c.6.3,2,.8,2.5.9.1,0,.3,0,.3-.1h0ZM97.1,217.3c1.4-.8,3.6-3.2,4-4.2.3-.8.2-2.1-.3-3.2-.5-1.1-.7-1.2-1.1-.8-.2.2-.2.4,0,.9.3.6.2,2.2-.3,3.1-.3.6-1.6,2-1.9,2s-.3.1-.5.3-.6.4-.9.4c-.4.1-.6,0-.8-.3-.1-.3-.2-.7-.2-.9.1-.6,0-.7-.8-.5-.7.3-1.1,1.3-1.1,2.6,0,1.1.1,1.4.7,1.6s1.4,0,3-1h0ZM96,212.2c1.9-.4,2.2-.5,2.5-1,.3-.6-.1-.6-2-.4-1.8.3-6.7,0-8.2-.5-.7-.2-.9-.4-.9-.7s.3-.6,2.6-1.3c1.4-.5,3.2-.9,3.9-1,.8,0,1.6-.3,1.9-.5.7-.5.6-.5-.4-.9-2-.7-7,.2-11.1,2-.6.3-1.4.7-2,.9s-1,.5-1,.6c0,.5,2.6,1.9,5.4,2.8,1.3.5,1.7.5,4.5.4,1.7,0,3.8-.2,4.6-.4h0ZM105.4,209.2c1.4-1.2,1.9-2,1.7-3-.1-.6-.3-.8-1.1-1.1-1.9-.8-3.4-.7-6,.6-1.7.8-2.7,1.7-3.3,2.9l-.4.9.8-.2c.5-.1,1.2-.5,2-1.2,1.6-1.3,3-1.9,4.3-1.9s1.5.3,1.5.9-1,1.6-1.7,1.8c-.4.1-.5.9-.2,1.6.2.5,1.1,0,2.6-1.2h0ZM420.3,303.5c-2.5-.2-4.3-.6-5.4-1.1-.7-.3-1.5-.6-1.7-.7-.8-.2-4-2.1-5.1-3-2.6-2.3-5.3-5.3-5.3-5.9s-.1-.4-.3-.5c-.3-.2-.8-1.8-.9-2.5,0-.1-.1-.4-.2-.7-.1-.3-.2-.8-.3-1.2s-.2-.9-.2-1c-.4-1.2-.5-6,0-8.2.4-2.1,1.9-7.2,2.7-9.1.2-.3.4-.9.5-1.3.2-.4,1.2-2.7,2.4-5.1s2.5-5.1,2.9-6.1c1.9-4.3,2.2-5,2.5-5.9.2-.6.5-1.5.8-2,1.1-2.5,2.4-7.2,3.5-13.2,0-.5.2-.9.2-.9,0,0,.1-.7.2-1.5,0-.8.3-2,.4-2.7.4-1.6.7-5.1.7-6.9v-1.4h-1.7c-2,0-6.8,1.1-8.9,2.1-1.7.8-4.1,3.8-4.7,6.1-.9,3.2-.9,5.1.2,8,.4,1,.7,2.2.7,2.6,0,.7,0,.8-.4.9-.3,0-.5,0-.6-.3,0-.2-.5-.8-.8-1.3-.6-.9-1.3-1.6-4.1-4.4-.6-.6-1.3-1.3-1.4-1.5-.5-.6-2.2-2.2-2.6-2.4-.2-.1-.8-.6-1.4-1.1-1.7-1.5-6.3-5.3-7.2-5.9-.5-.3-1.5-1.1-2.4-1.8s-1.8-1.3-2.2-1.5c-.6-.3-2.9-2-3.1-2.3,0,0-1.9-1.4-4-3s-4.1-3-4.2-3.1c-.2-.1-1-.7-1.8-1.2-.8-.5-1.7-1.3-2.1-1.6-.4-.3-1.1-1-1.7-1.4-.6-.4-1.1-1-1.2-1.2-.2-.6.5-2,1-2.1.2,0,.6-.3.7-.4.5-.4,2.9-1.6,4.2-2.1.7-.2,1.3-.5,1.4-.6s.5-.2.9-.3c.4,0,1-.3,1.4-.5.4-.2.9-.4,1.1-.5s1.1-.4,2-.6,2.3-.6,3.1-.8c2-.5,4.3-.8,9.5-1,2.9-.2,5-.2,6.2,0,4.2.5,5.1.6,6.8.9.9.2,2.5.5,3.3.7s2.7.6,4,1,3.5.9,4.9,1.1c1.3.3,3.7.8,5.3,1.1,3.7.9,8.2,1.8,12.5,2.4,1.9.3,4.1.6,5,.8,1.7.4,4.5.7,7.9.9,3.1.2,11.5.2,13.9,0,5.4-.5,6.5-.6,8.7-.9,2.9-.4,3.8-.6,6.3-1.3,1.1-.3,2.6-.8,3.4-1,1.8-.5,4.6-1.7,7.1-3.1,2.2-1.2,3.2-1.4,3.2-.8s-4,5.6-5.9,7.6c-3.4,3.3-4.9,4.6-7.8,6.4-4.7,3.1-6.6,3.9-11.6,5.4-3.5,1-3.7,1.1-3.8,2.6,0,.5-.4,1.7-.7,2.8-.5,1.7-.8,2.7-2,6.1-.5,1.3-3.8,8-5,10-1.4,2.3-4,6.3-4.6,7-1.1,1.3-3.3,4.6-3.9,6-.5,1.1-.6,1.6-.6,2.8s.1,1.7.3,2c.7,1.7,4.5,1.8,5.6.2.5-.8.6-1.7.2-2.8-.4-1.1-1.5-3-2.3-3.8-.4-.4-.5-.7-.4-1,0-.2.2-.4.3-.4.4,0,20.6-.3,24.2-.3,3.8,0,4.3,0,4.7.3.2.2.5.4.6.4.2,0,1,.9,3.5,3.6.7.8,1.6,1.8,2.1,2.3.4.5.8.9.8,1.1s1,1.3,2.3,2.7c1.3,1.4,3.5,3.8,5,5.5s3.4,3.8,4.3,4.7c3,3,5,5.2,5,5.6s-.2.5-.6.7c-.6.3-.8.2-2.6-.4-1.7-.6-3-1-6-1.7-.8-.2-2.4-.5-6.6-1.3-.9-.2-2.7-.4-3.9-.5-1.2-.1-3.1-.4-4.1-.6-1.9-.4-6.3-.8-10-.9-4.4-.2-11.8-.1-12.9.1-.7.1-1.6.2-2.1.2-1.1,0-6.2.9-6.5,1.2-.1.1-.8.4-1.6.7-3.1,1.2-4.3,1.9-6.2,3.8-1,1-1.8,1.9-1.7,2s.4.2.7.2c.8,0,2.6.6,3.6,1.1,1.5.9,2.1,1.8,3.6,5.2.4.9.4,3.4.1,4.8-.5,2.2-1.8,4.6-3.4,6.1-.9.9-3.9,2.8-5.7,3.6-.7.3-2,.8-2.8.9-1.6.3-4.8.5-6.2.4h-.1ZM425.5,300.7c2.3-.5,5.3-1.9,6.5-3.2,1.3-1.3,2.5-2.9,3.1-4.1.5-.9.5-1.3.5-3.2s0-2.1-.6-3c-1-1.5-1.5-1.9-2.5-2.2-.5-.1-1.1-.3-1.3-.4-1-.4-2.7-.2-2.7.4s.2.4.8.5c1.2.2,1.9.8,2.2,1.7.3.9.1,1.3-1.1,2.7-1,1.1-1.6,1.3-3.3,1.3-1.7,0-2.8-.5-3.1-1.2-.1-.3-.4-.9-.6-1.2-.8-1.4-.4-3.5,1.1-6.4,1.4-2.8,2.9-4.4,5.7-6.5,2.2-1.6,3-2.1,5.1-2.9.9-.4,2.2-.9,2.8-1.2,1.2-.5,3.6-1.2,5.6-1.5,3.6-.6,5.5-.8,8.1-1,1.6-.1,3.3-.3,3.9-.3,1-.1,8.8.2,12.9.4.9,0,2.8.3,4.1.5s3.2.5,4.1.6c1.8.2,4.1.7,6.9,1.5,1.9.5,2.3.5,1.6,0-.5-.4-3.9-4.3-5.2-5.9-.5-.6-1.8-2.1-2.9-3.4s-2.8-3.2-3.6-4.2c-2.3-2.9-2.4-3-3.7-3.1-1.7-.2-21.9-.1-21.9,0s.3.9.6,1.7c.7,1.6.7,2.2.2,4.1-.3,1.2-.7,1.8-1.6,2.5-1.5,1.1-5.7,2-7.8,1.7-2.2-.3-4-1.4-4.6-3.1-.8-1.8.2-6.4,1.9-9.5,1.1-2,2.1-3.6,2.4-3.9.2-.1.3-.3.3-.4,0-.2,1.8-3.1,2.2-3.6.1-.1.2-.3.2-.4s.4-.9.9-1.7c.5-.8,1-1.6,1-1.8s.7-1.2,1.4-2.2,1.3-2,1.3-2.2.5-1.1,1-2.1,1.2-2.5,1.5-3.2c.3-.7.8-2.1,1.2-3.2.4-1.1.9-2.1,1-2.4.7-1.3,1.8-5.4,1.7-6.4,0-.5.6-.8,1.7-1,1.8-.3,5.8-1.3,7-1.8.3-.2.9-.3,1.2-.4,1.1-.3,5.5-2.5,7.6-3.9,2.1-1.4,5.7-4.6,4.9-4.3-.2,0-.9.3-1.4.4s-1.5.4-2,.6c-1.6.5-6.1,1.5-8.1,1.8-1,.2-2.7.5-3.7.6-1.6.3-3,.4-8,.3-3.5,0-6.4-.1-7-.2-.5-.1-1.9-.3-3.1-.4-1.2,0-2.2-.2-2.2-.3s-.5-.1-1.2-.1c-1.5,0-4.4-.4-7.2-.9-2.5-.5-4.9-.9-7.9-1.3-1.1-.2-2.2-.4-2.6-.5s-1.1-.3-1.7-.4-1.3-.2-1.4-.4c-.2-.1-.9-.3-1.6-.5-.8-.2-2-.5-2.8-.7-2.4-.7-7.5-1.8-8.3-1.8s-1.7-.2-3-.5c-4.7-.9-12.2-1.4-15.7-.9-.8.1-2.7.3-4.1.3-1.4,0-3,.3-3.4.4-.4.2-1,.3-1.3.3s-1.2.3-2,.6c-.8.3-1.6.6-1.7.6-.6,0-3.9,1.4-5.1,2.2l-1.3.8,1.1.7c1.2.8,1.7,1.2,4.1,3.1.9.7,1.8,1.3,1.9,1.4.2.1.8.6,1.3,1.1s1.3,1.1,1.8,1.4,1.2.9,1.7,1.4c.5.5,1.3,1.2,1.8,1.6,1.1.8,5.9,5,7,6,.4.4,1.5,1.3,2.4,2,.9.8,2.2,1.9,2.8,2.5s1.7,1.5,2.2,2.1l1,.9.5-1.9c.4-1.5.7-2.3,1.4-3.3,1.7-2.7,5.6-6.2,7.1-6.5.3,0,1.1-.3,1.7-.5,2.9-.8,6.6-1.4,8.9-1.3,1.1,0,2.5,0,3,0,.9,0,1,0,1.3.8.5,1.2.4,7.6-.2,12.3-.4,3-1.6,8.5-2.9,12.4-.8,2.6-2.5,7.2-3.1,8.3-.2.3-.3.7-.3.8s-.4,1-.8,2c-.5,1-.8,1.8-.8,1.9s-.9,2-1.9,4.2c-1.1,2.2-2.2,4.6-2.5,5.3s-.7,1.8-1,2.4c-.7,1.5-1.3,3-1.5,3.8-.1.4-.4,1.6-.7,2.6-.9,3.1-1.1,4.8-1.2,7.6v2.6c-.1,0,.7,2.4.7,2.4,1,3.1,1.6,4.1,3.6,6.1,1.4,1.4,4.3,3.9,4.7,3.9s.6.2,1.2.5c2.1,1,3,1.3,3.7,1.5.4,0,.8.2,1,.3.4.3,5.4.4,6.7.1h0ZM421.7,298.5c-2.9-.3-6.2-1.4-8.3-2.7-.7-.4-2-1.5-2.9-2.4-2.6-2.5-3.6-4.8-4.1-8.8-.3-2.5-.2-3.9.7-6.8.2-.8.6-2.1.8-3,.4-1.4,2.1-5.8,2.7-7,.2-.3.3-.8.4-1.1,0-.3.4-1.2.8-2,.4-.8.7-1.7.8-1.9,0-.3.8-2,1.7-3.8,1.8-3.7,1.9-4,3-6.4.4-.9,1-2.2,1.2-2.7.7-1.4,2.5-6.1,3.3-8.8.2-.7.8-3.4,1.3-5.9.9-4.7,1.2-7.6,1.2-11.4,0-2-.4-6.5-.6-6.6,0,0-1-.2-2.2-.4-2.8-.5-10-.6-12-.1-.8.2-1.9.4-2.5.4-.6,0-1.8.5-2.9,1-1,.5-1.8.9-1.9.9-.3,0-2.7,1.7-2.8,1.9,0,.2-.2.3-.4.3s-1,1-1.9,2.2c-.9,1.2-1.8,2.4-2,2.6l-.4.5-1.1-.9c-.6-.5-1.1-.9-1.1-1s-.3-.3-.6-.5c-.3-.2-1.2-.9-2.1-1.5-1.9-1.6-1.9-1.6-3.3-2.5-.7-.4-1.6-1.2-2.1-1.6-.5-.5-1.2-1.1-1.6-1.3s-.8-.6-.9-.7c-.5-.6-5-4.1-5.8-4.6-1.4-.8-2.6-2.1-2.6-2.6s1.8-1.5,4-2.2c1.8-.6,6.6-1.8,7.8-1.9.5,0,1.7-.2,2.7-.3,1.9-.2,2.8-.2,7,.4.8.1,2,.3,2.7.3.7,0,1.7.2,2.1.3.5.1,1.3.3,1.8.4,1.9.3,4.2.8,6.1,1.2,1,.2,2.4.6,3.1.7s2.6.6,4.2.9c1.6.3,3,.7,3.1.7.2.1,7,1.5,9,1.8.3,0,1.5.3,2.6.5,3,.6,6.7,1,11.6,1.3,2.4.2,5.4.4,6.6.5,2.8.3,7.4.3,9.4.1.8,0,2.6-.4,3.9-.6,2.5-.5,3.3-.6,3.3-.3,0,.5-4.7,2-9.1,2.9s-5.5,1.2-5.6,1.7c-.4,2.8-2.9,11.5-3.8,13.6-.2.4-.3.7-.3.8,0,.3-1.9,3.9-2.8,5.2-.9,1.4-1,1.6-2,3.3-.8,1.5-2.1,3.3-3.4,5.1-.5.6-.9,1.2-.9,1.3s-.3.6-.7,1.1c-.4.5-.7,1-.7,1.1s-.3.5-.6,1c-.5.8-1.6,3-2,4.1-.6,1.6-.8,2.2-1.1,3.9-.4,2.1-.3,3.8.4,5.8.5,1.5.9,2,2.1,2.9,1.5,1.1,3.3,1.4,5.3,1.1,6.5-1.1,8-1.6,9.8-3,1.3-1.1,2.3-3.6,2.2-5.5-.1-1.3.2-1.6,1.4-1.7,5.1-.1,11.5-.1,14,0h3.1c0,.1,1.2,1.7,1.2,1.7.7.9,1.9,2.6,2.9,3.8,3.3,4.2,3.4,4.4,2.3,4.6-.6,0-4-.3-5.4-.6-2.4-.5-11.9-.9-15.5-.6-1.9.2-6.2.7-10.6,1.4-1.4.2-5.7,1.2-9.9,2.1-5.2,1.2-11.5,6-13.2,9.9-.2.4-.6,1.5-1,2.2-.8,1.7-1.3,4.6-1.1,6.3.3,2,1.5,3.7,3.5,4.8.7.4,1.1.4,2.7.4,2.5,0,4-.6,5.1-2.1.4-.5.8-1,.9-1.1s.3-.4.4-.8c.2-.5.4-.7.7-.7.5,0,.5,0,.3,1.7,0,1-.3,2.1-.5,2.6-.4,1.1-2,2.8-3.5,3.8-1.1.7-2.2,1-5.8,1.7-.2,0-1.1,0-2-.1h0ZM416.2,288.2c1.8-2.6,2.6-4.7,2.8-7.7.1-2-.2-3.7-.6-3.6-.3,0-.3,1-.1,2.5.1,1-.2,2-1.1,3.4s-2.2,2.9-2.5,2.9c-.5,0-1.6-1.1-2.1-2.1-.6-1.1-.6-4.7,0-6.1.4-.9.4-.9,0-1.5-.2-.3-.5-.6-.6-.6-.4,0-1.4,1.5-1.9,2.8-.8,2-.9,3.5-.5,4.9.4,1.4,1.6,3.6,2.5,4.4.8.7,2.7,2,3,1.9.1,0,.6-.6,1.1-1.4h0ZM416.6,279.8c0-.3-.2-.8-.4-.9-.4-.4-.4-.9.1-1.5.2-.3.4-.6.4-.7s.1-.3.3-.5c.3-.4,1-1.5,1.7-2.9.4-.8.5-1,.2-1.3-.7-.8-2.3-1.2-3.1-.6-.3.2-.3.3-.1.8.2.4.4.5.9.4.4,0,.7,0,.8.1s-.5,1.2-1.2,2.3-1.4,2.4-1.4,2.7c-.3,1.3.5,2.8,1.4,2.7.4,0,.4-.2.4-.7h0ZM421.2,276.8c.8-.6,2.2-1.9,2.8-2.8.7-1,1.6-3.6,1.6-4.6s-.2-1-.3-1.4c-.4-.8-2.1-2.6-2.4-2.6s-.8,1-.6,1.2c1.2.9,1.6,1.5,1.5,3.1,0,.8-.2,1.6-.5,2.2-.6,1.2-2,2.9-3.1,3.6-.8.5-.9.7-.4,1.2.4.5.7.5,1.3,0h0ZM415.3,275c.3-.4.3-.6-.3-1.7-.3-.7-.6-1.5-.6-1.9,0-1,.7-3.4,1.2-4,.2-.3.4-.7.4-.8s.2-.4.5-.7l.5-.5-.8-1.3-.6.4c-.7.5-1.5,1.7-2.2,3.1-.4.9-.5,1.3-.5,3s0,2,.8,3.4c.4.8.9,1.4,1.1,1.4s.4-.2.6-.5h0ZM421.7,270.1c.8-.6,1-1.1.5-1.8-.3-.4-.3-.4-.7.2-.5.6-.7.7-1.1.2s-.3-1.4.2-1.9,1.9-3.1,2.3-4.1c.2-.5.5-1.1.6-1.3.2-.3.1-.5-.4-.9-.5-.4-.8-.5-1.8-.4-1.1,0-1.2.1-1.3.5-.1.9,0,1,.9.8,1.4-.4,1.4.4,0,2-1.1,1.3-2.1,3.6-2.3,5.1-.1,1.1-.1,1.2.4,1.6.7.6,1.6.6,2.6,0h0ZM427.2,264.9c1.2-1.2,2-3.2,2-5.1s-.1-1.6-.6-2.6c-.7-1.5-1.5-2.3-2-2-.6.4-.5.7.1,1,.6.3.9.9,1.1,2.7.2,1.5-.7,4.1-1.8,5.4-.5.5-.5.6-.3,1.1.2.3.3.5.4.5s.6-.4,1-.9h0ZM419.1,264.1c.4-.6.3-.7-.2-1.6-.3-.6-.5-1.3-.5-1.8,0-.8.7-3.5,1-3.7,0,0,.4-.4.8-.9l.7-.8-.4-.8c-.2-.5-.4-.8-.5-.8-.5,0-1.4,1.6-2.7,4.5-1,2.2-1,3.3-.2,4.9,1.1,1.9,1.3,2.1,1.8,1h0ZM424.9,259c.4-.3.4-.4.3-.7-.1-.2-.1-.4,0-.5,0,0,0-.1-.1,0-.2,0-.5,0-.8-.2-.7-.5-.5-1.2.8-2.8,1.2-1.4,2.3-3.5,2.3-4.2s-.5-1.1-1.3-1.2c-.5-.1-.9,0-1.9.8-.2.1.4.7.8,1,.3.1.5.4.6.6,0,.4-1,2-2.6,3.9-1.1,1.4-1.4,2-1,2.6.5.9,2.1,1.3,3,.7h0ZM429.8,254c.8-.5,1.8-1.7,2.6-3.1.3-.6.8-1.3,1.1-1.7.4-.5.5-.9.5-1.5,0-1.2-.6-2.9-1.3-3.8l-.6-.7-.6.6c-.8.7-.8.8-.1,1.6.7.9.9,2.2.4,3.3-.4.9-1.6,2.9-2.8,4.4-.8,1-.8,1-.3,1.2.2,0,.4.1.4.1,0,0,.4-.2.7-.4h0ZM422.9,253.5c.1-.3.1-.7,0-1-.8-2,.6-6.3,2.7-8.7.4-.5.8-1,.8-1.1,0-.3-1-1.4-1.3-1.4s-1.9,2.5-2.1,3.1c0,.1-.2.6-.4,1-.4,1-.7,1.8-1.1,4.1-.3,1.6-.3,1.7,0,2.7.5,1.4.7,1.8,1,1.8s.4-.2.5-.5h0ZM430.1,248c.2-.1.3-.4.3-.6,0-.4-.1-.4-.7-.3-1.4.2-1.7-.7-.7-2.1.4-.5,1.3-1.6,2-2.5,1.5-1.7,2.4-3.2,2.4-4s-.6-1.5-1.3-1.8c-.9-.3-1.5-.3-2.3.2-.7.4-.8.8-.5,1.8.1.4.2.5.6.4.3,0,.7,0,.9,0,.8.3.4,1.3-1,2.7-1.7,1.7-3.1,4.6-2.7,5.6.3.8.9,1.1,1.9,1,.5,0,1-.2,1.2-.3h0ZM436.3,243.2c2.8-3,4.2-5.7,4.2-8,0-1.2-.1-1.5-.8-2.5-.8-1.1-2.6-2.8-3.1-2.8s-.5.3-.7.7l-.4.7,1.2,1.5c.7.8,1.3,1.7,1.4,2,.3.7,0,2.4-.5,3.5-.4.8-2,3.2-2.9,4.2-.5.5-.5.6-.2,1.1.2.3.4.5.6.5s.6-.4,1.1-1h0ZM428.5,241.7c.2-.4.2-.6.1-.8-.8-1.1-1-1.5-1.2-2.4-.1-.6-.1-1.8,0-2.7.1-1.3.3-1.9,1-3.3l.8-1.7-.6-.6c-.3-.3-.6-.6-.7-.5-.4.2-1.3,2.2-1.9,4.1-.6,1.8-.7,2.3-.6,3.3.2,1.4.9,3.4,1.3,3.6.2.1.5.5.7.9.4.8.7.8,1.1,0h0ZM434.6,234.7c.8-.8,1-1.2.5-1.6-.3-.2-.3-.2-.3,0,0,.5-.7.8-1.2.5-.9-.5-.4-1.9,1.4-4.1,2.1-2.5,3.1-4.4,2.9-5.5-.2-.7-1.2-1.5-2-1.5s-1.5.4-2.6,1.6c-.7.8-.9,1-.7,1.5,0,.3.2.6.3.6s.6-.3,1-.7c1-.8,1.5-.9,1.7-.4.2.4-.5,1.8-1.3,2.6-.3.3-.8.9-1.1,1.3-.8,1-2.6,4.6-2.6,5,0,.8,1.2,1.4,2.7,1.4.4,0,.8-.2,1.4-.8h0ZM439.6,229.8c0-.1.5-.8,1.2-1.6,1.3-1.5,1.7-2.3,2.1-3.6.3-1,0-2.9-1-4.6-.3-.6-.8-1.5-1-1.9-.6-1.2-1.9-2.7-2.5-2.8-1.2-.3-3.7,1-6.6,3.4-2,1.7-2.7,2.5-3.6,3.8-.6.9-.7,1.1-.6,2.1.2,1.8.5,2.5,1.7,3.8l1.2,1.3.9-1.1.9-1.1-.9-.9c-.7-.7-.9-1-.9-1.5,0-1,.7-2.1,2.3-3.7,1.8-1.8,2.9-2.4,4.4-2.5,1,0,1.1,0,1.8.8,1,1.2,1.7,2.7,1.7,3.8s-1,3.4-2,4.5c-.7.8-.7.9-.2,1.5.4.4,1.2.6,1.2.3h0ZM395,223.1c1.3-.7,1.4-3.8.2-6.6-.5-1.1-.8-1.6-1.6-2.7-1-1.3-1.2-1.4-1.7-1-.4.3-.3.3.3,1,.9.9,1.2,1.7,1.5,3.1.4,1.8.4,2.7-.2,2.9-.4.2-.6.1-1.7-.6-1.2-.8-2.6-1.3-2.6-.9,0,.9,4.1,4.8,5.2,5,0,0,.2,0,.5-.2h0ZM392.4,216.3c-.5-.9-.8-1.1-2.2-1.4-3.3-.7-5.8-1.9-6.5-3-.3-.6-.3-1.6,0-1.9.4-.3,2-.4,2.7,0,.5.2.7.2,1.1-.2l.5-.4-.5-.3c-1.4-.9-2.9-1.1-4.4-.8-1,.3-2.2,1.4-2.2,2,0,1.3,1.8,3.1,4.3,4.2,1.7.8,5.8,2,6.8,2,.4,0,.4,0,.3-.3h0ZM399.9,215.4c.7-.4,1.9-1.1,2.8-1.7l1.5-1.1-.4-.5c-.6-.7-4.7-2.6-6.1-3-2.2-.5-5.3-.2-7,.7-.6.3-2.1,1.8-2.5,2.6-.2.4-.2.5.1.8.5.6,1,.5,1.7-.4.9-1,1.4-1.3,3-1.8,1.6-.5,2.5-.4,4.6.5.4.2.7.3.8.3s.4.1.6.3c.6.4.1,1-1.3,1.7-1.1.5-1.2.6-1.1,1.1,0,.3.3.7.5,1,.5.6,1.2.5,2.9-.4ZM196.8,293.5c-.2-.4-.3-1.4,0-3.9.2-2.8.7-8,1-10.2.1-.8.3-2.3.3-3.2,0-.9.2-2.4.3-3.2.1-.8.3-2.8.3-4.2,0-1.5.2-2.9.2-3,.2-.4.3-2.7.6-9.1.2-5.1.2-5.7-.1-6.9-.4-1.7-.8-2.4-1.5-2.9-.9-.7-2.6-.5-4.1.5-.6.4-.8.6-1,1.5-.3,1.3-.9,12.5-.9,16.7,0,2.2.4,3.9,1.1,4.5.5.4.4,1.1-.3,1.4-.4.2-.7.2-.9.1-.3-.2-1.3-.2-7.3,0-2.2,0-6.9.2-10.3.2-3.5,0-6.6.1-7,.2s-.8,0-1,0c-.3-.2-.3-.3,0-.9.2-.4.5-.7.6-.7.4,0,1.3-1,2.4-2.7,1.4-2,2.4-4.3,2.6-6,.1-.9.5-2.6.7-3.2.2-.5.3-1.2.6-5.5.1-1.2.3-3.1.4-4.2.3-2.8.2-5.5-.4-6.7-.7-1.5-1.6-2.9-2.2-3.2-.3-.2-.5-.3-.5-.4s-.3-.3-.6-.5c-.3-.2-.7-.5-.8-.7-.4-.8.5-.9,8.2-1.1,3.9,0,7.9-.2,8.9-.2,4.6-.3,6.7-.3,6.9,0,.2.1.3.8.3,1.7v1.5l.8-.3c.4-.2,1.9-.7,3.4-1.2s2.8-.9,3-.9,1.2-.2,2.2-.5c2.7-.7,5.2-1.1,8.1-1.3,1.4-.1,2.7-.2,2.7-.1,0,0,.8.1,1.5.2,1.6.1,1.8.2,3.8,1.1,1.2.6,2.1,1.4,2.7,2.6.6,1.2.7,4.4.4,8.5,0,.6-.2,1.8-.2,2.7s-.2,2-.2,2.4-.2,1.2-.2,1.8c0,.6-.2,1.5-.3,1.9s-.2,1.4-.2,2.2-.1,1.8-.2,2.2c-.3,1.2-.3,8.2,0,8.8.1.3.5.7.8.9,1.2.8,6.4.2,8.3-1.1.5-.3,1.5-.2,1.9.2.3.4-.3,1.4-.9,1.6-.2,0-.8.5-1.3.9s-1.3,1.1-1.8,1.5c-.5.4-1.1.8-1.5,1s-1.1.7-1.6,1.1-1,.8-1.1.8c-.2,0-1.3.8-1.9,1.3-.3.2-.6.5-.8.6-1,.6-2.9,1.9-3.6,2.5-.5.4-1,.7-1.3.8-.4.1-1.6,1-7,4.9-1.1.8-2.5,1.8-3.2,2.3-.7.5-1.8,1.3-2.6,1.8s-1.8,1.2-2.3,1.6c-.5.3-1.2.8-1.5,1-.8.5-2,1.2-2.2,1.2s-.3-.1-.3-.2h0ZM203,286.1c1.1-.7,2.5-1.7,3.1-2.2.6-.5,2.7-1.9,4.6-3.2s3.8-2.6,4.2-2.9,2-1.5,3.6-2.6,2.8-2.1,2.8-2.2-.3-.2-.6-.2c-1.2,0-2.6-1-2.6-1.9s-.2-.5-.4-.8c-.4-.4-.4-.6-.5-3.2,0-1.5,0-3.4.1-4.1.1-1.1.6-6.2.9-8.9,0-.5.3-3.2.6-6.1.6-5.6.6-7.1,0-8.5-.4-.8-.5-1-1.8-1.6-2.8-1.3-6.8-1.4-11.1-.3-1.3.3-3.1.8-4,1-1.5.3-2.6.7-5.2,1.7-1.5.6-5.3,1.6-5.3,1.5,0-.1-.3-.4-.5-.7-.3-.3-.4-.7-.4-1.3,0-1.7.5-1.6-4.4-1.4-6.1.2-10,.4-10.2.5,0,0,.1.9.4,1.9.4,1.7.7,3.5.8,5.2,0,1.6,0,3.3-.2,5.5-.2,1.7-.5,4.4-.6,5.9-.2,1.5-.4,3.3-.6,4s-.5,1.9-.7,2.7c-.2.8-.5,1.9-.8,2.6s-.4,1.2-.4,1.2c0,0,14.5,0,14.6,0,0,0,.2-1.9.4-4.2s.5-5.6.6-7.5c.2-1.8.3-4.3.4-5.5,0-1.2.2-2.2.3-2.3.1-.1.2-.5.2-.8,0-.7.4-2.1.7-2.5.1-.1.5-.4.9-.5.4-.1,1.1-.4,1.5-.6,3.3-1.5,6.5-1.5,7.8,0,.8.9,1.9,4.3,1.7,5.4-.2.8-.3,3.1-.4,6.9,0,2-.2,4.1-.3,4.6s-.2,2.9-.3,5.2c0,2.3-.2,5-.3,6-.2,1.8-1,14.6-1,15.3,0,.5.2.4,2.5-1.2h0ZM203.4,282.6c-.2-.6,0-3.5.5-6.8.2-1.2.3-2.7.3-3.4,0-1.6.2-6,.4-10.2.2-3.3.3-3.8.6-7.1.1-1.1.2-3.5.2-5.3,0-3.2,0-3.2-.6-4.4-1.1-2.2-2.5-3.6-3.9-3.9-.4,0-.7-.3-.7-.5,0-.4.6-.7,3-1.2,1.1-.2,2.2-.5,2.5-.6.3-.1,1-.3,1.6-.3s1.3-.2,1.4-.3c.4-.2,4-.3,5.3,0,1.2.2,1.9.8,2.6,2.2.4.9.5,1.3.4,3.8,0,1.6-.2,3.6-.3,4.6-.3,1.7-.5,3.4-1.3,10.3-.5,4.1-.7,8.9-.4,10.5.1.7.5,1.6.9,2.4.7,1.2.7,1.2.4,1.6-.4.5-2.6,2-4,2.8-.5.3-1.2.8-1.6,1.1-.4.3-1.6,1.3-2.8,2.2-4.2,3.4-4.1,3.3-4.5,2.5h0ZM185.6,266.1c0,0-2-.1-4.3-.2s-4.3-.2-4.3-.2,0-.3,0-.6c0-.3.1-.6.1-.7s.1-.6.3-1.1c.3-.8.8-2.9,1-4.6.6-4.2.7-5.2.6-9.7,0-4.5-.1-5.2-.8-6.8-.3-.7-.2-1.5,0-1.5.3,0,4.5-.5,7.3-.6.9,0,1.6-.1,1.7-.1.2,0,1,.3,1,.4.2,1.1.1,2.2-.1,4.2-.2,1.3-.4,3.5-.5,4.7-.4,4.8-.8,9.6-.9,10.2,0,.3-.2,1.3-.2,2.2,0,.9-.2,1.7-.3,1.8,0,.1,0,.7,0,1.3.1.8.1,1.1,0,1.3-.3.2-.6.2-.8,0h.1ZM293.5,291.7c-.3-.2-1.2-.8-2-1.5-.8-.6-1.8-1.3-2.1-1.5-.8-.5-3.3-2.5-6.5-5.1-1.4-1.1-2.8-2.2-3.1-2.4-.6-.3-4.4-3.2-5.9-4.6-.6-.5-2-1.6-3.2-2.6-1.2-.9-2.8-2.2-3.5-2.9-1.2-1.1-1.3-1.3-1.1-1.7.3-.5.8-.6,1.8-.1.4.2,1.3.4,1.9.4,1.3.1,1.8,0,3.5-1.4,1.2-.9,1.8-1.6,2.3-3,1.5-3.5,2.7-14.7,1.9-18.5-.7-3.2-.6-3.8.2-4.1.3,0,.8-.4,1.1-.6,1-.7,14-7.4,14.4-7.4s.9-.3,1.7-.7c2.2-1.1,2.6-.9,2.3.9-.1.6-.2,2.3-.3,3.7-.2,3.3-.1,3.3,2.9.9,1.9-1.5,3.4-3,3.5-3.7,0-.3.3-.9.5-1.2.4-.6.5-.7,1.6-.8.6,0,4.6-.2,8.9-.2,6.5,0,7.9,0,8.2.3.9.6.6,1.1-1.4,2.3-.6.4-1.4.9-1.8,1.3s-1.3,1.1-2,1.6c-2.7,2.2-5,5.5-6.2,9-.9,2.6-.9,2.5-1.3,6-.3,2.4-.2,3.7.5,6.6.6,2.6.6,3,.2,3.4-.4.3-.4.3-1.4-.3-5.3-3.1-10.1-8-11-11.2-.1-.4-.8-.5-1.7-.2-.4.1-.5.3-.4.9,0,.4,0,1.4-.1,2.1-.2,2-.6,19.1-.6,28.4,0,6.4-.1,7.8-.3,7.9-.4.3-.8.2-1.4-.2h0ZM292.6,283.5c0-2.1.2-5.7.2-7.8,0-2.2.1-5.4.2-7.2,0-1.8.2-5.5.2-8.3.1-6.6.3-9.2.6-9.7.1-.2.2-.5.2-.7-.2-.5.4-.8,2.4-1,1.3-.2,2.1-.4,3.3-.9,1.7-.8,2.1-.8,1.9,0-.3,1.2,0,2.6,1.4,5.6.9,1.9,2.8,4.7,3.3,4.9.2,0,.3-.3.2-2.4-.2-3.9.5-7.3,2.3-11.1,1.6-3.4,3.8-6.2,6-7.7.7-.5,1.3-.9,1.2-1s-2.2,0-4.7.2c-5.1.3-5.1.3-5.9,1.8-1,1.8-4,4.3-6.8,5.7-2.1,1-3.3,1.2-3.9.6-.4-.4-.4-.8-.5-3.6,0-1.9-.1-3.1-.3-3.1s-1.4.6-2.9,1.4-3.9,1.9-5.4,2.6c-3.2,1.4-4.5,2.1-5,2.5-.3.3-.3.4,0,1.4.6,1.9.9,5.6.6,7.8-.1,1-.3,2.9-.4,4.1-.2,2.1-.5,3.8-1.1,5.5-.2.5-.3,1.2-.4,1.6-.1.7-.9,2.4-1.9,4.1-.5.9-1.4,1.8-1.7,1.8s-.4.2-.5.3c-.2.2-.7.5-1.2.8l-1,.5.5.4c.3.2,1.4,1.2,2.7,2.2s2.6,2,3,2.4c.4.4,1.2.9,1.6,1.3,1.4,1,3,2.2,4.3,3.4.7.6,2,1.6,2.9,2.3s2,1.6,2.4,2c1.2,1,1.6,1.3,1.8,1.3.2,0,.3-1.2.4-3.9h0ZM287.8,281.4c-2.2-2.1-7.3-6.3-7.8-6.5-.1,0-.5-.3-.9-.6s-.9-.6-1.2-.7-.5-.3-.6-.5c-.1-.4,0-.5,1.9-3.6.7-1.1,1.4-2.4,1.7-3,.6-1.4,1.4-3.9,1.3-4.4,0-.2,0-.7.2-1,.3-.7.7-3.7.5-4.2,0-.2,0-.5,0-.7.2-.4.3-7.4.1-9-.1-1,0-1.3.2-1.7.2-.3.5-.5.7-.5.3,0,4-1.7,6-2.9,1.1-.6,1.7-.6,1.9.2.1.3.2.7.1.9-.1.3-.7,6.7-.8,9.4,0,1.2-.2,2.6-.2,3.1-.7,7.5-1,25.6-.5,26.3.2.3,0,1.6-.3,1.6-.1,0-1.2-.9-2.5-2.1h0ZM304.4,251.6c-.4-.3-1.1-3.4-1.2-5.2-.1-1.4-.2-1.6-.7-1.2-.2.2-.8.5-1.4.7-1,.4-1.1.4-1.4.2-.2-.2-.3-.4-.2-.5,0,0,.8-.5,1.6-.9s2-1.2,2.6-1.8c1.2-1.2,3.5-3.8,3.8-4.3.3-.4,3.3-.7,3.3-.3s-.4.8-1,1.4c-1,1.2-1.9,2.6-2.3,3.3-.1.3-.3.6-.5.8-1.3,2-1.4,2.3-1.8,5.9-.1,1-.3,1.9-.4,2s-.3,0-.5-.1h0ZM87.2,279.2c-.2-.3.1-.7,1.8-2.4,3.5-3.6,4.8-5.6,5.9-8.9,1.4-4.1,1.5-4.4,1.7-8.8,0-1.4.2-2.8.2-3,.4-4.5.5-6.7.6-12.3,0-4.8-.2-7.7-.9-10.2-.2-.9-.5-1.7-.5-2,0-.2-.3-.6-.4-.9-.4-.7,0-1,.7-.6.3.2.8.3,1.1.3s.7.1.9.3c.2.2,1.9.8,3.8,1.4s3.6,1.2,3.8,1.4c.2.1,1.1.4,2,.7s2.1.7,2.8.9c2,.8,3.3,1.2,3.7,1.2s.9.2,1.6.5c1.9.8,3.2,1.1,4.3,1,.6,0,2.6-.2,4.4-.3,1.9-.1,3.5-.3,3.5-.3s2.2-.1,4.7-.2c2.5,0,5.5-.2,6.5-.2,1.4,0,2,0,2.1.1,0,.1.1.8,0,1.5-.1,1.1,0,1.2.3,1.1,1.6-.5,2.7-.9,4.4-1.6,1.1-.5,2.4-1,2.9-1.1.5-.2,1.6-.6,2.5-.9,4.7-1.6,6.5-2,9-1.9,1.1,0,2.1.2,2.3.3s.7.2,1.1.2.8.1.9.4c.2.2.4.4.6.4.5,0,2.5,2,2.7,2.7.7,2.1.6,4.7,0,10.5-.4,3.1-.4,10.8,0,11.7.3.8,1,1.9,1.6,2.5,1,1.1,1,1.1.5,1.5-.3.2-.9.5-1.4.6-.5.1-1.3.5-1.8.7-.5.3-1.3.6-1.7.7-.4.1-1.8.6-3.1,1-1.3.5-2.8,1-3.4,1.2-.6.2-1.7.6-2.3.8s-1.6.6-2.1.7c-1.6.5-4.1,1.3-6.4,2.1-1.2.4-2.4.8-2.6.7-.5-.1-.6-.9-.4-2.5.3-1.8.4-2.7.5-4.6.2-2.9.5-5.8.8-7.8.3-2.1.7-5.3.8-8.1.1-1.9,0-2.3-1-2.3s-4.2,1.2-4.5,1.9c-.5.9-1,6.1-1.4,12.6-.1,2.2.3,4.2,1.2,6.3.7,1.5.7,2.4-.1,2.3,0,0-1.1,0-2.3-.1s-3.5-.2-5.2-.2c-1.6,0-3.3-.2-3.6-.3s-1.1-.1-1.5,0c-.5,0-1.9,0-3.2,0-1.3,0-3.3-.2-4.5-.2s-2.2-.1-2.7-.3c-.4-.2-.8-.3-1.2-.2-.3,0-.8.2-1,.2-.5,0-1.1.2-4.4,1-.7.2-1.5.4-1.8.6-.3.2-1,.4-1.5.5s-1.4.5-1.9.7-1.3.6-1.8.7c-.5.2-1.1.4-1.4.5s-1.7.6-3.2,1.2c-4.4,1.6-7.1,2.6-7.4,2.8-.3.3-3.7,1.6-4.5,1.7-.4.1-.7,0-.9-.2h0ZM110.3,268.2l2.7-.9v-2.6c0-1.4,0-2.8.1-3.2,0-.3.1-2.5.2-4.7.3-8.4.7-14,1.2-15.6.1-.5.2-.9.1-.9s-1.8-.7-3.8-1.4c-2-.7-5.3-1.8-7.2-2.5s-3.5-1.2-3.6-1.2c0,0,0,.4.2.8.3,1,.2,15.4-.2,20-.6,8.6-.9,10.4-2.4,14.2-.4,1-.7,1.9-.7,2s1.8-.3,5.4-1.5c3-1,6.6-2.1,8.1-2.6h0ZM100.4,269.2c0-.1,0-.3.1-.5.3-.4,1.2-4.5,1.3-6.1,0-.7.3-2.5.4-4,.2-2.2.3-4.5.2-10.4-.1-8.7-.2-9.5-.5-9.7-.2,0-.2-.3-.1-.4.2-.3,1.4-.1,2.1.3.3.2,1.3.6,2.2,1,2.8,1.1,5.2,2.3,5.3,2.6,0,.2,0,.4,0,.6s-.2,1.2-.3,2.3c0,1.1-.2,2.1-.2,2.1-.2.3-.4,9-.3,12.7,0,2,0,4.2,0,4.7,0,1.3-.4,1.7-2.1,2.1-.7.2-2.2.7-3.3,1.1-1.1.5-2.1.8-2.3.8s-.7.2-1.1.5c-.8.5-1.3.6-1.5.3h0ZM150.7,268.2c1.3-.4,3.7-1.3,5.3-1.8,1.7-.6,3.3-1.2,3.6-1.3.3-.2,1.1-.4,1.7-.6.6-.2,1.8-.5,2.6-.8.8-.2,1.5-.5,1.5-.5s-.2-.6-.4-1.2c-.6-1.8-.8-3.8-.7-7.4,0-3.2.3-4.9.7-7.5.8-4.2.5-7.3-.7-8.7-1-1.1-2.5-1.5-5.2-1.5-2.4,0-5.3.8-8.7,2.3-.3.2-1.3.5-2.1.7-.8.3-1.8.5-2.2.7s-2,.8-3.6,1.5c-3.1,1.4-3.8,1.5-3.7.7.2-2.4.1-3.2-.2-3.3-.2,0-1.8,0-3.6,0-1.8.1-4.6.2-6.1.3-1.5,0-2.9.2-3,.3-.2.2-.2.3,0,1,.6,1.8.7,5,.4,9.3-.5,8.5-1.1,12.8-2,15.2-.2.6-.4,1.1-.3,1.1h13.3v-2.4c0-1.3.2-4,.4-6s.4-4.7.5-6c.3-3,.5-4.1,1-4.8.4-.5,1.4-1.1,4-2.4,1.1-.5,3.4-1.1,4.5-1.1,2.8,0,3.1,1.7,1.7,12.8-.3,2.8-.7,6.1-.8,7.3-.1,1.2-.3,2.8-.3,3.4s0,1.2,0,1.2,1.1-.4,2.4-.8h0ZM150.2,266.9c-.2-.6-.2-2.7,0-3.3.1-.5.3-1.3.3-1.9,0-.6.2-1.8.3-2.6.1-.8.3-2.3.4-3.2.4-3.1.6-4.9.8-6.7.2-1.7.2-3.4-.3-4.8-.3-1.1-1.5-1.8-3.3-1.8s-1.4,0-1.3-.4c.1-.6,5.4-2.1,9.2-2.7.7-.1,1.4-.2,1.5-.3.2,0,.9,0,1.6.2,1.4.3,2.5,1.2,3.2,2.4.5,1,.6,4.7,0,7.2-.2,1.2-.6,3.7-.8,5.6l-.3,3.5.5,1.6c.3,1,.6,1.7.9,1.9l.4.4-.5.4c-.3.2-1,.5-1.7.7-2.2.6-3.2.9-5.5,1.6-3.9,1.3-4.4,1.4-4.7,1.9-.3.4-.8.6-.8.4h0ZM132.5,265.5c-.1,0-1.4-.2-2.9-.3-2.9-.2-3.3-.4-2.9-1,.1-.2.3-.8.3-1.3s.1-1.9.3-3.2c.2-1.3.4-3.1.5-4.1s.3-4,.3-6.7c.1-6,.2-6.5.8-6.8.5-.2,4.9-.7,6.4-.7.8,0,.9,0,1.1.6.3,1,0,7.9-.7,14.4-.3,3-.2,7.1.1,8,.3.9,0,1.2-1.6,1.1-.7,0-1.4,0-1.5-.1h0ZM119.1,267.7c1.3-1.5,1.8-2.7,2.6-6.1.3-1.4.6-2.7.6-2.8,0-.1.3-2.8.9-9.3.1-1.3.2-2.4.3-2.5.2-.4-.3-4.2-.6-5.3-.2-.7-.5-1.3-.8-1.5-.3-.2-.7-.6-.9-.8s-.6-.5-.9-.7c-.4-.2-.5-.2-.9.4-.8,1.2-1.7,3-2,4.5-.5,2.2-.7,5.7-.9,17.4,0,4.9,0,5.8.2,6.7.2.7.6,1,1,.9.5,0,1-.4,1.4-.9h0ZM331.9,277.4c-.3,0-1.2-.2-2-.3-5.4-.8-12.7-4.8-14.3-7.9-.2-.3-.5-.7-.7-.8-1.1-.8-2.8-5.5-3.2-8.7,0-.6-.2-1.7-.3-2.6-.1-.9-.2-2.2-.1-3.1.2-1.9.7-4.5,1.1-5,.1-.2.3-.5.4-.8,0-.3.3-.7.5-1,.2-.3.5-.8.6-1.1.8-1.8,2.4-3.9,4.7-6,2-1.8,2.8-2.4,5.4-3.8,4-2.2,5.1-2.6,8.8-3.3,1.9-.3,6.9-.2,8.9.3,5.4,1.3,7.7,2.3,9.9,4.2,3.1,2.8,4.3,4.2,5.1,6.3.2.6.5,1.2.7,1.4.2.3.3.8.4,1.2s.2.9.3,1.1c.7,1.2,1.1,8.3.7,9.6-.1.3-.2.8-.2,1.2,0,1.6-1.6,6.8-2.2,7.1-.1,0-.2.3-.2.5,0,.4-1.1,2.1-2.3,3.6-1.2,1.5-5.3,4.6-6.5,5-.5.1-1,.4-1.2.5s-1,.5-1.8.7c-1.3.5-1.7.6-3.6,1-2,.5-7.1.9-8.7.7h0ZM338.6,274.9c.7-.1,1.7-.3,2-.5.4-.2,1-.4,1.4-.5,2-.7,8.8-5.5,8.8-6.3s.2-.4.4-.6c1.2-1.2,2.8-4.6,3.6-7.4.8-3,.7-7.7-.2-10.2-2-5.3-3.8-7.9-7.5-10.4-1.5-1-5.2-2.6-7-3-1.6-.4-4.6-.5-6.3-.3-1.4.2-4.1,1-5,1.4-.2.1-1.2.6-2.2,1.1-2.5,1.2-3.9,2.2-5.1,3.5-.5.5-1.3,1.4-1.8,1.8s-1.2,1.2-1.5,1.6c-.3.4-.8.9-1,1.2-.7.8-2.1,4.1-2.6,6-.6,2.7-.5,7.1.3,10,1.3,5,3.4,7.6,8.1,10.1,1.9,1,5.8,2.3,7.4,2.5,1.8.3,6.5.3,8.1,0h0ZM331.7,273.4c-.9-.6-1.9-2.3-2.2-3.6-.5-2.1-.9-7.7-.9-12.3s0-5,.1-5.2c.1-.7.6-4.4.9-6.9.3-2.1,1-4.3,1.7-5.5.6-.9,2.1-2.1,3.4-2.8.9-.4,1-.4,2-.1,2.2.7,2.7,1.9,3.2,8.1.3,3.6.3,4.6,0,8-.1,1.5-.2,3.6-.1,4.6,0,2-.6,8.2-1.1,10.7-.2,1-.6,1.8-1.1,2.7-1.1,1.7-2,2.4-3.6,2.6-1.7.3-1.6.3-2.4-.3h0ZM335.1,268.7c.4-.3.8-.8,1-1.1.5-1,1.1-6.9,1.2-12.2,0-2.7.2-5.8.2-6.9.1-2.2-.2-5.1-.7-5.4-.2-.1-.3-.3-.3-.4,0-.7-1.4-1.2-2.3-.8-.5.2-1.2,1.8-1.7,3.6-.9,3.7-1.1,5.2-1.1,11.5s.3,10.1,1,11.2c.9,1.1,1.6,1.3,2.6.5h0ZM325.8,272.1c-.7-.3-1.5-.6-1.8-.7-.9-.3-1.7-.8-2.4-1.4-.4-.3-.8-.7-1.1-.8-.2-.1-.4-.3-.4-.5s0-.3-.2-.4c0,0-.6-.7-1.1-1.4-1.4-1.9-1.8-2.9-2.4-5.9-.1-.6-.3-1.4-.3-1.7s-.1-1.9-.2-3.5c0-2.1,0-2.9.3-3.2.2-.2.2-.5.2-.7-.2-.5,1.2-3.2,2.6-5,1.2-1.5,3.5-3.9,4.9-4.9.5-.3.9-.7,1-.8.4-.5,3.6-2.3,4-2.3s.4.1.5.3c0,.2-.3,1.4-.8,2.8-1.8,5-2.4,8-2.7,14.1-.1,2.8,0,3.8.3,6.4.5,3.3,1.1,5.9,1.8,7.9s.2,2.4-2.2,1.5h0ZM340.4,272.1c-.3-.3-.3-.4.3-1.6.3-.7.6-1.4.6-1.5s.3-1.1.6-2.2c.5-1.5.7-2.5.8-4.6.1-1.5.3-3.7.4-4.9.5-5.3,0-12.3-1.1-16.3-.2-.8-.2-1.2-.1-1.6.3-.8,1.4-.6,4.3,1.1.4.3,3.2,3.1,4.3,4.4.6.7.9,1.5,2,4.3.3.8.7,3.8.7,5.6,0,3.1-1.4,7.7-3.3,10.4-2.5,3.6-5.7,6.3-8,6.8-.4,0-.8.2-.9.3s-.4,0-.5-.2h0ZM352.1,277c-.3-.3-.1-1,.3-1.3,1.1-.8,3-2.8,3.6-3.9.4-.7,1-2,1.3-3s.8-2.2,1-2.6c.3-.8,1.2-4.4,1.6-6.8.3-1.9.3-8.4,0-11.1-.4-3.7-2-8-3.7-9.8-.5-.6-1-1.1-1-1.2,0-.2,1.2-.8,3.5-1.7,1.1-.4,2.5-1,3.1-1.3s1.7-.7,2.3-.9,3.8-1.2,7.1-2.3c9-2.9,13.6-4.3,13.9-4.3s.4.2.4.5c.1.3,0,.6-.4.9-.5.4-1,1.6-1.2,3-.1.8-.4,1.8-.8,3.1-1.5,5.1-2.3,12.3-2.7,22.3,0,2.1-.1,4.1,0,4.5,0,.7.1.7,1.1.7s1.9.2,3,.4,2.6.4,3.4.4c2.4,0,3.4-.2,8-1.4.3,0,.6-.2.7-.3.1,0,.5-.2.9-.3.4,0,.7-.2.7-.3s.1-.2.3-.2.6-.2,1-.5c.9-.6,1.4-.6,1.4.1,0,.3,0,2.6,0,5.2,0,4.5-.3,7.7-.7,8.4-.4.8-3.4,2.1-6.1,2.7-.8.2-1.5.3-1.6.4-.1,0-1.4.1-2.9.1-2.8,0-7.1-.6-13.1-1.7-4.1-.8-8.3-1-13.2-.5-3.8.3-4.1.4-5.3.8-1.3.4-4.4,1.7-4.6,1.9-.2.2-1,.2-1.2,0h0ZM392.9,273.2c1.9-.3,4-1,4.3-1.4s.5-7.9.3-7.9-.5.2-.9.3c-1.9.8-3.1,1.1-5.7,1.3-1.5.1-3,.2-3.3.1s-1.6-.3-2.8-.5c-1.3-.3-3.2-.4-4.7-.5-1.7,0-2.6-.1-2.8-.3-.4-.3-.4-3-.2-8.2.2-4.8.5-8.6.8-10.9.4-3,2.5-13.6,2.8-14.1,0-.1,0-.2,0-.2-.2,0-2.4.7-3,1-.3.2-10,3.4-14.3,4.9-1.9.6-3.2,1.1-3.2,1.2,0,0,.3.7.7,1.3.9,1.5,1.5,3.3,1.9,6.3.5,3.4.5,4.7.3,9.3-.2,4.3-.3,4.9-.5,5.8,0,.3-.3,1.3-.5,2.3-.2,1-.9,3.4-1.5,5.3s-1.1,3.5-1.1,3.5c0,0,.9-.1,1.9-.3,1.5-.3,3.1-.3,7.1-.3h5.2l4,.8c2.2.5,5,.9,6.2,1.1s2.2.3,2.3.3c.5.2,5.6,0,6.8-.1h0ZM385,271.1c-.8-.2-2.2-.4-3.2-.5-1-.1-2.4-.3-3-.4-2.7-.5-5.6-.6-11.2-.6s-4.4,0-4.5-.3c0-.2,0-.4,0-.5.1-.2.9-3.4,1.2-5.6.3-1.6.4-2.6.6-5.2,0-.7.2-2.8.4-4.7.3-2.8.3-3.7,0-5.1-.2-.9-.3-1.9-.2-2.3,0-.8-.5-3.7-1-5.5-.5-1.5-.4-2.1.2-2.1s.9-.2,1.6-.5c.7-.3,2.2-.8,3.4-1.2,3-1,3.4-1.1,5.4-1.9,1-.4,1.9-.7,2.1-.7.5,0,.7.4.4.7-.1.2-.3.5-.3.9,0,.3-.3,2.2-.6,4.1-.3,1.9-.6,4.1-.6,4.7s-.2,1.8-.2,2.4c0,.7-.2,1.5-.2,1.9s-.1,1.3-.2,2c-.2,1.6-.3,3-.4,6.8-.3,8.1-.3,8.6,0,8.6.2,0,.7,0,1.2,0,3.3.2,5.9.5,8.2,1,2.9.7,6.4.6,9.8-.3s1.4-.2,1.4-.2c0,.1.2.8.3,1.5.1,1.6,0,1.9-1.2,2.1-.4,0-.8.2-.9.3,0,.1-1.7.2-3.5.3-2.6,0-3.8,0-4.9-.2h0ZM250.4,273.3s-4.4,0-9.7,0c-7.9,0-9.7,0-9.9-.3-.3-.4-.2-.6,1-1.3,2.7-1.8,4-4.7,4.9-10.9.1-.9.3-2,.4-2.4.2-.9.3-2.2.5-6.2.2-3.6.4-3.4-2.7-2.5-2.4.7-4.1,1.7-6.4,4.1-1.9,1.9-3.7,5.1-4.2,7.4-.3,1.5-.6,1.8-1.2,1.6-.4-.2-.6-.8-.4-1.1.1-.1.2-.4.1-.7,0-.2,0-1.4,0-2.6s0-2.3,0-2.5c0-.7,0-4.2.1-4.9,0-.4.1-1.3.2-1.9s.2-2.2.3-3.3c.1-1.2.2-2.2.1-2.3,0-.1,0-1.5.1-3s.3-3.8.4-4.9c0-1.2.2-2.2.4-2.3.1-.1,1.4-.1,2.9,0,1.4,0,4.4.2,6.6.2,3.5.1,4,0,4-.2s-.4-.5-.8-.7c-.7-.4-1.2-.4-3.7-.4-3.8,0-4.4-.1-4.4-.7s1.2-1.3,4.1-2.5c1.1-.5,2.9-1.3,4-1.9,1.1-.6,2.2-1.2,2.5-1.2s.9-.3,1.4-.6c.5-.3,1.4-.7,2.1-1s1.7-.7,2.2-1,1.7-.8,2.7-1.2c1.9-.8,6.4-2.9,8.7-4,.8-.4,1.5-.7,1.6-.7s1.3-.5,2.6-1.1c2.1-1,3.2-1.5,4.7-1.9.6-.2.8.1.3.6-.1.1-.2.3-.1.3s0,.3-.3.7c-.4.8-1.2,3.7-1.7,6.1-.2.9-.5,2.4-.7,3.4-.4,2.2-.9,7.7-.7,7.9.1.1,2.6.2,5.9.2,3.2,0,6,.1,6.3.2s.8.2,1,.2c.4,0,.5.2.5,1.6s-.5,9.4-.8,11.2c-.2,1.6-.4,3.5-.5,6.7-.2,4.6-.5,7.2-.8,7.9-.2.4-.4,1.2-.4,1.8-.1.8-.3,1.1-.6,1.3-.6.3-.7,0-.9-1.4-.2-1.3-1.2-4.4-1.8-5.2-.2-.2-.3-.6-.3-.7s-.3-.7-.6-1.1-.6-.9-.6-1c0-.3-1.9-2.7-2.5-3.1-.3-.2-.6-.5-.7-.7-.4-.5-2.7-1.1-3-.8-.3.3-.4,1.9-.7,7.8-.2,4-.2,4.9.1,6.6.4,2.2,1.6,5,2.8,6.5,1,1.2,1,2.1.2,2.5-.4.2-2.9.2-7.7.2-3.9,0-7.2-.1-7.2-.1h0ZM259.3,269.8c0-.1-.2-1.1-.3-2.1-.3-1.5-.3-2.8-.2-8.5.1-6.2.3-8.3.9-11.4.2-1.2.8-1.7,1.9-1.7,2.6,0,6.1.8,6.8,1.6.2.2.5.5.6.6.3.2,1.2,1.4,2.5,3.2l.8,1.2.2-1.7c.2-1.9.3-13.8.2-14.5,0-.3-.2-.5-.4-.6-.2,0-2.8-.2-5.9-.2-3.1,0-5.8-.2-6.1-.2s-.7-.3-.9-.6c-.3-.5-.4-.6,0-2.3.5-2.7.5-3,.7-5.4.3-3.4.8-6.2,1.1-7.3.2-.5.3-1,.2-1.1,0,0-1.7.6-3.7,1.5-9.2,4.1-9.9,4.4-13,5.7-2.6,1-6.7,3.1-6.6,3.3,0,.1.2.2.4.2.4,0,1.6,1.2,2,2,.2.4.4,1.3.5,2.1.2,2,0,2-2.8,2s-4,0-6.4,0h-4.2v.7c0,.7-.9,9.5-1.3,12.9-.3,2.7-.3,2.8,1,1.1.5-.6,1.2-1.4,1.7-1.7,3.5-2.4,5-2.9,8.4-2.9s2.5,0,2.5.2c0,.1.4.2.8.2h.6c0,0,0,1.3,0,1.3,0,.7-.2,2.6-.3,4s-.3,3-.3,3.3c0,.7-.2,1.9-.6,4-.2.9-.4,2.5-.6,3.5s-.7,3.1-1.2,4.5c-.7,2.2-.8,2.6-.6,2.7.2,0,4,.2,8.4.3s8.1.1,8.1.2,1.1,0,2.5,0c1.7,0,2.5-.1,2.5-.3h0ZM254.7,268.1c0,0-3-.1-6.5-.2-5.2-.1-6.5-.2-6.7-.4s-.2-1.1.4-3.4c.3-1.2.8-4.9,1-7.6,0-.9.2-2.6.3-3.8.2-2.1.3-2.8.5-7,0-1.1,0-1.7-.1-1.7-.1,0-1.3-.2-2.6-.2s-2.9-.1-3.5-.2c-1.6-.2-4.8.3-5.6.7-.7.4-.8.5-1.9,1.4-.8.7-1.3.8-1.4.4-.1-.4,0-2,.3-4.4.1-1.1.2-2.2.2-2.7,0-.4.1-.8.3-1,.2-.2,2.4-.3,7.4-.3,5.5,0,7.1-.1,7.2-.3.2-.5-.4-5.3-.8-6.5-.5-1.5-.3-2,.5-2s1.8-.7,3.6-1.5c9.9-4.8,9.2-4.5,10-4.6.3,0,.8-.3.9-.6.3-.4.4-.4.7,0,.3.3.3.5.1,1.6-.1.7-.3,1.6-.3,1.9s-.2.8-.2.8c-.1.2-.4,6.4-.3,7.4,0,1.4,0,2.5,0,3.2v.7c-.1,0,1.8.2,1.8.2,1.1,0,3.1.2,4.4.2,4.2.2,6.2.3,6.6.5.4.2.4.5.3,4,0,4.1-.2,4.4-1,3.5-1.2-1.3-3.3-1.7-9.8-2l-2.9-.2v1.1c-.3,1.9-.5,4.4-.6,7.5-.3,9.4-.5,14.1-.6,14.6,0,.3-.3.5-.5.6-.2,0-.6.2-.8.2-.2,0-.4,0-.5,0"/>
    </g>
  </g>
</svg>